G04 #@! TF.GenerationSoftware,KiCad,Pcbnew,(5.1.9)-1*
G04 #@! TF.CreationDate,2021-06-19T06:27:31+02:00*
G04 #@! TF.ProjectId,ZXUnCore,5a58556e-436f-4726-952e-6b696361645f,rev?*
G04 #@! TF.SameCoordinates,Original*
G04 #@! TF.FileFunction,Copper,L2,Bot*
G04 #@! TF.FilePolarity,Positive*
%FSLAX46Y46*%
G04 Gerber Fmt 4.6, Leading zero omitted, Abs format (unit mm)*
G04 Created by KiCad (PCBNEW (5.1.9)-1) date 2021-06-19 06:27:31*
%MOMM*%
%LPD*%
G01*
G04 APERTURE LIST*
G04 #@! TA.AperFunction,ComponentPad*
%ADD10O,1.700000X1.700000*%
G04 #@! TD*
G04 #@! TA.AperFunction,ComponentPad*
%ADD11R,1.700000X1.700000*%
G04 #@! TD*
G04 #@! TA.AperFunction,ComponentPad*
%ADD12C,1.700000*%
G04 #@! TD*
G04 #@! TA.AperFunction,ComponentPad*
%ADD13O,1.350000X1.350000*%
G04 #@! TD*
G04 #@! TA.AperFunction,ComponentPad*
%ADD14R,1.350000X1.350000*%
G04 #@! TD*
G04 #@! TA.AperFunction,ComponentPad*
%ADD15O,1.600000X1.600000*%
G04 #@! TD*
G04 #@! TA.AperFunction,ComponentPad*
%ADD16R,1.600000X1.600000*%
G04 #@! TD*
G04 #@! TA.AperFunction,ViaPad*
%ADD17C,0.400000*%
G04 #@! TD*
G04 #@! TA.AperFunction,ViaPad*
%ADD18C,0.609600*%
G04 #@! TD*
G04 #@! TA.AperFunction,ViaPad*
%ADD19C,0.654800*%
G04 #@! TD*
G04 #@! TA.AperFunction,ViaPad*
%ADD20C,0.660400*%
G04 #@! TD*
G04 #@! TA.AperFunction,Conductor*
%ADD21C,0.406400*%
G04 #@! TD*
G04 #@! TA.AperFunction,Conductor*
%ADD22C,0.203200*%
G04 #@! TD*
G04 #@! TA.AperFunction,Conductor*
%ADD23C,0.254000*%
G04 #@! TD*
G04 #@! TA.AperFunction,Conductor*
%ADD24C,0.100000*%
G04 #@! TD*
G04 APERTURE END LIST*
D10*
X172100000Y-66870000D03*
X174640000Y-66870000D03*
D11*
X177180000Y-66870000D03*
D12*
X134220000Y-69840000D03*
X136760000Y-69840000D03*
X139300000Y-69840000D03*
X141840000Y-69840000D03*
X144380000Y-69840000D03*
X134220000Y-67300000D03*
X136760000Y-67300000D03*
X139300000Y-67300000D03*
X141840000Y-67300000D03*
G04 #@! TA.AperFunction,ComponentPad*
G36*
G01*
X143780000Y-66450000D02*
X144980000Y-66450000D01*
G75*
G02*
X145230000Y-66700000I0J-250000D01*
G01*
X145230000Y-67900000D01*
G75*
G02*
X144980000Y-68150000I-250000J0D01*
G01*
X143780000Y-68150000D01*
G75*
G02*
X143530000Y-67900000I0J250000D01*
G01*
X143530000Y-66700000D01*
G75*
G02*
X143780000Y-66450000I250000J0D01*
G01*
G37*
G04 #@! TD.AperFunction*
D13*
X181886000Y-116046000D03*
X181886000Y-114046000D03*
X179886000Y-116046000D03*
X179886000Y-114046000D03*
X177886000Y-116046000D03*
X177886000Y-114046000D03*
X175886000Y-116046000D03*
X175886000Y-114046000D03*
X173886000Y-116046000D03*
X173886000Y-114046000D03*
X171886000Y-116046000D03*
X171886000Y-114046000D03*
X169886000Y-116046000D03*
X169886000Y-114046000D03*
X167886000Y-116046000D03*
X167886000Y-114046000D03*
X165886000Y-116046000D03*
X165886000Y-114046000D03*
X163886000Y-116046000D03*
X163886000Y-114046000D03*
X161886000Y-116046000D03*
X161886000Y-114046000D03*
X159886000Y-116046000D03*
X159886000Y-114046000D03*
X157886000Y-116046000D03*
X157886000Y-114046000D03*
X155886000Y-116046000D03*
X155886000Y-114046000D03*
X153886000Y-116046000D03*
X153886000Y-114046000D03*
X151886000Y-116046000D03*
X151886000Y-114046000D03*
X149886000Y-116046000D03*
X149886000Y-114046000D03*
X147886000Y-116046000D03*
X147886000Y-114046000D03*
X145886000Y-116046000D03*
X145886000Y-114046000D03*
X143886000Y-116046000D03*
X143886000Y-114046000D03*
X141886000Y-116046000D03*
X141886000Y-114046000D03*
X139886000Y-116046000D03*
X139886000Y-114046000D03*
X137886000Y-116046000D03*
X137886000Y-114046000D03*
X135886000Y-116046000D03*
X135886000Y-114046000D03*
X133886000Y-116046000D03*
X133886000Y-114046000D03*
X131886000Y-116046000D03*
X131886000Y-114046000D03*
X129886000Y-116046000D03*
X129886000Y-114046000D03*
X127886000Y-116046000D03*
X127886000Y-114046000D03*
X125886000Y-116046000D03*
X125886000Y-114046000D03*
X123886000Y-116046000D03*
X123886000Y-114046000D03*
X121886000Y-116046000D03*
X121886000Y-114046000D03*
X119886000Y-116046000D03*
X119886000Y-114046000D03*
X117886000Y-116046000D03*
X117886000Y-114046000D03*
X115886000Y-116046000D03*
X115886000Y-114046000D03*
X113886000Y-116046000D03*
X113886000Y-114046000D03*
X111886000Y-116046000D03*
X111886000Y-114046000D03*
X109886000Y-116046000D03*
X109886000Y-114046000D03*
X107886000Y-116046000D03*
X107886000Y-114046000D03*
X105886000Y-116046000D03*
X105886000Y-114046000D03*
X103886000Y-116046000D03*
D14*
X103886000Y-114046000D03*
D15*
X161640000Y-67250000D03*
X154020000Y-74870000D03*
X161640000Y-69790000D03*
X154020000Y-72330000D03*
X161640000Y-72330000D03*
X154020000Y-69790000D03*
X161640000Y-74870000D03*
D16*
X154020000Y-67250000D03*
D17*
X169060000Y-80160000D03*
D18*
X144102805Y-96339566D03*
X127849537Y-100680047D03*
X127055930Y-95691128D03*
X127055930Y-98527066D03*
X129458274Y-102288784D03*
X133704368Y-103159878D03*
X139680930Y-103159878D03*
X127055930Y-86831753D03*
X133688743Y-84034878D03*
X135993430Y-84034878D03*
X141934837Y-84632534D03*
X142838759Y-85516134D03*
X145063574Y-87553009D03*
X144102805Y-93566128D03*
X128001243Y-84034878D03*
X118680930Y-93628628D03*
D19*
X119345140Y-96586241D03*
D18*
X144100000Y-101580000D03*
D17*
X174180000Y-79300000D03*
X173860000Y-95440000D03*
X175530000Y-87840000D03*
X176610000Y-107360000D03*
X175670000Y-75400000D03*
X159250000Y-81200000D03*
X159400000Y-76330000D03*
X164310000Y-70810000D03*
X160120000Y-85160000D03*
X151297309Y-88332691D03*
X156980000Y-88840000D03*
X150290000Y-89450000D03*
X156210000Y-89440000D03*
X160707309Y-93332691D03*
X165350000Y-85180000D03*
X149620000Y-101840000D03*
D20*
X111492730Y-93952259D03*
D18*
X145141868Y-94214566D03*
X127790305Y-92534878D03*
X130454368Y-102261441D03*
X137212180Y-102472378D03*
X145134055Y-89198941D03*
X145141868Y-99081753D03*
X141415305Y-102472378D03*
X136579368Y-84745816D03*
X139860618Y-84745816D03*
X141716087Y-85780972D03*
X127790305Y-97816128D03*
X127790305Y-95011441D03*
X130212180Y-84745816D03*
X143779827Y-87844709D03*
X116282493Y-96073941D03*
D17*
X179886000Y-95154000D03*
X169740000Y-88070000D03*
X173900000Y-90250000D03*
D18*
X123700000Y-94830000D03*
D17*
X181730000Y-70160000D03*
D18*
X127770000Y-85500000D03*
D17*
X146070000Y-80280000D03*
D18*
X136493430Y-101269253D03*
X142923118Y-94808316D03*
X129587180Y-94363003D03*
X137204368Y-86753628D03*
D17*
X177886000Y-97276000D03*
X162780000Y-96580000D03*
X132695000Y-97470000D03*
X127900000Y-81170000D03*
X120902691Y-84832691D03*
X122480000Y-85340000D03*
X128700000Y-81170000D03*
D21*
X144102805Y-96339566D02*
X144102805Y-99959359D01*
X144102805Y-99959359D02*
X144102805Y-102152066D01*
X130329368Y-103159878D02*
X132157493Y-103159878D01*
X132157493Y-103159878D02*
X133704368Y-103159878D01*
X133704368Y-103159878D02*
X137836340Y-103159878D01*
X137836340Y-103159878D02*
X139680930Y-103159878D01*
X128001243Y-84034878D02*
X127055930Y-84980191D01*
X127055930Y-84980191D02*
X127055930Y-86831753D01*
X127055930Y-86831753D02*
X127055930Y-95691128D01*
X127055930Y-98527066D02*
X127055930Y-99886441D01*
X127055930Y-99886441D02*
X127849537Y-100680047D01*
X127849537Y-100680047D02*
X129458274Y-102288784D01*
X129458274Y-102288784D02*
X130329368Y-103159878D01*
X128001243Y-84034878D02*
X133688743Y-84034878D01*
X133688743Y-84034878D02*
X135993430Y-84034878D01*
X135993430Y-84034878D02*
X141337180Y-84034878D01*
X141337180Y-84034878D02*
X141934837Y-84632534D01*
X141934837Y-84632534D02*
X142838759Y-85516134D01*
X142838759Y-85516134D02*
X144216521Y-86914219D01*
X144216521Y-86914219D02*
X144855312Y-87553009D01*
X144102805Y-93566128D02*
X144102805Y-96339566D01*
X127055930Y-95691128D02*
X127055930Y-96545600D01*
X127055930Y-96545600D02*
X127055930Y-96606559D01*
X127055930Y-96606559D02*
X127055930Y-98527066D01*
X118680930Y-93628628D02*
X118680930Y-94249441D01*
X118680930Y-94249441D02*
X118680930Y-95922031D01*
X132165305Y-103167691D02*
X132157493Y-103159878D01*
X145063574Y-87553009D02*
X144855312Y-87553009D01*
X127054562Y-96605191D02*
X127055930Y-96606559D01*
X118680930Y-95922031D02*
X119345140Y-96586241D01*
D22*
X118707649Y-94222722D02*
X118680930Y-94249441D01*
D21*
X139680930Y-103159878D02*
X143094993Y-103159878D01*
X143094993Y-103159878D02*
X144102805Y-102152066D01*
X119345140Y-96586241D02*
X127015290Y-96586241D01*
X127015290Y-96586241D02*
X127055930Y-96545600D01*
D22*
X160120000Y-85160000D02*
X160120000Y-80330000D01*
X160120000Y-80330000D02*
X163560000Y-76890000D01*
X163560000Y-76890000D02*
X163560000Y-72810000D01*
X163080000Y-72330000D02*
X161640000Y-72330000D01*
X163560000Y-72810000D02*
X163080000Y-72330000D01*
X151677309Y-88332691D02*
X151297309Y-88332691D01*
X152860000Y-87150000D02*
X151677309Y-88332691D01*
X152860000Y-87140000D02*
X152860000Y-87150000D01*
X156430000Y-83570000D02*
X152860000Y-87140000D01*
X156430000Y-70280000D02*
X156430000Y-83570000D01*
X155940000Y-69790000D02*
X156430000Y-70280000D01*
X154020000Y-69790000D02*
X155940000Y-69790000D01*
X158390000Y-87430000D02*
X156980000Y-88840000D01*
X156980000Y-88840000D02*
X156980000Y-88840000D01*
X158390000Y-87430000D02*
X158390000Y-75810000D01*
X159330000Y-74870000D02*
X161640000Y-74870000D01*
X158390000Y-75810000D02*
X159330000Y-74870000D01*
X152529790Y-84630210D02*
X150290000Y-86870000D01*
X150290000Y-86870000D02*
X150290000Y-89450000D01*
X150290000Y-89450000D02*
X150290000Y-89450000D01*
X152529790Y-73820210D02*
X154020000Y-72330000D01*
X152529790Y-84630210D02*
X152529790Y-73820210D01*
X156210000Y-89440000D02*
X156210000Y-89440000D01*
X156210000Y-89440000D02*
X156210000Y-85880000D01*
X156210000Y-85880000D02*
X157490000Y-84600000D01*
X157490000Y-84600000D02*
X157490000Y-71150000D01*
X158850000Y-69790000D02*
X161640000Y-69790000D01*
X157490000Y-71150000D02*
X158850000Y-69790000D01*
X160707309Y-93332691D02*
X164287309Y-93332691D01*
X164287309Y-93332691D02*
X165760000Y-91860000D01*
X165760000Y-85590000D02*
X165350000Y-85180000D01*
X165350000Y-85180000D02*
X165350000Y-85180000D01*
X165760000Y-91860000D02*
X165760000Y-85590000D01*
X149620000Y-101840000D02*
X158200000Y-101840000D01*
X158200000Y-101840000D02*
X160080000Y-99960000D01*
X160080000Y-99960000D02*
X160080000Y-96340000D01*
X160080000Y-96340000D02*
X161750000Y-94670000D01*
X161750000Y-94670000D02*
X164950000Y-94670000D01*
X164950000Y-94670000D02*
X168580000Y-91040000D01*
X168580000Y-91040000D02*
X168580000Y-83420000D01*
X174640000Y-77360000D02*
X174640000Y-66870000D01*
X168580000Y-83420000D02*
X174640000Y-77360000D01*
D21*
X111542730Y-93902259D02*
X111492730Y-93952259D01*
X145141868Y-94214566D02*
X145141868Y-99081753D01*
X141415305Y-102472378D02*
X137212180Y-102472378D01*
X137212180Y-102472378D02*
X130649680Y-102472378D01*
X130649680Y-102472378D02*
X130454368Y-102261441D01*
X130454368Y-102261441D02*
X129759130Y-101578709D01*
X129759130Y-101578709D02*
X127790305Y-99589566D01*
X127790305Y-99589566D02*
X127790305Y-97816128D01*
X127790305Y-97816128D02*
X127790305Y-95011441D01*
X127790305Y-95011441D02*
X127790305Y-92534878D01*
X127790305Y-92534878D02*
X127790305Y-85480191D01*
X145134055Y-89198941D02*
X145134055Y-94011441D01*
X145134055Y-94011441D02*
X145141868Y-94214566D01*
X128524680Y-84745816D02*
X130212180Y-84745816D01*
X130212180Y-84745816D02*
X136579368Y-84745816D01*
X136579368Y-84745816D02*
X139860618Y-84745816D01*
X139860618Y-84745816D02*
X140680930Y-84745816D01*
X140680930Y-84745816D02*
X141716087Y-85780972D01*
X141716087Y-85780972D02*
X143779827Y-87844709D01*
X143779827Y-87844709D02*
X145134055Y-89198941D01*
X128524680Y-84745816D02*
X127790305Y-85480191D01*
X116282493Y-96073941D02*
X114837180Y-96073941D01*
D22*
X114868430Y-96105191D02*
X114837180Y-96073941D01*
X116286980Y-96078428D02*
X116282493Y-96073941D01*
D21*
X114837180Y-96073941D02*
X113614412Y-96073941D01*
X113614412Y-96073941D02*
X111492730Y-93952259D01*
X179886000Y-116046000D02*
X179886000Y-114046000D01*
X179886000Y-114046000D02*
X179886000Y-95154000D01*
X179886000Y-95154000D02*
X179886000Y-95154000D01*
X169740000Y-88070000D02*
X171720000Y-88070000D01*
X171720000Y-88070000D02*
X173900000Y-90250000D01*
X173900000Y-90250000D02*
X173900000Y-90250000D01*
X171720000Y-88070000D02*
X171720000Y-84350000D01*
X127790305Y-85480191D02*
X127790305Y-85480191D01*
X116282493Y-96073941D02*
X117026059Y-96073941D01*
X117026059Y-96073941D02*
X117500000Y-95600000D01*
X117500000Y-95600000D02*
X117500000Y-93130000D01*
X117500000Y-93130000D02*
X118040000Y-92590000D01*
X121460000Y-92590000D02*
X123700000Y-94830000D01*
X118040000Y-92590000D02*
X121460000Y-92590000D01*
X145134055Y-89198941D02*
X146070000Y-88262996D01*
X146070000Y-88262996D02*
X146070000Y-80220000D01*
X141840000Y-75990000D02*
X141840000Y-69840000D01*
X146070000Y-80220000D02*
X141840000Y-75990000D01*
X171720000Y-84350000D02*
X171720000Y-83320000D01*
X171720000Y-83320000D02*
X181730000Y-73310000D01*
X181730000Y-73310000D02*
X181730000Y-70180000D01*
X136493430Y-101269253D02*
X129587180Y-94363003D01*
X129587180Y-94363003D02*
X129594993Y-94363003D01*
X129594993Y-94363003D02*
X137204368Y-86753628D01*
X142923118Y-94808316D02*
X142923118Y-94839566D01*
X142923118Y-94839566D02*
X137677590Y-100085094D01*
X137677590Y-100085094D02*
X136493430Y-101269253D01*
X177886000Y-116046000D02*
X177886000Y-114046000D01*
X177886000Y-114046000D02*
X177886000Y-97276000D01*
X177886000Y-97276000D02*
X177886000Y-97276000D01*
X173690000Y-96580000D02*
X173690000Y-96580000D01*
X177190000Y-96580000D02*
X177886000Y-97276000D01*
X162780000Y-96580000D02*
X177190000Y-96580000D01*
D22*
X151886000Y-116046000D02*
X150890000Y-115050000D01*
X150890000Y-115050000D02*
X150890000Y-112120000D01*
X150890000Y-112120000D02*
X147010000Y-108240000D01*
X177180000Y-66870000D02*
X177180000Y-65150000D01*
X177180000Y-65150000D02*
X176480000Y-64450000D01*
X176480000Y-64450000D02*
X154770000Y-64450000D01*
X149310000Y-67250000D02*
X147010000Y-69550000D01*
X154020000Y-67250000D02*
X149310000Y-67250000D01*
X147010000Y-108240000D02*
X147010000Y-69550000D01*
X154020000Y-65200000D02*
X154770000Y-64450000D01*
X154020000Y-67250000D02*
X154020000Y-65200000D01*
X151886000Y-114046000D02*
X151886000Y-111936000D01*
X151886000Y-111936000D02*
X147700000Y-107750000D01*
X147700000Y-107750000D02*
X147700000Y-70230000D01*
X147700000Y-70230000D02*
X149370000Y-68560000D01*
X170410000Y-68560000D02*
X172100000Y-66870000D01*
X149370000Y-68560000D02*
X170410000Y-68560000D01*
X138030000Y-68570000D02*
X139300000Y-67300000D01*
X129470000Y-68570000D02*
X138030000Y-68570000D01*
X127900000Y-70140000D02*
X128360000Y-69680000D01*
X127900000Y-81170000D02*
X127900000Y-70140000D01*
X128360000Y-69680000D02*
X129470000Y-68570000D01*
X144380000Y-67300000D02*
X144380000Y-65820000D01*
X144380000Y-65820000D02*
X143670000Y-65110000D01*
X143670000Y-65110000D02*
X120140000Y-65110000D01*
X120140000Y-65110000D02*
X119450000Y-65800000D01*
X119450000Y-83380000D02*
X120902691Y-84832691D01*
X119450000Y-65800000D02*
X119450000Y-83380000D01*
X134220000Y-67300000D02*
X123340000Y-67300000D01*
X123340000Y-67300000D02*
X121400000Y-69240000D01*
X121400000Y-69240000D02*
X121400000Y-84260000D01*
X121400000Y-84260000D02*
X122480000Y-85340000D01*
X122480000Y-85340000D02*
X122480000Y-85340000D01*
X128925000Y-73245000D02*
X129600000Y-72570000D01*
X128700000Y-81170000D02*
X128700000Y-73470000D01*
X128700000Y-73470000D02*
X128925000Y-73245000D01*
X140040000Y-72570000D02*
X140570000Y-72040000D01*
X129600000Y-72570000D02*
X140040000Y-72570000D01*
X140570000Y-72040000D02*
X140570000Y-68570000D01*
X140570000Y-68570000D02*
X141840000Y-67300000D01*
D23*
X153524732Y-64653559D02*
X153496626Y-64676625D01*
X153473560Y-64704731D01*
X153473558Y-64704733D01*
X153404576Y-64788788D01*
X153336178Y-64916753D01*
X153294059Y-65055602D01*
X153279836Y-65200000D01*
X153283401Y-65236193D01*
X153283401Y-65811928D01*
X153220000Y-65811928D01*
X153095518Y-65824188D01*
X152975820Y-65860498D01*
X152865506Y-65919463D01*
X152768815Y-65998815D01*
X152689463Y-66095506D01*
X152630498Y-66205820D01*
X152594188Y-66325518D01*
X152581928Y-66450000D01*
X152581928Y-66513400D01*
X149346175Y-66513400D01*
X149309999Y-66509837D01*
X149273823Y-66513400D01*
X149273814Y-66513400D01*
X149165601Y-66524058D01*
X149026751Y-66566178D01*
X148898787Y-66634576D01*
X148898785Y-66634577D01*
X148898786Y-66634577D01*
X148819068Y-66700000D01*
X148786625Y-66726625D01*
X148763559Y-66754731D01*
X146514732Y-69003559D01*
X146486626Y-69026625D01*
X146463560Y-69054731D01*
X146463558Y-69054733D01*
X146394576Y-69138788D01*
X146326178Y-69266753D01*
X146320357Y-69285942D01*
X146285195Y-69401858D01*
X146284059Y-69405602D01*
X146269836Y-69550000D01*
X146273401Y-69586193D01*
X146273401Y-79238007D01*
X142678200Y-75642807D01*
X142678200Y-71065927D01*
X142786632Y-70993475D01*
X142911710Y-70868397D01*
X143531208Y-70868397D01*
X143608843Y-71117472D01*
X143872883Y-71243371D01*
X144156411Y-71315339D01*
X144448531Y-71330611D01*
X144738019Y-71288599D01*
X145013747Y-71190919D01*
X145151157Y-71117472D01*
X145228792Y-70868397D01*
X144380000Y-70019605D01*
X143531208Y-70868397D01*
X142911710Y-70868397D01*
X142993475Y-70786632D01*
X143109311Y-70613271D01*
X143351603Y-70688792D01*
X144200395Y-69840000D01*
X144559605Y-69840000D01*
X145408397Y-70688792D01*
X145657472Y-70611157D01*
X145783371Y-70347117D01*
X145855339Y-70063589D01*
X145870611Y-69771469D01*
X145828599Y-69481981D01*
X145730919Y-69206253D01*
X145657472Y-69068843D01*
X145408397Y-68991208D01*
X144559605Y-69840000D01*
X144200395Y-69840000D01*
X143351603Y-68991208D01*
X143109311Y-69066729D01*
X142993475Y-68893368D01*
X142786632Y-68686525D01*
X142612240Y-68570000D01*
X142786632Y-68453475D01*
X142973715Y-68266392D01*
X143041595Y-68393386D01*
X143152038Y-68527962D01*
X143286614Y-68638405D01*
X143440150Y-68720472D01*
X143549293Y-68753580D01*
X143531208Y-68811603D01*
X144380000Y-69660395D01*
X145228792Y-68811603D01*
X145210707Y-68753580D01*
X145319850Y-68720472D01*
X145473386Y-68638405D01*
X145607962Y-68527962D01*
X145718405Y-68393386D01*
X145800472Y-68239850D01*
X145851008Y-68073254D01*
X145868072Y-67900000D01*
X145868072Y-66700000D01*
X145851008Y-66526746D01*
X145800472Y-66360150D01*
X145718405Y-66206614D01*
X145607962Y-66072038D01*
X145473386Y-65961595D01*
X145319850Y-65879528D01*
X145153254Y-65828992D01*
X145119605Y-65825678D01*
X145120164Y-65820000D01*
X145105942Y-65675601D01*
X145086410Y-65611212D01*
X145063822Y-65536751D01*
X144995424Y-65408787D01*
X144903375Y-65296625D01*
X144875269Y-65273559D01*
X144216445Y-64614736D01*
X144193375Y-64586625D01*
X144081213Y-64494576D01*
X143953249Y-64426178D01*
X143814399Y-64384058D01*
X143706186Y-64373400D01*
X143706183Y-64373400D01*
X143670000Y-64369836D01*
X143633817Y-64373400D01*
X120176175Y-64373400D01*
X120139999Y-64369837D01*
X120103823Y-64373400D01*
X120103814Y-64373400D01*
X119995601Y-64384058D01*
X119856751Y-64426178D01*
X119728787Y-64494576D01*
X119616625Y-64586625D01*
X119593554Y-64614737D01*
X118954732Y-65253559D01*
X118926625Y-65276626D01*
X118834576Y-65388788D01*
X118766178Y-65516752D01*
X118724058Y-65655602D01*
X118715111Y-65746442D01*
X118709836Y-65800000D01*
X118713400Y-65836183D01*
X118713401Y-83343807D01*
X118709836Y-83380000D01*
X118714328Y-83425602D01*
X118724059Y-83524399D01*
X118736193Y-83564398D01*
X118766178Y-83663247D01*
X118834576Y-83791212D01*
X118885489Y-83853249D01*
X118926626Y-83903375D01*
X118954732Y-83926441D01*
X120098598Y-85070307D01*
X120099780Y-85076251D01*
X120162724Y-85228212D01*
X120254104Y-85364972D01*
X120370410Y-85481278D01*
X120507170Y-85572658D01*
X120659131Y-85635602D01*
X120820451Y-85667691D01*
X120984931Y-85667691D01*
X121146251Y-85635602D01*
X121298212Y-85572658D01*
X121434972Y-85481278D01*
X121507270Y-85408980D01*
X121675907Y-85577616D01*
X121677089Y-85583560D01*
X121740033Y-85735521D01*
X121831413Y-85872281D01*
X121947719Y-85988587D01*
X122084479Y-86079967D01*
X122236440Y-86142911D01*
X122397760Y-86175000D01*
X122562240Y-86175000D01*
X122723560Y-86142911D01*
X122875521Y-86079967D01*
X123012281Y-85988587D01*
X123128587Y-85872281D01*
X123219967Y-85735521D01*
X123282911Y-85583560D01*
X123315000Y-85422240D01*
X123315000Y-85257760D01*
X123282911Y-85096440D01*
X123219967Y-84944479D01*
X123128587Y-84807719D01*
X123012281Y-84691413D01*
X122875521Y-84600033D01*
X122723560Y-84537089D01*
X122717616Y-84535907D01*
X122136600Y-83954891D01*
X122136600Y-69545109D01*
X123645110Y-68036600D01*
X128958840Y-68036600D01*
X128946625Y-68046625D01*
X128923559Y-68074731D01*
X127864733Y-69133558D01*
X127404732Y-69593559D01*
X127376626Y-69616625D01*
X127353560Y-69644731D01*
X127353558Y-69644733D01*
X127284576Y-69728788D01*
X127216178Y-69856753D01*
X127174059Y-69995602D01*
X127159836Y-70140000D01*
X127163401Y-70176193D01*
X127163400Y-80769440D01*
X127160033Y-80774479D01*
X127097089Y-80926440D01*
X127065000Y-81087760D01*
X127065000Y-81252240D01*
X127097089Y-81413560D01*
X127160033Y-81565521D01*
X127251413Y-81702281D01*
X127367719Y-81818587D01*
X127504479Y-81909967D01*
X127656440Y-81972911D01*
X127817760Y-82005000D01*
X127982240Y-82005000D01*
X128143560Y-81972911D01*
X128295521Y-81909967D01*
X128300000Y-81906974D01*
X128304479Y-81909967D01*
X128456440Y-81972911D01*
X128617760Y-82005000D01*
X128782240Y-82005000D01*
X128943560Y-81972911D01*
X129095521Y-81909967D01*
X129232281Y-81818587D01*
X129348587Y-81702281D01*
X129439967Y-81565521D01*
X129502911Y-81413560D01*
X129535000Y-81252240D01*
X129535000Y-81087760D01*
X129502911Y-80926440D01*
X129439967Y-80774479D01*
X129436600Y-80769440D01*
X129436600Y-73775109D01*
X129471442Y-73740267D01*
X129905110Y-73306600D01*
X140003817Y-73306600D01*
X140040000Y-73310164D01*
X140076183Y-73306600D01*
X140076186Y-73306600D01*
X140184399Y-73295942D01*
X140323249Y-73253822D01*
X140451213Y-73185424D01*
X140563375Y-73093375D01*
X140586445Y-73065264D01*
X141001801Y-72649909D01*
X141001800Y-75948837D01*
X140997746Y-75990000D01*
X141001800Y-76031163D01*
X141001800Y-76031169D01*
X141013929Y-76154315D01*
X141061858Y-76312316D01*
X141139691Y-76457931D01*
X141244436Y-76585564D01*
X141276418Y-76611811D01*
X145231801Y-80567195D01*
X145231800Y-87915802D01*
X145134056Y-88013547D01*
X144678152Y-87557641D01*
X144612667Y-87399547D01*
X144509817Y-87245622D01*
X144378914Y-87114719D01*
X144224989Y-87011869D01*
X144066896Y-86946385D01*
X142614411Y-85493904D01*
X142548927Y-85335810D01*
X142446077Y-85181885D01*
X142315174Y-85050982D01*
X142161249Y-84948132D01*
X142003155Y-84882648D01*
X141302741Y-84182234D01*
X141276494Y-84150252D01*
X141148862Y-84045507D01*
X141003247Y-83967674D01*
X140845246Y-83919745D01*
X140722100Y-83907616D01*
X140722092Y-83907616D01*
X140680930Y-83903562D01*
X140639767Y-83907616D01*
X140292840Y-83907616D01*
X140134747Y-83842132D01*
X139953180Y-83806016D01*
X139768056Y-83806016D01*
X139586489Y-83842132D01*
X139428396Y-83907616D01*
X137011590Y-83907616D01*
X136853497Y-83842132D01*
X136671930Y-83806016D01*
X136486806Y-83806016D01*
X136305239Y-83842132D01*
X136147146Y-83907616D01*
X130644402Y-83907616D01*
X130486309Y-83842132D01*
X130304742Y-83806016D01*
X130119618Y-83806016D01*
X129938051Y-83842132D01*
X129779958Y-83907616D01*
X128565842Y-83907616D01*
X128524679Y-83903562D01*
X128483516Y-83907616D01*
X128483510Y-83907616D01*
X128360364Y-83919745D01*
X128202363Y-83967674D01*
X128114221Y-84014787D01*
X128056748Y-84045507D01*
X128010126Y-84083769D01*
X127929116Y-84150252D01*
X127902873Y-84182229D01*
X127483777Y-84601325D01*
X127324838Y-84667160D01*
X127170913Y-84770010D01*
X127040010Y-84900913D01*
X126937160Y-85054838D01*
X126866316Y-85225871D01*
X126830200Y-85407438D01*
X126830200Y-85592562D01*
X126866316Y-85774129D01*
X126937160Y-85945162D01*
X126952106Y-85967530D01*
X126952105Y-92102656D01*
X126886621Y-92260749D01*
X126850505Y-92442316D01*
X126850505Y-92627440D01*
X126886621Y-92809007D01*
X126952106Y-92967102D01*
X126952105Y-94579219D01*
X126886621Y-94737312D01*
X126850505Y-94918879D01*
X126850505Y-95104003D01*
X126886621Y-95285570D01*
X126952106Y-95443665D01*
X126952105Y-97383906D01*
X126886621Y-97541999D01*
X126850505Y-97723566D01*
X126850505Y-97908690D01*
X126886621Y-98090257D01*
X126952106Y-98248352D01*
X126952105Y-99546247D01*
X126948062Y-99585243D01*
X126952105Y-99628571D01*
X126952105Y-99630735D01*
X126955944Y-99669712D01*
X126963402Y-99749638D01*
X126964021Y-99751716D01*
X126964234Y-99753881D01*
X126987595Y-99830892D01*
X127010519Y-99907884D01*
X127011533Y-99909804D01*
X127012163Y-99911882D01*
X127050054Y-99982770D01*
X127087603Y-100053896D01*
X127088973Y-100055583D01*
X127089996Y-100057497D01*
X127141040Y-100119695D01*
X127165612Y-100149951D01*
X127167125Y-100151480D01*
X127194741Y-100185130D01*
X127225058Y-100210011D01*
X129138638Y-102143339D01*
X129142462Y-102147914D01*
X129167578Y-102172578D01*
X129192360Y-102197616D01*
X129196954Y-102201426D01*
X129559917Y-102557860D01*
X129621528Y-102706603D01*
X129724378Y-102860528D01*
X129855281Y-102991431D01*
X130009206Y-103094281D01*
X130158460Y-103156104D01*
X130169190Y-103162381D01*
X130181748Y-103172687D01*
X130240362Y-103204017D01*
X130297695Y-103237557D01*
X130313039Y-103242863D01*
X130327363Y-103250520D01*
X130390962Y-103269813D01*
X130453738Y-103291523D01*
X130469821Y-103293734D01*
X130485364Y-103298449D01*
X130551501Y-103304963D01*
X130617309Y-103314010D01*
X130674700Y-103310578D01*
X136779958Y-103310578D01*
X136938051Y-103376062D01*
X137119618Y-103412178D01*
X137304742Y-103412178D01*
X137486309Y-103376062D01*
X137644402Y-103310578D01*
X140983083Y-103310578D01*
X141141176Y-103376062D01*
X141322743Y-103412178D01*
X141507867Y-103412178D01*
X141689434Y-103376062D01*
X141860467Y-103305218D01*
X142014392Y-103202368D01*
X142145295Y-103071465D01*
X142248145Y-102917540D01*
X142318989Y-102746507D01*
X142355105Y-102564940D01*
X142355105Y-102379816D01*
X142318989Y-102198249D01*
X142248145Y-102027216D01*
X142145295Y-101873291D01*
X142014392Y-101742388D01*
X141860467Y-101639538D01*
X141689434Y-101568694D01*
X141507867Y-101532578D01*
X141322743Y-101532578D01*
X141141176Y-101568694D01*
X140983083Y-101634178D01*
X137644402Y-101634178D01*
X137486309Y-101568694D01*
X137397123Y-101550954D01*
X143263535Y-95684542D01*
X143368280Y-95641156D01*
X143522205Y-95538306D01*
X143653108Y-95407403D01*
X143755958Y-95253478D01*
X143826802Y-95082445D01*
X143862918Y-94900878D01*
X143862918Y-94715754D01*
X143826802Y-94534187D01*
X143755958Y-94363154D01*
X143653108Y-94209229D01*
X143522205Y-94078326D01*
X143368280Y-93975476D01*
X143197247Y-93904632D01*
X143015680Y-93868516D01*
X142830556Y-93868516D01*
X142648989Y-93904632D01*
X142477956Y-93975476D01*
X142324031Y-94078326D01*
X142193128Y-94209229D01*
X142090278Y-94363154D01*
X142019434Y-94534187D01*
X142013557Y-94563733D01*
X137114010Y-99463281D01*
X137114004Y-99463286D01*
X136493430Y-100083860D01*
X130776480Y-94366909D01*
X137491438Y-87651951D01*
X137649530Y-87586468D01*
X137803455Y-87483618D01*
X137934358Y-87352715D01*
X138037208Y-87198790D01*
X138108052Y-87027757D01*
X138144168Y-86846190D01*
X138144168Y-86661066D01*
X138108052Y-86479499D01*
X138037208Y-86308466D01*
X137934358Y-86154541D01*
X137803455Y-86023638D01*
X137649530Y-85920788D01*
X137478497Y-85849944D01*
X137296930Y-85813828D01*
X137111806Y-85813828D01*
X136930239Y-85849944D01*
X136759206Y-85920788D01*
X136605281Y-86023638D01*
X136474378Y-86154541D01*
X136371528Y-86308466D01*
X136306045Y-86466558D01*
X129313342Y-93459261D01*
X129313051Y-93459319D01*
X129142018Y-93530163D01*
X128988093Y-93633013D01*
X128857190Y-93763916D01*
X128754340Y-93917841D01*
X128683496Y-94088874D01*
X128647380Y-94270441D01*
X128647380Y-94455565D01*
X128683496Y-94637132D01*
X128754340Y-94808165D01*
X128857190Y-94962090D01*
X128988093Y-95092993D01*
X129142018Y-95195843D01*
X129300111Y-95261327D01*
X135595107Y-101556323D01*
X135627355Y-101634178D01*
X131156182Y-101634178D01*
X131053455Y-101531451D01*
X130899530Y-101428601D01*
X130731841Y-101359142D01*
X130350680Y-100984838D01*
X128628505Y-99244891D01*
X128628505Y-98248350D01*
X128693989Y-98090257D01*
X128730105Y-97908690D01*
X128730105Y-97723566D01*
X128693989Y-97541999D01*
X128628505Y-97383906D01*
X128628505Y-95443663D01*
X128693989Y-95285570D01*
X128730105Y-95104003D01*
X128730105Y-94918879D01*
X128693989Y-94737312D01*
X128628505Y-94579219D01*
X128628505Y-92967100D01*
X128693989Y-92809007D01*
X128730105Y-92627440D01*
X128730105Y-92442316D01*
X128693989Y-92260749D01*
X128628505Y-92102656D01*
X128628505Y-85883201D01*
X128667973Y-85787916D01*
X128871874Y-85584016D01*
X129779958Y-85584016D01*
X129938051Y-85649500D01*
X130119618Y-85685616D01*
X130304742Y-85685616D01*
X130486309Y-85649500D01*
X130644402Y-85584016D01*
X136147146Y-85584016D01*
X136305239Y-85649500D01*
X136486806Y-85685616D01*
X136671930Y-85685616D01*
X136853497Y-85649500D01*
X137011590Y-85584016D01*
X139428396Y-85584016D01*
X139586489Y-85649500D01*
X139768056Y-85685616D01*
X139953180Y-85685616D01*
X140134747Y-85649500D01*
X140292840Y-85584016D01*
X140333737Y-85584016D01*
X140817764Y-86068043D01*
X140883247Y-86226134D01*
X140986097Y-86380059D01*
X141117000Y-86510962D01*
X141270925Y-86613812D01*
X141429019Y-86679296D01*
X142881503Y-88131779D01*
X142946987Y-88289871D01*
X143049837Y-88443796D01*
X143180740Y-88574699D01*
X143334665Y-88677549D01*
X143492756Y-88743032D01*
X144235731Y-89486010D01*
X144295855Y-89631163D01*
X144295856Y-93801204D01*
X144238184Y-93940437D01*
X144202068Y-94122004D01*
X144202068Y-94307128D01*
X144238184Y-94488695D01*
X144303668Y-94646788D01*
X144303669Y-98649529D01*
X144238184Y-98807624D01*
X144202068Y-98989191D01*
X144202068Y-99174315D01*
X144238184Y-99355882D01*
X144309028Y-99526915D01*
X144411878Y-99680840D01*
X144542781Y-99811743D01*
X144696706Y-99914593D01*
X144867739Y-99985437D01*
X145049306Y-100021553D01*
X145234430Y-100021553D01*
X145415997Y-99985437D01*
X145587030Y-99914593D01*
X145740955Y-99811743D01*
X145871858Y-99680840D01*
X145974708Y-99526915D01*
X146045552Y-99355882D01*
X146081668Y-99174315D01*
X146081668Y-98989191D01*
X146045552Y-98807624D01*
X145980068Y-98649531D01*
X145980068Y-94646788D01*
X146045552Y-94488695D01*
X146081668Y-94307128D01*
X146081668Y-94122004D01*
X146045552Y-93940437D01*
X145974708Y-93769404D01*
X145972255Y-93765733D01*
X145972255Y-89631163D01*
X146032379Y-89486010D01*
X146273400Y-89244989D01*
X146273400Y-108203817D01*
X146269836Y-108240000D01*
X146273400Y-108276183D01*
X146273400Y-108276185D01*
X146284058Y-108384398D01*
X146326178Y-108523248D01*
X146394576Y-108651212D01*
X146486625Y-108763374D01*
X146514732Y-108786441D01*
X150153401Y-112425111D01*
X150153401Y-112763525D01*
X150015024Y-112736000D01*
X149756976Y-112736000D01*
X149503887Y-112786342D01*
X149265482Y-112885093D01*
X149050923Y-113028456D01*
X148886000Y-113193379D01*
X148721077Y-113028456D01*
X148506518Y-112885093D01*
X148268113Y-112786342D01*
X148015024Y-112736000D01*
X147756976Y-112736000D01*
X147503887Y-112786342D01*
X147265482Y-112885093D01*
X147050923Y-113028456D01*
X146886000Y-113193379D01*
X146721077Y-113028456D01*
X146506518Y-112885093D01*
X146268113Y-112786342D01*
X146015024Y-112736000D01*
X145756976Y-112736000D01*
X145503887Y-112786342D01*
X145265482Y-112885093D01*
X145050923Y-113028456D01*
X144886000Y-113193379D01*
X144721077Y-113028456D01*
X144506518Y-112885093D01*
X144268113Y-112786342D01*
X144015024Y-112736000D01*
X143756976Y-112736000D01*
X143503887Y-112786342D01*
X143265482Y-112885093D01*
X143050923Y-113028456D01*
X142886000Y-113193379D01*
X142721077Y-113028456D01*
X142506518Y-112885093D01*
X142268113Y-112786342D01*
X142015024Y-112736000D01*
X141756976Y-112736000D01*
X141503887Y-112786342D01*
X141265482Y-112885093D01*
X141050923Y-113028456D01*
X140886000Y-113193379D01*
X140721077Y-113028456D01*
X140506518Y-112885093D01*
X140268113Y-112786342D01*
X140015024Y-112736000D01*
X139756976Y-112736000D01*
X139503887Y-112786342D01*
X139265482Y-112885093D01*
X139050923Y-113028456D01*
X138886000Y-113193379D01*
X138721077Y-113028456D01*
X138506518Y-112885093D01*
X138268113Y-112786342D01*
X138015024Y-112736000D01*
X137756976Y-112736000D01*
X137503887Y-112786342D01*
X137265482Y-112885093D01*
X137050923Y-113028456D01*
X136886000Y-113193379D01*
X136721077Y-113028456D01*
X136506518Y-112885093D01*
X136268113Y-112786342D01*
X136015024Y-112736000D01*
X135756976Y-112736000D01*
X135503887Y-112786342D01*
X135265482Y-112885093D01*
X135050923Y-113028456D01*
X134886000Y-113193379D01*
X134721077Y-113028456D01*
X134506518Y-112885093D01*
X134268113Y-112786342D01*
X134015024Y-112736000D01*
X133756976Y-112736000D01*
X133503887Y-112786342D01*
X133265482Y-112885093D01*
X133050923Y-113028456D01*
X132886000Y-113193379D01*
X132721077Y-113028456D01*
X132506518Y-112885093D01*
X132268113Y-112786342D01*
X132015024Y-112736000D01*
X131756976Y-112736000D01*
X131503887Y-112786342D01*
X131265482Y-112885093D01*
X131050923Y-113028456D01*
X130886000Y-113193379D01*
X130721077Y-113028456D01*
X130506518Y-112885093D01*
X130268113Y-112786342D01*
X130015024Y-112736000D01*
X129756976Y-112736000D01*
X129503887Y-112786342D01*
X129265482Y-112885093D01*
X129050923Y-113028456D01*
X128886000Y-113193379D01*
X128721077Y-113028456D01*
X128506518Y-112885093D01*
X128268113Y-112786342D01*
X128015024Y-112736000D01*
X127756976Y-112736000D01*
X127503887Y-112786342D01*
X127265482Y-112885093D01*
X127050923Y-113028456D01*
X126886000Y-113193379D01*
X126721077Y-113028456D01*
X126506518Y-112885093D01*
X126268113Y-112786342D01*
X126015024Y-112736000D01*
X125756976Y-112736000D01*
X125503887Y-112786342D01*
X125265482Y-112885093D01*
X125050923Y-113028456D01*
X124886000Y-113193379D01*
X124721077Y-113028456D01*
X124506518Y-112885093D01*
X124268113Y-112786342D01*
X124015024Y-112736000D01*
X123756976Y-112736000D01*
X123503887Y-112786342D01*
X123265482Y-112885093D01*
X123050923Y-113028456D01*
X122886000Y-113193379D01*
X122721077Y-113028456D01*
X122506518Y-112885093D01*
X122268113Y-112786342D01*
X122015024Y-112736000D01*
X121756976Y-112736000D01*
X121503887Y-112786342D01*
X121265482Y-112885093D01*
X121050923Y-113028456D01*
X120886000Y-113193379D01*
X120721077Y-113028456D01*
X120506518Y-112885093D01*
X120268113Y-112786342D01*
X120015024Y-112736000D01*
X119756976Y-112736000D01*
X119503887Y-112786342D01*
X119265482Y-112885093D01*
X119050923Y-113028456D01*
X118886000Y-113193379D01*
X118721077Y-113028456D01*
X118506518Y-112885093D01*
X118268113Y-112786342D01*
X118015024Y-112736000D01*
X117756976Y-112736000D01*
X117503887Y-112786342D01*
X117265482Y-112885093D01*
X117050923Y-113028456D01*
X116886000Y-113193379D01*
X116721077Y-113028456D01*
X116506518Y-112885093D01*
X116268113Y-112786342D01*
X116015024Y-112736000D01*
X115756976Y-112736000D01*
X115503887Y-112786342D01*
X115265482Y-112885093D01*
X115050923Y-113028456D01*
X114879319Y-113200060D01*
X114757227Y-113067697D01*
X114549629Y-112916527D01*
X114316528Y-112808762D01*
X114215400Y-112778090D01*
X114013000Y-112901776D01*
X114013000Y-113919000D01*
X114033000Y-113919000D01*
X114033000Y-114173000D01*
X114013000Y-114173000D01*
X114013000Y-115919000D01*
X114033000Y-115919000D01*
X114033000Y-116173000D01*
X114013000Y-116173000D01*
X114013000Y-117190224D01*
X114215400Y-117313910D01*
X114316528Y-117283238D01*
X114549629Y-117175473D01*
X114757227Y-117024303D01*
X114879319Y-116891940D01*
X115050923Y-117063544D01*
X115265482Y-117206907D01*
X115503887Y-117305658D01*
X115756976Y-117356000D01*
X116015024Y-117356000D01*
X116268113Y-117305658D01*
X116506518Y-117206907D01*
X116721077Y-117063544D01*
X116886000Y-116898621D01*
X117050923Y-117063544D01*
X117265482Y-117206907D01*
X117503887Y-117305658D01*
X117756976Y-117356000D01*
X118015024Y-117356000D01*
X118268113Y-117305658D01*
X118506518Y-117206907D01*
X118721077Y-117063544D01*
X118886000Y-116898621D01*
X119050923Y-117063544D01*
X119265482Y-117206907D01*
X119503887Y-117305658D01*
X119756976Y-117356000D01*
X120015024Y-117356000D01*
X120268113Y-117305658D01*
X120506518Y-117206907D01*
X120721077Y-117063544D01*
X120886000Y-116898621D01*
X121050923Y-117063544D01*
X121265482Y-117206907D01*
X121503887Y-117305658D01*
X121756976Y-117356000D01*
X122015024Y-117356000D01*
X122268113Y-117305658D01*
X122506518Y-117206907D01*
X122721077Y-117063544D01*
X122886000Y-116898621D01*
X123050923Y-117063544D01*
X123265482Y-117206907D01*
X123503887Y-117305658D01*
X123756976Y-117356000D01*
X124015024Y-117356000D01*
X124268113Y-117305658D01*
X124506518Y-117206907D01*
X124721077Y-117063544D01*
X124886000Y-116898621D01*
X125050923Y-117063544D01*
X125265482Y-117206907D01*
X125503887Y-117305658D01*
X125756976Y-117356000D01*
X126015024Y-117356000D01*
X126268113Y-117305658D01*
X126506518Y-117206907D01*
X126721077Y-117063544D01*
X126886000Y-116898621D01*
X127050923Y-117063544D01*
X127265482Y-117206907D01*
X127503887Y-117305658D01*
X127756976Y-117356000D01*
X128015024Y-117356000D01*
X128268113Y-117305658D01*
X128506518Y-117206907D01*
X128721077Y-117063544D01*
X128886000Y-116898621D01*
X129050923Y-117063544D01*
X129265482Y-117206907D01*
X129503887Y-117305658D01*
X129756976Y-117356000D01*
X130015024Y-117356000D01*
X130268113Y-117305658D01*
X130506518Y-117206907D01*
X130721077Y-117063544D01*
X130886000Y-116898621D01*
X131050923Y-117063544D01*
X131265482Y-117206907D01*
X131503887Y-117305658D01*
X131756976Y-117356000D01*
X132015024Y-117356000D01*
X132268113Y-117305658D01*
X132506518Y-117206907D01*
X132721077Y-117063544D01*
X132886000Y-116898621D01*
X133050923Y-117063544D01*
X133265482Y-117206907D01*
X133503887Y-117305658D01*
X133756976Y-117356000D01*
X134015024Y-117356000D01*
X134268113Y-117305658D01*
X134506518Y-117206907D01*
X134721077Y-117063544D01*
X134886000Y-116898621D01*
X135050923Y-117063544D01*
X135265482Y-117206907D01*
X135503887Y-117305658D01*
X135756976Y-117356000D01*
X136015024Y-117356000D01*
X136268113Y-117305658D01*
X136506518Y-117206907D01*
X136721077Y-117063544D01*
X136886000Y-116898621D01*
X137050923Y-117063544D01*
X137265482Y-117206907D01*
X137503887Y-117305658D01*
X137756976Y-117356000D01*
X138015024Y-117356000D01*
X138268113Y-117305658D01*
X138506518Y-117206907D01*
X138721077Y-117063544D01*
X138886000Y-116898621D01*
X139050923Y-117063544D01*
X139265482Y-117206907D01*
X139503887Y-117305658D01*
X139756976Y-117356000D01*
X140015024Y-117356000D01*
X140268113Y-117305658D01*
X140506518Y-117206907D01*
X140721077Y-117063544D01*
X140886000Y-116898621D01*
X141050923Y-117063544D01*
X141265482Y-117206907D01*
X141503887Y-117305658D01*
X141756976Y-117356000D01*
X142015024Y-117356000D01*
X142268113Y-117305658D01*
X142506518Y-117206907D01*
X142721077Y-117063544D01*
X142886000Y-116898621D01*
X143050923Y-117063544D01*
X143265482Y-117206907D01*
X143503887Y-117305658D01*
X143756976Y-117356000D01*
X144015024Y-117356000D01*
X144268113Y-117305658D01*
X144506518Y-117206907D01*
X144721077Y-117063544D01*
X144886000Y-116898621D01*
X145050923Y-117063544D01*
X145265482Y-117206907D01*
X145503887Y-117305658D01*
X145756976Y-117356000D01*
X146015024Y-117356000D01*
X146268113Y-117305658D01*
X146506518Y-117206907D01*
X146721077Y-117063544D01*
X146886000Y-116898621D01*
X147050923Y-117063544D01*
X147265482Y-117206907D01*
X147503887Y-117305658D01*
X147756976Y-117356000D01*
X148015024Y-117356000D01*
X148268113Y-117305658D01*
X148506518Y-117206907D01*
X148721077Y-117063544D01*
X148886000Y-116898621D01*
X149050923Y-117063544D01*
X149265482Y-117206907D01*
X149503887Y-117305658D01*
X149756976Y-117356000D01*
X150015024Y-117356000D01*
X150268113Y-117305658D01*
X150506518Y-117206907D01*
X150721077Y-117063544D01*
X150886000Y-116898621D01*
X151050923Y-117063544D01*
X151265482Y-117206907D01*
X151503887Y-117305658D01*
X151756976Y-117356000D01*
X152015024Y-117356000D01*
X152268113Y-117305658D01*
X152506518Y-117206907D01*
X152721077Y-117063544D01*
X152886000Y-116898621D01*
X153050923Y-117063544D01*
X153265482Y-117206907D01*
X153503887Y-117305658D01*
X153756976Y-117356000D01*
X154015024Y-117356000D01*
X154268113Y-117305658D01*
X154506518Y-117206907D01*
X154721077Y-117063544D01*
X154886000Y-116898621D01*
X155050923Y-117063544D01*
X155265482Y-117206907D01*
X155503887Y-117305658D01*
X155756976Y-117356000D01*
X156015024Y-117356000D01*
X156268113Y-117305658D01*
X156506518Y-117206907D01*
X156721077Y-117063544D01*
X156886000Y-116898621D01*
X157050923Y-117063544D01*
X157265482Y-117206907D01*
X157503887Y-117305658D01*
X157756976Y-117356000D01*
X158015024Y-117356000D01*
X158268113Y-117305658D01*
X158506518Y-117206907D01*
X158721077Y-117063544D01*
X158886000Y-116898621D01*
X159050923Y-117063544D01*
X159265482Y-117206907D01*
X159503887Y-117305658D01*
X159756976Y-117356000D01*
X160015024Y-117356000D01*
X160268113Y-117305658D01*
X160506518Y-117206907D01*
X160721077Y-117063544D01*
X160886000Y-116898621D01*
X161050923Y-117063544D01*
X161265482Y-117206907D01*
X161503887Y-117305658D01*
X161756976Y-117356000D01*
X162015024Y-117356000D01*
X162268113Y-117305658D01*
X162506518Y-117206907D01*
X162721077Y-117063544D01*
X162886000Y-116898621D01*
X163050923Y-117063544D01*
X163265482Y-117206907D01*
X163503887Y-117305658D01*
X163756976Y-117356000D01*
X164015024Y-117356000D01*
X164268113Y-117305658D01*
X164506518Y-117206907D01*
X164721077Y-117063544D01*
X164886000Y-116898621D01*
X165050923Y-117063544D01*
X165265482Y-117206907D01*
X165503887Y-117305658D01*
X165756976Y-117356000D01*
X166015024Y-117356000D01*
X166268113Y-117305658D01*
X166506518Y-117206907D01*
X166721077Y-117063544D01*
X166886000Y-116898621D01*
X167050923Y-117063544D01*
X167265482Y-117206907D01*
X167503887Y-117305658D01*
X167756976Y-117356000D01*
X168015024Y-117356000D01*
X168268113Y-117305658D01*
X168506518Y-117206907D01*
X168721077Y-117063544D01*
X168886000Y-116898621D01*
X169050923Y-117063544D01*
X169265482Y-117206907D01*
X169503887Y-117305658D01*
X169756976Y-117356000D01*
X170015024Y-117356000D01*
X170268113Y-117305658D01*
X170506518Y-117206907D01*
X170721077Y-117063544D01*
X170886000Y-116898621D01*
X171050923Y-117063544D01*
X171265482Y-117206907D01*
X171503887Y-117305658D01*
X171756976Y-117356000D01*
X172015024Y-117356000D01*
X172268113Y-117305658D01*
X172506518Y-117206907D01*
X172721077Y-117063544D01*
X172892681Y-116891940D01*
X173014773Y-117024303D01*
X173222371Y-117175473D01*
X173455472Y-117283238D01*
X173556600Y-117313910D01*
X173759000Y-117190224D01*
X173759000Y-116173000D01*
X174013000Y-116173000D01*
X174013000Y-117190224D01*
X174215400Y-117313910D01*
X174316528Y-117283238D01*
X174549629Y-117175473D01*
X174757227Y-117024303D01*
X174886000Y-116884696D01*
X175014773Y-117024303D01*
X175222371Y-117175473D01*
X175455472Y-117283238D01*
X175556600Y-117313910D01*
X175759000Y-117190224D01*
X175759000Y-116173000D01*
X174013000Y-116173000D01*
X173759000Y-116173000D01*
X173739000Y-116173000D01*
X173739000Y-115919000D01*
X173759000Y-115919000D01*
X173759000Y-114173000D01*
X174013000Y-114173000D01*
X174013000Y-115919000D01*
X175759000Y-115919000D01*
X175759000Y-114173000D01*
X174013000Y-114173000D01*
X173759000Y-114173000D01*
X173739000Y-114173000D01*
X173739000Y-113919000D01*
X173759000Y-113919000D01*
X173759000Y-112901776D01*
X174013000Y-112901776D01*
X174013000Y-113919000D01*
X175759000Y-113919000D01*
X175759000Y-112901776D01*
X175556600Y-112778090D01*
X175455472Y-112808762D01*
X175222371Y-112916527D01*
X175014773Y-113067697D01*
X174886000Y-113207304D01*
X174757227Y-113067697D01*
X174549629Y-112916527D01*
X174316528Y-112808762D01*
X174215400Y-112778090D01*
X174013000Y-112901776D01*
X173759000Y-112901776D01*
X173556600Y-112778090D01*
X173455472Y-112808762D01*
X173222371Y-112916527D01*
X173014773Y-113067697D01*
X172892681Y-113200060D01*
X172721077Y-113028456D01*
X172506518Y-112885093D01*
X172268113Y-112786342D01*
X172015024Y-112736000D01*
X171756976Y-112736000D01*
X171503887Y-112786342D01*
X171265482Y-112885093D01*
X171050923Y-113028456D01*
X170886000Y-113193379D01*
X170721077Y-113028456D01*
X170506518Y-112885093D01*
X170268113Y-112786342D01*
X170015024Y-112736000D01*
X169756976Y-112736000D01*
X169503887Y-112786342D01*
X169265482Y-112885093D01*
X169050923Y-113028456D01*
X168886000Y-113193379D01*
X168721077Y-113028456D01*
X168506518Y-112885093D01*
X168268113Y-112786342D01*
X168015024Y-112736000D01*
X167756976Y-112736000D01*
X167503887Y-112786342D01*
X167265482Y-112885093D01*
X167050923Y-113028456D01*
X166886000Y-113193379D01*
X166721077Y-113028456D01*
X166506518Y-112885093D01*
X166268113Y-112786342D01*
X166015024Y-112736000D01*
X165756976Y-112736000D01*
X165503887Y-112786342D01*
X165265482Y-112885093D01*
X165050923Y-113028456D01*
X164886000Y-113193379D01*
X164721077Y-113028456D01*
X164506518Y-112885093D01*
X164268113Y-112786342D01*
X164015024Y-112736000D01*
X163756976Y-112736000D01*
X163503887Y-112786342D01*
X163265482Y-112885093D01*
X163050923Y-113028456D01*
X162886000Y-113193379D01*
X162721077Y-113028456D01*
X162506518Y-112885093D01*
X162268113Y-112786342D01*
X162015024Y-112736000D01*
X161756976Y-112736000D01*
X161503887Y-112786342D01*
X161265482Y-112885093D01*
X161050923Y-113028456D01*
X160886000Y-113193379D01*
X160721077Y-113028456D01*
X160506518Y-112885093D01*
X160268113Y-112786342D01*
X160015024Y-112736000D01*
X159756976Y-112736000D01*
X159503887Y-112786342D01*
X159265482Y-112885093D01*
X159050923Y-113028456D01*
X158886000Y-113193379D01*
X158721077Y-113028456D01*
X158506518Y-112885093D01*
X158268113Y-112786342D01*
X158015024Y-112736000D01*
X157756976Y-112736000D01*
X157503887Y-112786342D01*
X157265482Y-112885093D01*
X157050923Y-113028456D01*
X156886000Y-113193379D01*
X156721077Y-113028456D01*
X156506518Y-112885093D01*
X156268113Y-112786342D01*
X156015024Y-112736000D01*
X155756976Y-112736000D01*
X155503887Y-112786342D01*
X155265482Y-112885093D01*
X155050923Y-113028456D01*
X154886000Y-113193379D01*
X154721077Y-113028456D01*
X154506518Y-112885093D01*
X154268113Y-112786342D01*
X154015024Y-112736000D01*
X153756976Y-112736000D01*
X153503887Y-112786342D01*
X153265482Y-112885093D01*
X153050923Y-113028456D01*
X152886000Y-113193379D01*
X152721077Y-113028456D01*
X152622600Y-112962656D01*
X152622600Y-111972186D01*
X152626164Y-111936000D01*
X152611942Y-111791601D01*
X152569822Y-111652752D01*
X152569822Y-111652751D01*
X152501424Y-111524787D01*
X152409375Y-111412625D01*
X152381269Y-111389559D01*
X148436600Y-107444891D01*
X148436600Y-70535109D01*
X149675110Y-69296600D01*
X152671141Y-69296600D01*
X152640147Y-69371426D01*
X152585000Y-69648665D01*
X152585000Y-69931335D01*
X152640147Y-70208574D01*
X152748320Y-70469727D01*
X152905363Y-70704759D01*
X153105241Y-70904637D01*
X153337759Y-71060000D01*
X153105241Y-71215363D01*
X152905363Y-71415241D01*
X152748320Y-71650273D01*
X152640147Y-71911426D01*
X152585000Y-72188665D01*
X152585000Y-72471335D01*
X152626803Y-72681488D01*
X152034522Y-73273769D01*
X152006416Y-73296835D01*
X151983350Y-73324941D01*
X151983348Y-73324943D01*
X151914366Y-73408998D01*
X151845968Y-73536963D01*
X151822479Y-73614398D01*
X151809795Y-73656212D01*
X151803849Y-73675812D01*
X151789626Y-73820210D01*
X151793191Y-73856403D01*
X151793190Y-84325101D01*
X149794732Y-86323559D01*
X149766625Y-86346626D01*
X149743559Y-86374732D01*
X149743558Y-86374733D01*
X149720053Y-86403374D01*
X149674576Y-86458788D01*
X149606178Y-86586752D01*
X149564058Y-86725602D01*
X149561298Y-86753629D01*
X149549836Y-86870000D01*
X149553400Y-86906184D01*
X149553401Y-89049439D01*
X149550033Y-89054479D01*
X149487089Y-89206440D01*
X149455000Y-89367760D01*
X149455000Y-89532240D01*
X149487089Y-89693560D01*
X149550033Y-89845521D01*
X149641413Y-89982281D01*
X149757719Y-90098587D01*
X149894479Y-90189967D01*
X150046440Y-90252911D01*
X150207760Y-90285000D01*
X150372240Y-90285000D01*
X150533560Y-90252911D01*
X150685521Y-90189967D01*
X150822281Y-90098587D01*
X150938587Y-89982281D01*
X151029967Y-89845521D01*
X151092911Y-89693560D01*
X151125000Y-89532240D01*
X151125000Y-89367760D01*
X151092911Y-89206440D01*
X151064451Y-89137731D01*
X151215069Y-89167691D01*
X151379549Y-89167691D01*
X151540869Y-89135602D01*
X151692830Y-89072658D01*
X151695168Y-89071096D01*
X151713492Y-89069291D01*
X151713495Y-89069291D01*
X151821708Y-89058633D01*
X151960558Y-89016513D01*
X152088522Y-88948115D01*
X152200684Y-88856066D01*
X152223754Y-88827955D01*
X153355269Y-87696441D01*
X153383375Y-87673375D01*
X153409790Y-87641188D01*
X153452212Y-87589497D01*
X156753400Y-84288309D01*
X156753400Y-84294891D01*
X155714732Y-85333559D01*
X155686626Y-85356625D01*
X155663560Y-85384731D01*
X155663558Y-85384733D01*
X155594576Y-85468788D01*
X155549129Y-85553814D01*
X155529788Y-85590000D01*
X155526178Y-85596753D01*
X155511692Y-85644507D01*
X155484084Y-85735521D01*
X155484059Y-85735602D01*
X155469836Y-85880000D01*
X155473401Y-85916193D01*
X155473400Y-89039440D01*
X155470033Y-89044479D01*
X155407089Y-89196440D01*
X155375000Y-89357760D01*
X155375000Y-89522240D01*
X155407089Y-89683560D01*
X155470033Y-89835521D01*
X155561413Y-89972281D01*
X155677719Y-90088587D01*
X155814479Y-90179967D01*
X155966440Y-90242911D01*
X156127760Y-90275000D01*
X156292240Y-90275000D01*
X156453560Y-90242911D01*
X156605521Y-90179967D01*
X156742281Y-90088587D01*
X156858587Y-89972281D01*
X156949967Y-89835521D01*
X157012911Y-89683560D01*
X157014614Y-89675000D01*
X157062240Y-89675000D01*
X157223560Y-89642911D01*
X157375521Y-89579967D01*
X157512281Y-89488587D01*
X157628587Y-89372281D01*
X157719967Y-89235521D01*
X157782911Y-89083560D01*
X157784093Y-89077616D01*
X158885273Y-87976437D01*
X158913374Y-87953375D01*
X158936437Y-87925273D01*
X158936442Y-87925268D01*
X159005423Y-87841214D01*
X159005424Y-87841213D01*
X159073822Y-87713249D01*
X159115942Y-87574399D01*
X159126600Y-87466186D01*
X159126600Y-87466177D01*
X159130163Y-87430001D01*
X159126600Y-87393825D01*
X159126600Y-76115109D01*
X159635110Y-75606600D01*
X160406321Y-75606600D01*
X160525363Y-75784759D01*
X160725241Y-75984637D01*
X160960273Y-76141680D01*
X161221426Y-76249853D01*
X161498665Y-76305000D01*
X161781335Y-76305000D01*
X162058574Y-76249853D01*
X162319727Y-76141680D01*
X162554759Y-75984637D01*
X162754637Y-75784759D01*
X162823400Y-75681847D01*
X162823400Y-76584890D01*
X159624732Y-79783559D01*
X159596626Y-79806625D01*
X159573560Y-79834731D01*
X159573558Y-79834733D01*
X159504576Y-79918788D01*
X159436178Y-80046753D01*
X159394059Y-80185602D01*
X159379836Y-80330000D01*
X159383401Y-80366193D01*
X159383400Y-84759440D01*
X159380033Y-84764479D01*
X159317089Y-84916440D01*
X159285000Y-85077760D01*
X159285000Y-85242240D01*
X159317089Y-85403560D01*
X159380033Y-85555521D01*
X159471413Y-85692281D01*
X159587719Y-85808587D01*
X159724479Y-85899967D01*
X159876440Y-85962911D01*
X160037760Y-85995000D01*
X160202240Y-85995000D01*
X160363560Y-85962911D01*
X160515521Y-85899967D01*
X160652281Y-85808587D01*
X160768587Y-85692281D01*
X160859967Y-85555521D01*
X160922911Y-85403560D01*
X160955000Y-85242240D01*
X160955000Y-85077760D01*
X160922911Y-84916440D01*
X160859967Y-84764479D01*
X160856600Y-84759440D01*
X160856600Y-80635109D01*
X164055273Y-77436437D01*
X164083374Y-77413375D01*
X164106437Y-77385273D01*
X164106442Y-77385268D01*
X164175424Y-77301213D01*
X164221184Y-77215602D01*
X164243822Y-77173249D01*
X164285942Y-77034399D01*
X164296600Y-76926186D01*
X164296600Y-76926185D01*
X164300164Y-76890000D01*
X164296600Y-76853814D01*
X164296600Y-72846186D01*
X164300164Y-72810000D01*
X164285942Y-72665601D01*
X164256942Y-72570001D01*
X164243822Y-72526751D01*
X164175424Y-72398787D01*
X164083375Y-72286625D01*
X164055263Y-72263554D01*
X163626446Y-71834737D01*
X163603375Y-71806625D01*
X163491213Y-71714576D01*
X163363249Y-71646178D01*
X163224399Y-71604058D01*
X163116186Y-71593400D01*
X163116183Y-71593400D01*
X163080000Y-71589836D01*
X163043817Y-71593400D01*
X162873679Y-71593400D01*
X162754637Y-71415241D01*
X162554759Y-71215363D01*
X162322241Y-71060000D01*
X162554759Y-70904637D01*
X162754637Y-70704759D01*
X162911680Y-70469727D01*
X163019853Y-70208574D01*
X163075000Y-69931335D01*
X163075000Y-69648665D01*
X163019853Y-69371426D01*
X162988859Y-69296600D01*
X170373817Y-69296600D01*
X170410000Y-69300164D01*
X170446183Y-69296600D01*
X170446186Y-69296600D01*
X170554399Y-69285942D01*
X170693249Y-69243822D01*
X170821213Y-69175424D01*
X170933375Y-69083375D01*
X170956445Y-69055264D01*
X171705990Y-68305719D01*
X171953740Y-68355000D01*
X172246260Y-68355000D01*
X172533158Y-68297932D01*
X172803411Y-68185990D01*
X173046632Y-68023475D01*
X173253475Y-67816632D01*
X173370000Y-67642240D01*
X173486525Y-67816632D01*
X173693368Y-68023475D01*
X173903401Y-68163814D01*
X173903400Y-77054890D01*
X168084732Y-82873559D01*
X168056626Y-82896625D01*
X168033560Y-82924731D01*
X168033558Y-82924733D01*
X167964576Y-83008788D01*
X167896178Y-83136753D01*
X167854059Y-83275602D01*
X167839836Y-83420000D01*
X167843401Y-83456193D01*
X167843400Y-90734890D01*
X166447645Y-92130645D01*
X166485942Y-92004399D01*
X166496600Y-91896186D01*
X166496600Y-91896185D01*
X166500164Y-91860000D01*
X166496600Y-91823814D01*
X166496600Y-85626186D01*
X166500164Y-85590000D01*
X166485942Y-85445601D01*
X166455395Y-85344903D01*
X166443822Y-85306751D01*
X166375424Y-85178787D01*
X166283375Y-85066625D01*
X166255263Y-85043554D01*
X166154093Y-84942384D01*
X166152911Y-84936440D01*
X166089967Y-84784479D01*
X165998587Y-84647719D01*
X165882281Y-84531413D01*
X165745521Y-84440033D01*
X165593560Y-84377089D01*
X165432240Y-84345000D01*
X165267760Y-84345000D01*
X165106440Y-84377089D01*
X164954479Y-84440033D01*
X164817719Y-84531413D01*
X164701413Y-84647719D01*
X164610033Y-84784479D01*
X164547089Y-84936440D01*
X164515000Y-85097760D01*
X164515000Y-85262240D01*
X164547089Y-85423560D01*
X164610033Y-85575521D01*
X164701413Y-85712281D01*
X164817719Y-85828587D01*
X164954479Y-85919967D01*
X165023401Y-85948515D01*
X165023400Y-91554890D01*
X163982200Y-92596091D01*
X161107869Y-92596091D01*
X161102830Y-92592724D01*
X160950869Y-92529780D01*
X160789549Y-92497691D01*
X160625069Y-92497691D01*
X160463749Y-92529780D01*
X160311788Y-92592724D01*
X160175028Y-92684104D01*
X160058722Y-92800410D01*
X159967342Y-92937170D01*
X159904398Y-93089131D01*
X159872309Y-93250451D01*
X159872309Y-93414931D01*
X159904398Y-93576251D01*
X159967342Y-93728212D01*
X160058722Y-93864972D01*
X160175028Y-93981278D01*
X160311788Y-94072658D01*
X160463749Y-94135602D01*
X160625069Y-94167691D01*
X160789549Y-94167691D01*
X160950869Y-94135602D01*
X161102830Y-94072658D01*
X161107869Y-94069291D01*
X161320857Y-94069291D01*
X161283426Y-94100010D01*
X161226625Y-94146625D01*
X161203559Y-94174731D01*
X159584732Y-95793559D01*
X159556626Y-95816625D01*
X159533560Y-95844731D01*
X159533558Y-95844733D01*
X159464576Y-95928788D01*
X159396178Y-96056753D01*
X159390964Y-96073941D01*
X159354071Y-96195564D01*
X159354059Y-96195602D01*
X159339836Y-96340000D01*
X159343401Y-96376193D01*
X159343400Y-99654891D01*
X157894891Y-101103400D01*
X150020560Y-101103400D01*
X150015521Y-101100033D01*
X149863560Y-101037089D01*
X149702240Y-101005000D01*
X149537760Y-101005000D01*
X149376440Y-101037089D01*
X149224479Y-101100033D01*
X149087719Y-101191413D01*
X148971413Y-101307719D01*
X148880033Y-101444479D01*
X148817089Y-101596440D01*
X148785000Y-101757760D01*
X148785000Y-101922240D01*
X148817089Y-102083560D01*
X148880033Y-102235521D01*
X148971413Y-102372281D01*
X149087719Y-102488587D01*
X149224479Y-102579967D01*
X149376440Y-102642911D01*
X149537760Y-102675000D01*
X149702240Y-102675000D01*
X149863560Y-102642911D01*
X150015521Y-102579967D01*
X150020560Y-102576600D01*
X158163817Y-102576600D01*
X158200000Y-102580164D01*
X158236183Y-102576600D01*
X158236186Y-102576600D01*
X158344399Y-102565942D01*
X158483249Y-102523822D01*
X158611213Y-102455424D01*
X158723375Y-102363375D01*
X158746446Y-102335263D01*
X160575268Y-100506441D01*
X160603374Y-100483375D01*
X160695424Y-100371213D01*
X160763822Y-100243249D01*
X160805942Y-100104399D01*
X160816600Y-99996186D01*
X160816600Y-99996177D01*
X160820163Y-99960001D01*
X160816600Y-99923825D01*
X160816600Y-96645109D01*
X160881709Y-96580000D01*
X161937745Y-96580000D01*
X161945000Y-96653660D01*
X161945000Y-96662240D01*
X161946674Y-96670655D01*
X161953929Y-96744316D01*
X161975416Y-96815149D01*
X161977089Y-96823560D01*
X161980371Y-96831483D01*
X162001858Y-96902317D01*
X162036750Y-96967596D01*
X162040033Y-96975521D01*
X162044799Y-96982654D01*
X162079691Y-97047932D01*
X162126646Y-97105147D01*
X162131413Y-97112281D01*
X162137480Y-97118348D01*
X162184436Y-97175564D01*
X162241652Y-97222520D01*
X162247719Y-97228587D01*
X162254853Y-97233354D01*
X162312068Y-97280309D01*
X162377346Y-97315201D01*
X162384479Y-97319967D01*
X162392404Y-97323250D01*
X162457683Y-97358142D01*
X162528517Y-97379629D01*
X162536440Y-97382911D01*
X162544851Y-97384584D01*
X162615684Y-97406071D01*
X162689345Y-97413326D01*
X162697760Y-97415000D01*
X162706340Y-97415000D01*
X162738830Y-97418200D01*
X176842807Y-97418200D01*
X177047801Y-97623195D01*
X177047800Y-113031579D01*
X176879319Y-113200060D01*
X176757227Y-113067697D01*
X176549629Y-112916527D01*
X176316528Y-112808762D01*
X176215400Y-112778090D01*
X176013000Y-112901776D01*
X176013000Y-113919000D01*
X176033000Y-113919000D01*
X176033000Y-114173000D01*
X176013000Y-114173000D01*
X176013000Y-115919000D01*
X176033000Y-115919000D01*
X176033000Y-116173000D01*
X176013000Y-116173000D01*
X176013000Y-117190224D01*
X176215400Y-117313910D01*
X176316528Y-117283238D01*
X176549629Y-117175473D01*
X176757227Y-117024303D01*
X176879319Y-116891940D01*
X177050923Y-117063544D01*
X177265482Y-117206907D01*
X177503887Y-117305658D01*
X177756976Y-117356000D01*
X178015024Y-117356000D01*
X178268113Y-117305658D01*
X178506518Y-117206907D01*
X178721077Y-117063544D01*
X178886000Y-116898621D01*
X179050923Y-117063544D01*
X179265482Y-117206907D01*
X179503887Y-117305658D01*
X179756976Y-117356000D01*
X180015024Y-117356000D01*
X180268113Y-117305658D01*
X180506518Y-117206907D01*
X180721077Y-117063544D01*
X180886000Y-116898621D01*
X181050923Y-117063544D01*
X181265482Y-117206907D01*
X181503887Y-117305658D01*
X181756976Y-117356000D01*
X182015024Y-117356000D01*
X182268113Y-117305658D01*
X182506518Y-117206907D01*
X182721077Y-117063544D01*
X182903544Y-116881077D01*
X183046907Y-116666518D01*
X183145658Y-116428113D01*
X183196000Y-116175024D01*
X183196000Y-115916976D01*
X183145658Y-115663887D01*
X183046907Y-115425482D01*
X182903544Y-115210923D01*
X182738621Y-115046000D01*
X182903544Y-114881077D01*
X183046907Y-114666518D01*
X183145658Y-114428113D01*
X183196000Y-114175024D01*
X183196000Y-113916976D01*
X183145658Y-113663887D01*
X183046907Y-113425482D01*
X182903544Y-113210923D01*
X182721077Y-113028456D01*
X182506518Y-112885093D01*
X182268113Y-112786342D01*
X182015024Y-112736000D01*
X181756976Y-112736000D01*
X181503887Y-112786342D01*
X181265482Y-112885093D01*
X181050923Y-113028456D01*
X180886000Y-113193379D01*
X180724200Y-113031579D01*
X180724200Y-95195170D01*
X180728255Y-95154000D01*
X180721000Y-95080340D01*
X180721000Y-95071760D01*
X180719326Y-95063345D01*
X180712071Y-94989684D01*
X180690584Y-94918851D01*
X180688911Y-94910440D01*
X180685629Y-94902517D01*
X180664142Y-94831683D01*
X180629250Y-94766404D01*
X180625967Y-94758479D01*
X180621201Y-94751346D01*
X180586309Y-94686068D01*
X180539354Y-94628853D01*
X180534587Y-94621719D01*
X180528520Y-94615652D01*
X180481564Y-94558436D01*
X180424348Y-94511480D01*
X180418281Y-94505413D01*
X180411147Y-94500646D01*
X180353932Y-94453691D01*
X180288654Y-94418799D01*
X180281521Y-94414033D01*
X180273596Y-94410750D01*
X180208317Y-94375858D01*
X180137483Y-94354371D01*
X180129560Y-94351089D01*
X180121149Y-94349416D01*
X180050316Y-94327929D01*
X179976655Y-94320674D01*
X179968240Y-94319000D01*
X179959660Y-94319000D01*
X179927170Y-94315800D01*
X179886000Y-94311745D01*
X179844830Y-94315800D01*
X179812340Y-94319000D01*
X179803760Y-94319000D01*
X179795345Y-94320674D01*
X179721684Y-94327929D01*
X179650851Y-94349416D01*
X179642440Y-94351089D01*
X179634517Y-94354371D01*
X179563683Y-94375858D01*
X179498404Y-94410750D01*
X179490479Y-94414033D01*
X179483346Y-94418799D01*
X179418068Y-94453691D01*
X179360853Y-94500646D01*
X179353719Y-94505413D01*
X179347652Y-94511480D01*
X179290436Y-94558436D01*
X179243480Y-94615652D01*
X179237413Y-94621719D01*
X179232646Y-94628853D01*
X179185691Y-94686068D01*
X179150799Y-94751346D01*
X179146033Y-94758479D01*
X179142750Y-94766404D01*
X179107858Y-94831683D01*
X179086371Y-94902517D01*
X179083089Y-94910440D01*
X179081416Y-94918851D01*
X179059929Y-94989684D01*
X179052674Y-95063345D01*
X179051000Y-95071760D01*
X179051000Y-95080340D01*
X179043745Y-95154000D01*
X179047801Y-95195180D01*
X179047800Y-113031579D01*
X178886000Y-113193379D01*
X178724200Y-113031579D01*
X178724200Y-97317170D01*
X178728255Y-97276000D01*
X178721000Y-97202340D01*
X178721000Y-97193760D01*
X178719326Y-97185345D01*
X178712071Y-97111684D01*
X178690584Y-97040851D01*
X178688911Y-97032440D01*
X178685629Y-97024517D01*
X178664142Y-96953683D01*
X178629250Y-96888404D01*
X178625967Y-96880479D01*
X178621201Y-96873346D01*
X178586309Y-96808068D01*
X178548707Y-96762250D01*
X178539353Y-96750852D01*
X178534587Y-96743719D01*
X178528521Y-96737653D01*
X178507808Y-96712414D01*
X178507806Y-96712412D01*
X178481564Y-96680436D01*
X178449587Y-96654193D01*
X177811811Y-96016417D01*
X177785564Y-95984436D01*
X177657932Y-95879691D01*
X177512317Y-95801858D01*
X177354316Y-95753929D01*
X177231170Y-95741800D01*
X177231163Y-95741800D01*
X177190000Y-95737746D01*
X177148837Y-95741800D01*
X162738830Y-95741800D01*
X162706340Y-95745000D01*
X162697760Y-95745000D01*
X162689345Y-95746674D01*
X162615684Y-95753929D01*
X162544851Y-95775416D01*
X162536440Y-95777089D01*
X162528517Y-95780371D01*
X162457683Y-95801858D01*
X162392404Y-95836750D01*
X162384479Y-95840033D01*
X162377346Y-95844799D01*
X162312068Y-95879691D01*
X162254853Y-95926646D01*
X162247719Y-95931413D01*
X162241652Y-95937480D01*
X162184436Y-95984436D01*
X162137480Y-96041652D01*
X162131413Y-96047719D01*
X162126646Y-96054853D01*
X162079691Y-96112068D01*
X162044799Y-96177346D01*
X162040033Y-96184479D01*
X162036750Y-96192404D01*
X162001858Y-96257683D01*
X161980371Y-96328517D01*
X161977089Y-96336440D01*
X161975416Y-96344851D01*
X161953929Y-96415684D01*
X161946674Y-96489345D01*
X161945000Y-96497760D01*
X161945000Y-96506340D01*
X161937745Y-96580000D01*
X160881709Y-96580000D01*
X162055110Y-95406600D01*
X164913817Y-95406600D01*
X164950000Y-95410164D01*
X164986183Y-95406600D01*
X164986186Y-95406600D01*
X165094399Y-95395942D01*
X165233249Y-95353822D01*
X165361213Y-95285424D01*
X165473375Y-95193375D01*
X165496446Y-95165263D01*
X169075273Y-91586437D01*
X169103374Y-91563375D01*
X169126437Y-91535273D01*
X169126442Y-91535268D01*
X169195423Y-91451214D01*
X169195425Y-91451212D01*
X169263822Y-91323249D01*
X169305942Y-91184399D01*
X169316600Y-91076186D01*
X169316600Y-91076177D01*
X169320163Y-91040001D01*
X169316600Y-91003825D01*
X169316600Y-88794112D01*
X169337346Y-88805201D01*
X169344479Y-88809967D01*
X169352404Y-88813250D01*
X169417683Y-88848142D01*
X169488517Y-88869629D01*
X169496440Y-88872911D01*
X169504851Y-88874584D01*
X169575684Y-88896071D01*
X169649345Y-88903326D01*
X169657760Y-88905000D01*
X169666340Y-88905000D01*
X169698830Y-88908200D01*
X171372807Y-88908200D01*
X173278194Y-90813588D01*
X173304436Y-90845564D01*
X173336412Y-90871806D01*
X173336414Y-90871808D01*
X173361653Y-90892521D01*
X173367719Y-90898587D01*
X173374852Y-90903353D01*
X173432068Y-90950309D01*
X173497346Y-90985201D01*
X173504479Y-90989967D01*
X173512404Y-90993250D01*
X173577683Y-91028142D01*
X173648517Y-91049629D01*
X173656440Y-91052911D01*
X173664851Y-91054584D01*
X173735684Y-91076071D01*
X173809345Y-91083326D01*
X173817760Y-91085000D01*
X173826340Y-91085000D01*
X173858830Y-91088200D01*
X173858837Y-91088200D01*
X173900000Y-91092254D01*
X173941163Y-91088200D01*
X173941170Y-91088200D01*
X173973660Y-91085000D01*
X173982240Y-91085000D01*
X173990655Y-91083326D01*
X174064316Y-91076071D01*
X174135149Y-91054584D01*
X174143560Y-91052911D01*
X174151483Y-91049629D01*
X174222317Y-91028142D01*
X174287596Y-90993250D01*
X174295521Y-90989967D01*
X174302654Y-90985201D01*
X174367932Y-90950309D01*
X174425147Y-90903354D01*
X174432281Y-90898587D01*
X174438348Y-90892520D01*
X174495564Y-90845564D01*
X174542520Y-90788348D01*
X174548587Y-90782281D01*
X174553354Y-90775147D01*
X174600309Y-90717932D01*
X174635201Y-90652654D01*
X174639967Y-90645521D01*
X174643250Y-90637596D01*
X174678142Y-90572317D01*
X174699629Y-90501483D01*
X174702911Y-90493560D01*
X174704584Y-90485149D01*
X174726071Y-90414316D01*
X174733326Y-90340655D01*
X174735000Y-90332240D01*
X174735000Y-90323660D01*
X174742255Y-90250000D01*
X174735000Y-90176340D01*
X174735000Y-90167760D01*
X174733326Y-90159345D01*
X174726071Y-90085684D01*
X174704584Y-90014851D01*
X174702911Y-90006440D01*
X174699629Y-89998517D01*
X174678142Y-89927683D01*
X174643250Y-89862404D01*
X174639967Y-89854479D01*
X174635201Y-89847346D01*
X174600309Y-89782068D01*
X174560244Y-89733249D01*
X174553353Y-89724852D01*
X174548587Y-89717719D01*
X174542521Y-89711653D01*
X174521808Y-89686414D01*
X174521806Y-89686412D01*
X174495564Y-89654436D01*
X174463588Y-89628194D01*
X172558200Y-87722807D01*
X172558200Y-83667193D01*
X182293589Y-73931805D01*
X182325564Y-73905564D01*
X182362610Y-73860424D01*
X182430309Y-73777932D01*
X182508142Y-73632317D01*
X182556071Y-73474316D01*
X182560060Y-73433814D01*
X182568200Y-73351170D01*
X182568200Y-73351163D01*
X182572254Y-73310000D01*
X182568200Y-73268837D01*
X182568200Y-70138830D01*
X182565000Y-70106340D01*
X182565000Y-70077760D01*
X182559424Y-70049729D01*
X182556071Y-70015684D01*
X182546140Y-69982946D01*
X182532911Y-69916440D01*
X182469967Y-69764479D01*
X182378587Y-69627719D01*
X182262281Y-69511413D01*
X182125521Y-69420033D01*
X181973560Y-69357089D01*
X181812240Y-69325000D01*
X181647760Y-69325000D01*
X181486440Y-69357089D01*
X181334479Y-69420033D01*
X181197719Y-69511413D01*
X181081413Y-69627719D01*
X180990033Y-69764479D01*
X180927089Y-69916440D01*
X180913858Y-69982956D01*
X180903930Y-70015684D01*
X180900578Y-70049719D01*
X180895000Y-70077760D01*
X180895000Y-70106350D01*
X180891801Y-70138830D01*
X180891800Y-72962806D01*
X171156413Y-82698194D01*
X171124437Y-82724436D01*
X171098195Y-82756412D01*
X171098192Y-82756415D01*
X171019691Y-82852069D01*
X170941858Y-82997684D01*
X170893929Y-83155685D01*
X170877746Y-83320000D01*
X170881801Y-83361172D01*
X170881800Y-84391169D01*
X170881801Y-84391179D01*
X170881800Y-87231800D01*
X169698830Y-87231800D01*
X169666340Y-87235000D01*
X169657760Y-87235000D01*
X169649345Y-87236674D01*
X169575684Y-87243929D01*
X169504851Y-87265416D01*
X169496440Y-87267089D01*
X169488517Y-87270371D01*
X169417683Y-87291858D01*
X169352404Y-87326750D01*
X169344479Y-87330033D01*
X169337346Y-87334799D01*
X169316600Y-87345888D01*
X169316600Y-83725109D01*
X175135274Y-77906436D01*
X175163374Y-77883375D01*
X175186437Y-77855273D01*
X175186442Y-77855268D01*
X175255423Y-77771214D01*
X175255425Y-77771212D01*
X175323822Y-77643249D01*
X175365942Y-77504399D01*
X175376600Y-77396186D01*
X175376600Y-77396177D01*
X175380163Y-77360001D01*
X175376600Y-77323825D01*
X175376600Y-68163814D01*
X175586632Y-68023475D01*
X175718487Y-67891620D01*
X175740498Y-67964180D01*
X175799463Y-68074494D01*
X175878815Y-68171185D01*
X175975506Y-68250537D01*
X176085820Y-68309502D01*
X176205518Y-68345812D01*
X176330000Y-68358072D01*
X178030000Y-68358072D01*
X178154482Y-68345812D01*
X178274180Y-68309502D01*
X178384494Y-68250537D01*
X178481185Y-68171185D01*
X178560537Y-68074494D01*
X178619502Y-67964180D01*
X178655812Y-67844482D01*
X178668072Y-67720000D01*
X178668072Y-66020000D01*
X178655812Y-65895518D01*
X178619502Y-65775820D01*
X178560537Y-65665506D01*
X178481185Y-65568815D01*
X178384494Y-65489463D01*
X178274180Y-65430498D01*
X178154482Y-65394188D01*
X178030000Y-65381928D01*
X177916600Y-65381928D01*
X177916600Y-65186175D01*
X177920163Y-65149999D01*
X177916600Y-65113823D01*
X177916600Y-65113814D01*
X177905942Y-65005601D01*
X177863822Y-64866751D01*
X177795424Y-64738787D01*
X177703375Y-64626625D01*
X177675263Y-64603554D01*
X177323150Y-64251441D01*
X185044181Y-64251441D01*
X185044180Y-120280000D01*
X100700000Y-120280000D01*
X100700000Y-113371000D01*
X102572928Y-113371000D01*
X102572928Y-114721000D01*
X102585188Y-114845482D01*
X102621498Y-114965180D01*
X102680463Y-115075494D01*
X102759815Y-115172185D01*
X102846697Y-115243487D01*
X102725093Y-115425482D01*
X102626342Y-115663887D01*
X102576000Y-115916976D01*
X102576000Y-116175024D01*
X102626342Y-116428113D01*
X102725093Y-116666518D01*
X102868456Y-116881077D01*
X103050923Y-117063544D01*
X103265482Y-117206907D01*
X103503887Y-117305658D01*
X103756976Y-117356000D01*
X104015024Y-117356000D01*
X104268113Y-117305658D01*
X104506518Y-117206907D01*
X104721077Y-117063544D01*
X104886000Y-116898621D01*
X105050923Y-117063544D01*
X105265482Y-117206907D01*
X105503887Y-117305658D01*
X105756976Y-117356000D01*
X106015024Y-117356000D01*
X106268113Y-117305658D01*
X106506518Y-117206907D01*
X106721077Y-117063544D01*
X106886000Y-116898621D01*
X107050923Y-117063544D01*
X107265482Y-117206907D01*
X107503887Y-117305658D01*
X107756976Y-117356000D01*
X108015024Y-117356000D01*
X108268113Y-117305658D01*
X108506518Y-117206907D01*
X108721077Y-117063544D01*
X108892681Y-116891940D01*
X109014773Y-117024303D01*
X109222371Y-117175473D01*
X109455472Y-117283238D01*
X109556600Y-117313910D01*
X109759000Y-117190224D01*
X109759000Y-116173000D01*
X109739000Y-116173000D01*
X109739000Y-115919000D01*
X109759000Y-115919000D01*
X109759000Y-114173000D01*
X109739000Y-114173000D01*
X109739000Y-113919000D01*
X109759000Y-113919000D01*
X109759000Y-112901776D01*
X110013000Y-112901776D01*
X110013000Y-113919000D01*
X110033000Y-113919000D01*
X110033000Y-114173000D01*
X110013000Y-114173000D01*
X110013000Y-115919000D01*
X110033000Y-115919000D01*
X110033000Y-116173000D01*
X110013000Y-116173000D01*
X110013000Y-117190224D01*
X110215400Y-117313910D01*
X110316528Y-117283238D01*
X110549629Y-117175473D01*
X110757227Y-117024303D01*
X110879319Y-116891940D01*
X111050923Y-117063544D01*
X111265482Y-117206907D01*
X111503887Y-117305658D01*
X111756976Y-117356000D01*
X112015024Y-117356000D01*
X112268113Y-117305658D01*
X112506518Y-117206907D01*
X112721077Y-117063544D01*
X112892681Y-116891940D01*
X113014773Y-117024303D01*
X113222371Y-117175473D01*
X113455472Y-117283238D01*
X113556600Y-117313910D01*
X113759000Y-117190224D01*
X113759000Y-116173000D01*
X113739000Y-116173000D01*
X113739000Y-115919000D01*
X113759000Y-115919000D01*
X113759000Y-114173000D01*
X113739000Y-114173000D01*
X113739000Y-113919000D01*
X113759000Y-113919000D01*
X113759000Y-112901776D01*
X113556600Y-112778090D01*
X113455472Y-112808762D01*
X113222371Y-112916527D01*
X113014773Y-113067697D01*
X112892681Y-113200060D01*
X112721077Y-113028456D01*
X112506518Y-112885093D01*
X112268113Y-112786342D01*
X112015024Y-112736000D01*
X111756976Y-112736000D01*
X111503887Y-112786342D01*
X111265482Y-112885093D01*
X111050923Y-113028456D01*
X110879319Y-113200060D01*
X110757227Y-113067697D01*
X110549629Y-112916527D01*
X110316528Y-112808762D01*
X110215400Y-112778090D01*
X110013000Y-112901776D01*
X109759000Y-112901776D01*
X109556600Y-112778090D01*
X109455472Y-112808762D01*
X109222371Y-112916527D01*
X109014773Y-113067697D01*
X108892681Y-113200060D01*
X108721077Y-113028456D01*
X108506518Y-112885093D01*
X108268113Y-112786342D01*
X108015024Y-112736000D01*
X107756976Y-112736000D01*
X107503887Y-112786342D01*
X107265482Y-112885093D01*
X107050923Y-113028456D01*
X106886000Y-113193379D01*
X106721077Y-113028456D01*
X106506518Y-112885093D01*
X106268113Y-112786342D01*
X106015024Y-112736000D01*
X105756976Y-112736000D01*
X105503887Y-112786342D01*
X105265482Y-112885093D01*
X105083487Y-113006697D01*
X105012185Y-112919815D01*
X104915494Y-112840463D01*
X104805180Y-112781498D01*
X104685482Y-112745188D01*
X104561000Y-112732928D01*
X103211000Y-112732928D01*
X103086518Y-112745188D01*
X102966820Y-112781498D01*
X102856506Y-112840463D01*
X102759815Y-112919815D01*
X102680463Y-113016506D01*
X102621498Y-113126820D01*
X102585188Y-113246518D01*
X102572928Y-113371000D01*
X100700000Y-113371000D01*
X100700000Y-93857195D01*
X110527530Y-93857195D01*
X110527530Y-94047323D01*
X110564622Y-94233797D01*
X110637381Y-94409453D01*
X110743010Y-94567538D01*
X110877451Y-94701979D01*
X111035536Y-94807608D01*
X111211192Y-94880367D01*
X111241467Y-94886389D01*
X112992606Y-96637529D01*
X113018848Y-96669505D01*
X113050824Y-96695747D01*
X113050826Y-96695749D01*
X113081124Y-96720614D01*
X113146480Y-96774250D01*
X113292095Y-96852083D01*
X113450096Y-96900012D01*
X113573242Y-96912141D01*
X113573251Y-96912141D01*
X113614411Y-96916195D01*
X113655571Y-96912141D01*
X115850271Y-96912141D01*
X116008364Y-96977625D01*
X116189931Y-97013741D01*
X116375055Y-97013741D01*
X116556622Y-96977625D01*
X116714715Y-96912141D01*
X116984896Y-96912141D01*
X117026059Y-96916195D01*
X117067222Y-96912141D01*
X117067229Y-96912141D01*
X117190375Y-96900012D01*
X117348376Y-96852083D01*
X117493991Y-96774250D01*
X117621623Y-96669505D01*
X117647870Y-96637523D01*
X118063583Y-96221810D01*
X118095564Y-96195564D01*
X118200309Y-96067932D01*
X118278142Y-95922317D01*
X118326071Y-95764316D01*
X118338200Y-95641170D01*
X118338200Y-95641163D01*
X118342254Y-95600000D01*
X118338200Y-95558837D01*
X118338200Y-93477193D01*
X118387193Y-93428200D01*
X121112807Y-93428200D01*
X122801676Y-95117070D01*
X122867160Y-95275162D01*
X122970010Y-95429087D01*
X123100913Y-95559990D01*
X123254838Y-95662840D01*
X123425871Y-95733684D01*
X123607438Y-95769800D01*
X123792562Y-95769800D01*
X123974129Y-95733684D01*
X124145162Y-95662840D01*
X124299087Y-95559990D01*
X124429990Y-95429087D01*
X124532840Y-95275162D01*
X124603684Y-95104129D01*
X124639800Y-94922562D01*
X124639800Y-94737438D01*
X124603684Y-94555871D01*
X124532840Y-94384838D01*
X124429990Y-94230913D01*
X124299087Y-94100010D01*
X124145162Y-93997160D01*
X123987070Y-93931676D01*
X122081811Y-92026418D01*
X122055564Y-91994436D01*
X121927932Y-91889691D01*
X121782317Y-91811858D01*
X121624316Y-91763929D01*
X121501170Y-91751800D01*
X121501163Y-91751800D01*
X121460000Y-91747746D01*
X121418837Y-91751800D01*
X118081159Y-91751800D01*
X118039999Y-91747746D01*
X117998839Y-91751800D01*
X117998830Y-91751800D01*
X117875684Y-91763929D01*
X117717683Y-91811858D01*
X117572068Y-91889691D01*
X117444436Y-91994436D01*
X117418189Y-92026418D01*
X116936413Y-92508194D01*
X116904437Y-92534436D01*
X116878195Y-92566412D01*
X116878192Y-92566415D01*
X116799691Y-92662069D01*
X116721858Y-92807684D01*
X116673929Y-92965685D01*
X116657746Y-93130000D01*
X116661801Y-93171172D01*
X116661800Y-95213823D01*
X116556622Y-95170257D01*
X116375055Y-95134141D01*
X116189931Y-95134141D01*
X116008364Y-95170257D01*
X115850271Y-95235741D01*
X113961606Y-95235741D01*
X112426860Y-93700996D01*
X112420838Y-93670721D01*
X112348079Y-93495065D01*
X112242450Y-93336980D01*
X112108009Y-93202539D01*
X111949924Y-93096910D01*
X111774268Y-93024151D01*
X111587794Y-92987059D01*
X111397666Y-92987059D01*
X111211192Y-93024151D01*
X111035536Y-93096910D01*
X110877451Y-93202539D01*
X110743010Y-93336980D01*
X110637381Y-93495065D01*
X110564622Y-93670721D01*
X110527530Y-93857195D01*
X100700000Y-93857195D01*
X100700000Y-64251441D01*
X153926849Y-64251441D01*
X153524732Y-64653559D01*
G04 #@! TA.AperFunction,Conductor*
D24*
G36*
X153524732Y-64653559D02*
G01*
X153496626Y-64676625D01*
X153473560Y-64704731D01*
X153473558Y-64704733D01*
X153404576Y-64788788D01*
X153336178Y-64916753D01*
X153294059Y-65055602D01*
X153279836Y-65200000D01*
X153283401Y-65236193D01*
X153283401Y-65811928D01*
X153220000Y-65811928D01*
X153095518Y-65824188D01*
X152975820Y-65860498D01*
X152865506Y-65919463D01*
X152768815Y-65998815D01*
X152689463Y-66095506D01*
X152630498Y-66205820D01*
X152594188Y-66325518D01*
X152581928Y-66450000D01*
X152581928Y-66513400D01*
X149346175Y-66513400D01*
X149309999Y-66509837D01*
X149273823Y-66513400D01*
X149273814Y-66513400D01*
X149165601Y-66524058D01*
X149026751Y-66566178D01*
X148898787Y-66634576D01*
X148898785Y-66634577D01*
X148898786Y-66634577D01*
X148819068Y-66700000D01*
X148786625Y-66726625D01*
X148763559Y-66754731D01*
X146514732Y-69003559D01*
X146486626Y-69026625D01*
X146463560Y-69054731D01*
X146463558Y-69054733D01*
X146394576Y-69138788D01*
X146326178Y-69266753D01*
X146320357Y-69285942D01*
X146285195Y-69401858D01*
X146284059Y-69405602D01*
X146269836Y-69550000D01*
X146273401Y-69586193D01*
X146273401Y-79238007D01*
X142678200Y-75642807D01*
X142678200Y-71065927D01*
X142786632Y-70993475D01*
X142911710Y-70868397D01*
X143531208Y-70868397D01*
X143608843Y-71117472D01*
X143872883Y-71243371D01*
X144156411Y-71315339D01*
X144448531Y-71330611D01*
X144738019Y-71288599D01*
X145013747Y-71190919D01*
X145151157Y-71117472D01*
X145228792Y-70868397D01*
X144380000Y-70019605D01*
X143531208Y-70868397D01*
X142911710Y-70868397D01*
X142993475Y-70786632D01*
X143109311Y-70613271D01*
X143351603Y-70688792D01*
X144200395Y-69840000D01*
X144559605Y-69840000D01*
X145408397Y-70688792D01*
X145657472Y-70611157D01*
X145783371Y-70347117D01*
X145855339Y-70063589D01*
X145870611Y-69771469D01*
X145828599Y-69481981D01*
X145730919Y-69206253D01*
X145657472Y-69068843D01*
X145408397Y-68991208D01*
X144559605Y-69840000D01*
X144200395Y-69840000D01*
X143351603Y-68991208D01*
X143109311Y-69066729D01*
X142993475Y-68893368D01*
X142786632Y-68686525D01*
X142612240Y-68570000D01*
X142786632Y-68453475D01*
X142973715Y-68266392D01*
X143041595Y-68393386D01*
X143152038Y-68527962D01*
X143286614Y-68638405D01*
X143440150Y-68720472D01*
X143549293Y-68753580D01*
X143531208Y-68811603D01*
X144380000Y-69660395D01*
X145228792Y-68811603D01*
X145210707Y-68753580D01*
X145319850Y-68720472D01*
X145473386Y-68638405D01*
X145607962Y-68527962D01*
X145718405Y-68393386D01*
X145800472Y-68239850D01*
X145851008Y-68073254D01*
X145868072Y-67900000D01*
X145868072Y-66700000D01*
X145851008Y-66526746D01*
X145800472Y-66360150D01*
X145718405Y-66206614D01*
X145607962Y-66072038D01*
X145473386Y-65961595D01*
X145319850Y-65879528D01*
X145153254Y-65828992D01*
X145119605Y-65825678D01*
X145120164Y-65820000D01*
X145105942Y-65675601D01*
X145086410Y-65611212D01*
X145063822Y-65536751D01*
X144995424Y-65408787D01*
X144903375Y-65296625D01*
X144875269Y-65273559D01*
X144216445Y-64614736D01*
X144193375Y-64586625D01*
X144081213Y-64494576D01*
X143953249Y-64426178D01*
X143814399Y-64384058D01*
X143706186Y-64373400D01*
X143706183Y-64373400D01*
X143670000Y-64369836D01*
X143633817Y-64373400D01*
X120176175Y-64373400D01*
X120139999Y-64369837D01*
X120103823Y-64373400D01*
X120103814Y-64373400D01*
X119995601Y-64384058D01*
X119856751Y-64426178D01*
X119728787Y-64494576D01*
X119616625Y-64586625D01*
X119593554Y-64614737D01*
X118954732Y-65253559D01*
X118926625Y-65276626D01*
X118834576Y-65388788D01*
X118766178Y-65516752D01*
X118724058Y-65655602D01*
X118715111Y-65746442D01*
X118709836Y-65800000D01*
X118713400Y-65836183D01*
X118713401Y-83343807D01*
X118709836Y-83380000D01*
X118714328Y-83425602D01*
X118724059Y-83524399D01*
X118736193Y-83564398D01*
X118766178Y-83663247D01*
X118834576Y-83791212D01*
X118885489Y-83853249D01*
X118926626Y-83903375D01*
X118954732Y-83926441D01*
X120098598Y-85070307D01*
X120099780Y-85076251D01*
X120162724Y-85228212D01*
X120254104Y-85364972D01*
X120370410Y-85481278D01*
X120507170Y-85572658D01*
X120659131Y-85635602D01*
X120820451Y-85667691D01*
X120984931Y-85667691D01*
X121146251Y-85635602D01*
X121298212Y-85572658D01*
X121434972Y-85481278D01*
X121507270Y-85408980D01*
X121675907Y-85577616D01*
X121677089Y-85583560D01*
X121740033Y-85735521D01*
X121831413Y-85872281D01*
X121947719Y-85988587D01*
X122084479Y-86079967D01*
X122236440Y-86142911D01*
X122397760Y-86175000D01*
X122562240Y-86175000D01*
X122723560Y-86142911D01*
X122875521Y-86079967D01*
X123012281Y-85988587D01*
X123128587Y-85872281D01*
X123219967Y-85735521D01*
X123282911Y-85583560D01*
X123315000Y-85422240D01*
X123315000Y-85257760D01*
X123282911Y-85096440D01*
X123219967Y-84944479D01*
X123128587Y-84807719D01*
X123012281Y-84691413D01*
X122875521Y-84600033D01*
X122723560Y-84537089D01*
X122717616Y-84535907D01*
X122136600Y-83954891D01*
X122136600Y-69545109D01*
X123645110Y-68036600D01*
X128958840Y-68036600D01*
X128946625Y-68046625D01*
X128923559Y-68074731D01*
X127864733Y-69133558D01*
X127404732Y-69593559D01*
X127376626Y-69616625D01*
X127353560Y-69644731D01*
X127353558Y-69644733D01*
X127284576Y-69728788D01*
X127216178Y-69856753D01*
X127174059Y-69995602D01*
X127159836Y-70140000D01*
X127163401Y-70176193D01*
X127163400Y-80769440D01*
X127160033Y-80774479D01*
X127097089Y-80926440D01*
X127065000Y-81087760D01*
X127065000Y-81252240D01*
X127097089Y-81413560D01*
X127160033Y-81565521D01*
X127251413Y-81702281D01*
X127367719Y-81818587D01*
X127504479Y-81909967D01*
X127656440Y-81972911D01*
X127817760Y-82005000D01*
X127982240Y-82005000D01*
X128143560Y-81972911D01*
X128295521Y-81909967D01*
X128300000Y-81906974D01*
X128304479Y-81909967D01*
X128456440Y-81972911D01*
X128617760Y-82005000D01*
X128782240Y-82005000D01*
X128943560Y-81972911D01*
X129095521Y-81909967D01*
X129232281Y-81818587D01*
X129348587Y-81702281D01*
X129439967Y-81565521D01*
X129502911Y-81413560D01*
X129535000Y-81252240D01*
X129535000Y-81087760D01*
X129502911Y-80926440D01*
X129439967Y-80774479D01*
X129436600Y-80769440D01*
X129436600Y-73775109D01*
X129471442Y-73740267D01*
X129905110Y-73306600D01*
X140003817Y-73306600D01*
X140040000Y-73310164D01*
X140076183Y-73306600D01*
X140076186Y-73306600D01*
X140184399Y-73295942D01*
X140323249Y-73253822D01*
X140451213Y-73185424D01*
X140563375Y-73093375D01*
X140586445Y-73065264D01*
X141001801Y-72649909D01*
X141001800Y-75948837D01*
X140997746Y-75990000D01*
X141001800Y-76031163D01*
X141001800Y-76031169D01*
X141013929Y-76154315D01*
X141061858Y-76312316D01*
X141139691Y-76457931D01*
X141244436Y-76585564D01*
X141276418Y-76611811D01*
X145231801Y-80567195D01*
X145231800Y-87915802D01*
X145134056Y-88013547D01*
X144678152Y-87557641D01*
X144612667Y-87399547D01*
X144509817Y-87245622D01*
X144378914Y-87114719D01*
X144224989Y-87011869D01*
X144066896Y-86946385D01*
X142614411Y-85493904D01*
X142548927Y-85335810D01*
X142446077Y-85181885D01*
X142315174Y-85050982D01*
X142161249Y-84948132D01*
X142003155Y-84882648D01*
X141302741Y-84182234D01*
X141276494Y-84150252D01*
X141148862Y-84045507D01*
X141003247Y-83967674D01*
X140845246Y-83919745D01*
X140722100Y-83907616D01*
X140722092Y-83907616D01*
X140680930Y-83903562D01*
X140639767Y-83907616D01*
X140292840Y-83907616D01*
X140134747Y-83842132D01*
X139953180Y-83806016D01*
X139768056Y-83806016D01*
X139586489Y-83842132D01*
X139428396Y-83907616D01*
X137011590Y-83907616D01*
X136853497Y-83842132D01*
X136671930Y-83806016D01*
X136486806Y-83806016D01*
X136305239Y-83842132D01*
X136147146Y-83907616D01*
X130644402Y-83907616D01*
X130486309Y-83842132D01*
X130304742Y-83806016D01*
X130119618Y-83806016D01*
X129938051Y-83842132D01*
X129779958Y-83907616D01*
X128565842Y-83907616D01*
X128524679Y-83903562D01*
X128483516Y-83907616D01*
X128483510Y-83907616D01*
X128360364Y-83919745D01*
X128202363Y-83967674D01*
X128114221Y-84014787D01*
X128056748Y-84045507D01*
X128010126Y-84083769D01*
X127929116Y-84150252D01*
X127902873Y-84182229D01*
X127483777Y-84601325D01*
X127324838Y-84667160D01*
X127170913Y-84770010D01*
X127040010Y-84900913D01*
X126937160Y-85054838D01*
X126866316Y-85225871D01*
X126830200Y-85407438D01*
X126830200Y-85592562D01*
X126866316Y-85774129D01*
X126937160Y-85945162D01*
X126952106Y-85967530D01*
X126952105Y-92102656D01*
X126886621Y-92260749D01*
X126850505Y-92442316D01*
X126850505Y-92627440D01*
X126886621Y-92809007D01*
X126952106Y-92967102D01*
X126952105Y-94579219D01*
X126886621Y-94737312D01*
X126850505Y-94918879D01*
X126850505Y-95104003D01*
X126886621Y-95285570D01*
X126952106Y-95443665D01*
X126952105Y-97383906D01*
X126886621Y-97541999D01*
X126850505Y-97723566D01*
X126850505Y-97908690D01*
X126886621Y-98090257D01*
X126952106Y-98248352D01*
X126952105Y-99546247D01*
X126948062Y-99585243D01*
X126952105Y-99628571D01*
X126952105Y-99630735D01*
X126955944Y-99669712D01*
X126963402Y-99749638D01*
X126964021Y-99751716D01*
X126964234Y-99753881D01*
X126987595Y-99830892D01*
X127010519Y-99907884D01*
X127011533Y-99909804D01*
X127012163Y-99911882D01*
X127050054Y-99982770D01*
X127087603Y-100053896D01*
X127088973Y-100055583D01*
X127089996Y-100057497D01*
X127141040Y-100119695D01*
X127165612Y-100149951D01*
X127167125Y-100151480D01*
X127194741Y-100185130D01*
X127225058Y-100210011D01*
X129138638Y-102143339D01*
X129142462Y-102147914D01*
X129167578Y-102172578D01*
X129192360Y-102197616D01*
X129196954Y-102201426D01*
X129559917Y-102557860D01*
X129621528Y-102706603D01*
X129724378Y-102860528D01*
X129855281Y-102991431D01*
X130009206Y-103094281D01*
X130158460Y-103156104D01*
X130169190Y-103162381D01*
X130181748Y-103172687D01*
X130240362Y-103204017D01*
X130297695Y-103237557D01*
X130313039Y-103242863D01*
X130327363Y-103250520D01*
X130390962Y-103269813D01*
X130453738Y-103291523D01*
X130469821Y-103293734D01*
X130485364Y-103298449D01*
X130551501Y-103304963D01*
X130617309Y-103314010D01*
X130674700Y-103310578D01*
X136779958Y-103310578D01*
X136938051Y-103376062D01*
X137119618Y-103412178D01*
X137304742Y-103412178D01*
X137486309Y-103376062D01*
X137644402Y-103310578D01*
X140983083Y-103310578D01*
X141141176Y-103376062D01*
X141322743Y-103412178D01*
X141507867Y-103412178D01*
X141689434Y-103376062D01*
X141860467Y-103305218D01*
X142014392Y-103202368D01*
X142145295Y-103071465D01*
X142248145Y-102917540D01*
X142318989Y-102746507D01*
X142355105Y-102564940D01*
X142355105Y-102379816D01*
X142318989Y-102198249D01*
X142248145Y-102027216D01*
X142145295Y-101873291D01*
X142014392Y-101742388D01*
X141860467Y-101639538D01*
X141689434Y-101568694D01*
X141507867Y-101532578D01*
X141322743Y-101532578D01*
X141141176Y-101568694D01*
X140983083Y-101634178D01*
X137644402Y-101634178D01*
X137486309Y-101568694D01*
X137397123Y-101550954D01*
X143263535Y-95684542D01*
X143368280Y-95641156D01*
X143522205Y-95538306D01*
X143653108Y-95407403D01*
X143755958Y-95253478D01*
X143826802Y-95082445D01*
X143862918Y-94900878D01*
X143862918Y-94715754D01*
X143826802Y-94534187D01*
X143755958Y-94363154D01*
X143653108Y-94209229D01*
X143522205Y-94078326D01*
X143368280Y-93975476D01*
X143197247Y-93904632D01*
X143015680Y-93868516D01*
X142830556Y-93868516D01*
X142648989Y-93904632D01*
X142477956Y-93975476D01*
X142324031Y-94078326D01*
X142193128Y-94209229D01*
X142090278Y-94363154D01*
X142019434Y-94534187D01*
X142013557Y-94563733D01*
X137114010Y-99463281D01*
X137114004Y-99463286D01*
X136493430Y-100083860D01*
X130776480Y-94366909D01*
X137491438Y-87651951D01*
X137649530Y-87586468D01*
X137803455Y-87483618D01*
X137934358Y-87352715D01*
X138037208Y-87198790D01*
X138108052Y-87027757D01*
X138144168Y-86846190D01*
X138144168Y-86661066D01*
X138108052Y-86479499D01*
X138037208Y-86308466D01*
X137934358Y-86154541D01*
X137803455Y-86023638D01*
X137649530Y-85920788D01*
X137478497Y-85849944D01*
X137296930Y-85813828D01*
X137111806Y-85813828D01*
X136930239Y-85849944D01*
X136759206Y-85920788D01*
X136605281Y-86023638D01*
X136474378Y-86154541D01*
X136371528Y-86308466D01*
X136306045Y-86466558D01*
X129313342Y-93459261D01*
X129313051Y-93459319D01*
X129142018Y-93530163D01*
X128988093Y-93633013D01*
X128857190Y-93763916D01*
X128754340Y-93917841D01*
X128683496Y-94088874D01*
X128647380Y-94270441D01*
X128647380Y-94455565D01*
X128683496Y-94637132D01*
X128754340Y-94808165D01*
X128857190Y-94962090D01*
X128988093Y-95092993D01*
X129142018Y-95195843D01*
X129300111Y-95261327D01*
X135595107Y-101556323D01*
X135627355Y-101634178D01*
X131156182Y-101634178D01*
X131053455Y-101531451D01*
X130899530Y-101428601D01*
X130731841Y-101359142D01*
X130350680Y-100984838D01*
X128628505Y-99244891D01*
X128628505Y-98248350D01*
X128693989Y-98090257D01*
X128730105Y-97908690D01*
X128730105Y-97723566D01*
X128693989Y-97541999D01*
X128628505Y-97383906D01*
X128628505Y-95443663D01*
X128693989Y-95285570D01*
X128730105Y-95104003D01*
X128730105Y-94918879D01*
X128693989Y-94737312D01*
X128628505Y-94579219D01*
X128628505Y-92967100D01*
X128693989Y-92809007D01*
X128730105Y-92627440D01*
X128730105Y-92442316D01*
X128693989Y-92260749D01*
X128628505Y-92102656D01*
X128628505Y-85883201D01*
X128667973Y-85787916D01*
X128871874Y-85584016D01*
X129779958Y-85584016D01*
X129938051Y-85649500D01*
X130119618Y-85685616D01*
X130304742Y-85685616D01*
X130486309Y-85649500D01*
X130644402Y-85584016D01*
X136147146Y-85584016D01*
X136305239Y-85649500D01*
X136486806Y-85685616D01*
X136671930Y-85685616D01*
X136853497Y-85649500D01*
X137011590Y-85584016D01*
X139428396Y-85584016D01*
X139586489Y-85649500D01*
X139768056Y-85685616D01*
X139953180Y-85685616D01*
X140134747Y-85649500D01*
X140292840Y-85584016D01*
X140333737Y-85584016D01*
X140817764Y-86068043D01*
X140883247Y-86226134D01*
X140986097Y-86380059D01*
X141117000Y-86510962D01*
X141270925Y-86613812D01*
X141429019Y-86679296D01*
X142881503Y-88131779D01*
X142946987Y-88289871D01*
X143049837Y-88443796D01*
X143180740Y-88574699D01*
X143334665Y-88677549D01*
X143492756Y-88743032D01*
X144235731Y-89486010D01*
X144295855Y-89631163D01*
X144295856Y-93801204D01*
X144238184Y-93940437D01*
X144202068Y-94122004D01*
X144202068Y-94307128D01*
X144238184Y-94488695D01*
X144303668Y-94646788D01*
X144303669Y-98649529D01*
X144238184Y-98807624D01*
X144202068Y-98989191D01*
X144202068Y-99174315D01*
X144238184Y-99355882D01*
X144309028Y-99526915D01*
X144411878Y-99680840D01*
X144542781Y-99811743D01*
X144696706Y-99914593D01*
X144867739Y-99985437D01*
X145049306Y-100021553D01*
X145234430Y-100021553D01*
X145415997Y-99985437D01*
X145587030Y-99914593D01*
X145740955Y-99811743D01*
X145871858Y-99680840D01*
X145974708Y-99526915D01*
X146045552Y-99355882D01*
X146081668Y-99174315D01*
X146081668Y-98989191D01*
X146045552Y-98807624D01*
X145980068Y-98649531D01*
X145980068Y-94646788D01*
X146045552Y-94488695D01*
X146081668Y-94307128D01*
X146081668Y-94122004D01*
X146045552Y-93940437D01*
X145974708Y-93769404D01*
X145972255Y-93765733D01*
X145972255Y-89631163D01*
X146032379Y-89486010D01*
X146273400Y-89244989D01*
X146273400Y-108203817D01*
X146269836Y-108240000D01*
X146273400Y-108276183D01*
X146273400Y-108276185D01*
X146284058Y-108384398D01*
X146326178Y-108523248D01*
X146394576Y-108651212D01*
X146486625Y-108763374D01*
X146514732Y-108786441D01*
X150153401Y-112425111D01*
X150153401Y-112763525D01*
X150015024Y-112736000D01*
X149756976Y-112736000D01*
X149503887Y-112786342D01*
X149265482Y-112885093D01*
X149050923Y-113028456D01*
X148886000Y-113193379D01*
X148721077Y-113028456D01*
X148506518Y-112885093D01*
X148268113Y-112786342D01*
X148015024Y-112736000D01*
X147756976Y-112736000D01*
X147503887Y-112786342D01*
X147265482Y-112885093D01*
X147050923Y-113028456D01*
X146886000Y-113193379D01*
X146721077Y-113028456D01*
X146506518Y-112885093D01*
X146268113Y-112786342D01*
X146015024Y-112736000D01*
X145756976Y-112736000D01*
X145503887Y-112786342D01*
X145265482Y-112885093D01*
X145050923Y-113028456D01*
X144886000Y-113193379D01*
X144721077Y-113028456D01*
X144506518Y-112885093D01*
X144268113Y-112786342D01*
X144015024Y-112736000D01*
X143756976Y-112736000D01*
X143503887Y-112786342D01*
X143265482Y-112885093D01*
X143050923Y-113028456D01*
X142886000Y-113193379D01*
X142721077Y-113028456D01*
X142506518Y-112885093D01*
X142268113Y-112786342D01*
X142015024Y-112736000D01*
X141756976Y-112736000D01*
X141503887Y-112786342D01*
X141265482Y-112885093D01*
X141050923Y-113028456D01*
X140886000Y-113193379D01*
X140721077Y-113028456D01*
X140506518Y-112885093D01*
X140268113Y-112786342D01*
X140015024Y-112736000D01*
X139756976Y-112736000D01*
X139503887Y-112786342D01*
X139265482Y-112885093D01*
X139050923Y-113028456D01*
X138886000Y-113193379D01*
X138721077Y-113028456D01*
X138506518Y-112885093D01*
X138268113Y-112786342D01*
X138015024Y-112736000D01*
X137756976Y-112736000D01*
X137503887Y-112786342D01*
X137265482Y-112885093D01*
X137050923Y-113028456D01*
X136886000Y-113193379D01*
X136721077Y-113028456D01*
X136506518Y-112885093D01*
X136268113Y-112786342D01*
X136015024Y-112736000D01*
X135756976Y-112736000D01*
X135503887Y-112786342D01*
X135265482Y-112885093D01*
X135050923Y-113028456D01*
X134886000Y-113193379D01*
X134721077Y-113028456D01*
X134506518Y-112885093D01*
X134268113Y-112786342D01*
X134015024Y-112736000D01*
X133756976Y-112736000D01*
X133503887Y-112786342D01*
X133265482Y-112885093D01*
X133050923Y-113028456D01*
X132886000Y-113193379D01*
X132721077Y-113028456D01*
X132506518Y-112885093D01*
X132268113Y-112786342D01*
X132015024Y-112736000D01*
X131756976Y-112736000D01*
X131503887Y-112786342D01*
X131265482Y-112885093D01*
X131050923Y-113028456D01*
X130886000Y-113193379D01*
X130721077Y-113028456D01*
X130506518Y-112885093D01*
X130268113Y-112786342D01*
X130015024Y-112736000D01*
X129756976Y-112736000D01*
X129503887Y-112786342D01*
X129265482Y-112885093D01*
X129050923Y-113028456D01*
X128886000Y-113193379D01*
X128721077Y-113028456D01*
X128506518Y-112885093D01*
X128268113Y-112786342D01*
X128015024Y-112736000D01*
X127756976Y-112736000D01*
X127503887Y-112786342D01*
X127265482Y-112885093D01*
X127050923Y-113028456D01*
X126886000Y-113193379D01*
X126721077Y-113028456D01*
X126506518Y-112885093D01*
X126268113Y-112786342D01*
X126015024Y-112736000D01*
X125756976Y-112736000D01*
X125503887Y-112786342D01*
X125265482Y-112885093D01*
X125050923Y-113028456D01*
X124886000Y-113193379D01*
X124721077Y-113028456D01*
X124506518Y-112885093D01*
X124268113Y-112786342D01*
X124015024Y-112736000D01*
X123756976Y-112736000D01*
X123503887Y-112786342D01*
X123265482Y-112885093D01*
X123050923Y-113028456D01*
X122886000Y-113193379D01*
X122721077Y-113028456D01*
X122506518Y-112885093D01*
X122268113Y-112786342D01*
X122015024Y-112736000D01*
X121756976Y-112736000D01*
X121503887Y-112786342D01*
X121265482Y-112885093D01*
X121050923Y-113028456D01*
X120886000Y-113193379D01*
X120721077Y-113028456D01*
X120506518Y-112885093D01*
X120268113Y-112786342D01*
X120015024Y-112736000D01*
X119756976Y-112736000D01*
X119503887Y-112786342D01*
X119265482Y-112885093D01*
X119050923Y-113028456D01*
X118886000Y-113193379D01*
X118721077Y-113028456D01*
X118506518Y-112885093D01*
X118268113Y-112786342D01*
X118015024Y-112736000D01*
X117756976Y-112736000D01*
X117503887Y-112786342D01*
X117265482Y-112885093D01*
X117050923Y-113028456D01*
X116886000Y-113193379D01*
X116721077Y-113028456D01*
X116506518Y-112885093D01*
X116268113Y-112786342D01*
X116015024Y-112736000D01*
X115756976Y-112736000D01*
X115503887Y-112786342D01*
X115265482Y-112885093D01*
X115050923Y-113028456D01*
X114879319Y-113200060D01*
X114757227Y-113067697D01*
X114549629Y-112916527D01*
X114316528Y-112808762D01*
X114215400Y-112778090D01*
X114013000Y-112901776D01*
X114013000Y-113919000D01*
X114033000Y-113919000D01*
X114033000Y-114173000D01*
X114013000Y-114173000D01*
X114013000Y-115919000D01*
X114033000Y-115919000D01*
X114033000Y-116173000D01*
X114013000Y-116173000D01*
X114013000Y-117190224D01*
X114215400Y-117313910D01*
X114316528Y-117283238D01*
X114549629Y-117175473D01*
X114757227Y-117024303D01*
X114879319Y-116891940D01*
X115050923Y-117063544D01*
X115265482Y-117206907D01*
X115503887Y-117305658D01*
X115756976Y-117356000D01*
X116015024Y-117356000D01*
X116268113Y-117305658D01*
X116506518Y-117206907D01*
X116721077Y-117063544D01*
X116886000Y-116898621D01*
X117050923Y-117063544D01*
X117265482Y-117206907D01*
X117503887Y-117305658D01*
X117756976Y-117356000D01*
X118015024Y-117356000D01*
X118268113Y-117305658D01*
X118506518Y-117206907D01*
X118721077Y-117063544D01*
X118886000Y-116898621D01*
X119050923Y-117063544D01*
X119265482Y-117206907D01*
X119503887Y-117305658D01*
X119756976Y-117356000D01*
X120015024Y-117356000D01*
X120268113Y-117305658D01*
X120506518Y-117206907D01*
X120721077Y-117063544D01*
X120886000Y-116898621D01*
X121050923Y-117063544D01*
X121265482Y-117206907D01*
X121503887Y-117305658D01*
X121756976Y-117356000D01*
X122015024Y-117356000D01*
X122268113Y-117305658D01*
X122506518Y-117206907D01*
X122721077Y-117063544D01*
X122886000Y-116898621D01*
X123050923Y-117063544D01*
X123265482Y-117206907D01*
X123503887Y-117305658D01*
X123756976Y-117356000D01*
X124015024Y-117356000D01*
X124268113Y-117305658D01*
X124506518Y-117206907D01*
X124721077Y-117063544D01*
X124886000Y-116898621D01*
X125050923Y-117063544D01*
X125265482Y-117206907D01*
X125503887Y-117305658D01*
X125756976Y-117356000D01*
X126015024Y-117356000D01*
X126268113Y-117305658D01*
X126506518Y-117206907D01*
X126721077Y-117063544D01*
X126886000Y-116898621D01*
X127050923Y-117063544D01*
X127265482Y-117206907D01*
X127503887Y-117305658D01*
X127756976Y-117356000D01*
X128015024Y-117356000D01*
X128268113Y-117305658D01*
X128506518Y-117206907D01*
X128721077Y-117063544D01*
X128886000Y-116898621D01*
X129050923Y-117063544D01*
X129265482Y-117206907D01*
X129503887Y-117305658D01*
X129756976Y-117356000D01*
X130015024Y-117356000D01*
X130268113Y-117305658D01*
X130506518Y-117206907D01*
X130721077Y-117063544D01*
X130886000Y-116898621D01*
X131050923Y-117063544D01*
X131265482Y-117206907D01*
X131503887Y-117305658D01*
X131756976Y-117356000D01*
X132015024Y-117356000D01*
X132268113Y-117305658D01*
X132506518Y-117206907D01*
X132721077Y-117063544D01*
X132886000Y-116898621D01*
X133050923Y-117063544D01*
X133265482Y-117206907D01*
X133503887Y-117305658D01*
X133756976Y-117356000D01*
X134015024Y-117356000D01*
X134268113Y-117305658D01*
X134506518Y-117206907D01*
X134721077Y-117063544D01*
X134886000Y-116898621D01*
X135050923Y-117063544D01*
X135265482Y-117206907D01*
X135503887Y-117305658D01*
X135756976Y-117356000D01*
X136015024Y-117356000D01*
X136268113Y-117305658D01*
X136506518Y-117206907D01*
X136721077Y-117063544D01*
X136886000Y-116898621D01*
X137050923Y-117063544D01*
X137265482Y-117206907D01*
X137503887Y-117305658D01*
X137756976Y-117356000D01*
X138015024Y-117356000D01*
X138268113Y-117305658D01*
X138506518Y-117206907D01*
X138721077Y-117063544D01*
X138886000Y-116898621D01*
X139050923Y-117063544D01*
X139265482Y-117206907D01*
X139503887Y-117305658D01*
X139756976Y-117356000D01*
X140015024Y-117356000D01*
X140268113Y-117305658D01*
X140506518Y-117206907D01*
X140721077Y-117063544D01*
X140886000Y-116898621D01*
X141050923Y-117063544D01*
X141265482Y-117206907D01*
X141503887Y-117305658D01*
X141756976Y-117356000D01*
X142015024Y-117356000D01*
X142268113Y-117305658D01*
X142506518Y-117206907D01*
X142721077Y-117063544D01*
X142886000Y-116898621D01*
X143050923Y-117063544D01*
X143265482Y-117206907D01*
X143503887Y-117305658D01*
X143756976Y-117356000D01*
X144015024Y-117356000D01*
X144268113Y-117305658D01*
X144506518Y-117206907D01*
X144721077Y-117063544D01*
X144886000Y-116898621D01*
X145050923Y-117063544D01*
X145265482Y-117206907D01*
X145503887Y-117305658D01*
X145756976Y-117356000D01*
X146015024Y-117356000D01*
X146268113Y-117305658D01*
X146506518Y-117206907D01*
X146721077Y-117063544D01*
X146886000Y-116898621D01*
X147050923Y-117063544D01*
X147265482Y-117206907D01*
X147503887Y-117305658D01*
X147756976Y-117356000D01*
X148015024Y-117356000D01*
X148268113Y-117305658D01*
X148506518Y-117206907D01*
X148721077Y-117063544D01*
X148886000Y-116898621D01*
X149050923Y-117063544D01*
X149265482Y-117206907D01*
X149503887Y-117305658D01*
X149756976Y-117356000D01*
X150015024Y-117356000D01*
X150268113Y-117305658D01*
X150506518Y-117206907D01*
X150721077Y-117063544D01*
X150886000Y-116898621D01*
X151050923Y-117063544D01*
X151265482Y-117206907D01*
X151503887Y-117305658D01*
X151756976Y-117356000D01*
X152015024Y-117356000D01*
X152268113Y-117305658D01*
X152506518Y-117206907D01*
X152721077Y-117063544D01*
X152886000Y-116898621D01*
X153050923Y-117063544D01*
X153265482Y-117206907D01*
X153503887Y-117305658D01*
X153756976Y-117356000D01*
X154015024Y-117356000D01*
X154268113Y-117305658D01*
X154506518Y-117206907D01*
X154721077Y-117063544D01*
X154886000Y-116898621D01*
X155050923Y-117063544D01*
X155265482Y-117206907D01*
X155503887Y-117305658D01*
X155756976Y-117356000D01*
X156015024Y-117356000D01*
X156268113Y-117305658D01*
X156506518Y-117206907D01*
X156721077Y-117063544D01*
X156886000Y-116898621D01*
X157050923Y-117063544D01*
X157265482Y-117206907D01*
X157503887Y-117305658D01*
X157756976Y-117356000D01*
X158015024Y-117356000D01*
X158268113Y-117305658D01*
X158506518Y-117206907D01*
X158721077Y-117063544D01*
X158886000Y-116898621D01*
X159050923Y-117063544D01*
X159265482Y-117206907D01*
X159503887Y-117305658D01*
X159756976Y-117356000D01*
X160015024Y-117356000D01*
X160268113Y-117305658D01*
X160506518Y-117206907D01*
X160721077Y-117063544D01*
X160886000Y-116898621D01*
X161050923Y-117063544D01*
X161265482Y-117206907D01*
X161503887Y-117305658D01*
X161756976Y-117356000D01*
X162015024Y-117356000D01*
X162268113Y-117305658D01*
X162506518Y-117206907D01*
X162721077Y-117063544D01*
X162886000Y-116898621D01*
X163050923Y-117063544D01*
X163265482Y-117206907D01*
X163503887Y-117305658D01*
X163756976Y-117356000D01*
X164015024Y-117356000D01*
X164268113Y-117305658D01*
X164506518Y-117206907D01*
X164721077Y-117063544D01*
X164886000Y-116898621D01*
X165050923Y-117063544D01*
X165265482Y-117206907D01*
X165503887Y-117305658D01*
X165756976Y-117356000D01*
X166015024Y-117356000D01*
X166268113Y-117305658D01*
X166506518Y-117206907D01*
X166721077Y-117063544D01*
X166886000Y-116898621D01*
X167050923Y-117063544D01*
X167265482Y-117206907D01*
X167503887Y-117305658D01*
X167756976Y-117356000D01*
X168015024Y-117356000D01*
X168268113Y-117305658D01*
X168506518Y-117206907D01*
X168721077Y-117063544D01*
X168886000Y-116898621D01*
X169050923Y-117063544D01*
X169265482Y-117206907D01*
X169503887Y-117305658D01*
X169756976Y-117356000D01*
X170015024Y-117356000D01*
X170268113Y-117305658D01*
X170506518Y-117206907D01*
X170721077Y-117063544D01*
X170886000Y-116898621D01*
X171050923Y-117063544D01*
X171265482Y-117206907D01*
X171503887Y-117305658D01*
X171756976Y-117356000D01*
X172015024Y-117356000D01*
X172268113Y-117305658D01*
X172506518Y-117206907D01*
X172721077Y-117063544D01*
X172892681Y-116891940D01*
X173014773Y-117024303D01*
X173222371Y-117175473D01*
X173455472Y-117283238D01*
X173556600Y-117313910D01*
X173759000Y-117190224D01*
X173759000Y-116173000D01*
X174013000Y-116173000D01*
X174013000Y-117190224D01*
X174215400Y-117313910D01*
X174316528Y-117283238D01*
X174549629Y-117175473D01*
X174757227Y-117024303D01*
X174886000Y-116884696D01*
X175014773Y-117024303D01*
X175222371Y-117175473D01*
X175455472Y-117283238D01*
X175556600Y-117313910D01*
X175759000Y-117190224D01*
X175759000Y-116173000D01*
X174013000Y-116173000D01*
X173759000Y-116173000D01*
X173739000Y-116173000D01*
X173739000Y-115919000D01*
X173759000Y-115919000D01*
X173759000Y-114173000D01*
X174013000Y-114173000D01*
X174013000Y-115919000D01*
X175759000Y-115919000D01*
X175759000Y-114173000D01*
X174013000Y-114173000D01*
X173759000Y-114173000D01*
X173739000Y-114173000D01*
X173739000Y-113919000D01*
X173759000Y-113919000D01*
X173759000Y-112901776D01*
X174013000Y-112901776D01*
X174013000Y-113919000D01*
X175759000Y-113919000D01*
X175759000Y-112901776D01*
X175556600Y-112778090D01*
X175455472Y-112808762D01*
X175222371Y-112916527D01*
X175014773Y-113067697D01*
X174886000Y-113207304D01*
X174757227Y-113067697D01*
X174549629Y-112916527D01*
X174316528Y-112808762D01*
X174215400Y-112778090D01*
X174013000Y-112901776D01*
X173759000Y-112901776D01*
X173556600Y-112778090D01*
X173455472Y-112808762D01*
X173222371Y-112916527D01*
X173014773Y-113067697D01*
X172892681Y-113200060D01*
X172721077Y-113028456D01*
X172506518Y-112885093D01*
X172268113Y-112786342D01*
X172015024Y-112736000D01*
X171756976Y-112736000D01*
X171503887Y-112786342D01*
X171265482Y-112885093D01*
X171050923Y-113028456D01*
X170886000Y-113193379D01*
X170721077Y-113028456D01*
X170506518Y-112885093D01*
X170268113Y-112786342D01*
X170015024Y-112736000D01*
X169756976Y-112736000D01*
X169503887Y-112786342D01*
X169265482Y-112885093D01*
X169050923Y-113028456D01*
X168886000Y-113193379D01*
X168721077Y-113028456D01*
X168506518Y-112885093D01*
X168268113Y-112786342D01*
X168015024Y-112736000D01*
X167756976Y-112736000D01*
X167503887Y-112786342D01*
X167265482Y-112885093D01*
X167050923Y-113028456D01*
X166886000Y-113193379D01*
X166721077Y-113028456D01*
X166506518Y-112885093D01*
X166268113Y-112786342D01*
X166015024Y-112736000D01*
X165756976Y-112736000D01*
X165503887Y-112786342D01*
X165265482Y-112885093D01*
X165050923Y-113028456D01*
X164886000Y-113193379D01*
X164721077Y-113028456D01*
X164506518Y-112885093D01*
X164268113Y-112786342D01*
X164015024Y-112736000D01*
X163756976Y-112736000D01*
X163503887Y-112786342D01*
X163265482Y-112885093D01*
X163050923Y-113028456D01*
X162886000Y-113193379D01*
X162721077Y-113028456D01*
X162506518Y-112885093D01*
X162268113Y-112786342D01*
X162015024Y-112736000D01*
X161756976Y-112736000D01*
X161503887Y-112786342D01*
X161265482Y-112885093D01*
X161050923Y-113028456D01*
X160886000Y-113193379D01*
X160721077Y-113028456D01*
X160506518Y-112885093D01*
X160268113Y-112786342D01*
X160015024Y-112736000D01*
X159756976Y-112736000D01*
X159503887Y-112786342D01*
X159265482Y-112885093D01*
X159050923Y-113028456D01*
X158886000Y-113193379D01*
X158721077Y-113028456D01*
X158506518Y-112885093D01*
X158268113Y-112786342D01*
X158015024Y-112736000D01*
X157756976Y-112736000D01*
X157503887Y-112786342D01*
X157265482Y-112885093D01*
X157050923Y-113028456D01*
X156886000Y-113193379D01*
X156721077Y-113028456D01*
X156506518Y-112885093D01*
X156268113Y-112786342D01*
X156015024Y-112736000D01*
X155756976Y-112736000D01*
X155503887Y-112786342D01*
X155265482Y-112885093D01*
X155050923Y-113028456D01*
X154886000Y-113193379D01*
X154721077Y-113028456D01*
X154506518Y-112885093D01*
X154268113Y-112786342D01*
X154015024Y-112736000D01*
X153756976Y-112736000D01*
X153503887Y-112786342D01*
X153265482Y-112885093D01*
X153050923Y-113028456D01*
X152886000Y-113193379D01*
X152721077Y-113028456D01*
X152622600Y-112962656D01*
X152622600Y-111972186D01*
X152626164Y-111936000D01*
X152611942Y-111791601D01*
X152569822Y-111652752D01*
X152569822Y-111652751D01*
X152501424Y-111524787D01*
X152409375Y-111412625D01*
X152381269Y-111389559D01*
X148436600Y-107444891D01*
X148436600Y-70535109D01*
X149675110Y-69296600D01*
X152671141Y-69296600D01*
X152640147Y-69371426D01*
X152585000Y-69648665D01*
X152585000Y-69931335D01*
X152640147Y-70208574D01*
X152748320Y-70469727D01*
X152905363Y-70704759D01*
X153105241Y-70904637D01*
X153337759Y-71060000D01*
X153105241Y-71215363D01*
X152905363Y-71415241D01*
X152748320Y-71650273D01*
X152640147Y-71911426D01*
X152585000Y-72188665D01*
X152585000Y-72471335D01*
X152626803Y-72681488D01*
X152034522Y-73273769D01*
X152006416Y-73296835D01*
X151983350Y-73324941D01*
X151983348Y-73324943D01*
X151914366Y-73408998D01*
X151845968Y-73536963D01*
X151822479Y-73614398D01*
X151809795Y-73656212D01*
X151803849Y-73675812D01*
X151789626Y-73820210D01*
X151793191Y-73856403D01*
X151793190Y-84325101D01*
X149794732Y-86323559D01*
X149766625Y-86346626D01*
X149743559Y-86374732D01*
X149743558Y-86374733D01*
X149720053Y-86403374D01*
X149674576Y-86458788D01*
X149606178Y-86586752D01*
X149564058Y-86725602D01*
X149561298Y-86753629D01*
X149549836Y-86870000D01*
X149553400Y-86906184D01*
X149553401Y-89049439D01*
X149550033Y-89054479D01*
X149487089Y-89206440D01*
X149455000Y-89367760D01*
X149455000Y-89532240D01*
X149487089Y-89693560D01*
X149550033Y-89845521D01*
X149641413Y-89982281D01*
X149757719Y-90098587D01*
X149894479Y-90189967D01*
X150046440Y-90252911D01*
X150207760Y-90285000D01*
X150372240Y-90285000D01*
X150533560Y-90252911D01*
X150685521Y-90189967D01*
X150822281Y-90098587D01*
X150938587Y-89982281D01*
X151029967Y-89845521D01*
X151092911Y-89693560D01*
X151125000Y-89532240D01*
X151125000Y-89367760D01*
X151092911Y-89206440D01*
X151064451Y-89137731D01*
X151215069Y-89167691D01*
X151379549Y-89167691D01*
X151540869Y-89135602D01*
X151692830Y-89072658D01*
X151695168Y-89071096D01*
X151713492Y-89069291D01*
X151713495Y-89069291D01*
X151821708Y-89058633D01*
X151960558Y-89016513D01*
X152088522Y-88948115D01*
X152200684Y-88856066D01*
X152223754Y-88827955D01*
X153355269Y-87696441D01*
X153383375Y-87673375D01*
X153409790Y-87641188D01*
X153452212Y-87589497D01*
X156753400Y-84288309D01*
X156753400Y-84294891D01*
X155714732Y-85333559D01*
X155686626Y-85356625D01*
X155663560Y-85384731D01*
X155663558Y-85384733D01*
X155594576Y-85468788D01*
X155549129Y-85553814D01*
X155529788Y-85590000D01*
X155526178Y-85596753D01*
X155511692Y-85644507D01*
X155484084Y-85735521D01*
X155484059Y-85735602D01*
X155469836Y-85880000D01*
X155473401Y-85916193D01*
X155473400Y-89039440D01*
X155470033Y-89044479D01*
X155407089Y-89196440D01*
X155375000Y-89357760D01*
X155375000Y-89522240D01*
X155407089Y-89683560D01*
X155470033Y-89835521D01*
X155561413Y-89972281D01*
X155677719Y-90088587D01*
X155814479Y-90179967D01*
X155966440Y-90242911D01*
X156127760Y-90275000D01*
X156292240Y-90275000D01*
X156453560Y-90242911D01*
X156605521Y-90179967D01*
X156742281Y-90088587D01*
X156858587Y-89972281D01*
X156949967Y-89835521D01*
X157012911Y-89683560D01*
X157014614Y-89675000D01*
X157062240Y-89675000D01*
X157223560Y-89642911D01*
X157375521Y-89579967D01*
X157512281Y-89488587D01*
X157628587Y-89372281D01*
X157719967Y-89235521D01*
X157782911Y-89083560D01*
X157784093Y-89077616D01*
X158885273Y-87976437D01*
X158913374Y-87953375D01*
X158936437Y-87925273D01*
X158936442Y-87925268D01*
X159005423Y-87841214D01*
X159005424Y-87841213D01*
X159073822Y-87713249D01*
X159115942Y-87574399D01*
X159126600Y-87466186D01*
X159126600Y-87466177D01*
X159130163Y-87430001D01*
X159126600Y-87393825D01*
X159126600Y-76115109D01*
X159635110Y-75606600D01*
X160406321Y-75606600D01*
X160525363Y-75784759D01*
X160725241Y-75984637D01*
X160960273Y-76141680D01*
X161221426Y-76249853D01*
X161498665Y-76305000D01*
X161781335Y-76305000D01*
X162058574Y-76249853D01*
X162319727Y-76141680D01*
X162554759Y-75984637D01*
X162754637Y-75784759D01*
X162823400Y-75681847D01*
X162823400Y-76584890D01*
X159624732Y-79783559D01*
X159596626Y-79806625D01*
X159573560Y-79834731D01*
X159573558Y-79834733D01*
X159504576Y-79918788D01*
X159436178Y-80046753D01*
X159394059Y-80185602D01*
X159379836Y-80330000D01*
X159383401Y-80366193D01*
X159383400Y-84759440D01*
X159380033Y-84764479D01*
X159317089Y-84916440D01*
X159285000Y-85077760D01*
X159285000Y-85242240D01*
X159317089Y-85403560D01*
X159380033Y-85555521D01*
X159471413Y-85692281D01*
X159587719Y-85808587D01*
X159724479Y-85899967D01*
X159876440Y-85962911D01*
X160037760Y-85995000D01*
X160202240Y-85995000D01*
X160363560Y-85962911D01*
X160515521Y-85899967D01*
X160652281Y-85808587D01*
X160768587Y-85692281D01*
X160859967Y-85555521D01*
X160922911Y-85403560D01*
X160955000Y-85242240D01*
X160955000Y-85077760D01*
X160922911Y-84916440D01*
X160859967Y-84764479D01*
X160856600Y-84759440D01*
X160856600Y-80635109D01*
X164055273Y-77436437D01*
X164083374Y-77413375D01*
X164106437Y-77385273D01*
X164106442Y-77385268D01*
X164175424Y-77301213D01*
X164221184Y-77215602D01*
X164243822Y-77173249D01*
X164285942Y-77034399D01*
X164296600Y-76926186D01*
X164296600Y-76926185D01*
X164300164Y-76890000D01*
X164296600Y-76853814D01*
X164296600Y-72846186D01*
X164300164Y-72810000D01*
X164285942Y-72665601D01*
X164256942Y-72570001D01*
X164243822Y-72526751D01*
X164175424Y-72398787D01*
X164083375Y-72286625D01*
X164055263Y-72263554D01*
X163626446Y-71834737D01*
X163603375Y-71806625D01*
X163491213Y-71714576D01*
X163363249Y-71646178D01*
X163224399Y-71604058D01*
X163116186Y-71593400D01*
X163116183Y-71593400D01*
X163080000Y-71589836D01*
X163043817Y-71593400D01*
X162873679Y-71593400D01*
X162754637Y-71415241D01*
X162554759Y-71215363D01*
X162322241Y-71060000D01*
X162554759Y-70904637D01*
X162754637Y-70704759D01*
X162911680Y-70469727D01*
X163019853Y-70208574D01*
X163075000Y-69931335D01*
X163075000Y-69648665D01*
X163019853Y-69371426D01*
X162988859Y-69296600D01*
X170373817Y-69296600D01*
X170410000Y-69300164D01*
X170446183Y-69296600D01*
X170446186Y-69296600D01*
X170554399Y-69285942D01*
X170693249Y-69243822D01*
X170821213Y-69175424D01*
X170933375Y-69083375D01*
X170956445Y-69055264D01*
X171705990Y-68305719D01*
X171953740Y-68355000D01*
X172246260Y-68355000D01*
X172533158Y-68297932D01*
X172803411Y-68185990D01*
X173046632Y-68023475D01*
X173253475Y-67816632D01*
X173370000Y-67642240D01*
X173486525Y-67816632D01*
X173693368Y-68023475D01*
X173903401Y-68163814D01*
X173903400Y-77054890D01*
X168084732Y-82873559D01*
X168056626Y-82896625D01*
X168033560Y-82924731D01*
X168033558Y-82924733D01*
X167964576Y-83008788D01*
X167896178Y-83136753D01*
X167854059Y-83275602D01*
X167839836Y-83420000D01*
X167843401Y-83456193D01*
X167843400Y-90734890D01*
X166447645Y-92130645D01*
X166485942Y-92004399D01*
X166496600Y-91896186D01*
X166496600Y-91896185D01*
X166500164Y-91860000D01*
X166496600Y-91823814D01*
X166496600Y-85626186D01*
X166500164Y-85590000D01*
X166485942Y-85445601D01*
X166455395Y-85344903D01*
X166443822Y-85306751D01*
X166375424Y-85178787D01*
X166283375Y-85066625D01*
X166255263Y-85043554D01*
X166154093Y-84942384D01*
X166152911Y-84936440D01*
X166089967Y-84784479D01*
X165998587Y-84647719D01*
X165882281Y-84531413D01*
X165745521Y-84440033D01*
X165593560Y-84377089D01*
X165432240Y-84345000D01*
X165267760Y-84345000D01*
X165106440Y-84377089D01*
X164954479Y-84440033D01*
X164817719Y-84531413D01*
X164701413Y-84647719D01*
X164610033Y-84784479D01*
X164547089Y-84936440D01*
X164515000Y-85097760D01*
X164515000Y-85262240D01*
X164547089Y-85423560D01*
X164610033Y-85575521D01*
X164701413Y-85712281D01*
X164817719Y-85828587D01*
X164954479Y-85919967D01*
X165023401Y-85948515D01*
X165023400Y-91554890D01*
X163982200Y-92596091D01*
X161107869Y-92596091D01*
X161102830Y-92592724D01*
X160950869Y-92529780D01*
X160789549Y-92497691D01*
X160625069Y-92497691D01*
X160463749Y-92529780D01*
X160311788Y-92592724D01*
X160175028Y-92684104D01*
X160058722Y-92800410D01*
X159967342Y-92937170D01*
X159904398Y-93089131D01*
X159872309Y-93250451D01*
X159872309Y-93414931D01*
X159904398Y-93576251D01*
X159967342Y-93728212D01*
X160058722Y-93864972D01*
X160175028Y-93981278D01*
X160311788Y-94072658D01*
X160463749Y-94135602D01*
X160625069Y-94167691D01*
X160789549Y-94167691D01*
X160950869Y-94135602D01*
X161102830Y-94072658D01*
X161107869Y-94069291D01*
X161320857Y-94069291D01*
X161283426Y-94100010D01*
X161226625Y-94146625D01*
X161203559Y-94174731D01*
X159584732Y-95793559D01*
X159556626Y-95816625D01*
X159533560Y-95844731D01*
X159533558Y-95844733D01*
X159464576Y-95928788D01*
X159396178Y-96056753D01*
X159390964Y-96073941D01*
X159354071Y-96195564D01*
X159354059Y-96195602D01*
X159339836Y-96340000D01*
X159343401Y-96376193D01*
X159343400Y-99654891D01*
X157894891Y-101103400D01*
X150020560Y-101103400D01*
X150015521Y-101100033D01*
X149863560Y-101037089D01*
X149702240Y-101005000D01*
X149537760Y-101005000D01*
X149376440Y-101037089D01*
X149224479Y-101100033D01*
X149087719Y-101191413D01*
X148971413Y-101307719D01*
X148880033Y-101444479D01*
X148817089Y-101596440D01*
X148785000Y-101757760D01*
X148785000Y-101922240D01*
X148817089Y-102083560D01*
X148880033Y-102235521D01*
X148971413Y-102372281D01*
X149087719Y-102488587D01*
X149224479Y-102579967D01*
X149376440Y-102642911D01*
X149537760Y-102675000D01*
X149702240Y-102675000D01*
X149863560Y-102642911D01*
X150015521Y-102579967D01*
X150020560Y-102576600D01*
X158163817Y-102576600D01*
X158200000Y-102580164D01*
X158236183Y-102576600D01*
X158236186Y-102576600D01*
X158344399Y-102565942D01*
X158483249Y-102523822D01*
X158611213Y-102455424D01*
X158723375Y-102363375D01*
X158746446Y-102335263D01*
X160575268Y-100506441D01*
X160603374Y-100483375D01*
X160695424Y-100371213D01*
X160763822Y-100243249D01*
X160805942Y-100104399D01*
X160816600Y-99996186D01*
X160816600Y-99996177D01*
X160820163Y-99960001D01*
X160816600Y-99923825D01*
X160816600Y-96645109D01*
X160881709Y-96580000D01*
X161937745Y-96580000D01*
X161945000Y-96653660D01*
X161945000Y-96662240D01*
X161946674Y-96670655D01*
X161953929Y-96744316D01*
X161975416Y-96815149D01*
X161977089Y-96823560D01*
X161980371Y-96831483D01*
X162001858Y-96902317D01*
X162036750Y-96967596D01*
X162040033Y-96975521D01*
X162044799Y-96982654D01*
X162079691Y-97047932D01*
X162126646Y-97105147D01*
X162131413Y-97112281D01*
X162137480Y-97118348D01*
X162184436Y-97175564D01*
X162241652Y-97222520D01*
X162247719Y-97228587D01*
X162254853Y-97233354D01*
X162312068Y-97280309D01*
X162377346Y-97315201D01*
X162384479Y-97319967D01*
X162392404Y-97323250D01*
X162457683Y-97358142D01*
X162528517Y-97379629D01*
X162536440Y-97382911D01*
X162544851Y-97384584D01*
X162615684Y-97406071D01*
X162689345Y-97413326D01*
X162697760Y-97415000D01*
X162706340Y-97415000D01*
X162738830Y-97418200D01*
X176842807Y-97418200D01*
X177047801Y-97623195D01*
X177047800Y-113031579D01*
X176879319Y-113200060D01*
X176757227Y-113067697D01*
X176549629Y-112916527D01*
X176316528Y-112808762D01*
X176215400Y-112778090D01*
X176013000Y-112901776D01*
X176013000Y-113919000D01*
X176033000Y-113919000D01*
X176033000Y-114173000D01*
X176013000Y-114173000D01*
X176013000Y-115919000D01*
X176033000Y-115919000D01*
X176033000Y-116173000D01*
X176013000Y-116173000D01*
X176013000Y-117190224D01*
X176215400Y-117313910D01*
X176316528Y-117283238D01*
X176549629Y-117175473D01*
X176757227Y-117024303D01*
X176879319Y-116891940D01*
X177050923Y-117063544D01*
X177265482Y-117206907D01*
X177503887Y-117305658D01*
X177756976Y-117356000D01*
X178015024Y-117356000D01*
X178268113Y-117305658D01*
X178506518Y-117206907D01*
X178721077Y-117063544D01*
X178886000Y-116898621D01*
X179050923Y-117063544D01*
X179265482Y-117206907D01*
X179503887Y-117305658D01*
X179756976Y-117356000D01*
X180015024Y-117356000D01*
X180268113Y-117305658D01*
X180506518Y-117206907D01*
X180721077Y-117063544D01*
X180886000Y-116898621D01*
X181050923Y-117063544D01*
X181265482Y-117206907D01*
X181503887Y-117305658D01*
X181756976Y-117356000D01*
X182015024Y-117356000D01*
X182268113Y-117305658D01*
X182506518Y-117206907D01*
X182721077Y-117063544D01*
X182903544Y-116881077D01*
X183046907Y-116666518D01*
X183145658Y-116428113D01*
X183196000Y-116175024D01*
X183196000Y-115916976D01*
X183145658Y-115663887D01*
X183046907Y-115425482D01*
X182903544Y-115210923D01*
X182738621Y-115046000D01*
X182903544Y-114881077D01*
X183046907Y-114666518D01*
X183145658Y-114428113D01*
X183196000Y-114175024D01*
X183196000Y-113916976D01*
X183145658Y-113663887D01*
X183046907Y-113425482D01*
X182903544Y-113210923D01*
X182721077Y-113028456D01*
X182506518Y-112885093D01*
X182268113Y-112786342D01*
X182015024Y-112736000D01*
X181756976Y-112736000D01*
X181503887Y-112786342D01*
X181265482Y-112885093D01*
X181050923Y-113028456D01*
X180886000Y-113193379D01*
X180724200Y-113031579D01*
X180724200Y-95195170D01*
X180728255Y-95154000D01*
X180721000Y-95080340D01*
X180721000Y-95071760D01*
X180719326Y-95063345D01*
X180712071Y-94989684D01*
X180690584Y-94918851D01*
X180688911Y-94910440D01*
X180685629Y-94902517D01*
X180664142Y-94831683D01*
X180629250Y-94766404D01*
X180625967Y-94758479D01*
X180621201Y-94751346D01*
X180586309Y-94686068D01*
X180539354Y-94628853D01*
X180534587Y-94621719D01*
X180528520Y-94615652D01*
X180481564Y-94558436D01*
X180424348Y-94511480D01*
X180418281Y-94505413D01*
X180411147Y-94500646D01*
X180353932Y-94453691D01*
X180288654Y-94418799D01*
X180281521Y-94414033D01*
X180273596Y-94410750D01*
X180208317Y-94375858D01*
X180137483Y-94354371D01*
X180129560Y-94351089D01*
X180121149Y-94349416D01*
X180050316Y-94327929D01*
X179976655Y-94320674D01*
X179968240Y-94319000D01*
X179959660Y-94319000D01*
X179927170Y-94315800D01*
X179886000Y-94311745D01*
X179844830Y-94315800D01*
X179812340Y-94319000D01*
X179803760Y-94319000D01*
X179795345Y-94320674D01*
X179721684Y-94327929D01*
X179650851Y-94349416D01*
X179642440Y-94351089D01*
X179634517Y-94354371D01*
X179563683Y-94375858D01*
X179498404Y-94410750D01*
X179490479Y-94414033D01*
X179483346Y-94418799D01*
X179418068Y-94453691D01*
X179360853Y-94500646D01*
X179353719Y-94505413D01*
X179347652Y-94511480D01*
X179290436Y-94558436D01*
X179243480Y-94615652D01*
X179237413Y-94621719D01*
X179232646Y-94628853D01*
X179185691Y-94686068D01*
X179150799Y-94751346D01*
X179146033Y-94758479D01*
X179142750Y-94766404D01*
X179107858Y-94831683D01*
X179086371Y-94902517D01*
X179083089Y-94910440D01*
X179081416Y-94918851D01*
X179059929Y-94989684D01*
X179052674Y-95063345D01*
X179051000Y-95071760D01*
X179051000Y-95080340D01*
X179043745Y-95154000D01*
X179047801Y-95195180D01*
X179047800Y-113031579D01*
X178886000Y-113193379D01*
X178724200Y-113031579D01*
X178724200Y-97317170D01*
X178728255Y-97276000D01*
X178721000Y-97202340D01*
X178721000Y-97193760D01*
X178719326Y-97185345D01*
X178712071Y-97111684D01*
X178690584Y-97040851D01*
X178688911Y-97032440D01*
X178685629Y-97024517D01*
X178664142Y-96953683D01*
X178629250Y-96888404D01*
X178625967Y-96880479D01*
X178621201Y-96873346D01*
X178586309Y-96808068D01*
X178548707Y-96762250D01*
X178539353Y-96750852D01*
X178534587Y-96743719D01*
X178528521Y-96737653D01*
X178507808Y-96712414D01*
X178507806Y-96712412D01*
X178481564Y-96680436D01*
X178449587Y-96654193D01*
X177811811Y-96016417D01*
X177785564Y-95984436D01*
X177657932Y-95879691D01*
X177512317Y-95801858D01*
X177354316Y-95753929D01*
X177231170Y-95741800D01*
X177231163Y-95741800D01*
X177190000Y-95737746D01*
X177148837Y-95741800D01*
X162738830Y-95741800D01*
X162706340Y-95745000D01*
X162697760Y-95745000D01*
X162689345Y-95746674D01*
X162615684Y-95753929D01*
X162544851Y-95775416D01*
X162536440Y-95777089D01*
X162528517Y-95780371D01*
X162457683Y-95801858D01*
X162392404Y-95836750D01*
X162384479Y-95840033D01*
X162377346Y-95844799D01*
X162312068Y-95879691D01*
X162254853Y-95926646D01*
X162247719Y-95931413D01*
X162241652Y-95937480D01*
X162184436Y-95984436D01*
X162137480Y-96041652D01*
X162131413Y-96047719D01*
X162126646Y-96054853D01*
X162079691Y-96112068D01*
X162044799Y-96177346D01*
X162040033Y-96184479D01*
X162036750Y-96192404D01*
X162001858Y-96257683D01*
X161980371Y-96328517D01*
X161977089Y-96336440D01*
X161975416Y-96344851D01*
X161953929Y-96415684D01*
X161946674Y-96489345D01*
X161945000Y-96497760D01*
X161945000Y-96506340D01*
X161937745Y-96580000D01*
X160881709Y-96580000D01*
X162055110Y-95406600D01*
X164913817Y-95406600D01*
X164950000Y-95410164D01*
X164986183Y-95406600D01*
X164986186Y-95406600D01*
X165094399Y-95395942D01*
X165233249Y-95353822D01*
X165361213Y-95285424D01*
X165473375Y-95193375D01*
X165496446Y-95165263D01*
X169075273Y-91586437D01*
X169103374Y-91563375D01*
X169126437Y-91535273D01*
X169126442Y-91535268D01*
X169195423Y-91451214D01*
X169195425Y-91451212D01*
X169263822Y-91323249D01*
X169305942Y-91184399D01*
X169316600Y-91076186D01*
X169316600Y-91076177D01*
X169320163Y-91040001D01*
X169316600Y-91003825D01*
X169316600Y-88794112D01*
X169337346Y-88805201D01*
X169344479Y-88809967D01*
X169352404Y-88813250D01*
X169417683Y-88848142D01*
X169488517Y-88869629D01*
X169496440Y-88872911D01*
X169504851Y-88874584D01*
X169575684Y-88896071D01*
X169649345Y-88903326D01*
X169657760Y-88905000D01*
X169666340Y-88905000D01*
X169698830Y-88908200D01*
X171372807Y-88908200D01*
X173278194Y-90813588D01*
X173304436Y-90845564D01*
X173336412Y-90871806D01*
X173336414Y-90871808D01*
X173361653Y-90892521D01*
X173367719Y-90898587D01*
X173374852Y-90903353D01*
X173432068Y-90950309D01*
X173497346Y-90985201D01*
X173504479Y-90989967D01*
X173512404Y-90993250D01*
X173577683Y-91028142D01*
X173648517Y-91049629D01*
X173656440Y-91052911D01*
X173664851Y-91054584D01*
X173735684Y-91076071D01*
X173809345Y-91083326D01*
X173817760Y-91085000D01*
X173826340Y-91085000D01*
X173858830Y-91088200D01*
X173858837Y-91088200D01*
X173900000Y-91092254D01*
X173941163Y-91088200D01*
X173941170Y-91088200D01*
X173973660Y-91085000D01*
X173982240Y-91085000D01*
X173990655Y-91083326D01*
X174064316Y-91076071D01*
X174135149Y-91054584D01*
X174143560Y-91052911D01*
X174151483Y-91049629D01*
X174222317Y-91028142D01*
X174287596Y-90993250D01*
X174295521Y-90989967D01*
X174302654Y-90985201D01*
X174367932Y-90950309D01*
X174425147Y-90903354D01*
X174432281Y-90898587D01*
X174438348Y-90892520D01*
X174495564Y-90845564D01*
X174542520Y-90788348D01*
X174548587Y-90782281D01*
X174553354Y-90775147D01*
X174600309Y-90717932D01*
X174635201Y-90652654D01*
X174639967Y-90645521D01*
X174643250Y-90637596D01*
X174678142Y-90572317D01*
X174699629Y-90501483D01*
X174702911Y-90493560D01*
X174704584Y-90485149D01*
X174726071Y-90414316D01*
X174733326Y-90340655D01*
X174735000Y-90332240D01*
X174735000Y-90323660D01*
X174742255Y-90250000D01*
X174735000Y-90176340D01*
X174735000Y-90167760D01*
X174733326Y-90159345D01*
X174726071Y-90085684D01*
X174704584Y-90014851D01*
X174702911Y-90006440D01*
X174699629Y-89998517D01*
X174678142Y-89927683D01*
X174643250Y-89862404D01*
X174639967Y-89854479D01*
X174635201Y-89847346D01*
X174600309Y-89782068D01*
X174560244Y-89733249D01*
X174553353Y-89724852D01*
X174548587Y-89717719D01*
X174542521Y-89711653D01*
X174521808Y-89686414D01*
X174521806Y-89686412D01*
X174495564Y-89654436D01*
X174463588Y-89628194D01*
X172558200Y-87722807D01*
X172558200Y-83667193D01*
X182293589Y-73931805D01*
X182325564Y-73905564D01*
X182362610Y-73860424D01*
X182430309Y-73777932D01*
X182508142Y-73632317D01*
X182556071Y-73474316D01*
X182560060Y-73433814D01*
X182568200Y-73351170D01*
X182568200Y-73351163D01*
X182572254Y-73310000D01*
X182568200Y-73268837D01*
X182568200Y-70138830D01*
X182565000Y-70106340D01*
X182565000Y-70077760D01*
X182559424Y-70049729D01*
X182556071Y-70015684D01*
X182546140Y-69982946D01*
X182532911Y-69916440D01*
X182469967Y-69764479D01*
X182378587Y-69627719D01*
X182262281Y-69511413D01*
X182125521Y-69420033D01*
X181973560Y-69357089D01*
X181812240Y-69325000D01*
X181647760Y-69325000D01*
X181486440Y-69357089D01*
X181334479Y-69420033D01*
X181197719Y-69511413D01*
X181081413Y-69627719D01*
X180990033Y-69764479D01*
X180927089Y-69916440D01*
X180913858Y-69982956D01*
X180903930Y-70015684D01*
X180900578Y-70049719D01*
X180895000Y-70077760D01*
X180895000Y-70106350D01*
X180891801Y-70138830D01*
X180891800Y-72962806D01*
X171156413Y-82698194D01*
X171124437Y-82724436D01*
X171098195Y-82756412D01*
X171098192Y-82756415D01*
X171019691Y-82852069D01*
X170941858Y-82997684D01*
X170893929Y-83155685D01*
X170877746Y-83320000D01*
X170881801Y-83361172D01*
X170881800Y-84391169D01*
X170881801Y-84391179D01*
X170881800Y-87231800D01*
X169698830Y-87231800D01*
X169666340Y-87235000D01*
X169657760Y-87235000D01*
X169649345Y-87236674D01*
X169575684Y-87243929D01*
X169504851Y-87265416D01*
X169496440Y-87267089D01*
X169488517Y-87270371D01*
X169417683Y-87291858D01*
X169352404Y-87326750D01*
X169344479Y-87330033D01*
X169337346Y-87334799D01*
X169316600Y-87345888D01*
X169316600Y-83725109D01*
X175135274Y-77906436D01*
X175163374Y-77883375D01*
X175186437Y-77855273D01*
X175186442Y-77855268D01*
X175255423Y-77771214D01*
X175255425Y-77771212D01*
X175323822Y-77643249D01*
X175365942Y-77504399D01*
X175376600Y-77396186D01*
X175376600Y-77396177D01*
X175380163Y-77360001D01*
X175376600Y-77323825D01*
X175376600Y-68163814D01*
X175586632Y-68023475D01*
X175718487Y-67891620D01*
X175740498Y-67964180D01*
X175799463Y-68074494D01*
X175878815Y-68171185D01*
X175975506Y-68250537D01*
X176085820Y-68309502D01*
X176205518Y-68345812D01*
X176330000Y-68358072D01*
X178030000Y-68358072D01*
X178154482Y-68345812D01*
X178274180Y-68309502D01*
X178384494Y-68250537D01*
X178481185Y-68171185D01*
X178560537Y-68074494D01*
X178619502Y-67964180D01*
X178655812Y-67844482D01*
X178668072Y-67720000D01*
X178668072Y-66020000D01*
X178655812Y-65895518D01*
X178619502Y-65775820D01*
X178560537Y-65665506D01*
X178481185Y-65568815D01*
X178384494Y-65489463D01*
X178274180Y-65430498D01*
X178154482Y-65394188D01*
X178030000Y-65381928D01*
X177916600Y-65381928D01*
X177916600Y-65186175D01*
X177920163Y-65149999D01*
X177916600Y-65113823D01*
X177916600Y-65113814D01*
X177905942Y-65005601D01*
X177863822Y-64866751D01*
X177795424Y-64738787D01*
X177703375Y-64626625D01*
X177675263Y-64603554D01*
X177323150Y-64251441D01*
X185044181Y-64251441D01*
X185044180Y-120280000D01*
X100700000Y-120280000D01*
X100700000Y-113371000D01*
X102572928Y-113371000D01*
X102572928Y-114721000D01*
X102585188Y-114845482D01*
X102621498Y-114965180D01*
X102680463Y-115075494D01*
X102759815Y-115172185D01*
X102846697Y-115243487D01*
X102725093Y-115425482D01*
X102626342Y-115663887D01*
X102576000Y-115916976D01*
X102576000Y-116175024D01*
X102626342Y-116428113D01*
X102725093Y-116666518D01*
X102868456Y-116881077D01*
X103050923Y-117063544D01*
X103265482Y-117206907D01*
X103503887Y-117305658D01*
X103756976Y-117356000D01*
X104015024Y-117356000D01*
X104268113Y-117305658D01*
X104506518Y-117206907D01*
X104721077Y-117063544D01*
X104886000Y-116898621D01*
X105050923Y-117063544D01*
X105265482Y-117206907D01*
X105503887Y-117305658D01*
X105756976Y-117356000D01*
X106015024Y-117356000D01*
X106268113Y-117305658D01*
X106506518Y-117206907D01*
X106721077Y-117063544D01*
X106886000Y-116898621D01*
X107050923Y-117063544D01*
X107265482Y-117206907D01*
X107503887Y-117305658D01*
X107756976Y-117356000D01*
X108015024Y-117356000D01*
X108268113Y-117305658D01*
X108506518Y-117206907D01*
X108721077Y-117063544D01*
X108892681Y-116891940D01*
X109014773Y-117024303D01*
X109222371Y-117175473D01*
X109455472Y-117283238D01*
X109556600Y-117313910D01*
X109759000Y-117190224D01*
X109759000Y-116173000D01*
X109739000Y-116173000D01*
X109739000Y-115919000D01*
X109759000Y-115919000D01*
X109759000Y-114173000D01*
X109739000Y-114173000D01*
X109739000Y-113919000D01*
X109759000Y-113919000D01*
X109759000Y-112901776D01*
X110013000Y-112901776D01*
X110013000Y-113919000D01*
X110033000Y-113919000D01*
X110033000Y-114173000D01*
X110013000Y-114173000D01*
X110013000Y-115919000D01*
X110033000Y-115919000D01*
X110033000Y-116173000D01*
X110013000Y-116173000D01*
X110013000Y-117190224D01*
X110215400Y-117313910D01*
X110316528Y-117283238D01*
X110549629Y-117175473D01*
X110757227Y-117024303D01*
X110879319Y-116891940D01*
X111050923Y-117063544D01*
X111265482Y-117206907D01*
X111503887Y-117305658D01*
X111756976Y-117356000D01*
X112015024Y-117356000D01*
X112268113Y-117305658D01*
X112506518Y-117206907D01*
X112721077Y-117063544D01*
X112892681Y-116891940D01*
X113014773Y-117024303D01*
X113222371Y-117175473D01*
X113455472Y-117283238D01*
X113556600Y-117313910D01*
X113759000Y-117190224D01*
X113759000Y-116173000D01*
X113739000Y-116173000D01*
X113739000Y-115919000D01*
X113759000Y-115919000D01*
X113759000Y-114173000D01*
X113739000Y-114173000D01*
X113739000Y-113919000D01*
X113759000Y-113919000D01*
X113759000Y-112901776D01*
X113556600Y-112778090D01*
X113455472Y-112808762D01*
X113222371Y-112916527D01*
X113014773Y-113067697D01*
X112892681Y-113200060D01*
X112721077Y-113028456D01*
X112506518Y-112885093D01*
X112268113Y-112786342D01*
X112015024Y-112736000D01*
X111756976Y-112736000D01*
X111503887Y-112786342D01*
X111265482Y-112885093D01*
X111050923Y-113028456D01*
X110879319Y-113200060D01*
X110757227Y-113067697D01*
X110549629Y-112916527D01*
X110316528Y-112808762D01*
X110215400Y-112778090D01*
X110013000Y-112901776D01*
X109759000Y-112901776D01*
X109556600Y-112778090D01*
X109455472Y-112808762D01*
X109222371Y-112916527D01*
X109014773Y-113067697D01*
X108892681Y-113200060D01*
X108721077Y-113028456D01*
X108506518Y-112885093D01*
X108268113Y-112786342D01*
X108015024Y-112736000D01*
X107756976Y-112736000D01*
X107503887Y-112786342D01*
X107265482Y-112885093D01*
X107050923Y-113028456D01*
X106886000Y-113193379D01*
X106721077Y-113028456D01*
X106506518Y-112885093D01*
X106268113Y-112786342D01*
X106015024Y-112736000D01*
X105756976Y-112736000D01*
X105503887Y-112786342D01*
X105265482Y-112885093D01*
X105083487Y-113006697D01*
X105012185Y-112919815D01*
X104915494Y-112840463D01*
X104805180Y-112781498D01*
X104685482Y-112745188D01*
X104561000Y-112732928D01*
X103211000Y-112732928D01*
X103086518Y-112745188D01*
X102966820Y-112781498D01*
X102856506Y-112840463D01*
X102759815Y-112919815D01*
X102680463Y-113016506D01*
X102621498Y-113126820D01*
X102585188Y-113246518D01*
X102572928Y-113371000D01*
X100700000Y-113371000D01*
X100700000Y-93857195D01*
X110527530Y-93857195D01*
X110527530Y-94047323D01*
X110564622Y-94233797D01*
X110637381Y-94409453D01*
X110743010Y-94567538D01*
X110877451Y-94701979D01*
X111035536Y-94807608D01*
X111211192Y-94880367D01*
X111241467Y-94886389D01*
X112992606Y-96637529D01*
X113018848Y-96669505D01*
X113050824Y-96695747D01*
X113050826Y-96695749D01*
X113081124Y-96720614D01*
X113146480Y-96774250D01*
X113292095Y-96852083D01*
X113450096Y-96900012D01*
X113573242Y-96912141D01*
X113573251Y-96912141D01*
X113614411Y-96916195D01*
X113655571Y-96912141D01*
X115850271Y-96912141D01*
X116008364Y-96977625D01*
X116189931Y-97013741D01*
X116375055Y-97013741D01*
X116556622Y-96977625D01*
X116714715Y-96912141D01*
X116984896Y-96912141D01*
X117026059Y-96916195D01*
X117067222Y-96912141D01*
X117067229Y-96912141D01*
X117190375Y-96900012D01*
X117348376Y-96852083D01*
X117493991Y-96774250D01*
X117621623Y-96669505D01*
X117647870Y-96637523D01*
X118063583Y-96221810D01*
X118095564Y-96195564D01*
X118200309Y-96067932D01*
X118278142Y-95922317D01*
X118326071Y-95764316D01*
X118338200Y-95641170D01*
X118338200Y-95641163D01*
X118342254Y-95600000D01*
X118338200Y-95558837D01*
X118338200Y-93477193D01*
X118387193Y-93428200D01*
X121112807Y-93428200D01*
X122801676Y-95117070D01*
X122867160Y-95275162D01*
X122970010Y-95429087D01*
X123100913Y-95559990D01*
X123254838Y-95662840D01*
X123425871Y-95733684D01*
X123607438Y-95769800D01*
X123792562Y-95769800D01*
X123974129Y-95733684D01*
X124145162Y-95662840D01*
X124299087Y-95559990D01*
X124429990Y-95429087D01*
X124532840Y-95275162D01*
X124603684Y-95104129D01*
X124639800Y-94922562D01*
X124639800Y-94737438D01*
X124603684Y-94555871D01*
X124532840Y-94384838D01*
X124429990Y-94230913D01*
X124299087Y-94100010D01*
X124145162Y-93997160D01*
X123987070Y-93931676D01*
X122081811Y-92026418D01*
X122055564Y-91994436D01*
X121927932Y-91889691D01*
X121782317Y-91811858D01*
X121624316Y-91763929D01*
X121501170Y-91751800D01*
X121501163Y-91751800D01*
X121460000Y-91747746D01*
X121418837Y-91751800D01*
X118081159Y-91751800D01*
X118039999Y-91747746D01*
X117998839Y-91751800D01*
X117998830Y-91751800D01*
X117875684Y-91763929D01*
X117717683Y-91811858D01*
X117572068Y-91889691D01*
X117444436Y-91994436D01*
X117418189Y-92026418D01*
X116936413Y-92508194D01*
X116904437Y-92534436D01*
X116878195Y-92566412D01*
X116878192Y-92566415D01*
X116799691Y-92662069D01*
X116721858Y-92807684D01*
X116673929Y-92965685D01*
X116657746Y-93130000D01*
X116661801Y-93171172D01*
X116661800Y-95213823D01*
X116556622Y-95170257D01*
X116375055Y-95134141D01*
X116189931Y-95134141D01*
X116008364Y-95170257D01*
X115850271Y-95235741D01*
X113961606Y-95235741D01*
X112426860Y-93700996D01*
X112420838Y-93670721D01*
X112348079Y-93495065D01*
X112242450Y-93336980D01*
X112108009Y-93202539D01*
X111949924Y-93096910D01*
X111774268Y-93024151D01*
X111587794Y-92987059D01*
X111397666Y-92987059D01*
X111211192Y-93024151D01*
X111035536Y-93096910D01*
X110877451Y-93202539D01*
X110743010Y-93336980D01*
X110637381Y-93495065D01*
X110564622Y-93670721D01*
X110527530Y-93857195D01*
X100700000Y-93857195D01*
X100700000Y-64251441D01*
X153926849Y-64251441D01*
X153524732Y-64653559D01*
G37*
G04 #@! TD.AperFunction*
D23*
X155693400Y-70585109D02*
X155693401Y-83264890D01*
X152364732Y-86593559D01*
X152336625Y-86616626D01*
X152313559Y-86644732D01*
X152313558Y-86644733D01*
X152267797Y-86700493D01*
X151455493Y-87512797D01*
X151379549Y-87497691D01*
X151215069Y-87497691D01*
X151053749Y-87529780D01*
X151026600Y-87541025D01*
X151026600Y-87175109D01*
X153025058Y-85176651D01*
X153053164Y-85153585D01*
X153145214Y-85041423D01*
X153213612Y-84913459D01*
X153255732Y-84774609D01*
X153266390Y-84666396D01*
X153266390Y-84666387D01*
X153269953Y-84630211D01*
X153266390Y-84594035D01*
X153266390Y-76083270D01*
X153406119Y-76167070D01*
X153670960Y-76261909D01*
X153893000Y-76140624D01*
X153893000Y-74997000D01*
X154147000Y-74997000D01*
X154147000Y-76140624D01*
X154369040Y-76261909D01*
X154633881Y-76167070D01*
X154875131Y-76022385D01*
X155083519Y-75833414D01*
X155251037Y-75607420D01*
X155371246Y-75353087D01*
X155411904Y-75219039D01*
X155289915Y-74997000D01*
X154147000Y-74997000D01*
X153893000Y-74997000D01*
X153873000Y-74997000D01*
X153873000Y-74743000D01*
X153893000Y-74743000D01*
X153893000Y-74723000D01*
X154147000Y-74723000D01*
X154147000Y-74743000D01*
X155289915Y-74743000D01*
X155411904Y-74520961D01*
X155371246Y-74386913D01*
X155251037Y-74132580D01*
X155083519Y-73906586D01*
X154875131Y-73717615D01*
X154689135Y-73606067D01*
X154699727Y-73601680D01*
X154934759Y-73444637D01*
X155134637Y-73244759D01*
X155291680Y-73009727D01*
X155399853Y-72748574D01*
X155455000Y-72471335D01*
X155455000Y-72188665D01*
X155399853Y-71911426D01*
X155291680Y-71650273D01*
X155134637Y-71415241D01*
X154934759Y-71215363D01*
X154702241Y-71060000D01*
X154934759Y-70904637D01*
X155134637Y-70704759D01*
X155253679Y-70526600D01*
X155634891Y-70526600D01*
X155693400Y-70585109D01*
G04 #@! TA.AperFunction,Conductor*
D24*
G36*
X155693400Y-70585109D02*
G01*
X155693401Y-83264890D01*
X152364732Y-86593559D01*
X152336625Y-86616626D01*
X152313559Y-86644732D01*
X152313558Y-86644733D01*
X152267797Y-86700493D01*
X151455493Y-87512797D01*
X151379549Y-87497691D01*
X151215069Y-87497691D01*
X151053749Y-87529780D01*
X151026600Y-87541025D01*
X151026600Y-87175109D01*
X153025058Y-85176651D01*
X153053164Y-85153585D01*
X153145214Y-85041423D01*
X153213612Y-84913459D01*
X153255732Y-84774609D01*
X153266390Y-84666396D01*
X153266390Y-84666387D01*
X153269953Y-84630211D01*
X153266390Y-84594035D01*
X153266390Y-76083270D01*
X153406119Y-76167070D01*
X153670960Y-76261909D01*
X153893000Y-76140624D01*
X153893000Y-74997000D01*
X154147000Y-74997000D01*
X154147000Y-76140624D01*
X154369040Y-76261909D01*
X154633881Y-76167070D01*
X154875131Y-76022385D01*
X155083519Y-75833414D01*
X155251037Y-75607420D01*
X155371246Y-75353087D01*
X155411904Y-75219039D01*
X155289915Y-74997000D01*
X154147000Y-74997000D01*
X153893000Y-74997000D01*
X153873000Y-74997000D01*
X153873000Y-74743000D01*
X153893000Y-74743000D01*
X153893000Y-74723000D01*
X154147000Y-74723000D01*
X154147000Y-74743000D01*
X155289915Y-74743000D01*
X155411904Y-74520961D01*
X155371246Y-74386913D01*
X155251037Y-74132580D01*
X155083519Y-73906586D01*
X154875131Y-73717615D01*
X154689135Y-73606067D01*
X154699727Y-73601680D01*
X154934759Y-73444637D01*
X155134637Y-73244759D01*
X155291680Y-73009727D01*
X155399853Y-72748574D01*
X155455000Y-72471335D01*
X155455000Y-72188665D01*
X155399853Y-71911426D01*
X155291680Y-71650273D01*
X155134637Y-71415241D01*
X154934759Y-71215363D01*
X154702241Y-71060000D01*
X154934759Y-70904637D01*
X155134637Y-70704759D01*
X155253679Y-70526600D01*
X155634891Y-70526600D01*
X155693400Y-70585109D01*
G37*
G04 #@! TD.AperFunction*
D23*
X132816629Y-69332883D02*
X132744661Y-69616411D01*
X132729389Y-69908531D01*
X132771401Y-70198019D01*
X132869081Y-70473747D01*
X132942528Y-70611157D01*
X133191603Y-70688792D01*
X134040395Y-69840000D01*
X134026253Y-69825858D01*
X134205858Y-69646253D01*
X134220000Y-69660395D01*
X134234143Y-69646253D01*
X134413748Y-69825858D01*
X134399605Y-69840000D01*
X135248397Y-70688792D01*
X135490689Y-70613271D01*
X135606525Y-70786632D01*
X135813368Y-70993475D01*
X136056589Y-71155990D01*
X136326842Y-71267932D01*
X136613740Y-71325000D01*
X136906260Y-71325000D01*
X137193158Y-71267932D01*
X137463411Y-71155990D01*
X137706632Y-70993475D01*
X137913475Y-70786632D01*
X138030000Y-70612240D01*
X138146525Y-70786632D01*
X138353368Y-70993475D01*
X138596589Y-71155990D01*
X138866842Y-71267932D01*
X139153740Y-71325000D01*
X139446260Y-71325000D01*
X139733158Y-71267932D01*
X139833400Y-71226410D01*
X139833400Y-71734890D01*
X139734891Y-71833400D01*
X129636175Y-71833400D01*
X129599999Y-71829837D01*
X129563823Y-71833400D01*
X129563814Y-71833400D01*
X129455601Y-71844058D01*
X129316751Y-71886178D01*
X129188787Y-71954576D01*
X129076625Y-72046625D01*
X129053559Y-72074731D01*
X128636600Y-72491691D01*
X128636600Y-70868397D01*
X133371208Y-70868397D01*
X133448843Y-71117472D01*
X133712883Y-71243371D01*
X133996411Y-71315339D01*
X134288531Y-71330611D01*
X134578019Y-71288599D01*
X134853747Y-71190919D01*
X134991157Y-71117472D01*
X135068792Y-70868397D01*
X134220000Y-70019605D01*
X133371208Y-70868397D01*
X128636600Y-70868397D01*
X128636600Y-70445109D01*
X128906442Y-70175267D01*
X129775110Y-69306600D01*
X132829161Y-69306600D01*
X132816629Y-69332883D01*
G04 #@! TA.AperFunction,Conductor*
D24*
G36*
X132816629Y-69332883D02*
G01*
X132744661Y-69616411D01*
X132729389Y-69908531D01*
X132771401Y-70198019D01*
X132869081Y-70473747D01*
X132942528Y-70611157D01*
X133191603Y-70688792D01*
X134040395Y-69840000D01*
X134026253Y-69825858D01*
X134205858Y-69646253D01*
X134220000Y-69660395D01*
X134234143Y-69646253D01*
X134413748Y-69825858D01*
X134399605Y-69840000D01*
X135248397Y-70688792D01*
X135490689Y-70613271D01*
X135606525Y-70786632D01*
X135813368Y-70993475D01*
X136056589Y-71155990D01*
X136326842Y-71267932D01*
X136613740Y-71325000D01*
X136906260Y-71325000D01*
X137193158Y-71267932D01*
X137463411Y-71155990D01*
X137706632Y-70993475D01*
X137913475Y-70786632D01*
X138030000Y-70612240D01*
X138146525Y-70786632D01*
X138353368Y-70993475D01*
X138596589Y-71155990D01*
X138866842Y-71267932D01*
X139153740Y-71325000D01*
X139446260Y-71325000D01*
X139733158Y-71267932D01*
X139833400Y-71226410D01*
X139833400Y-71734890D01*
X139734891Y-71833400D01*
X129636175Y-71833400D01*
X129599999Y-71829837D01*
X129563823Y-71833400D01*
X129563814Y-71833400D01*
X129455601Y-71844058D01*
X129316751Y-71886178D01*
X129188787Y-71954576D01*
X129076625Y-72046625D01*
X129053559Y-72074731D01*
X128636600Y-72491691D01*
X128636600Y-70868397D01*
X133371208Y-70868397D01*
X133448843Y-71117472D01*
X133712883Y-71243371D01*
X133996411Y-71315339D01*
X134288531Y-71330611D01*
X134578019Y-71288599D01*
X134853747Y-71190919D01*
X134991157Y-71117472D01*
X135068792Y-70868397D01*
X134220000Y-70019605D01*
X133371208Y-70868397D01*
X128636600Y-70868397D01*
X128636600Y-70445109D01*
X128906442Y-70175267D01*
X129775110Y-69306600D01*
X132829161Y-69306600D01*
X132816629Y-69332883D01*
G37*
G04 #@! TD.AperFunction*
M02*
