G04 #@! TF.GenerationSoftware,KiCad,Pcbnew,(5.1.9)-1*
G04 #@! TF.CreationDate,2021-06-19T06:27:32+02:00*
G04 #@! TF.ProjectId,ZXUnCore,5a58556e-436f-4726-952e-6b696361645f,rev?*
G04 #@! TF.SameCoordinates,Original*
G04 #@! TF.FileFunction,Soldermask,Top*
G04 #@! TF.FilePolarity,Negative*
%FSLAX46Y46*%
G04 Gerber Fmt 4.6, Leading zero omitted, Abs format (unit mm)*
G04 Created by KiCad (PCBNEW (5.1.9)-1) date 2021-06-19 06:27:32*
%MOMM*%
%LPD*%
G01*
G04 APERTURE LIST*
%ADD10O,1.700000X1.700000*%
%ADD11R,1.700000X1.700000*%
%ADD12R,2.700000X2.100000*%
%ADD13C,1.700000*%
%ADD14O,1.350000X1.350000*%
%ADD15R,1.350000X1.350000*%
%ADD16R,1.500000X2.000000*%
%ADD17R,3.800000X2.000000*%
%ADD18O,1.600000X1.600000*%
%ADD19R,1.600000X1.600000*%
G04 APERTURE END LIST*
D10*
X172100000Y-66870000D03*
X174640000Y-66870000D03*
D11*
X177180000Y-66870000D03*
D12*
X168270000Y-81730000D03*
X162970000Y-81730000D03*
X162970000Y-85130000D03*
X168270000Y-85130000D03*
G36*
G01*
X169300002Y-67760000D02*
X168399998Y-67760000D01*
G75*
G02*
X168150000Y-67510002I0J249998D01*
G01*
X168150000Y-66984998D01*
G75*
G02*
X168399998Y-66735000I249998J0D01*
G01*
X169300002Y-66735000D01*
G75*
G02*
X169550000Y-66984998I0J-249998D01*
G01*
X169550000Y-67510002D01*
G75*
G02*
X169300002Y-67760000I-249998J0D01*
G01*
G37*
G36*
G01*
X169300002Y-69585000D02*
X168399998Y-69585000D01*
G75*
G02*
X168150000Y-69335002I0J249998D01*
G01*
X168150000Y-68809998D01*
G75*
G02*
X168399998Y-68560000I249998J0D01*
G01*
X169300002Y-68560000D01*
G75*
G02*
X169550000Y-68809998I0J-249998D01*
G01*
X169550000Y-69335002D01*
G75*
G02*
X169300002Y-69585000I-249998J0D01*
G01*
G37*
G36*
G01*
X179919998Y-68160000D02*
X180820002Y-68160000D01*
G75*
G02*
X181070000Y-68409998I0J-249998D01*
G01*
X181070000Y-68935002D01*
G75*
G02*
X180820002Y-69185000I-249998J0D01*
G01*
X179919998Y-69185000D01*
G75*
G02*
X179670000Y-68935002I0J249998D01*
G01*
X179670000Y-68409998D01*
G75*
G02*
X179919998Y-68160000I249998J0D01*
G01*
G37*
G36*
G01*
X179919998Y-66335000D02*
X180820002Y-66335000D01*
G75*
G02*
X181070000Y-66584998I0J-249998D01*
G01*
X181070000Y-67110002D01*
G75*
G02*
X180820002Y-67360000I-249998J0D01*
G01*
X179919998Y-67360000D01*
G75*
G02*
X179670000Y-67110002I0J249998D01*
G01*
X179670000Y-66584998D01*
G75*
G02*
X179919998Y-66335000I249998J0D01*
G01*
G37*
D13*
X134220000Y-69840000D03*
X136760000Y-69840000D03*
X139300000Y-69840000D03*
X141840000Y-69840000D03*
X144380000Y-69840000D03*
X134220000Y-67300000D03*
X136760000Y-67300000D03*
X139300000Y-67300000D03*
X141840000Y-67300000D03*
G36*
G01*
X143780000Y-66450000D02*
X144980000Y-66450000D01*
G75*
G02*
X145230000Y-66700000I0J-250000D01*
G01*
X145230000Y-67900000D01*
G75*
G02*
X144980000Y-68150000I-250000J0D01*
G01*
X143780000Y-68150000D01*
G75*
G02*
X143530000Y-67900000I0J250000D01*
G01*
X143530000Y-66700000D01*
G75*
G02*
X143780000Y-66450000I250000J0D01*
G01*
G37*
G36*
G01*
X167420800Y-83865000D02*
X167420800Y-85015000D01*
G75*
G02*
X167370000Y-85065800I-50800J0D01*
G01*
X165970000Y-85065800D01*
G75*
G02*
X165919200Y-85015000I0J50800D01*
G01*
X165919200Y-83865000D01*
G75*
G02*
X165970000Y-83814200I50800J0D01*
G01*
X167370000Y-83814200D01*
G75*
G02*
X167420800Y-83865000I0J-50800D01*
G01*
G37*
G36*
G01*
X165220800Y-83865000D02*
X165220800Y-85015000D01*
G75*
G02*
X165170000Y-85065800I-50800J0D01*
G01*
X163770000Y-85065800D01*
G75*
G02*
X163719200Y-85015000I0J50800D01*
G01*
X163719200Y-83865000D01*
G75*
G02*
X163770000Y-83814200I50800J0D01*
G01*
X165170000Y-83814200D01*
G75*
G02*
X165220800Y-83865000I0J-50800D01*
G01*
G37*
G36*
G01*
X165220800Y-82265000D02*
X165220800Y-83415000D01*
G75*
G02*
X165170000Y-83465800I-50800J0D01*
G01*
X163770000Y-83465800D01*
G75*
G02*
X163719200Y-83415000I0J50800D01*
G01*
X163719200Y-82265000D01*
G75*
G02*
X163770000Y-82214200I50800J0D01*
G01*
X165170000Y-82214200D01*
G75*
G02*
X165220800Y-82265000I0J-50800D01*
G01*
G37*
G36*
G01*
X167420800Y-82265000D02*
X167420800Y-83415000D01*
G75*
G02*
X167370000Y-83465800I-50800J0D01*
G01*
X165970000Y-83465800D01*
G75*
G02*
X165919200Y-83415000I0J50800D01*
G01*
X165919200Y-82265000D01*
G75*
G02*
X165970000Y-82214200I50800J0D01*
G01*
X167370000Y-82214200D01*
G75*
G02*
X167420800Y-82265000I0J-50800D01*
G01*
G37*
G36*
G01*
X177027900Y-71189400D02*
X179237700Y-71189400D01*
G75*
G02*
X179288500Y-71240200I0J-50800D01*
G01*
X179288500Y-71849800D01*
G75*
G02*
X179237700Y-71900600I-50800J0D01*
G01*
X177027900Y-71900600D01*
G75*
G02*
X176977100Y-71849800I0J50800D01*
G01*
X176977100Y-71240200D01*
G75*
G02*
X177027900Y-71189400I50800J0D01*
G01*
G37*
G36*
G01*
X177027900Y-72459400D02*
X179237700Y-72459400D01*
G75*
G02*
X179288500Y-72510200I0J-50800D01*
G01*
X179288500Y-73119800D01*
G75*
G02*
X179237700Y-73170600I-50800J0D01*
G01*
X177027900Y-73170600D01*
G75*
G02*
X176977100Y-73119800I0J50800D01*
G01*
X176977100Y-72510200D01*
G75*
G02*
X177027900Y-72459400I50800J0D01*
G01*
G37*
G36*
G01*
X177027900Y-73729400D02*
X179237700Y-73729400D01*
G75*
G02*
X179288500Y-73780200I0J-50800D01*
G01*
X179288500Y-74389800D01*
G75*
G02*
X179237700Y-74440600I-50800J0D01*
G01*
X177027900Y-74440600D01*
G75*
G02*
X176977100Y-74389800I0J50800D01*
G01*
X176977100Y-73780200D01*
G75*
G02*
X177027900Y-73729400I50800J0D01*
G01*
G37*
G36*
G01*
X177027900Y-74999400D02*
X179237700Y-74999400D01*
G75*
G02*
X179288500Y-75050200I0J-50800D01*
G01*
X179288500Y-75659800D01*
G75*
G02*
X179237700Y-75710600I-50800J0D01*
G01*
X177027900Y-75710600D01*
G75*
G02*
X176977100Y-75659800I0J50800D01*
G01*
X176977100Y-75050200D01*
G75*
G02*
X177027900Y-74999400I50800J0D01*
G01*
G37*
G36*
G01*
X170296900Y-74999400D02*
X172506700Y-74999400D01*
G75*
G02*
X172557500Y-75050200I0J-50800D01*
G01*
X172557500Y-75659800D01*
G75*
G02*
X172506700Y-75710600I-50800J0D01*
G01*
X170296900Y-75710600D01*
G75*
G02*
X170246100Y-75659800I0J50800D01*
G01*
X170246100Y-75050200D01*
G75*
G02*
X170296900Y-74999400I50800J0D01*
G01*
G37*
G36*
G01*
X170296900Y-73729400D02*
X172506700Y-73729400D01*
G75*
G02*
X172557500Y-73780200I0J-50800D01*
G01*
X172557500Y-74389800D01*
G75*
G02*
X172506700Y-74440600I-50800J0D01*
G01*
X170296900Y-74440600D01*
G75*
G02*
X170246100Y-74389800I0J50800D01*
G01*
X170246100Y-73780200D01*
G75*
G02*
X170296900Y-73729400I50800J0D01*
G01*
G37*
G36*
G01*
X170296900Y-72459400D02*
X172506700Y-72459400D01*
G75*
G02*
X172557500Y-72510200I0J-50800D01*
G01*
X172557500Y-73119800D01*
G75*
G02*
X172506700Y-73170600I-50800J0D01*
G01*
X170296900Y-73170600D01*
G75*
G02*
X170246100Y-73119800I0J50800D01*
G01*
X170246100Y-72510200D01*
G75*
G02*
X170296900Y-72459400I50800J0D01*
G01*
G37*
G36*
G01*
X170296900Y-71189400D02*
X172506700Y-71189400D01*
G75*
G02*
X172557500Y-71240200I0J-50800D01*
G01*
X172557500Y-71849800D01*
G75*
G02*
X172506700Y-71900600I-50800J0D01*
G01*
X170296900Y-71900600D01*
G75*
G02*
X170246100Y-71849800I0J50800D01*
G01*
X170246100Y-71240200D01*
G75*
G02*
X170296900Y-71189400I50800J0D01*
G01*
G37*
D14*
X181886000Y-116046000D03*
X181886000Y-114046000D03*
X179886000Y-116046000D03*
X179886000Y-114046000D03*
X177886000Y-116046000D03*
X177886000Y-114046000D03*
X175886000Y-116046000D03*
X175886000Y-114046000D03*
X173886000Y-116046000D03*
X173886000Y-114046000D03*
X171886000Y-116046000D03*
X171886000Y-114046000D03*
X169886000Y-116046000D03*
X169886000Y-114046000D03*
X167886000Y-116046000D03*
X167886000Y-114046000D03*
X165886000Y-116046000D03*
X165886000Y-114046000D03*
X163886000Y-116046000D03*
X163886000Y-114046000D03*
X161886000Y-116046000D03*
X161886000Y-114046000D03*
X159886000Y-116046000D03*
X159886000Y-114046000D03*
X157886000Y-116046000D03*
X157886000Y-114046000D03*
X155886000Y-116046000D03*
X155886000Y-114046000D03*
X153886000Y-116046000D03*
X153886000Y-114046000D03*
X151886000Y-116046000D03*
X151886000Y-114046000D03*
X149886000Y-116046000D03*
X149886000Y-114046000D03*
X147886000Y-116046000D03*
X147886000Y-114046000D03*
X145886000Y-116046000D03*
X145886000Y-114046000D03*
X143886000Y-116046000D03*
X143886000Y-114046000D03*
X141886000Y-116046000D03*
X141886000Y-114046000D03*
X139886000Y-116046000D03*
X139886000Y-114046000D03*
X137886000Y-116046000D03*
X137886000Y-114046000D03*
X135886000Y-116046000D03*
X135886000Y-114046000D03*
X133886000Y-116046000D03*
X133886000Y-114046000D03*
X131886000Y-116046000D03*
X131886000Y-114046000D03*
X129886000Y-116046000D03*
X129886000Y-114046000D03*
X127886000Y-116046000D03*
X127886000Y-114046000D03*
X125886000Y-116046000D03*
X125886000Y-114046000D03*
X123886000Y-116046000D03*
X123886000Y-114046000D03*
X121886000Y-116046000D03*
X121886000Y-114046000D03*
X119886000Y-116046000D03*
X119886000Y-114046000D03*
X117886000Y-116046000D03*
X117886000Y-114046000D03*
X115886000Y-116046000D03*
X115886000Y-114046000D03*
X113886000Y-116046000D03*
X113886000Y-114046000D03*
X111886000Y-116046000D03*
X111886000Y-114046000D03*
X109886000Y-116046000D03*
X109886000Y-114046000D03*
X107886000Y-116046000D03*
X107886000Y-114046000D03*
X105886000Y-116046000D03*
X105886000Y-114046000D03*
X103886000Y-116046000D03*
D15*
X103886000Y-114046000D03*
G36*
G01*
X127860930Y-105533491D02*
X127560930Y-105533491D01*
G75*
G02*
X127510130Y-105482691I0J50800D01*
G01*
X127510130Y-103882691D01*
G75*
G02*
X127560930Y-103831891I50800J0D01*
G01*
X127860930Y-103831891D01*
G75*
G02*
X127911730Y-103882691I0J-50800D01*
G01*
X127911730Y-105482691D01*
G75*
G02*
X127860930Y-105533491I-50800J0D01*
G01*
G37*
G36*
G01*
X128360930Y-105533491D02*
X128060930Y-105533491D01*
G75*
G02*
X128010130Y-105482691I0J50800D01*
G01*
X128010130Y-103882691D01*
G75*
G02*
X128060930Y-103831891I50800J0D01*
G01*
X128360930Y-103831891D01*
G75*
G02*
X128411730Y-103882691I0J-50800D01*
G01*
X128411730Y-105482691D01*
G75*
G02*
X128360930Y-105533491I-50800J0D01*
G01*
G37*
G36*
G01*
X128860930Y-105533491D02*
X128560930Y-105533491D01*
G75*
G02*
X128510130Y-105482691I0J50800D01*
G01*
X128510130Y-103882691D01*
G75*
G02*
X128560930Y-103831891I50800J0D01*
G01*
X128860930Y-103831891D01*
G75*
G02*
X128911730Y-103882691I0J-50800D01*
G01*
X128911730Y-105482691D01*
G75*
G02*
X128860930Y-105533491I-50800J0D01*
G01*
G37*
G36*
G01*
X129360930Y-105533491D02*
X129060930Y-105533491D01*
G75*
G02*
X129010130Y-105482691I0J50800D01*
G01*
X129010130Y-103882691D01*
G75*
G02*
X129060930Y-103831891I50800J0D01*
G01*
X129360930Y-103831891D01*
G75*
G02*
X129411730Y-103882691I0J-50800D01*
G01*
X129411730Y-105482691D01*
G75*
G02*
X129360930Y-105533491I-50800J0D01*
G01*
G37*
G36*
G01*
X129860930Y-105533491D02*
X129560930Y-105533491D01*
G75*
G02*
X129510130Y-105482691I0J50800D01*
G01*
X129510130Y-103882691D01*
G75*
G02*
X129560930Y-103831891I50800J0D01*
G01*
X129860930Y-103831891D01*
G75*
G02*
X129911730Y-103882691I0J-50800D01*
G01*
X129911730Y-105482691D01*
G75*
G02*
X129860930Y-105533491I-50800J0D01*
G01*
G37*
G36*
G01*
X130360930Y-105533491D02*
X130060930Y-105533491D01*
G75*
G02*
X130010130Y-105482691I0J50800D01*
G01*
X130010130Y-103882691D01*
G75*
G02*
X130060930Y-103831891I50800J0D01*
G01*
X130360930Y-103831891D01*
G75*
G02*
X130411730Y-103882691I0J-50800D01*
G01*
X130411730Y-105482691D01*
G75*
G02*
X130360930Y-105533491I-50800J0D01*
G01*
G37*
G36*
G01*
X130860930Y-105533491D02*
X130560930Y-105533491D01*
G75*
G02*
X130510130Y-105482691I0J50800D01*
G01*
X130510130Y-103882691D01*
G75*
G02*
X130560930Y-103831891I50800J0D01*
G01*
X130860930Y-103831891D01*
G75*
G02*
X130911730Y-103882691I0J-50800D01*
G01*
X130911730Y-105482691D01*
G75*
G02*
X130860930Y-105533491I-50800J0D01*
G01*
G37*
G36*
G01*
X131360930Y-105533491D02*
X131060930Y-105533491D01*
G75*
G02*
X131010130Y-105482691I0J50800D01*
G01*
X131010130Y-103882691D01*
G75*
G02*
X131060930Y-103831891I50800J0D01*
G01*
X131360930Y-103831891D01*
G75*
G02*
X131411730Y-103882691I0J-50800D01*
G01*
X131411730Y-105482691D01*
G75*
G02*
X131360930Y-105533491I-50800J0D01*
G01*
G37*
G36*
G01*
X131860930Y-105533491D02*
X131560930Y-105533491D01*
G75*
G02*
X131510130Y-105482691I0J50800D01*
G01*
X131510130Y-103882691D01*
G75*
G02*
X131560930Y-103831891I50800J0D01*
G01*
X131860930Y-103831891D01*
G75*
G02*
X131911730Y-103882691I0J-50800D01*
G01*
X131911730Y-105482691D01*
G75*
G02*
X131860930Y-105533491I-50800J0D01*
G01*
G37*
G36*
G01*
X132360930Y-105533491D02*
X132060930Y-105533491D01*
G75*
G02*
X132010130Y-105482691I0J50800D01*
G01*
X132010130Y-103882691D01*
G75*
G02*
X132060930Y-103831891I50800J0D01*
G01*
X132360930Y-103831891D01*
G75*
G02*
X132411730Y-103882691I0J-50800D01*
G01*
X132411730Y-105482691D01*
G75*
G02*
X132360930Y-105533491I-50800J0D01*
G01*
G37*
G36*
G01*
X132860930Y-105533491D02*
X132560930Y-105533491D01*
G75*
G02*
X132510130Y-105482691I0J50800D01*
G01*
X132510130Y-103882691D01*
G75*
G02*
X132560930Y-103831891I50800J0D01*
G01*
X132860930Y-103831891D01*
G75*
G02*
X132911730Y-103882691I0J-50800D01*
G01*
X132911730Y-105482691D01*
G75*
G02*
X132860930Y-105533491I-50800J0D01*
G01*
G37*
G36*
G01*
X133360930Y-105533491D02*
X133060930Y-105533491D01*
G75*
G02*
X133010130Y-105482691I0J50800D01*
G01*
X133010130Y-103882691D01*
G75*
G02*
X133060930Y-103831891I50800J0D01*
G01*
X133360930Y-103831891D01*
G75*
G02*
X133411730Y-103882691I0J-50800D01*
G01*
X133411730Y-105482691D01*
G75*
G02*
X133360930Y-105533491I-50800J0D01*
G01*
G37*
G36*
G01*
X133860930Y-105533491D02*
X133560930Y-105533491D01*
G75*
G02*
X133510130Y-105482691I0J50800D01*
G01*
X133510130Y-103882691D01*
G75*
G02*
X133560930Y-103831891I50800J0D01*
G01*
X133860930Y-103831891D01*
G75*
G02*
X133911730Y-103882691I0J-50800D01*
G01*
X133911730Y-105482691D01*
G75*
G02*
X133860930Y-105533491I-50800J0D01*
G01*
G37*
G36*
G01*
X134360930Y-105533491D02*
X134060930Y-105533491D01*
G75*
G02*
X134010130Y-105482691I0J50800D01*
G01*
X134010130Y-103882691D01*
G75*
G02*
X134060930Y-103831891I50800J0D01*
G01*
X134360930Y-103831891D01*
G75*
G02*
X134411730Y-103882691I0J-50800D01*
G01*
X134411730Y-105482691D01*
G75*
G02*
X134360930Y-105533491I-50800J0D01*
G01*
G37*
G36*
G01*
X134860930Y-105533491D02*
X134560930Y-105533491D01*
G75*
G02*
X134510130Y-105482691I0J50800D01*
G01*
X134510130Y-103882691D01*
G75*
G02*
X134560930Y-103831891I50800J0D01*
G01*
X134860930Y-103831891D01*
G75*
G02*
X134911730Y-103882691I0J-50800D01*
G01*
X134911730Y-105482691D01*
G75*
G02*
X134860930Y-105533491I-50800J0D01*
G01*
G37*
G36*
G01*
X135360930Y-105533491D02*
X135060930Y-105533491D01*
G75*
G02*
X135010130Y-105482691I0J50800D01*
G01*
X135010130Y-103882691D01*
G75*
G02*
X135060930Y-103831891I50800J0D01*
G01*
X135360930Y-103831891D01*
G75*
G02*
X135411730Y-103882691I0J-50800D01*
G01*
X135411730Y-105482691D01*
G75*
G02*
X135360930Y-105533491I-50800J0D01*
G01*
G37*
G36*
G01*
X135860930Y-105533491D02*
X135560930Y-105533491D01*
G75*
G02*
X135510130Y-105482691I0J50800D01*
G01*
X135510130Y-103882691D01*
G75*
G02*
X135560930Y-103831891I50800J0D01*
G01*
X135860930Y-103831891D01*
G75*
G02*
X135911730Y-103882691I0J-50800D01*
G01*
X135911730Y-105482691D01*
G75*
G02*
X135860930Y-105533491I-50800J0D01*
G01*
G37*
G36*
G01*
X136360930Y-105533491D02*
X136060930Y-105533491D01*
G75*
G02*
X136010130Y-105482691I0J50800D01*
G01*
X136010130Y-103882691D01*
G75*
G02*
X136060930Y-103831891I50800J0D01*
G01*
X136360930Y-103831891D01*
G75*
G02*
X136411730Y-103882691I0J-50800D01*
G01*
X136411730Y-105482691D01*
G75*
G02*
X136360930Y-105533491I-50800J0D01*
G01*
G37*
G36*
G01*
X136860930Y-105533491D02*
X136560930Y-105533491D01*
G75*
G02*
X136510130Y-105482691I0J50800D01*
G01*
X136510130Y-103882691D01*
G75*
G02*
X136560930Y-103831891I50800J0D01*
G01*
X136860930Y-103831891D01*
G75*
G02*
X136911730Y-103882691I0J-50800D01*
G01*
X136911730Y-105482691D01*
G75*
G02*
X136860930Y-105533491I-50800J0D01*
G01*
G37*
G36*
G01*
X137360930Y-105533491D02*
X137060930Y-105533491D01*
G75*
G02*
X137010130Y-105482691I0J50800D01*
G01*
X137010130Y-103882691D01*
G75*
G02*
X137060930Y-103831891I50800J0D01*
G01*
X137360930Y-103831891D01*
G75*
G02*
X137411730Y-103882691I0J-50800D01*
G01*
X137411730Y-105482691D01*
G75*
G02*
X137360930Y-105533491I-50800J0D01*
G01*
G37*
G36*
G01*
X137860930Y-105533491D02*
X137560930Y-105533491D01*
G75*
G02*
X137510130Y-105482691I0J50800D01*
G01*
X137510130Y-103882691D01*
G75*
G02*
X137560930Y-103831891I50800J0D01*
G01*
X137860930Y-103831891D01*
G75*
G02*
X137911730Y-103882691I0J-50800D01*
G01*
X137911730Y-105482691D01*
G75*
G02*
X137860930Y-105533491I-50800J0D01*
G01*
G37*
G36*
G01*
X138360930Y-105533491D02*
X138060930Y-105533491D01*
G75*
G02*
X138010130Y-105482691I0J50800D01*
G01*
X138010130Y-103882691D01*
G75*
G02*
X138060930Y-103831891I50800J0D01*
G01*
X138360930Y-103831891D01*
G75*
G02*
X138411730Y-103882691I0J-50800D01*
G01*
X138411730Y-105482691D01*
G75*
G02*
X138360930Y-105533491I-50800J0D01*
G01*
G37*
G36*
G01*
X138860930Y-105533491D02*
X138560930Y-105533491D01*
G75*
G02*
X138510130Y-105482691I0J50800D01*
G01*
X138510130Y-103882691D01*
G75*
G02*
X138560930Y-103831891I50800J0D01*
G01*
X138860930Y-103831891D01*
G75*
G02*
X138911730Y-103882691I0J-50800D01*
G01*
X138911730Y-105482691D01*
G75*
G02*
X138860930Y-105533491I-50800J0D01*
G01*
G37*
G36*
G01*
X139360930Y-105533491D02*
X139060930Y-105533491D01*
G75*
G02*
X139010130Y-105482691I0J50800D01*
G01*
X139010130Y-103882691D01*
G75*
G02*
X139060930Y-103831891I50800J0D01*
G01*
X139360930Y-103831891D01*
G75*
G02*
X139411730Y-103882691I0J-50800D01*
G01*
X139411730Y-105482691D01*
G75*
G02*
X139360930Y-105533491I-50800J0D01*
G01*
G37*
G36*
G01*
X139860930Y-105533491D02*
X139560930Y-105533491D01*
G75*
G02*
X139510130Y-105482691I0J50800D01*
G01*
X139510130Y-103882691D01*
G75*
G02*
X139560930Y-103831891I50800J0D01*
G01*
X139860930Y-103831891D01*
G75*
G02*
X139911730Y-103882691I0J-50800D01*
G01*
X139911730Y-105482691D01*
G75*
G02*
X139860930Y-105533491I-50800J0D01*
G01*
G37*
G36*
G01*
X140360930Y-105533491D02*
X140060930Y-105533491D01*
G75*
G02*
X140010130Y-105482691I0J50800D01*
G01*
X140010130Y-103882691D01*
G75*
G02*
X140060930Y-103831891I50800J0D01*
G01*
X140360930Y-103831891D01*
G75*
G02*
X140411730Y-103882691I0J-50800D01*
G01*
X140411730Y-105482691D01*
G75*
G02*
X140360930Y-105533491I-50800J0D01*
G01*
G37*
G36*
G01*
X140860930Y-105533491D02*
X140560930Y-105533491D01*
G75*
G02*
X140510130Y-105482691I0J50800D01*
G01*
X140510130Y-103882691D01*
G75*
G02*
X140560930Y-103831891I50800J0D01*
G01*
X140860930Y-103831891D01*
G75*
G02*
X140911730Y-103882691I0J-50800D01*
G01*
X140911730Y-105482691D01*
G75*
G02*
X140860930Y-105533491I-50800J0D01*
G01*
G37*
G36*
G01*
X141360930Y-105533491D02*
X141060930Y-105533491D01*
G75*
G02*
X141010130Y-105482691I0J50800D01*
G01*
X141010130Y-103882691D01*
G75*
G02*
X141060930Y-103831891I50800J0D01*
G01*
X141360930Y-103831891D01*
G75*
G02*
X141411730Y-103882691I0J-50800D01*
G01*
X141411730Y-105482691D01*
G75*
G02*
X141360930Y-105533491I-50800J0D01*
G01*
G37*
G36*
G01*
X141860930Y-105533491D02*
X141560930Y-105533491D01*
G75*
G02*
X141510130Y-105482691I0J50800D01*
G01*
X141510130Y-103882691D01*
G75*
G02*
X141560930Y-103831891I50800J0D01*
G01*
X141860930Y-103831891D01*
G75*
G02*
X141911730Y-103882691I0J-50800D01*
G01*
X141911730Y-105482691D01*
G75*
G02*
X141860930Y-105533491I-50800J0D01*
G01*
G37*
G36*
G01*
X142360930Y-105533491D02*
X142060930Y-105533491D01*
G75*
G02*
X142010130Y-105482691I0J50800D01*
G01*
X142010130Y-103882691D01*
G75*
G02*
X142060930Y-103831891I50800J0D01*
G01*
X142360930Y-103831891D01*
G75*
G02*
X142411730Y-103882691I0J-50800D01*
G01*
X142411730Y-105482691D01*
G75*
G02*
X142360930Y-105533491I-50800J0D01*
G01*
G37*
G36*
G01*
X142860930Y-105533491D02*
X142560930Y-105533491D01*
G75*
G02*
X142510130Y-105482691I0J50800D01*
G01*
X142510130Y-103882691D01*
G75*
G02*
X142560930Y-103831891I50800J0D01*
G01*
X142860930Y-103831891D01*
G75*
G02*
X142911730Y-103882691I0J-50800D01*
G01*
X142911730Y-105482691D01*
G75*
G02*
X142860930Y-105533491I-50800J0D01*
G01*
G37*
G36*
G01*
X143360930Y-105533491D02*
X143060930Y-105533491D01*
G75*
G02*
X143010130Y-105482691I0J50800D01*
G01*
X143010130Y-103882691D01*
G75*
G02*
X143060930Y-103831891I50800J0D01*
G01*
X143360930Y-103831891D01*
G75*
G02*
X143411730Y-103882691I0J-50800D01*
G01*
X143411730Y-105482691D01*
G75*
G02*
X143360930Y-105533491I-50800J0D01*
G01*
G37*
G36*
G01*
X143860930Y-105533491D02*
X143560930Y-105533491D01*
G75*
G02*
X143510130Y-105482691I0J50800D01*
G01*
X143510130Y-103882691D01*
G75*
G02*
X143560930Y-103831891I50800J0D01*
G01*
X143860930Y-103831891D01*
G75*
G02*
X143911730Y-103882691I0J-50800D01*
G01*
X143911730Y-105482691D01*
G75*
G02*
X143860930Y-105533491I-50800J0D01*
G01*
G37*
G36*
G01*
X144360930Y-105533491D02*
X144060930Y-105533491D01*
G75*
G02*
X144010130Y-105482691I0J50800D01*
G01*
X144010130Y-103882691D01*
G75*
G02*
X144060930Y-103831891I50800J0D01*
G01*
X144360930Y-103831891D01*
G75*
G02*
X144411730Y-103882691I0J-50800D01*
G01*
X144411730Y-105482691D01*
G75*
G02*
X144360930Y-105533491I-50800J0D01*
G01*
G37*
G36*
G01*
X144860930Y-105533491D02*
X144560930Y-105533491D01*
G75*
G02*
X144510130Y-105482691I0J50800D01*
G01*
X144510130Y-103882691D01*
G75*
G02*
X144560930Y-103831891I50800J0D01*
G01*
X144860930Y-103831891D01*
G75*
G02*
X144911730Y-103882691I0J-50800D01*
G01*
X144911730Y-105482691D01*
G75*
G02*
X144860930Y-105533491I-50800J0D01*
G01*
G37*
G36*
G01*
X145360930Y-105533491D02*
X145060930Y-105533491D01*
G75*
G02*
X145010130Y-105482691I0J50800D01*
G01*
X145010130Y-103882691D01*
G75*
G02*
X145060930Y-103831891I50800J0D01*
G01*
X145360930Y-103831891D01*
G75*
G02*
X145411730Y-103882691I0J-50800D01*
G01*
X145411730Y-105482691D01*
G75*
G02*
X145360930Y-105533491I-50800J0D01*
G01*
G37*
G36*
G01*
X148411730Y-102182691D02*
X148411730Y-102482691D01*
G75*
G02*
X148360930Y-102533491I-50800J0D01*
G01*
X146760930Y-102533491D01*
G75*
G02*
X146710130Y-102482691I0J50800D01*
G01*
X146710130Y-102182691D01*
G75*
G02*
X146760930Y-102131891I50800J0D01*
G01*
X148360930Y-102131891D01*
G75*
G02*
X148411730Y-102182691I0J-50800D01*
G01*
G37*
G36*
G01*
X148411730Y-101682691D02*
X148411730Y-101982691D01*
G75*
G02*
X148360930Y-102033491I-50800J0D01*
G01*
X146760930Y-102033491D01*
G75*
G02*
X146710130Y-101982691I0J50800D01*
G01*
X146710130Y-101682691D01*
G75*
G02*
X146760930Y-101631891I50800J0D01*
G01*
X148360930Y-101631891D01*
G75*
G02*
X148411730Y-101682691I0J-50800D01*
G01*
G37*
G36*
G01*
X148411730Y-101182691D02*
X148411730Y-101482691D01*
G75*
G02*
X148360930Y-101533491I-50800J0D01*
G01*
X146760930Y-101533491D01*
G75*
G02*
X146710130Y-101482691I0J50800D01*
G01*
X146710130Y-101182691D01*
G75*
G02*
X146760930Y-101131891I50800J0D01*
G01*
X148360930Y-101131891D01*
G75*
G02*
X148411730Y-101182691I0J-50800D01*
G01*
G37*
G36*
G01*
X148411730Y-100682691D02*
X148411730Y-100982691D01*
G75*
G02*
X148360930Y-101033491I-50800J0D01*
G01*
X146760930Y-101033491D01*
G75*
G02*
X146710130Y-100982691I0J50800D01*
G01*
X146710130Y-100682691D01*
G75*
G02*
X146760930Y-100631891I50800J0D01*
G01*
X148360930Y-100631891D01*
G75*
G02*
X148411730Y-100682691I0J-50800D01*
G01*
G37*
G36*
G01*
X148411730Y-100182691D02*
X148411730Y-100482691D01*
G75*
G02*
X148360930Y-100533491I-50800J0D01*
G01*
X146760930Y-100533491D01*
G75*
G02*
X146710130Y-100482691I0J50800D01*
G01*
X146710130Y-100182691D01*
G75*
G02*
X146760930Y-100131891I50800J0D01*
G01*
X148360930Y-100131891D01*
G75*
G02*
X148411730Y-100182691I0J-50800D01*
G01*
G37*
G36*
G01*
X148411730Y-99682691D02*
X148411730Y-99982691D01*
G75*
G02*
X148360930Y-100033491I-50800J0D01*
G01*
X146760930Y-100033491D01*
G75*
G02*
X146710130Y-99982691I0J50800D01*
G01*
X146710130Y-99682691D01*
G75*
G02*
X146760930Y-99631891I50800J0D01*
G01*
X148360930Y-99631891D01*
G75*
G02*
X148411730Y-99682691I0J-50800D01*
G01*
G37*
G36*
G01*
X148411730Y-99182691D02*
X148411730Y-99482691D01*
G75*
G02*
X148360930Y-99533491I-50800J0D01*
G01*
X146760930Y-99533491D01*
G75*
G02*
X146710130Y-99482691I0J50800D01*
G01*
X146710130Y-99182691D01*
G75*
G02*
X146760930Y-99131891I50800J0D01*
G01*
X148360930Y-99131891D01*
G75*
G02*
X148411730Y-99182691I0J-50800D01*
G01*
G37*
G36*
G01*
X148411730Y-98682691D02*
X148411730Y-98982691D01*
G75*
G02*
X148360930Y-99033491I-50800J0D01*
G01*
X146760930Y-99033491D01*
G75*
G02*
X146710130Y-98982691I0J50800D01*
G01*
X146710130Y-98682691D01*
G75*
G02*
X146760930Y-98631891I50800J0D01*
G01*
X148360930Y-98631891D01*
G75*
G02*
X148411730Y-98682691I0J-50800D01*
G01*
G37*
G36*
G01*
X148411730Y-98182691D02*
X148411730Y-98482691D01*
G75*
G02*
X148360930Y-98533491I-50800J0D01*
G01*
X146760930Y-98533491D01*
G75*
G02*
X146710130Y-98482691I0J50800D01*
G01*
X146710130Y-98182691D01*
G75*
G02*
X146760930Y-98131891I50800J0D01*
G01*
X148360930Y-98131891D01*
G75*
G02*
X148411730Y-98182691I0J-50800D01*
G01*
G37*
G36*
G01*
X148411730Y-97682691D02*
X148411730Y-97982691D01*
G75*
G02*
X148360930Y-98033491I-50800J0D01*
G01*
X146760930Y-98033491D01*
G75*
G02*
X146710130Y-97982691I0J50800D01*
G01*
X146710130Y-97682691D01*
G75*
G02*
X146760930Y-97631891I50800J0D01*
G01*
X148360930Y-97631891D01*
G75*
G02*
X148411730Y-97682691I0J-50800D01*
G01*
G37*
G36*
G01*
X148411730Y-97182691D02*
X148411730Y-97482691D01*
G75*
G02*
X148360930Y-97533491I-50800J0D01*
G01*
X146760930Y-97533491D01*
G75*
G02*
X146710130Y-97482691I0J50800D01*
G01*
X146710130Y-97182691D01*
G75*
G02*
X146760930Y-97131891I50800J0D01*
G01*
X148360930Y-97131891D01*
G75*
G02*
X148411730Y-97182691I0J-50800D01*
G01*
G37*
G36*
G01*
X148411730Y-96682691D02*
X148411730Y-96982691D01*
G75*
G02*
X148360930Y-97033491I-50800J0D01*
G01*
X146760930Y-97033491D01*
G75*
G02*
X146710130Y-96982691I0J50800D01*
G01*
X146710130Y-96682691D01*
G75*
G02*
X146760930Y-96631891I50800J0D01*
G01*
X148360930Y-96631891D01*
G75*
G02*
X148411730Y-96682691I0J-50800D01*
G01*
G37*
G36*
G01*
X148411730Y-96182691D02*
X148411730Y-96482691D01*
G75*
G02*
X148360930Y-96533491I-50800J0D01*
G01*
X146760930Y-96533491D01*
G75*
G02*
X146710130Y-96482691I0J50800D01*
G01*
X146710130Y-96182691D01*
G75*
G02*
X146760930Y-96131891I50800J0D01*
G01*
X148360930Y-96131891D01*
G75*
G02*
X148411730Y-96182691I0J-50800D01*
G01*
G37*
G36*
G01*
X148411730Y-95682691D02*
X148411730Y-95982691D01*
G75*
G02*
X148360930Y-96033491I-50800J0D01*
G01*
X146760930Y-96033491D01*
G75*
G02*
X146710130Y-95982691I0J50800D01*
G01*
X146710130Y-95682691D01*
G75*
G02*
X146760930Y-95631891I50800J0D01*
G01*
X148360930Y-95631891D01*
G75*
G02*
X148411730Y-95682691I0J-50800D01*
G01*
G37*
G36*
G01*
X148411730Y-95182691D02*
X148411730Y-95482691D01*
G75*
G02*
X148360930Y-95533491I-50800J0D01*
G01*
X146760930Y-95533491D01*
G75*
G02*
X146710130Y-95482691I0J50800D01*
G01*
X146710130Y-95182691D01*
G75*
G02*
X146760930Y-95131891I50800J0D01*
G01*
X148360930Y-95131891D01*
G75*
G02*
X148411730Y-95182691I0J-50800D01*
G01*
G37*
G36*
G01*
X148411730Y-94682691D02*
X148411730Y-94982691D01*
G75*
G02*
X148360930Y-95033491I-50800J0D01*
G01*
X146760930Y-95033491D01*
G75*
G02*
X146710130Y-94982691I0J50800D01*
G01*
X146710130Y-94682691D01*
G75*
G02*
X146760930Y-94631891I50800J0D01*
G01*
X148360930Y-94631891D01*
G75*
G02*
X148411730Y-94682691I0J-50800D01*
G01*
G37*
G36*
G01*
X148411730Y-94182691D02*
X148411730Y-94482691D01*
G75*
G02*
X148360930Y-94533491I-50800J0D01*
G01*
X146760930Y-94533491D01*
G75*
G02*
X146710130Y-94482691I0J50800D01*
G01*
X146710130Y-94182691D01*
G75*
G02*
X146760930Y-94131891I50800J0D01*
G01*
X148360930Y-94131891D01*
G75*
G02*
X148411730Y-94182691I0J-50800D01*
G01*
G37*
G36*
G01*
X148411730Y-93682691D02*
X148411730Y-93982691D01*
G75*
G02*
X148360930Y-94033491I-50800J0D01*
G01*
X146760930Y-94033491D01*
G75*
G02*
X146710130Y-93982691I0J50800D01*
G01*
X146710130Y-93682691D01*
G75*
G02*
X146760930Y-93631891I50800J0D01*
G01*
X148360930Y-93631891D01*
G75*
G02*
X148411730Y-93682691I0J-50800D01*
G01*
G37*
G36*
G01*
X148411730Y-93182691D02*
X148411730Y-93482691D01*
G75*
G02*
X148360930Y-93533491I-50800J0D01*
G01*
X146760930Y-93533491D01*
G75*
G02*
X146710130Y-93482691I0J50800D01*
G01*
X146710130Y-93182691D01*
G75*
G02*
X146760930Y-93131891I50800J0D01*
G01*
X148360930Y-93131891D01*
G75*
G02*
X148411730Y-93182691I0J-50800D01*
G01*
G37*
G36*
G01*
X148411730Y-92682691D02*
X148411730Y-92982691D01*
G75*
G02*
X148360930Y-93033491I-50800J0D01*
G01*
X146760930Y-93033491D01*
G75*
G02*
X146710130Y-92982691I0J50800D01*
G01*
X146710130Y-92682691D01*
G75*
G02*
X146760930Y-92631891I50800J0D01*
G01*
X148360930Y-92631891D01*
G75*
G02*
X148411730Y-92682691I0J-50800D01*
G01*
G37*
G36*
G01*
X148411730Y-92182691D02*
X148411730Y-92482691D01*
G75*
G02*
X148360930Y-92533491I-50800J0D01*
G01*
X146760930Y-92533491D01*
G75*
G02*
X146710130Y-92482691I0J50800D01*
G01*
X146710130Y-92182691D01*
G75*
G02*
X146760930Y-92131891I50800J0D01*
G01*
X148360930Y-92131891D01*
G75*
G02*
X148411730Y-92182691I0J-50800D01*
G01*
G37*
G36*
G01*
X148411730Y-91682691D02*
X148411730Y-91982691D01*
G75*
G02*
X148360930Y-92033491I-50800J0D01*
G01*
X146760930Y-92033491D01*
G75*
G02*
X146710130Y-91982691I0J50800D01*
G01*
X146710130Y-91682691D01*
G75*
G02*
X146760930Y-91631891I50800J0D01*
G01*
X148360930Y-91631891D01*
G75*
G02*
X148411730Y-91682691I0J-50800D01*
G01*
G37*
G36*
G01*
X148411730Y-91182691D02*
X148411730Y-91482691D01*
G75*
G02*
X148360930Y-91533491I-50800J0D01*
G01*
X146760930Y-91533491D01*
G75*
G02*
X146710130Y-91482691I0J50800D01*
G01*
X146710130Y-91182691D01*
G75*
G02*
X146760930Y-91131891I50800J0D01*
G01*
X148360930Y-91131891D01*
G75*
G02*
X148411730Y-91182691I0J-50800D01*
G01*
G37*
G36*
G01*
X148411730Y-90682691D02*
X148411730Y-90982691D01*
G75*
G02*
X148360930Y-91033491I-50800J0D01*
G01*
X146760930Y-91033491D01*
G75*
G02*
X146710130Y-90982691I0J50800D01*
G01*
X146710130Y-90682691D01*
G75*
G02*
X146760930Y-90631891I50800J0D01*
G01*
X148360930Y-90631891D01*
G75*
G02*
X148411730Y-90682691I0J-50800D01*
G01*
G37*
G36*
G01*
X148411730Y-90182691D02*
X148411730Y-90482691D01*
G75*
G02*
X148360930Y-90533491I-50800J0D01*
G01*
X146760930Y-90533491D01*
G75*
G02*
X146710130Y-90482691I0J50800D01*
G01*
X146710130Y-90182691D01*
G75*
G02*
X146760930Y-90131891I50800J0D01*
G01*
X148360930Y-90131891D01*
G75*
G02*
X148411730Y-90182691I0J-50800D01*
G01*
G37*
G36*
G01*
X148411730Y-89682691D02*
X148411730Y-89982691D01*
G75*
G02*
X148360930Y-90033491I-50800J0D01*
G01*
X146760930Y-90033491D01*
G75*
G02*
X146710130Y-89982691I0J50800D01*
G01*
X146710130Y-89682691D01*
G75*
G02*
X146760930Y-89631891I50800J0D01*
G01*
X148360930Y-89631891D01*
G75*
G02*
X148411730Y-89682691I0J-50800D01*
G01*
G37*
G36*
G01*
X148411730Y-89182691D02*
X148411730Y-89482691D01*
G75*
G02*
X148360930Y-89533491I-50800J0D01*
G01*
X146760930Y-89533491D01*
G75*
G02*
X146710130Y-89482691I0J50800D01*
G01*
X146710130Y-89182691D01*
G75*
G02*
X146760930Y-89131891I50800J0D01*
G01*
X148360930Y-89131891D01*
G75*
G02*
X148411730Y-89182691I0J-50800D01*
G01*
G37*
G36*
G01*
X148411730Y-88682691D02*
X148411730Y-88982691D01*
G75*
G02*
X148360930Y-89033491I-50800J0D01*
G01*
X146760930Y-89033491D01*
G75*
G02*
X146710130Y-88982691I0J50800D01*
G01*
X146710130Y-88682691D01*
G75*
G02*
X146760930Y-88631891I50800J0D01*
G01*
X148360930Y-88631891D01*
G75*
G02*
X148411730Y-88682691I0J-50800D01*
G01*
G37*
G36*
G01*
X148411730Y-88182691D02*
X148411730Y-88482691D01*
G75*
G02*
X148360930Y-88533491I-50800J0D01*
G01*
X146760930Y-88533491D01*
G75*
G02*
X146710130Y-88482691I0J50800D01*
G01*
X146710130Y-88182691D01*
G75*
G02*
X146760930Y-88131891I50800J0D01*
G01*
X148360930Y-88131891D01*
G75*
G02*
X148411730Y-88182691I0J-50800D01*
G01*
G37*
G36*
G01*
X148411730Y-87682691D02*
X148411730Y-87982691D01*
G75*
G02*
X148360930Y-88033491I-50800J0D01*
G01*
X146760930Y-88033491D01*
G75*
G02*
X146710130Y-87982691I0J50800D01*
G01*
X146710130Y-87682691D01*
G75*
G02*
X146760930Y-87631891I50800J0D01*
G01*
X148360930Y-87631891D01*
G75*
G02*
X148411730Y-87682691I0J-50800D01*
G01*
G37*
G36*
G01*
X148411730Y-87182691D02*
X148411730Y-87482691D01*
G75*
G02*
X148360930Y-87533491I-50800J0D01*
G01*
X146760930Y-87533491D01*
G75*
G02*
X146710130Y-87482691I0J50800D01*
G01*
X146710130Y-87182691D01*
G75*
G02*
X146760930Y-87131891I50800J0D01*
G01*
X148360930Y-87131891D01*
G75*
G02*
X148411730Y-87182691I0J-50800D01*
G01*
G37*
G36*
G01*
X148411730Y-86682691D02*
X148411730Y-86982691D01*
G75*
G02*
X148360930Y-87033491I-50800J0D01*
G01*
X146760930Y-87033491D01*
G75*
G02*
X146710130Y-86982691I0J50800D01*
G01*
X146710130Y-86682691D01*
G75*
G02*
X146760930Y-86631891I50800J0D01*
G01*
X148360930Y-86631891D01*
G75*
G02*
X148411730Y-86682691I0J-50800D01*
G01*
G37*
G36*
G01*
X148411730Y-86182691D02*
X148411730Y-86482691D01*
G75*
G02*
X148360930Y-86533491I-50800J0D01*
G01*
X146760930Y-86533491D01*
G75*
G02*
X146710130Y-86482691I0J50800D01*
G01*
X146710130Y-86182691D01*
G75*
G02*
X146760930Y-86131891I50800J0D01*
G01*
X148360930Y-86131891D01*
G75*
G02*
X148411730Y-86182691I0J-50800D01*
G01*
G37*
G36*
G01*
X148411730Y-85682691D02*
X148411730Y-85982691D01*
G75*
G02*
X148360930Y-86033491I-50800J0D01*
G01*
X146760930Y-86033491D01*
G75*
G02*
X146710130Y-85982691I0J50800D01*
G01*
X146710130Y-85682691D01*
G75*
G02*
X146760930Y-85631891I50800J0D01*
G01*
X148360930Y-85631891D01*
G75*
G02*
X148411730Y-85682691I0J-50800D01*
G01*
G37*
G36*
G01*
X148411730Y-85182691D02*
X148411730Y-85482691D01*
G75*
G02*
X148360930Y-85533491I-50800J0D01*
G01*
X146760930Y-85533491D01*
G75*
G02*
X146710130Y-85482691I0J50800D01*
G01*
X146710130Y-85182691D01*
G75*
G02*
X146760930Y-85131891I50800J0D01*
G01*
X148360930Y-85131891D01*
G75*
G02*
X148411730Y-85182691I0J-50800D01*
G01*
G37*
G36*
G01*
X148411730Y-84682691D02*
X148411730Y-84982691D01*
G75*
G02*
X148360930Y-85033491I-50800J0D01*
G01*
X146760930Y-85033491D01*
G75*
G02*
X146710130Y-84982691I0J50800D01*
G01*
X146710130Y-84682691D01*
G75*
G02*
X146760930Y-84631891I50800J0D01*
G01*
X148360930Y-84631891D01*
G75*
G02*
X148411730Y-84682691I0J-50800D01*
G01*
G37*
G36*
G01*
X145360930Y-83333491D02*
X145060930Y-83333491D01*
G75*
G02*
X145010130Y-83282691I0J50800D01*
G01*
X145010130Y-81682691D01*
G75*
G02*
X145060930Y-81631891I50800J0D01*
G01*
X145360930Y-81631891D01*
G75*
G02*
X145411730Y-81682691I0J-50800D01*
G01*
X145411730Y-83282691D01*
G75*
G02*
X145360930Y-83333491I-50800J0D01*
G01*
G37*
G36*
G01*
X144860930Y-83333491D02*
X144560930Y-83333491D01*
G75*
G02*
X144510130Y-83282691I0J50800D01*
G01*
X144510130Y-81682691D01*
G75*
G02*
X144560930Y-81631891I50800J0D01*
G01*
X144860930Y-81631891D01*
G75*
G02*
X144911730Y-81682691I0J-50800D01*
G01*
X144911730Y-83282691D01*
G75*
G02*
X144860930Y-83333491I-50800J0D01*
G01*
G37*
G36*
G01*
X144360930Y-83333491D02*
X144060930Y-83333491D01*
G75*
G02*
X144010130Y-83282691I0J50800D01*
G01*
X144010130Y-81682691D01*
G75*
G02*
X144060930Y-81631891I50800J0D01*
G01*
X144360930Y-81631891D01*
G75*
G02*
X144411730Y-81682691I0J-50800D01*
G01*
X144411730Y-83282691D01*
G75*
G02*
X144360930Y-83333491I-50800J0D01*
G01*
G37*
G36*
G01*
X143860930Y-83333491D02*
X143560930Y-83333491D01*
G75*
G02*
X143510130Y-83282691I0J50800D01*
G01*
X143510130Y-81682691D01*
G75*
G02*
X143560930Y-81631891I50800J0D01*
G01*
X143860930Y-81631891D01*
G75*
G02*
X143911730Y-81682691I0J-50800D01*
G01*
X143911730Y-83282691D01*
G75*
G02*
X143860930Y-83333491I-50800J0D01*
G01*
G37*
G36*
G01*
X143360930Y-83333491D02*
X143060930Y-83333491D01*
G75*
G02*
X143010130Y-83282691I0J50800D01*
G01*
X143010130Y-81682691D01*
G75*
G02*
X143060930Y-81631891I50800J0D01*
G01*
X143360930Y-81631891D01*
G75*
G02*
X143411730Y-81682691I0J-50800D01*
G01*
X143411730Y-83282691D01*
G75*
G02*
X143360930Y-83333491I-50800J0D01*
G01*
G37*
G36*
G01*
X142860930Y-83333491D02*
X142560930Y-83333491D01*
G75*
G02*
X142510130Y-83282691I0J50800D01*
G01*
X142510130Y-81682691D01*
G75*
G02*
X142560930Y-81631891I50800J0D01*
G01*
X142860930Y-81631891D01*
G75*
G02*
X142911730Y-81682691I0J-50800D01*
G01*
X142911730Y-83282691D01*
G75*
G02*
X142860930Y-83333491I-50800J0D01*
G01*
G37*
G36*
G01*
X142360930Y-83333491D02*
X142060930Y-83333491D01*
G75*
G02*
X142010130Y-83282691I0J50800D01*
G01*
X142010130Y-81682691D01*
G75*
G02*
X142060930Y-81631891I50800J0D01*
G01*
X142360930Y-81631891D01*
G75*
G02*
X142411730Y-81682691I0J-50800D01*
G01*
X142411730Y-83282691D01*
G75*
G02*
X142360930Y-83333491I-50800J0D01*
G01*
G37*
G36*
G01*
X141860930Y-83333491D02*
X141560930Y-83333491D01*
G75*
G02*
X141510130Y-83282691I0J50800D01*
G01*
X141510130Y-81682691D01*
G75*
G02*
X141560930Y-81631891I50800J0D01*
G01*
X141860930Y-81631891D01*
G75*
G02*
X141911730Y-81682691I0J-50800D01*
G01*
X141911730Y-83282691D01*
G75*
G02*
X141860930Y-83333491I-50800J0D01*
G01*
G37*
G36*
G01*
X141360930Y-83333491D02*
X141060930Y-83333491D01*
G75*
G02*
X141010130Y-83282691I0J50800D01*
G01*
X141010130Y-81682691D01*
G75*
G02*
X141060930Y-81631891I50800J0D01*
G01*
X141360930Y-81631891D01*
G75*
G02*
X141411730Y-81682691I0J-50800D01*
G01*
X141411730Y-83282691D01*
G75*
G02*
X141360930Y-83333491I-50800J0D01*
G01*
G37*
G36*
G01*
X140860930Y-83333491D02*
X140560930Y-83333491D01*
G75*
G02*
X140510130Y-83282691I0J50800D01*
G01*
X140510130Y-81682691D01*
G75*
G02*
X140560930Y-81631891I50800J0D01*
G01*
X140860930Y-81631891D01*
G75*
G02*
X140911730Y-81682691I0J-50800D01*
G01*
X140911730Y-83282691D01*
G75*
G02*
X140860930Y-83333491I-50800J0D01*
G01*
G37*
G36*
G01*
X140360930Y-83333491D02*
X140060930Y-83333491D01*
G75*
G02*
X140010130Y-83282691I0J50800D01*
G01*
X140010130Y-81682691D01*
G75*
G02*
X140060930Y-81631891I50800J0D01*
G01*
X140360930Y-81631891D01*
G75*
G02*
X140411730Y-81682691I0J-50800D01*
G01*
X140411730Y-83282691D01*
G75*
G02*
X140360930Y-83333491I-50800J0D01*
G01*
G37*
G36*
G01*
X139860930Y-83333491D02*
X139560930Y-83333491D01*
G75*
G02*
X139510130Y-83282691I0J50800D01*
G01*
X139510130Y-81682691D01*
G75*
G02*
X139560930Y-81631891I50800J0D01*
G01*
X139860930Y-81631891D01*
G75*
G02*
X139911730Y-81682691I0J-50800D01*
G01*
X139911730Y-83282691D01*
G75*
G02*
X139860930Y-83333491I-50800J0D01*
G01*
G37*
G36*
G01*
X139360930Y-83333491D02*
X139060930Y-83333491D01*
G75*
G02*
X139010130Y-83282691I0J50800D01*
G01*
X139010130Y-81682691D01*
G75*
G02*
X139060930Y-81631891I50800J0D01*
G01*
X139360930Y-81631891D01*
G75*
G02*
X139411730Y-81682691I0J-50800D01*
G01*
X139411730Y-83282691D01*
G75*
G02*
X139360930Y-83333491I-50800J0D01*
G01*
G37*
G36*
G01*
X138860930Y-83333491D02*
X138560930Y-83333491D01*
G75*
G02*
X138510130Y-83282691I0J50800D01*
G01*
X138510130Y-81682691D01*
G75*
G02*
X138560930Y-81631891I50800J0D01*
G01*
X138860930Y-81631891D01*
G75*
G02*
X138911730Y-81682691I0J-50800D01*
G01*
X138911730Y-83282691D01*
G75*
G02*
X138860930Y-83333491I-50800J0D01*
G01*
G37*
G36*
G01*
X138360930Y-83333491D02*
X138060930Y-83333491D01*
G75*
G02*
X138010130Y-83282691I0J50800D01*
G01*
X138010130Y-81682691D01*
G75*
G02*
X138060930Y-81631891I50800J0D01*
G01*
X138360930Y-81631891D01*
G75*
G02*
X138411730Y-81682691I0J-50800D01*
G01*
X138411730Y-83282691D01*
G75*
G02*
X138360930Y-83333491I-50800J0D01*
G01*
G37*
G36*
G01*
X137860930Y-83333491D02*
X137560930Y-83333491D01*
G75*
G02*
X137510130Y-83282691I0J50800D01*
G01*
X137510130Y-81682691D01*
G75*
G02*
X137560930Y-81631891I50800J0D01*
G01*
X137860930Y-81631891D01*
G75*
G02*
X137911730Y-81682691I0J-50800D01*
G01*
X137911730Y-83282691D01*
G75*
G02*
X137860930Y-83333491I-50800J0D01*
G01*
G37*
G36*
G01*
X137360930Y-83333491D02*
X137060930Y-83333491D01*
G75*
G02*
X137010130Y-83282691I0J50800D01*
G01*
X137010130Y-81682691D01*
G75*
G02*
X137060930Y-81631891I50800J0D01*
G01*
X137360930Y-81631891D01*
G75*
G02*
X137411730Y-81682691I0J-50800D01*
G01*
X137411730Y-83282691D01*
G75*
G02*
X137360930Y-83333491I-50800J0D01*
G01*
G37*
G36*
G01*
X136860930Y-83333491D02*
X136560930Y-83333491D01*
G75*
G02*
X136510130Y-83282691I0J50800D01*
G01*
X136510130Y-81682691D01*
G75*
G02*
X136560930Y-81631891I50800J0D01*
G01*
X136860930Y-81631891D01*
G75*
G02*
X136911730Y-81682691I0J-50800D01*
G01*
X136911730Y-83282691D01*
G75*
G02*
X136860930Y-83333491I-50800J0D01*
G01*
G37*
G36*
G01*
X136360930Y-83333491D02*
X136060930Y-83333491D01*
G75*
G02*
X136010130Y-83282691I0J50800D01*
G01*
X136010130Y-81682691D01*
G75*
G02*
X136060930Y-81631891I50800J0D01*
G01*
X136360930Y-81631891D01*
G75*
G02*
X136411730Y-81682691I0J-50800D01*
G01*
X136411730Y-83282691D01*
G75*
G02*
X136360930Y-83333491I-50800J0D01*
G01*
G37*
G36*
G01*
X135860930Y-83333491D02*
X135560930Y-83333491D01*
G75*
G02*
X135510130Y-83282691I0J50800D01*
G01*
X135510130Y-81682691D01*
G75*
G02*
X135560930Y-81631891I50800J0D01*
G01*
X135860930Y-81631891D01*
G75*
G02*
X135911730Y-81682691I0J-50800D01*
G01*
X135911730Y-83282691D01*
G75*
G02*
X135860930Y-83333491I-50800J0D01*
G01*
G37*
G36*
G01*
X135360930Y-83333491D02*
X135060930Y-83333491D01*
G75*
G02*
X135010130Y-83282691I0J50800D01*
G01*
X135010130Y-81682691D01*
G75*
G02*
X135060930Y-81631891I50800J0D01*
G01*
X135360930Y-81631891D01*
G75*
G02*
X135411730Y-81682691I0J-50800D01*
G01*
X135411730Y-83282691D01*
G75*
G02*
X135360930Y-83333491I-50800J0D01*
G01*
G37*
G36*
G01*
X134860930Y-83333491D02*
X134560930Y-83333491D01*
G75*
G02*
X134510130Y-83282691I0J50800D01*
G01*
X134510130Y-81682691D01*
G75*
G02*
X134560930Y-81631891I50800J0D01*
G01*
X134860930Y-81631891D01*
G75*
G02*
X134911730Y-81682691I0J-50800D01*
G01*
X134911730Y-83282691D01*
G75*
G02*
X134860930Y-83333491I-50800J0D01*
G01*
G37*
G36*
G01*
X134360930Y-83333491D02*
X134060930Y-83333491D01*
G75*
G02*
X134010130Y-83282691I0J50800D01*
G01*
X134010130Y-81682691D01*
G75*
G02*
X134060930Y-81631891I50800J0D01*
G01*
X134360930Y-81631891D01*
G75*
G02*
X134411730Y-81682691I0J-50800D01*
G01*
X134411730Y-83282691D01*
G75*
G02*
X134360930Y-83333491I-50800J0D01*
G01*
G37*
G36*
G01*
X133860930Y-83333491D02*
X133560930Y-83333491D01*
G75*
G02*
X133510130Y-83282691I0J50800D01*
G01*
X133510130Y-81682691D01*
G75*
G02*
X133560930Y-81631891I50800J0D01*
G01*
X133860930Y-81631891D01*
G75*
G02*
X133911730Y-81682691I0J-50800D01*
G01*
X133911730Y-83282691D01*
G75*
G02*
X133860930Y-83333491I-50800J0D01*
G01*
G37*
G36*
G01*
X133360930Y-83333491D02*
X133060930Y-83333491D01*
G75*
G02*
X133010130Y-83282691I0J50800D01*
G01*
X133010130Y-81682691D01*
G75*
G02*
X133060930Y-81631891I50800J0D01*
G01*
X133360930Y-81631891D01*
G75*
G02*
X133411730Y-81682691I0J-50800D01*
G01*
X133411730Y-83282691D01*
G75*
G02*
X133360930Y-83333491I-50800J0D01*
G01*
G37*
G36*
G01*
X132860930Y-83333491D02*
X132560930Y-83333491D01*
G75*
G02*
X132510130Y-83282691I0J50800D01*
G01*
X132510130Y-81682691D01*
G75*
G02*
X132560930Y-81631891I50800J0D01*
G01*
X132860930Y-81631891D01*
G75*
G02*
X132911730Y-81682691I0J-50800D01*
G01*
X132911730Y-83282691D01*
G75*
G02*
X132860930Y-83333491I-50800J0D01*
G01*
G37*
G36*
G01*
X132360930Y-83333491D02*
X132060930Y-83333491D01*
G75*
G02*
X132010130Y-83282691I0J50800D01*
G01*
X132010130Y-81682691D01*
G75*
G02*
X132060930Y-81631891I50800J0D01*
G01*
X132360930Y-81631891D01*
G75*
G02*
X132411730Y-81682691I0J-50800D01*
G01*
X132411730Y-83282691D01*
G75*
G02*
X132360930Y-83333491I-50800J0D01*
G01*
G37*
G36*
G01*
X131860930Y-83333491D02*
X131560930Y-83333491D01*
G75*
G02*
X131510130Y-83282691I0J50800D01*
G01*
X131510130Y-81682691D01*
G75*
G02*
X131560930Y-81631891I50800J0D01*
G01*
X131860930Y-81631891D01*
G75*
G02*
X131911730Y-81682691I0J-50800D01*
G01*
X131911730Y-83282691D01*
G75*
G02*
X131860930Y-83333491I-50800J0D01*
G01*
G37*
G36*
G01*
X131360930Y-83333491D02*
X131060930Y-83333491D01*
G75*
G02*
X131010130Y-83282691I0J50800D01*
G01*
X131010130Y-81682691D01*
G75*
G02*
X131060930Y-81631891I50800J0D01*
G01*
X131360930Y-81631891D01*
G75*
G02*
X131411730Y-81682691I0J-50800D01*
G01*
X131411730Y-83282691D01*
G75*
G02*
X131360930Y-83333491I-50800J0D01*
G01*
G37*
G36*
G01*
X130860930Y-83333491D02*
X130560930Y-83333491D01*
G75*
G02*
X130510130Y-83282691I0J50800D01*
G01*
X130510130Y-81682691D01*
G75*
G02*
X130560930Y-81631891I50800J0D01*
G01*
X130860930Y-81631891D01*
G75*
G02*
X130911730Y-81682691I0J-50800D01*
G01*
X130911730Y-83282691D01*
G75*
G02*
X130860930Y-83333491I-50800J0D01*
G01*
G37*
G36*
G01*
X130360930Y-83333491D02*
X130060930Y-83333491D01*
G75*
G02*
X130010130Y-83282691I0J50800D01*
G01*
X130010130Y-81682691D01*
G75*
G02*
X130060930Y-81631891I50800J0D01*
G01*
X130360930Y-81631891D01*
G75*
G02*
X130411730Y-81682691I0J-50800D01*
G01*
X130411730Y-83282691D01*
G75*
G02*
X130360930Y-83333491I-50800J0D01*
G01*
G37*
G36*
G01*
X129860930Y-83333491D02*
X129560930Y-83333491D01*
G75*
G02*
X129510130Y-83282691I0J50800D01*
G01*
X129510130Y-81682691D01*
G75*
G02*
X129560930Y-81631891I50800J0D01*
G01*
X129860930Y-81631891D01*
G75*
G02*
X129911730Y-81682691I0J-50800D01*
G01*
X129911730Y-83282691D01*
G75*
G02*
X129860930Y-83333491I-50800J0D01*
G01*
G37*
G36*
G01*
X129360930Y-83333491D02*
X129060930Y-83333491D01*
G75*
G02*
X129010130Y-83282691I0J50800D01*
G01*
X129010130Y-81682691D01*
G75*
G02*
X129060930Y-81631891I50800J0D01*
G01*
X129360930Y-81631891D01*
G75*
G02*
X129411730Y-81682691I0J-50800D01*
G01*
X129411730Y-83282691D01*
G75*
G02*
X129360930Y-83333491I-50800J0D01*
G01*
G37*
G36*
G01*
X128860930Y-83333491D02*
X128560930Y-83333491D01*
G75*
G02*
X128510130Y-83282691I0J50800D01*
G01*
X128510130Y-81682691D01*
G75*
G02*
X128560930Y-81631891I50800J0D01*
G01*
X128860930Y-81631891D01*
G75*
G02*
X128911730Y-81682691I0J-50800D01*
G01*
X128911730Y-83282691D01*
G75*
G02*
X128860930Y-83333491I-50800J0D01*
G01*
G37*
G36*
G01*
X128360930Y-83333491D02*
X128060930Y-83333491D01*
G75*
G02*
X128010130Y-83282691I0J50800D01*
G01*
X128010130Y-81682691D01*
G75*
G02*
X128060930Y-81631891I50800J0D01*
G01*
X128360930Y-81631891D01*
G75*
G02*
X128411730Y-81682691I0J-50800D01*
G01*
X128411730Y-83282691D01*
G75*
G02*
X128360930Y-83333491I-50800J0D01*
G01*
G37*
G36*
G01*
X127860930Y-83333491D02*
X127560930Y-83333491D01*
G75*
G02*
X127510130Y-83282691I0J50800D01*
G01*
X127510130Y-81682691D01*
G75*
G02*
X127560930Y-81631891I50800J0D01*
G01*
X127860930Y-81631891D01*
G75*
G02*
X127911730Y-81682691I0J-50800D01*
G01*
X127911730Y-83282691D01*
G75*
G02*
X127860930Y-83333491I-50800J0D01*
G01*
G37*
G36*
G01*
X126211730Y-84682691D02*
X126211730Y-84982691D01*
G75*
G02*
X126160930Y-85033491I-50800J0D01*
G01*
X124560930Y-85033491D01*
G75*
G02*
X124510130Y-84982691I0J50800D01*
G01*
X124510130Y-84682691D01*
G75*
G02*
X124560930Y-84631891I50800J0D01*
G01*
X126160930Y-84631891D01*
G75*
G02*
X126211730Y-84682691I0J-50800D01*
G01*
G37*
G36*
G01*
X126211730Y-85182691D02*
X126211730Y-85482691D01*
G75*
G02*
X126160930Y-85533491I-50800J0D01*
G01*
X124560930Y-85533491D01*
G75*
G02*
X124510130Y-85482691I0J50800D01*
G01*
X124510130Y-85182691D01*
G75*
G02*
X124560930Y-85131891I50800J0D01*
G01*
X126160930Y-85131891D01*
G75*
G02*
X126211730Y-85182691I0J-50800D01*
G01*
G37*
G36*
G01*
X126211730Y-85682691D02*
X126211730Y-85982691D01*
G75*
G02*
X126160930Y-86033491I-50800J0D01*
G01*
X124560930Y-86033491D01*
G75*
G02*
X124510130Y-85982691I0J50800D01*
G01*
X124510130Y-85682691D01*
G75*
G02*
X124560930Y-85631891I50800J0D01*
G01*
X126160930Y-85631891D01*
G75*
G02*
X126211730Y-85682691I0J-50800D01*
G01*
G37*
G36*
G01*
X126211730Y-86182691D02*
X126211730Y-86482691D01*
G75*
G02*
X126160930Y-86533491I-50800J0D01*
G01*
X124560930Y-86533491D01*
G75*
G02*
X124510130Y-86482691I0J50800D01*
G01*
X124510130Y-86182691D01*
G75*
G02*
X124560930Y-86131891I50800J0D01*
G01*
X126160930Y-86131891D01*
G75*
G02*
X126211730Y-86182691I0J-50800D01*
G01*
G37*
G36*
G01*
X126211730Y-86682691D02*
X126211730Y-86982691D01*
G75*
G02*
X126160930Y-87033491I-50800J0D01*
G01*
X124560930Y-87033491D01*
G75*
G02*
X124510130Y-86982691I0J50800D01*
G01*
X124510130Y-86682691D01*
G75*
G02*
X124560930Y-86631891I50800J0D01*
G01*
X126160930Y-86631891D01*
G75*
G02*
X126211730Y-86682691I0J-50800D01*
G01*
G37*
G36*
G01*
X126211730Y-87182691D02*
X126211730Y-87482691D01*
G75*
G02*
X126160930Y-87533491I-50800J0D01*
G01*
X124560930Y-87533491D01*
G75*
G02*
X124510130Y-87482691I0J50800D01*
G01*
X124510130Y-87182691D01*
G75*
G02*
X124560930Y-87131891I50800J0D01*
G01*
X126160930Y-87131891D01*
G75*
G02*
X126211730Y-87182691I0J-50800D01*
G01*
G37*
G36*
G01*
X126211730Y-87682691D02*
X126211730Y-87982691D01*
G75*
G02*
X126160930Y-88033491I-50800J0D01*
G01*
X124560930Y-88033491D01*
G75*
G02*
X124510130Y-87982691I0J50800D01*
G01*
X124510130Y-87682691D01*
G75*
G02*
X124560930Y-87631891I50800J0D01*
G01*
X126160930Y-87631891D01*
G75*
G02*
X126211730Y-87682691I0J-50800D01*
G01*
G37*
G36*
G01*
X126211730Y-88182691D02*
X126211730Y-88482691D01*
G75*
G02*
X126160930Y-88533491I-50800J0D01*
G01*
X124560930Y-88533491D01*
G75*
G02*
X124510130Y-88482691I0J50800D01*
G01*
X124510130Y-88182691D01*
G75*
G02*
X124560930Y-88131891I50800J0D01*
G01*
X126160930Y-88131891D01*
G75*
G02*
X126211730Y-88182691I0J-50800D01*
G01*
G37*
G36*
G01*
X126211730Y-88682691D02*
X126211730Y-88982691D01*
G75*
G02*
X126160930Y-89033491I-50800J0D01*
G01*
X124560930Y-89033491D01*
G75*
G02*
X124510130Y-88982691I0J50800D01*
G01*
X124510130Y-88682691D01*
G75*
G02*
X124560930Y-88631891I50800J0D01*
G01*
X126160930Y-88631891D01*
G75*
G02*
X126211730Y-88682691I0J-50800D01*
G01*
G37*
G36*
G01*
X126211730Y-89182691D02*
X126211730Y-89482691D01*
G75*
G02*
X126160930Y-89533491I-50800J0D01*
G01*
X124560930Y-89533491D01*
G75*
G02*
X124510130Y-89482691I0J50800D01*
G01*
X124510130Y-89182691D01*
G75*
G02*
X124560930Y-89131891I50800J0D01*
G01*
X126160930Y-89131891D01*
G75*
G02*
X126211730Y-89182691I0J-50800D01*
G01*
G37*
G36*
G01*
X126211730Y-89682691D02*
X126211730Y-89982691D01*
G75*
G02*
X126160930Y-90033491I-50800J0D01*
G01*
X124560930Y-90033491D01*
G75*
G02*
X124510130Y-89982691I0J50800D01*
G01*
X124510130Y-89682691D01*
G75*
G02*
X124560930Y-89631891I50800J0D01*
G01*
X126160930Y-89631891D01*
G75*
G02*
X126211730Y-89682691I0J-50800D01*
G01*
G37*
G36*
G01*
X126211730Y-90182691D02*
X126211730Y-90482691D01*
G75*
G02*
X126160930Y-90533491I-50800J0D01*
G01*
X124560930Y-90533491D01*
G75*
G02*
X124510130Y-90482691I0J50800D01*
G01*
X124510130Y-90182691D01*
G75*
G02*
X124560930Y-90131891I50800J0D01*
G01*
X126160930Y-90131891D01*
G75*
G02*
X126211730Y-90182691I0J-50800D01*
G01*
G37*
G36*
G01*
X126211730Y-90682691D02*
X126211730Y-90982691D01*
G75*
G02*
X126160930Y-91033491I-50800J0D01*
G01*
X124560930Y-91033491D01*
G75*
G02*
X124510130Y-90982691I0J50800D01*
G01*
X124510130Y-90682691D01*
G75*
G02*
X124560930Y-90631891I50800J0D01*
G01*
X126160930Y-90631891D01*
G75*
G02*
X126211730Y-90682691I0J-50800D01*
G01*
G37*
G36*
G01*
X126211730Y-91182691D02*
X126211730Y-91482691D01*
G75*
G02*
X126160930Y-91533491I-50800J0D01*
G01*
X124560930Y-91533491D01*
G75*
G02*
X124510130Y-91482691I0J50800D01*
G01*
X124510130Y-91182691D01*
G75*
G02*
X124560930Y-91131891I50800J0D01*
G01*
X126160930Y-91131891D01*
G75*
G02*
X126211730Y-91182691I0J-50800D01*
G01*
G37*
G36*
G01*
X126211730Y-91682691D02*
X126211730Y-91982691D01*
G75*
G02*
X126160930Y-92033491I-50800J0D01*
G01*
X124560930Y-92033491D01*
G75*
G02*
X124510130Y-91982691I0J50800D01*
G01*
X124510130Y-91682691D01*
G75*
G02*
X124560930Y-91631891I50800J0D01*
G01*
X126160930Y-91631891D01*
G75*
G02*
X126211730Y-91682691I0J-50800D01*
G01*
G37*
G36*
G01*
X126211730Y-92182691D02*
X126211730Y-92482691D01*
G75*
G02*
X126160930Y-92533491I-50800J0D01*
G01*
X124560930Y-92533491D01*
G75*
G02*
X124510130Y-92482691I0J50800D01*
G01*
X124510130Y-92182691D01*
G75*
G02*
X124560930Y-92131891I50800J0D01*
G01*
X126160930Y-92131891D01*
G75*
G02*
X126211730Y-92182691I0J-50800D01*
G01*
G37*
G36*
G01*
X126211730Y-92682691D02*
X126211730Y-92982691D01*
G75*
G02*
X126160930Y-93033491I-50800J0D01*
G01*
X124560930Y-93033491D01*
G75*
G02*
X124510130Y-92982691I0J50800D01*
G01*
X124510130Y-92682691D01*
G75*
G02*
X124560930Y-92631891I50800J0D01*
G01*
X126160930Y-92631891D01*
G75*
G02*
X126211730Y-92682691I0J-50800D01*
G01*
G37*
G36*
G01*
X126211730Y-93182691D02*
X126211730Y-93482691D01*
G75*
G02*
X126160930Y-93533491I-50800J0D01*
G01*
X124560930Y-93533491D01*
G75*
G02*
X124510130Y-93482691I0J50800D01*
G01*
X124510130Y-93182691D01*
G75*
G02*
X124560930Y-93131891I50800J0D01*
G01*
X126160930Y-93131891D01*
G75*
G02*
X126211730Y-93182691I0J-50800D01*
G01*
G37*
G36*
G01*
X126211730Y-93682691D02*
X126211730Y-93982691D01*
G75*
G02*
X126160930Y-94033491I-50800J0D01*
G01*
X124560930Y-94033491D01*
G75*
G02*
X124510130Y-93982691I0J50800D01*
G01*
X124510130Y-93682691D01*
G75*
G02*
X124560930Y-93631891I50800J0D01*
G01*
X126160930Y-93631891D01*
G75*
G02*
X126211730Y-93682691I0J-50800D01*
G01*
G37*
G36*
G01*
X126211730Y-94182691D02*
X126211730Y-94482691D01*
G75*
G02*
X126160930Y-94533491I-50800J0D01*
G01*
X124560930Y-94533491D01*
G75*
G02*
X124510130Y-94482691I0J50800D01*
G01*
X124510130Y-94182691D01*
G75*
G02*
X124560930Y-94131891I50800J0D01*
G01*
X126160930Y-94131891D01*
G75*
G02*
X126211730Y-94182691I0J-50800D01*
G01*
G37*
G36*
G01*
X126211730Y-94682691D02*
X126211730Y-94982691D01*
G75*
G02*
X126160930Y-95033491I-50800J0D01*
G01*
X124560930Y-95033491D01*
G75*
G02*
X124510130Y-94982691I0J50800D01*
G01*
X124510130Y-94682691D01*
G75*
G02*
X124560930Y-94631891I50800J0D01*
G01*
X126160930Y-94631891D01*
G75*
G02*
X126211730Y-94682691I0J-50800D01*
G01*
G37*
G36*
G01*
X126211730Y-95182691D02*
X126211730Y-95482691D01*
G75*
G02*
X126160930Y-95533491I-50800J0D01*
G01*
X124560930Y-95533491D01*
G75*
G02*
X124510130Y-95482691I0J50800D01*
G01*
X124510130Y-95182691D01*
G75*
G02*
X124560930Y-95131891I50800J0D01*
G01*
X126160930Y-95131891D01*
G75*
G02*
X126211730Y-95182691I0J-50800D01*
G01*
G37*
G36*
G01*
X126211730Y-95682691D02*
X126211730Y-95982691D01*
G75*
G02*
X126160930Y-96033491I-50800J0D01*
G01*
X124560930Y-96033491D01*
G75*
G02*
X124510130Y-95982691I0J50800D01*
G01*
X124510130Y-95682691D01*
G75*
G02*
X124560930Y-95631891I50800J0D01*
G01*
X126160930Y-95631891D01*
G75*
G02*
X126211730Y-95682691I0J-50800D01*
G01*
G37*
G36*
G01*
X126211730Y-96182691D02*
X126211730Y-96482691D01*
G75*
G02*
X126160930Y-96533491I-50800J0D01*
G01*
X124560930Y-96533491D01*
G75*
G02*
X124510130Y-96482691I0J50800D01*
G01*
X124510130Y-96182691D01*
G75*
G02*
X124560930Y-96131891I50800J0D01*
G01*
X126160930Y-96131891D01*
G75*
G02*
X126211730Y-96182691I0J-50800D01*
G01*
G37*
G36*
G01*
X126211730Y-96682691D02*
X126211730Y-96982691D01*
G75*
G02*
X126160930Y-97033491I-50800J0D01*
G01*
X124560930Y-97033491D01*
G75*
G02*
X124510130Y-96982691I0J50800D01*
G01*
X124510130Y-96682691D01*
G75*
G02*
X124560930Y-96631891I50800J0D01*
G01*
X126160930Y-96631891D01*
G75*
G02*
X126211730Y-96682691I0J-50800D01*
G01*
G37*
G36*
G01*
X126211730Y-97182691D02*
X126211730Y-97482691D01*
G75*
G02*
X126160930Y-97533491I-50800J0D01*
G01*
X124560930Y-97533491D01*
G75*
G02*
X124510130Y-97482691I0J50800D01*
G01*
X124510130Y-97182691D01*
G75*
G02*
X124560930Y-97131891I50800J0D01*
G01*
X126160930Y-97131891D01*
G75*
G02*
X126211730Y-97182691I0J-50800D01*
G01*
G37*
G36*
G01*
X126211730Y-97682691D02*
X126211730Y-97982691D01*
G75*
G02*
X126160930Y-98033491I-50800J0D01*
G01*
X124560930Y-98033491D01*
G75*
G02*
X124510130Y-97982691I0J50800D01*
G01*
X124510130Y-97682691D01*
G75*
G02*
X124560930Y-97631891I50800J0D01*
G01*
X126160930Y-97631891D01*
G75*
G02*
X126211730Y-97682691I0J-50800D01*
G01*
G37*
G36*
G01*
X126211730Y-98182691D02*
X126211730Y-98482691D01*
G75*
G02*
X126160930Y-98533491I-50800J0D01*
G01*
X124560930Y-98533491D01*
G75*
G02*
X124510130Y-98482691I0J50800D01*
G01*
X124510130Y-98182691D01*
G75*
G02*
X124560930Y-98131891I50800J0D01*
G01*
X126160930Y-98131891D01*
G75*
G02*
X126211730Y-98182691I0J-50800D01*
G01*
G37*
G36*
G01*
X126211730Y-98682691D02*
X126211730Y-98982691D01*
G75*
G02*
X126160930Y-99033491I-50800J0D01*
G01*
X124560930Y-99033491D01*
G75*
G02*
X124510130Y-98982691I0J50800D01*
G01*
X124510130Y-98682691D01*
G75*
G02*
X124560930Y-98631891I50800J0D01*
G01*
X126160930Y-98631891D01*
G75*
G02*
X126211730Y-98682691I0J-50800D01*
G01*
G37*
G36*
G01*
X126211730Y-99182691D02*
X126211730Y-99482691D01*
G75*
G02*
X126160930Y-99533491I-50800J0D01*
G01*
X124560930Y-99533491D01*
G75*
G02*
X124510130Y-99482691I0J50800D01*
G01*
X124510130Y-99182691D01*
G75*
G02*
X124560930Y-99131891I50800J0D01*
G01*
X126160930Y-99131891D01*
G75*
G02*
X126211730Y-99182691I0J-50800D01*
G01*
G37*
G36*
G01*
X126211730Y-99682691D02*
X126211730Y-99982691D01*
G75*
G02*
X126160930Y-100033491I-50800J0D01*
G01*
X124560930Y-100033491D01*
G75*
G02*
X124510130Y-99982691I0J50800D01*
G01*
X124510130Y-99682691D01*
G75*
G02*
X124560930Y-99631891I50800J0D01*
G01*
X126160930Y-99631891D01*
G75*
G02*
X126211730Y-99682691I0J-50800D01*
G01*
G37*
G36*
G01*
X126211730Y-100182691D02*
X126211730Y-100482691D01*
G75*
G02*
X126160930Y-100533491I-50800J0D01*
G01*
X124560930Y-100533491D01*
G75*
G02*
X124510130Y-100482691I0J50800D01*
G01*
X124510130Y-100182691D01*
G75*
G02*
X124560930Y-100131891I50800J0D01*
G01*
X126160930Y-100131891D01*
G75*
G02*
X126211730Y-100182691I0J-50800D01*
G01*
G37*
G36*
G01*
X126211730Y-100682691D02*
X126211730Y-100982691D01*
G75*
G02*
X126160930Y-101033491I-50800J0D01*
G01*
X124560930Y-101033491D01*
G75*
G02*
X124510130Y-100982691I0J50800D01*
G01*
X124510130Y-100682691D01*
G75*
G02*
X124560930Y-100631891I50800J0D01*
G01*
X126160930Y-100631891D01*
G75*
G02*
X126211730Y-100682691I0J-50800D01*
G01*
G37*
G36*
G01*
X126211730Y-101182691D02*
X126211730Y-101482691D01*
G75*
G02*
X126160930Y-101533491I-50800J0D01*
G01*
X124560930Y-101533491D01*
G75*
G02*
X124510130Y-101482691I0J50800D01*
G01*
X124510130Y-101182691D01*
G75*
G02*
X124560930Y-101131891I50800J0D01*
G01*
X126160930Y-101131891D01*
G75*
G02*
X126211730Y-101182691I0J-50800D01*
G01*
G37*
G36*
G01*
X126211730Y-101682691D02*
X126211730Y-101982691D01*
G75*
G02*
X126160930Y-102033491I-50800J0D01*
G01*
X124560930Y-102033491D01*
G75*
G02*
X124510130Y-101982691I0J50800D01*
G01*
X124510130Y-101682691D01*
G75*
G02*
X124560930Y-101631891I50800J0D01*
G01*
X126160930Y-101631891D01*
G75*
G02*
X126211730Y-101682691I0J-50800D01*
G01*
G37*
G36*
G01*
X126211730Y-102182691D02*
X126211730Y-102482691D01*
G75*
G02*
X126160930Y-102533491I-50800J0D01*
G01*
X124560930Y-102533491D01*
G75*
G02*
X124510130Y-102482691I0J50800D01*
G01*
X124510130Y-102182691D01*
G75*
G02*
X124560930Y-102131891I50800J0D01*
G01*
X126160930Y-102131891D01*
G75*
G02*
X126211730Y-102182691I0J-50800D01*
G01*
G37*
G36*
G01*
X174955000Y-104930000D02*
X174005000Y-104930000D01*
G75*
G02*
X173755000Y-104680000I0J250000D01*
G01*
X173755000Y-104180000D01*
G75*
G02*
X174005000Y-103930000I250000J0D01*
G01*
X174955000Y-103930000D01*
G75*
G02*
X175205000Y-104180000I0J-250000D01*
G01*
X175205000Y-104680000D01*
G75*
G02*
X174955000Y-104930000I-250000J0D01*
G01*
G37*
G36*
G01*
X174955000Y-106830000D02*
X174005000Y-106830000D01*
G75*
G02*
X173755000Y-106580000I0J250000D01*
G01*
X173755000Y-106080000D01*
G75*
G02*
X174005000Y-105830000I250000J0D01*
G01*
X174955000Y-105830000D01*
G75*
G02*
X175205000Y-106080000I0J-250000D01*
G01*
X175205000Y-106580000D01*
G75*
G02*
X174955000Y-106830000I-250000J0D01*
G01*
G37*
G36*
G01*
X176135000Y-105830000D02*
X177085000Y-105830000D01*
G75*
G02*
X177335000Y-106080000I0J-250000D01*
G01*
X177335000Y-106580000D01*
G75*
G02*
X177085000Y-106830000I-250000J0D01*
G01*
X176135000Y-106830000D01*
G75*
G02*
X175885000Y-106580000I0J250000D01*
G01*
X175885000Y-106080000D01*
G75*
G02*
X176135000Y-105830000I250000J0D01*
G01*
G37*
G36*
G01*
X176135000Y-103930000D02*
X177085000Y-103930000D01*
G75*
G02*
X177335000Y-104180000I0J-250000D01*
G01*
X177335000Y-104680000D01*
G75*
G02*
X177085000Y-104930000I-250000J0D01*
G01*
X176135000Y-104930000D01*
G75*
G02*
X175885000Y-104680000I0J250000D01*
G01*
X175885000Y-104180000D01*
G75*
G02*
X176135000Y-103930000I250000J0D01*
G01*
G37*
G36*
G01*
X174955000Y-85060000D02*
X174005000Y-85060000D01*
G75*
G02*
X173755000Y-84810000I0J250000D01*
G01*
X173755000Y-84310000D01*
G75*
G02*
X174005000Y-84060000I250000J0D01*
G01*
X174955000Y-84060000D01*
G75*
G02*
X175205000Y-84310000I0J-250000D01*
G01*
X175205000Y-84810000D01*
G75*
G02*
X174955000Y-85060000I-250000J0D01*
G01*
G37*
G36*
G01*
X174955000Y-86960000D02*
X174005000Y-86960000D01*
G75*
G02*
X173755000Y-86710000I0J250000D01*
G01*
X173755000Y-86210000D01*
G75*
G02*
X174005000Y-85960000I250000J0D01*
G01*
X174955000Y-85960000D01*
G75*
G02*
X175205000Y-86210000I0J-250000D01*
G01*
X175205000Y-86710000D01*
G75*
G02*
X174955000Y-86960000I-250000J0D01*
G01*
G37*
G36*
G01*
X177085000Y-85060000D02*
X176135000Y-85060000D01*
G75*
G02*
X175885000Y-84810000I0J250000D01*
G01*
X175885000Y-84310000D01*
G75*
G02*
X176135000Y-84060000I250000J0D01*
G01*
X177085000Y-84060000D01*
G75*
G02*
X177335000Y-84310000I0J-250000D01*
G01*
X177335000Y-84810000D01*
G75*
G02*
X177085000Y-85060000I-250000J0D01*
G01*
G37*
G36*
G01*
X177085000Y-86960000D02*
X176135000Y-86960000D01*
G75*
G02*
X175885000Y-86710000I0J250000D01*
G01*
X175885000Y-86210000D01*
G75*
G02*
X176135000Y-85960000I250000J0D01*
G01*
X177085000Y-85960000D01*
G75*
G02*
X177335000Y-86210000I0J-250000D01*
G01*
X177335000Y-86710000D01*
G75*
G02*
X177085000Y-86960000I-250000J0D01*
G01*
G37*
G36*
G01*
X147360000Y-82005000D02*
X147360000Y-82955000D01*
G75*
G02*
X147110000Y-83205000I-250000J0D01*
G01*
X146610000Y-83205000D01*
G75*
G02*
X146360000Y-82955000I0J250000D01*
G01*
X146360000Y-82005000D01*
G75*
G02*
X146610000Y-81755000I250000J0D01*
G01*
X147110000Y-81755000D01*
G75*
G02*
X147360000Y-82005000I0J-250000D01*
G01*
G37*
G36*
G01*
X149260000Y-82005000D02*
X149260000Y-82955000D01*
G75*
G02*
X149010000Y-83205000I-250000J0D01*
G01*
X148510000Y-83205000D01*
G75*
G02*
X148260000Y-82955000I0J250000D01*
G01*
X148260000Y-82005000D01*
G75*
G02*
X148510000Y-81755000I250000J0D01*
G01*
X149010000Y-81755000D01*
G75*
G02*
X149260000Y-82005000I0J-250000D01*
G01*
G37*
G36*
G01*
X148160000Y-105155000D02*
X148160000Y-104205000D01*
G75*
G02*
X148410000Y-103955000I250000J0D01*
G01*
X148910000Y-103955000D01*
G75*
G02*
X149160000Y-104205000I0J-250000D01*
G01*
X149160000Y-105155000D01*
G75*
G02*
X148910000Y-105405000I-250000J0D01*
G01*
X148410000Y-105405000D01*
G75*
G02*
X148160000Y-105155000I0J250000D01*
G01*
G37*
G36*
G01*
X146260000Y-105155000D02*
X146260000Y-104205000D01*
G75*
G02*
X146510000Y-103955000I250000J0D01*
G01*
X147010000Y-103955000D01*
G75*
G02*
X147260000Y-104205000I0J-250000D01*
G01*
X147260000Y-105155000D01*
G75*
G02*
X147010000Y-105405000I-250000J0D01*
G01*
X146510000Y-105405000D01*
G75*
G02*
X146260000Y-105155000I0J250000D01*
G01*
G37*
G36*
G01*
X125580000Y-82955000D02*
X125580000Y-82005000D01*
G75*
G02*
X125830000Y-81755000I250000J0D01*
G01*
X126330000Y-81755000D01*
G75*
G02*
X126580000Y-82005000I0J-250000D01*
G01*
X126580000Y-82955000D01*
G75*
G02*
X126330000Y-83205000I-250000J0D01*
G01*
X125830000Y-83205000D01*
G75*
G02*
X125580000Y-82955000I0J250000D01*
G01*
G37*
G36*
G01*
X123680000Y-82955000D02*
X123680000Y-82005000D01*
G75*
G02*
X123930000Y-81755000I250000J0D01*
G01*
X124430000Y-81755000D01*
G75*
G02*
X124680000Y-82005000I0J-250000D01*
G01*
X124680000Y-82955000D01*
G75*
G02*
X124430000Y-83205000I-250000J0D01*
G01*
X123930000Y-83205000D01*
G75*
G02*
X123680000Y-82955000I0J250000D01*
G01*
G37*
G36*
G01*
X124730000Y-104285000D02*
X124730000Y-105235000D01*
G75*
G02*
X124480000Y-105485000I-250000J0D01*
G01*
X123980000Y-105485000D01*
G75*
G02*
X123730000Y-105235000I0J250000D01*
G01*
X123730000Y-104285000D01*
G75*
G02*
X123980000Y-104035000I250000J0D01*
G01*
X124480000Y-104035000D01*
G75*
G02*
X124730000Y-104285000I0J-250000D01*
G01*
G37*
G36*
G01*
X126630000Y-104285000D02*
X126630000Y-105235000D01*
G75*
G02*
X126380000Y-105485000I-250000J0D01*
G01*
X125880000Y-105485000D01*
G75*
G02*
X125630000Y-105235000I0J250000D01*
G01*
X125630000Y-104285000D01*
G75*
G02*
X125880000Y-104035000I250000J0D01*
G01*
X126380000Y-104035000D01*
G75*
G02*
X126630000Y-104285000I0J-250000D01*
G01*
G37*
G36*
G01*
X106617180Y-93794566D02*
X107567180Y-93794566D01*
G75*
G02*
X107817180Y-94044566I0J-250000D01*
G01*
X107817180Y-94544566D01*
G75*
G02*
X107567180Y-94794566I-250000J0D01*
G01*
X106617180Y-94794566D01*
G75*
G02*
X106367180Y-94544566I0J250000D01*
G01*
X106367180Y-94044566D01*
G75*
G02*
X106617180Y-93794566I250000J0D01*
G01*
G37*
G36*
G01*
X106617180Y-91894566D02*
X107567180Y-91894566D01*
G75*
G02*
X107817180Y-92144566I0J-250000D01*
G01*
X107817180Y-92644566D01*
G75*
G02*
X107567180Y-92894566I-250000J0D01*
G01*
X106617180Y-92894566D01*
G75*
G02*
X106367180Y-92644566I0J250000D01*
G01*
X106367180Y-92144566D01*
G75*
G02*
X106617180Y-91894566I250000J0D01*
G01*
G37*
D16*
X179160000Y-104520000D03*
X183760000Y-104520000D03*
X181460000Y-104520000D03*
D17*
X181460000Y-98220000D03*
D16*
X179180000Y-91710000D03*
X183780000Y-91710000D03*
X181480000Y-91710000D03*
D17*
X181480000Y-85410000D03*
D18*
X161640000Y-67250000D03*
X154020000Y-74870000D03*
X161640000Y-69790000D03*
X154020000Y-72330000D03*
X161640000Y-72330000D03*
X154020000Y-69790000D03*
X161640000Y-74870000D03*
D19*
X154020000Y-67250000D03*
G36*
G01*
X175059998Y-97890000D02*
X175960002Y-97890000D01*
G75*
G02*
X176210000Y-98139998I0J-249998D01*
G01*
X176210000Y-98665002D01*
G75*
G02*
X175960002Y-98915000I-249998J0D01*
G01*
X175059998Y-98915000D01*
G75*
G02*
X174810000Y-98665002I0J249998D01*
G01*
X174810000Y-98139998D01*
G75*
G02*
X175059998Y-97890000I249998J0D01*
G01*
G37*
G36*
G01*
X175059998Y-96065000D02*
X175960002Y-96065000D01*
G75*
G02*
X176210000Y-96314998I0J-249998D01*
G01*
X176210000Y-96840002D01*
G75*
G02*
X175960002Y-97090000I-249998J0D01*
G01*
X175059998Y-97090000D01*
G75*
G02*
X174810000Y-96840002I0J249998D01*
G01*
X174810000Y-96314998D01*
G75*
G02*
X175059998Y-96065000I249998J0D01*
G01*
G37*
G36*
G01*
X175960002Y-93130000D02*
X175059998Y-93130000D01*
G75*
G02*
X174810000Y-92880002I0J249998D01*
G01*
X174810000Y-92354998D01*
G75*
G02*
X175059998Y-92105000I249998J0D01*
G01*
X175960002Y-92105000D01*
G75*
G02*
X176210000Y-92354998I0J-249998D01*
G01*
X176210000Y-92880002D01*
G75*
G02*
X175960002Y-93130000I-249998J0D01*
G01*
G37*
G36*
G01*
X175960002Y-94955000D02*
X175059998Y-94955000D01*
G75*
G02*
X174810000Y-94705002I0J249998D01*
G01*
X174810000Y-94179998D01*
G75*
G02*
X175059998Y-93930000I249998J0D01*
G01*
X175960002Y-93930000D01*
G75*
G02*
X176210000Y-94179998I0J-249998D01*
G01*
X176210000Y-94705002D01*
G75*
G02*
X175960002Y-94955000I-249998J0D01*
G01*
G37*
G36*
G01*
X167005000Y-67710000D02*
X166055000Y-67710000D01*
G75*
G02*
X165805000Y-67460000I0J250000D01*
G01*
X165805000Y-66960000D01*
G75*
G02*
X166055000Y-66710000I250000J0D01*
G01*
X167005000Y-66710000D01*
G75*
G02*
X167255000Y-66960000I0J-250000D01*
G01*
X167255000Y-67460000D01*
G75*
G02*
X167005000Y-67710000I-250000J0D01*
G01*
G37*
G36*
G01*
X167005000Y-69610000D02*
X166055000Y-69610000D01*
G75*
G02*
X165805000Y-69360000I0J250000D01*
G01*
X165805000Y-68860000D01*
G75*
G02*
X166055000Y-68610000I250000J0D01*
G01*
X167005000Y-68610000D01*
G75*
G02*
X167255000Y-68860000I0J-250000D01*
G01*
X167255000Y-69360000D01*
G75*
G02*
X167005000Y-69610000I-250000J0D01*
G01*
G37*
G36*
G01*
X108420930Y-102010016D02*
X109720930Y-102010016D01*
G75*
G02*
X109771730Y-102060816I0J-50800D01*
G01*
X109771730Y-102380816D01*
G75*
G02*
X109720930Y-102431616I-50800J0D01*
G01*
X108420930Y-102431616D01*
G75*
G02*
X108370130Y-102380816I0J50800D01*
G01*
X108370130Y-102060816D01*
G75*
G02*
X108420930Y-102010016I50800J0D01*
G01*
G37*
G36*
G01*
X108420930Y-101210016D02*
X109720930Y-101210016D01*
G75*
G02*
X109771730Y-101260816I0J-50800D01*
G01*
X109771730Y-101580816D01*
G75*
G02*
X109720930Y-101631616I-50800J0D01*
G01*
X108420930Y-101631616D01*
G75*
G02*
X108370130Y-101580816I0J50800D01*
G01*
X108370130Y-101260816D01*
G75*
G02*
X108420930Y-101210016I50800J0D01*
G01*
G37*
G36*
G01*
X108420930Y-100410016D02*
X109720930Y-100410016D01*
G75*
G02*
X109771730Y-100460816I0J-50800D01*
G01*
X109771730Y-100780816D01*
G75*
G02*
X109720930Y-100831616I-50800J0D01*
G01*
X108420930Y-100831616D01*
G75*
G02*
X108370130Y-100780816I0J50800D01*
G01*
X108370130Y-100460816D01*
G75*
G02*
X108420930Y-100410016I50800J0D01*
G01*
G37*
G36*
G01*
X108420930Y-99610016D02*
X109720930Y-99610016D01*
G75*
G02*
X109771730Y-99660816I0J-50800D01*
G01*
X109771730Y-99980816D01*
G75*
G02*
X109720930Y-100031616I-50800J0D01*
G01*
X108420930Y-100031616D01*
G75*
G02*
X108370130Y-99980816I0J50800D01*
G01*
X108370130Y-99660816D01*
G75*
G02*
X108420930Y-99610016I50800J0D01*
G01*
G37*
G36*
G01*
X108420930Y-98810016D02*
X109720930Y-98810016D01*
G75*
G02*
X109771730Y-98860816I0J-50800D01*
G01*
X109771730Y-99180816D01*
G75*
G02*
X109720930Y-99231616I-50800J0D01*
G01*
X108420930Y-99231616D01*
G75*
G02*
X108370130Y-99180816I0J50800D01*
G01*
X108370130Y-98860816D01*
G75*
G02*
X108420930Y-98810016I50800J0D01*
G01*
G37*
G36*
G01*
X108420930Y-98010016D02*
X109720930Y-98010016D01*
G75*
G02*
X109771730Y-98060816I0J-50800D01*
G01*
X109771730Y-98380816D01*
G75*
G02*
X109720930Y-98431616I-50800J0D01*
G01*
X108420930Y-98431616D01*
G75*
G02*
X108370130Y-98380816I0J50800D01*
G01*
X108370130Y-98060816D01*
G75*
G02*
X108420930Y-98010016I50800J0D01*
G01*
G37*
G36*
G01*
X108420930Y-97210016D02*
X109720930Y-97210016D01*
G75*
G02*
X109771730Y-97260816I0J-50800D01*
G01*
X109771730Y-97580816D01*
G75*
G02*
X109720930Y-97631616I-50800J0D01*
G01*
X108420930Y-97631616D01*
G75*
G02*
X108370130Y-97580816I0J50800D01*
G01*
X108370130Y-97260816D01*
G75*
G02*
X108420930Y-97210016I50800J0D01*
G01*
G37*
G36*
G01*
X108420930Y-96410016D02*
X109720930Y-96410016D01*
G75*
G02*
X109771730Y-96460816I0J-50800D01*
G01*
X109771730Y-96780816D01*
G75*
G02*
X109720930Y-96831616I-50800J0D01*
G01*
X108420930Y-96831616D01*
G75*
G02*
X108370130Y-96780816I0J50800D01*
G01*
X108370130Y-96460816D01*
G75*
G02*
X108420930Y-96410016I50800J0D01*
G01*
G37*
G36*
G01*
X108420930Y-95610016D02*
X109720930Y-95610016D01*
G75*
G02*
X109771730Y-95660816I0J-50800D01*
G01*
X109771730Y-95980816D01*
G75*
G02*
X109720930Y-96031616I-50800J0D01*
G01*
X108420930Y-96031616D01*
G75*
G02*
X108370130Y-95980816I0J50800D01*
G01*
X108370130Y-95660816D01*
G75*
G02*
X108420930Y-95610016I50800J0D01*
G01*
G37*
G36*
G01*
X108420930Y-94810016D02*
X109720930Y-94810016D01*
G75*
G02*
X109771730Y-94860816I0J-50800D01*
G01*
X109771730Y-95180816D01*
G75*
G02*
X109720930Y-95231616I-50800J0D01*
G01*
X108420930Y-95231616D01*
G75*
G02*
X108370130Y-95180816I0J50800D01*
G01*
X108370130Y-94860816D01*
G75*
G02*
X108420930Y-94810016I50800J0D01*
G01*
G37*
G36*
G01*
X108420930Y-94010016D02*
X109720930Y-94010016D01*
G75*
G02*
X109771730Y-94060816I0J-50800D01*
G01*
X109771730Y-94380816D01*
G75*
G02*
X109720930Y-94431616I-50800J0D01*
G01*
X108420930Y-94431616D01*
G75*
G02*
X108370130Y-94380816I0J50800D01*
G01*
X108370130Y-94060816D01*
G75*
G02*
X108420930Y-94010016I50800J0D01*
G01*
G37*
G36*
G01*
X108420930Y-93210016D02*
X109720930Y-93210016D01*
G75*
G02*
X109771730Y-93260816I0J-50800D01*
G01*
X109771730Y-93580816D01*
G75*
G02*
X109720930Y-93631616I-50800J0D01*
G01*
X108420930Y-93631616D01*
G75*
G02*
X108370130Y-93580816I0J50800D01*
G01*
X108370130Y-93260816D01*
G75*
G02*
X108420930Y-93210016I50800J0D01*
G01*
G37*
G36*
G01*
X108420930Y-92410016D02*
X109720930Y-92410016D01*
G75*
G02*
X109771730Y-92460816I0J-50800D01*
G01*
X109771730Y-92780816D01*
G75*
G02*
X109720930Y-92831616I-50800J0D01*
G01*
X108420930Y-92831616D01*
G75*
G02*
X108370130Y-92780816I0J50800D01*
G01*
X108370130Y-92460816D01*
G75*
G02*
X108420930Y-92410016I50800J0D01*
G01*
G37*
G36*
G01*
X108420930Y-91610016D02*
X109720930Y-91610016D01*
G75*
G02*
X109771730Y-91660816I0J-50800D01*
G01*
X109771730Y-91980816D01*
G75*
G02*
X109720930Y-92031616I-50800J0D01*
G01*
X108420930Y-92031616D01*
G75*
G02*
X108370130Y-91980816I0J50800D01*
G01*
X108370130Y-91660816D01*
G75*
G02*
X108420930Y-91610016I50800J0D01*
G01*
G37*
G36*
G01*
X108420930Y-90810016D02*
X109720930Y-90810016D01*
G75*
G02*
X109771730Y-90860816I0J-50800D01*
G01*
X109771730Y-91180816D01*
G75*
G02*
X109720930Y-91231616I-50800J0D01*
G01*
X108420930Y-91231616D01*
G75*
G02*
X108370130Y-91180816I0J50800D01*
G01*
X108370130Y-90860816D01*
G75*
G02*
X108420930Y-90810016I50800J0D01*
G01*
G37*
G36*
G01*
X108420930Y-90010016D02*
X109720930Y-90010016D01*
G75*
G02*
X109771730Y-90060816I0J-50800D01*
G01*
X109771730Y-90380816D01*
G75*
G02*
X109720930Y-90431616I-50800J0D01*
G01*
X108420930Y-90431616D01*
G75*
G02*
X108370130Y-90380816I0J50800D01*
G01*
X108370130Y-90060816D01*
G75*
G02*
X108420930Y-90010016I50800J0D01*
G01*
G37*
G36*
G01*
X108420930Y-89210016D02*
X109720930Y-89210016D01*
G75*
G02*
X109771730Y-89260816I0J-50800D01*
G01*
X109771730Y-89580816D01*
G75*
G02*
X109720930Y-89631616I-50800J0D01*
G01*
X108420930Y-89631616D01*
G75*
G02*
X108370130Y-89580816I0J50800D01*
G01*
X108370130Y-89260816D01*
G75*
G02*
X108420930Y-89210016I50800J0D01*
G01*
G37*
G36*
G01*
X108420930Y-88410016D02*
X109720930Y-88410016D01*
G75*
G02*
X109771730Y-88460816I0J-50800D01*
G01*
X109771730Y-88780816D01*
G75*
G02*
X109720930Y-88831616I-50800J0D01*
G01*
X108420930Y-88831616D01*
G75*
G02*
X108370130Y-88780816I0J50800D01*
G01*
X108370130Y-88460816D01*
G75*
G02*
X108420930Y-88410016I50800J0D01*
G01*
G37*
G36*
G01*
X108420930Y-87610016D02*
X109720930Y-87610016D01*
G75*
G02*
X109771730Y-87660816I0J-50800D01*
G01*
X109771730Y-87980816D01*
G75*
G02*
X109720930Y-88031616I-50800J0D01*
G01*
X108420930Y-88031616D01*
G75*
G02*
X108370130Y-87980816I0J50800D01*
G01*
X108370130Y-87660816D01*
G75*
G02*
X108420930Y-87610016I50800J0D01*
G01*
G37*
G36*
G01*
X108420930Y-86810016D02*
X109720930Y-86810016D01*
G75*
G02*
X109771730Y-86860816I0J-50800D01*
G01*
X109771730Y-87180816D01*
G75*
G02*
X109720930Y-87231616I-50800J0D01*
G01*
X108420930Y-87231616D01*
G75*
G02*
X108370130Y-87180816I0J50800D01*
G01*
X108370130Y-86860816D01*
G75*
G02*
X108420930Y-86810016I50800J0D01*
G01*
G37*
G36*
G01*
X108420930Y-86010016D02*
X109720930Y-86010016D01*
G75*
G02*
X109771730Y-86060816I0J-50800D01*
G01*
X109771730Y-86380816D01*
G75*
G02*
X109720930Y-86431616I-50800J0D01*
G01*
X108420930Y-86431616D01*
G75*
G02*
X108370130Y-86380816I0J50800D01*
G01*
X108370130Y-86060816D01*
G75*
G02*
X108420930Y-86010016I50800J0D01*
G01*
G37*
G36*
G01*
X108420930Y-85210016D02*
X109720930Y-85210016D01*
G75*
G02*
X109771730Y-85260816I0J-50800D01*
G01*
X109771730Y-85580816D01*
G75*
G02*
X109720930Y-85631616I-50800J0D01*
G01*
X108420930Y-85631616D01*
G75*
G02*
X108370130Y-85580816I0J50800D01*
G01*
X108370130Y-85260816D01*
G75*
G02*
X108420930Y-85210016I50800J0D01*
G01*
G37*
G36*
G01*
X121320930Y-85631616D02*
X120020930Y-85631616D01*
G75*
G02*
X119970130Y-85580816I0J50800D01*
G01*
X119970130Y-85260816D01*
G75*
G02*
X120020930Y-85210016I50800J0D01*
G01*
X121320930Y-85210016D01*
G75*
G02*
X121371730Y-85260816I0J-50800D01*
G01*
X121371730Y-85580816D01*
G75*
G02*
X121320930Y-85631616I-50800J0D01*
G01*
G37*
G36*
G01*
X121320930Y-86431616D02*
X120020930Y-86431616D01*
G75*
G02*
X119970130Y-86380816I0J50800D01*
G01*
X119970130Y-86060816D01*
G75*
G02*
X120020930Y-86010016I50800J0D01*
G01*
X121320930Y-86010016D01*
G75*
G02*
X121371730Y-86060816I0J-50800D01*
G01*
X121371730Y-86380816D01*
G75*
G02*
X121320930Y-86431616I-50800J0D01*
G01*
G37*
G36*
G01*
X121320930Y-87231616D02*
X120020930Y-87231616D01*
G75*
G02*
X119970130Y-87180816I0J50800D01*
G01*
X119970130Y-86860816D01*
G75*
G02*
X120020930Y-86810016I50800J0D01*
G01*
X121320930Y-86810016D01*
G75*
G02*
X121371730Y-86860816I0J-50800D01*
G01*
X121371730Y-87180816D01*
G75*
G02*
X121320930Y-87231616I-50800J0D01*
G01*
G37*
G36*
G01*
X121320930Y-88031616D02*
X120020930Y-88031616D01*
G75*
G02*
X119970130Y-87980816I0J50800D01*
G01*
X119970130Y-87660816D01*
G75*
G02*
X120020930Y-87610016I50800J0D01*
G01*
X121320930Y-87610016D01*
G75*
G02*
X121371730Y-87660816I0J-50800D01*
G01*
X121371730Y-87980816D01*
G75*
G02*
X121320930Y-88031616I-50800J0D01*
G01*
G37*
G36*
G01*
X121320930Y-88831616D02*
X120020930Y-88831616D01*
G75*
G02*
X119970130Y-88780816I0J50800D01*
G01*
X119970130Y-88460816D01*
G75*
G02*
X120020930Y-88410016I50800J0D01*
G01*
X121320930Y-88410016D01*
G75*
G02*
X121371730Y-88460816I0J-50800D01*
G01*
X121371730Y-88780816D01*
G75*
G02*
X121320930Y-88831616I-50800J0D01*
G01*
G37*
G36*
G01*
X121320930Y-89631616D02*
X120020930Y-89631616D01*
G75*
G02*
X119970130Y-89580816I0J50800D01*
G01*
X119970130Y-89260816D01*
G75*
G02*
X120020930Y-89210016I50800J0D01*
G01*
X121320930Y-89210016D01*
G75*
G02*
X121371730Y-89260816I0J-50800D01*
G01*
X121371730Y-89580816D01*
G75*
G02*
X121320930Y-89631616I-50800J0D01*
G01*
G37*
G36*
G01*
X121320930Y-90431616D02*
X120020930Y-90431616D01*
G75*
G02*
X119970130Y-90380816I0J50800D01*
G01*
X119970130Y-90060816D01*
G75*
G02*
X120020930Y-90010016I50800J0D01*
G01*
X121320930Y-90010016D01*
G75*
G02*
X121371730Y-90060816I0J-50800D01*
G01*
X121371730Y-90380816D01*
G75*
G02*
X121320930Y-90431616I-50800J0D01*
G01*
G37*
G36*
G01*
X121320930Y-91231616D02*
X120020930Y-91231616D01*
G75*
G02*
X119970130Y-91180816I0J50800D01*
G01*
X119970130Y-90860816D01*
G75*
G02*
X120020930Y-90810016I50800J0D01*
G01*
X121320930Y-90810016D01*
G75*
G02*
X121371730Y-90860816I0J-50800D01*
G01*
X121371730Y-91180816D01*
G75*
G02*
X121320930Y-91231616I-50800J0D01*
G01*
G37*
G36*
G01*
X121320930Y-92031616D02*
X120020930Y-92031616D01*
G75*
G02*
X119970130Y-91980816I0J50800D01*
G01*
X119970130Y-91660816D01*
G75*
G02*
X120020930Y-91610016I50800J0D01*
G01*
X121320930Y-91610016D01*
G75*
G02*
X121371730Y-91660816I0J-50800D01*
G01*
X121371730Y-91980816D01*
G75*
G02*
X121320930Y-92031616I-50800J0D01*
G01*
G37*
G36*
G01*
X121320930Y-92831616D02*
X120020930Y-92831616D01*
G75*
G02*
X119970130Y-92780816I0J50800D01*
G01*
X119970130Y-92460816D01*
G75*
G02*
X120020930Y-92410016I50800J0D01*
G01*
X121320930Y-92410016D01*
G75*
G02*
X121371730Y-92460816I0J-50800D01*
G01*
X121371730Y-92780816D01*
G75*
G02*
X121320930Y-92831616I-50800J0D01*
G01*
G37*
G36*
G01*
X121320930Y-93631616D02*
X120020930Y-93631616D01*
G75*
G02*
X119970130Y-93580816I0J50800D01*
G01*
X119970130Y-93260816D01*
G75*
G02*
X120020930Y-93210016I50800J0D01*
G01*
X121320930Y-93210016D01*
G75*
G02*
X121371730Y-93260816I0J-50800D01*
G01*
X121371730Y-93580816D01*
G75*
G02*
X121320930Y-93631616I-50800J0D01*
G01*
G37*
G36*
G01*
X121320930Y-94431616D02*
X120020930Y-94431616D01*
G75*
G02*
X119970130Y-94380816I0J50800D01*
G01*
X119970130Y-94060816D01*
G75*
G02*
X120020930Y-94010016I50800J0D01*
G01*
X121320930Y-94010016D01*
G75*
G02*
X121371730Y-94060816I0J-50800D01*
G01*
X121371730Y-94380816D01*
G75*
G02*
X121320930Y-94431616I-50800J0D01*
G01*
G37*
G36*
G01*
X121320930Y-95231616D02*
X120020930Y-95231616D01*
G75*
G02*
X119970130Y-95180816I0J50800D01*
G01*
X119970130Y-94860816D01*
G75*
G02*
X120020930Y-94810016I50800J0D01*
G01*
X121320930Y-94810016D01*
G75*
G02*
X121371730Y-94860816I0J-50800D01*
G01*
X121371730Y-95180816D01*
G75*
G02*
X121320930Y-95231616I-50800J0D01*
G01*
G37*
G36*
G01*
X121320930Y-96031616D02*
X120020930Y-96031616D01*
G75*
G02*
X119970130Y-95980816I0J50800D01*
G01*
X119970130Y-95660816D01*
G75*
G02*
X120020930Y-95610016I50800J0D01*
G01*
X121320930Y-95610016D01*
G75*
G02*
X121371730Y-95660816I0J-50800D01*
G01*
X121371730Y-95980816D01*
G75*
G02*
X121320930Y-96031616I-50800J0D01*
G01*
G37*
G36*
G01*
X121320930Y-96831616D02*
X120020930Y-96831616D01*
G75*
G02*
X119970130Y-96780816I0J50800D01*
G01*
X119970130Y-96460816D01*
G75*
G02*
X120020930Y-96410016I50800J0D01*
G01*
X121320930Y-96410016D01*
G75*
G02*
X121371730Y-96460816I0J-50800D01*
G01*
X121371730Y-96780816D01*
G75*
G02*
X121320930Y-96831616I-50800J0D01*
G01*
G37*
G36*
G01*
X121320930Y-97631616D02*
X120020930Y-97631616D01*
G75*
G02*
X119970130Y-97580816I0J50800D01*
G01*
X119970130Y-97260816D01*
G75*
G02*
X120020930Y-97210016I50800J0D01*
G01*
X121320930Y-97210016D01*
G75*
G02*
X121371730Y-97260816I0J-50800D01*
G01*
X121371730Y-97580816D01*
G75*
G02*
X121320930Y-97631616I-50800J0D01*
G01*
G37*
G36*
G01*
X121320930Y-98431616D02*
X120020930Y-98431616D01*
G75*
G02*
X119970130Y-98380816I0J50800D01*
G01*
X119970130Y-98060816D01*
G75*
G02*
X120020930Y-98010016I50800J0D01*
G01*
X121320930Y-98010016D01*
G75*
G02*
X121371730Y-98060816I0J-50800D01*
G01*
X121371730Y-98380816D01*
G75*
G02*
X121320930Y-98431616I-50800J0D01*
G01*
G37*
G36*
G01*
X121320930Y-99231616D02*
X120020930Y-99231616D01*
G75*
G02*
X119970130Y-99180816I0J50800D01*
G01*
X119970130Y-98860816D01*
G75*
G02*
X120020930Y-98810016I50800J0D01*
G01*
X121320930Y-98810016D01*
G75*
G02*
X121371730Y-98860816I0J-50800D01*
G01*
X121371730Y-99180816D01*
G75*
G02*
X121320930Y-99231616I-50800J0D01*
G01*
G37*
G36*
G01*
X121320930Y-100031616D02*
X120020930Y-100031616D01*
G75*
G02*
X119970130Y-99980816I0J50800D01*
G01*
X119970130Y-99660816D01*
G75*
G02*
X120020930Y-99610016I50800J0D01*
G01*
X121320930Y-99610016D01*
G75*
G02*
X121371730Y-99660816I0J-50800D01*
G01*
X121371730Y-99980816D01*
G75*
G02*
X121320930Y-100031616I-50800J0D01*
G01*
G37*
G36*
G01*
X121320930Y-100831616D02*
X120020930Y-100831616D01*
G75*
G02*
X119970130Y-100780816I0J50800D01*
G01*
X119970130Y-100460816D01*
G75*
G02*
X120020930Y-100410016I50800J0D01*
G01*
X121320930Y-100410016D01*
G75*
G02*
X121371730Y-100460816I0J-50800D01*
G01*
X121371730Y-100780816D01*
G75*
G02*
X121320930Y-100831616I-50800J0D01*
G01*
G37*
G36*
G01*
X121320930Y-101631616D02*
X120020930Y-101631616D01*
G75*
G02*
X119970130Y-101580816I0J50800D01*
G01*
X119970130Y-101260816D01*
G75*
G02*
X120020930Y-101210016I50800J0D01*
G01*
X121320930Y-101210016D01*
G75*
G02*
X121371730Y-101260816I0J-50800D01*
G01*
X121371730Y-101580816D01*
G75*
G02*
X121320930Y-101631616I-50800J0D01*
G01*
G37*
G36*
G01*
X121320930Y-102431616D02*
X120020930Y-102431616D01*
G75*
G02*
X119970130Y-102380816I0J50800D01*
G01*
X119970130Y-102060816D01*
G75*
G02*
X120020930Y-102010016I50800J0D01*
G01*
X121320930Y-102010016D01*
G75*
G02*
X121371730Y-102060816I0J-50800D01*
G01*
X121371730Y-102380816D01*
G75*
G02*
X121320930Y-102431616I-50800J0D01*
G01*
G37*
M02*
