G04 #@! TF.GenerationSoftware,KiCad,Pcbnew,(5.1.9)-1*
G04 #@! TF.CreationDate,2021-06-19T06:27:32+02:00*
G04 #@! TF.ProjectId,ZXUnCore,5a58556e-436f-4726-952e-6b696361645f,rev?*
G04 #@! TF.SameCoordinates,Original*
G04 #@! TF.FileFunction,Legend,Bot*
G04 #@! TF.FilePolarity,Positive*
%FSLAX46Y46*%
G04 Gerber Fmt 4.6, Leading zero omitted, Abs format (unit mm)*
G04 Created by KiCad (PCBNEW (5.1.9)-1) date 2021-06-19 06:27:32*
%MOMM*%
%LPD*%
G01*
G04 APERTURE LIST*
%ADD10C,0.200000*%
G04 APERTURE END LIST*
D10*
X182794285Y-92152142D02*
X182280000Y-92152142D01*
X182537142Y-93052142D02*
X182537142Y-92152142D01*
X181980000Y-93052142D02*
X181980000Y-92152142D01*
X181594285Y-93052142D02*
X181594285Y-92580714D01*
X181637142Y-92495000D01*
X181722857Y-92452142D01*
X181851428Y-92452142D01*
X181937142Y-92495000D01*
X181980000Y-92537857D01*
X180780000Y-93052142D02*
X180780000Y-92580714D01*
X180822857Y-92495000D01*
X180908571Y-92452142D01*
X181080000Y-92452142D01*
X181165714Y-92495000D01*
X180780000Y-93009285D02*
X180865714Y-93052142D01*
X181080000Y-93052142D01*
X181165714Y-93009285D01*
X181208571Y-92923571D01*
X181208571Y-92837857D01*
X181165714Y-92752142D01*
X181080000Y-92709285D01*
X180865714Y-92709285D01*
X180780000Y-92666428D01*
X180351428Y-92452142D02*
X180351428Y-93052142D01*
X180351428Y-92537857D02*
X180308571Y-92495000D01*
X180222857Y-92452142D01*
X180094285Y-92452142D01*
X180008571Y-92495000D01*
X179965714Y-92580714D01*
X179965714Y-93052142D01*
X179537142Y-93052142D02*
X179537142Y-92152142D01*
X179451428Y-92709285D02*
X179194285Y-93052142D01*
X179194285Y-92452142D02*
X179537142Y-92795000D01*
X178851428Y-93009285D02*
X178765714Y-93052142D01*
X178594285Y-93052142D01*
X178508571Y-93009285D01*
X178465714Y-92923571D01*
X178465714Y-92880714D01*
X178508571Y-92795000D01*
X178594285Y-92752142D01*
X178722857Y-92752142D01*
X178808571Y-92709285D01*
X178851428Y-92623571D01*
X178851428Y-92580714D01*
X178808571Y-92495000D01*
X178722857Y-92452142D01*
X178594285Y-92452142D01*
X178508571Y-92495000D01*
X177522857Y-92452142D02*
X177180000Y-92452142D01*
X177394285Y-93052142D02*
X177394285Y-92280714D01*
X177351428Y-92195000D01*
X177265714Y-92152142D01*
X177180000Y-92152142D01*
X176751428Y-93052142D02*
X176837142Y-93009285D01*
X176880000Y-92966428D01*
X176922857Y-92880714D01*
X176922857Y-92623571D01*
X176880000Y-92537857D01*
X176837142Y-92495000D01*
X176751428Y-92452142D01*
X176622857Y-92452142D01*
X176537142Y-92495000D01*
X176494285Y-92537857D01*
X176451428Y-92623571D01*
X176451428Y-92880714D01*
X176494285Y-92966428D01*
X176537142Y-93009285D01*
X176622857Y-93052142D01*
X176751428Y-93052142D01*
X176065714Y-93052142D02*
X176065714Y-92452142D01*
X176065714Y-92623571D02*
X176022857Y-92537857D01*
X175980000Y-92495000D01*
X175894285Y-92452142D01*
X175808571Y-92452142D01*
X174951428Y-92452142D02*
X174608571Y-92452142D01*
X174822857Y-92152142D02*
X174822857Y-92923571D01*
X174780000Y-93009285D01*
X174694285Y-93052142D01*
X174608571Y-93052142D01*
X174308571Y-93052142D02*
X174308571Y-92152142D01*
X173922857Y-93052142D02*
X173922857Y-92580714D01*
X173965714Y-92495000D01*
X174051428Y-92452142D01*
X174180000Y-92452142D01*
X174265714Y-92495000D01*
X174308571Y-92537857D01*
X173151428Y-93009285D02*
X173237142Y-93052142D01*
X173408571Y-93052142D01*
X173494285Y-93009285D01*
X173537142Y-92923571D01*
X173537142Y-92580714D01*
X173494285Y-92495000D01*
X173408571Y-92452142D01*
X173237142Y-92452142D01*
X173151428Y-92495000D01*
X173108571Y-92580714D01*
X173108571Y-92666428D01*
X173537142Y-92752142D01*
X172037142Y-93052142D02*
X172037142Y-92452142D01*
X172037142Y-92152142D02*
X172080000Y-92195000D01*
X172037142Y-92237857D01*
X171994285Y-92195000D01*
X172037142Y-92152142D01*
X172037142Y-92237857D01*
X171222857Y-93052142D02*
X171222857Y-92152142D01*
X171222857Y-93009285D02*
X171308571Y-93052142D01*
X171480000Y-93052142D01*
X171565714Y-93009285D01*
X171608571Y-92966428D01*
X171651428Y-92880714D01*
X171651428Y-92623571D01*
X171608571Y-92537857D01*
X171565714Y-92495000D01*
X171480000Y-92452142D01*
X171308571Y-92452142D01*
X171222857Y-92495000D01*
X170451428Y-93009285D02*
X170537142Y-93052142D01*
X170708571Y-93052142D01*
X170794285Y-93009285D01*
X170837142Y-92923571D01*
X170837142Y-92580714D01*
X170794285Y-92495000D01*
X170708571Y-92452142D01*
X170537142Y-92452142D01*
X170451428Y-92495000D01*
X170408571Y-92580714D01*
X170408571Y-92666428D01*
X170837142Y-92752142D01*
X169637142Y-93052142D02*
X169637142Y-92580714D01*
X169680000Y-92495000D01*
X169765714Y-92452142D01*
X169937142Y-92452142D01*
X170022857Y-92495000D01*
X169637142Y-93009285D02*
X169722857Y-93052142D01*
X169937142Y-93052142D01*
X170022857Y-93009285D01*
X170065714Y-92923571D01*
X170065714Y-92837857D01*
X170022857Y-92752142D01*
X169937142Y-92709285D01*
X169722857Y-92709285D01*
X169637142Y-92666428D01*
X169251428Y-93009285D02*
X169165714Y-93052142D01*
X168994285Y-93052142D01*
X168908571Y-93009285D01*
X168865714Y-92923571D01*
X168865714Y-92880714D01*
X168908571Y-92795000D01*
X168994285Y-92752142D01*
X169122857Y-92752142D01*
X169208571Y-92709285D01*
X169251428Y-92623571D01*
X169251428Y-92580714D01*
X169208571Y-92495000D01*
X169122857Y-92452142D01*
X168994285Y-92452142D01*
X168908571Y-92495000D01*
X167408571Y-93052142D02*
X167408571Y-92580714D01*
X167451428Y-92495000D01*
X167537142Y-92452142D01*
X167708571Y-92452142D01*
X167794285Y-92495000D01*
X167408571Y-93009285D02*
X167494285Y-93052142D01*
X167708571Y-93052142D01*
X167794285Y-93009285D01*
X167837142Y-92923571D01*
X167837142Y-92837857D01*
X167794285Y-92752142D01*
X167708571Y-92709285D01*
X167494285Y-92709285D01*
X167408571Y-92666428D01*
X166980000Y-92452142D02*
X166980000Y-93052142D01*
X166980000Y-92537857D02*
X166937142Y-92495000D01*
X166851428Y-92452142D01*
X166722857Y-92452142D01*
X166637142Y-92495000D01*
X166594285Y-92580714D01*
X166594285Y-93052142D01*
X165780000Y-93052142D02*
X165780000Y-92152142D01*
X165780000Y-93009285D02*
X165865714Y-93052142D01*
X166037142Y-93052142D01*
X166122857Y-93009285D01*
X166165714Y-92966428D01*
X166208571Y-92880714D01*
X166208571Y-92623571D01*
X166165714Y-92537857D01*
X166122857Y-92495000D01*
X166037142Y-92452142D01*
X165865714Y-92452142D01*
X165780000Y-92495000D01*
X164708571Y-93009285D02*
X164622857Y-93052142D01*
X164451428Y-93052142D01*
X164365714Y-93009285D01*
X164322857Y-92923571D01*
X164322857Y-92880714D01*
X164365714Y-92795000D01*
X164451428Y-92752142D01*
X164580000Y-92752142D01*
X164665714Y-92709285D01*
X164708571Y-92623571D01*
X164708571Y-92580714D01*
X164665714Y-92495000D01*
X164580000Y-92452142D01*
X164451428Y-92452142D01*
X164365714Y-92495000D01*
X163551428Y-92452142D02*
X163551428Y-93052142D01*
X163937142Y-92452142D02*
X163937142Y-92923571D01*
X163894285Y-93009285D01*
X163808571Y-93052142D01*
X163680000Y-93052142D01*
X163594285Y-93009285D01*
X163551428Y-92966428D01*
X162737142Y-92452142D02*
X162737142Y-93180714D01*
X162780000Y-93266428D01*
X162822857Y-93309285D01*
X162908571Y-93352142D01*
X163037142Y-93352142D01*
X163122857Y-93309285D01*
X162737142Y-93009285D02*
X162822857Y-93052142D01*
X162994285Y-93052142D01*
X163080000Y-93009285D01*
X163122857Y-92966428D01*
X163165714Y-92880714D01*
X163165714Y-92623571D01*
X163122857Y-92537857D01*
X163080000Y-92495000D01*
X162994285Y-92452142D01*
X162822857Y-92452142D01*
X162737142Y-92495000D01*
X161922857Y-92452142D02*
X161922857Y-93180714D01*
X161965714Y-93266428D01*
X162008571Y-93309285D01*
X162094285Y-93352142D01*
X162222857Y-93352142D01*
X162308571Y-93309285D01*
X161922857Y-93009285D02*
X162008571Y-93052142D01*
X162180000Y-93052142D01*
X162265714Y-93009285D01*
X162308571Y-92966428D01*
X162351428Y-92880714D01*
X162351428Y-92623571D01*
X162308571Y-92537857D01*
X162265714Y-92495000D01*
X162180000Y-92452142D01*
X162008571Y-92452142D01*
X161922857Y-92495000D01*
X161151428Y-93009285D02*
X161237142Y-93052142D01*
X161408571Y-93052142D01*
X161494285Y-93009285D01*
X161537142Y-92923571D01*
X161537142Y-92580714D01*
X161494285Y-92495000D01*
X161408571Y-92452142D01*
X161237142Y-92452142D01*
X161151428Y-92495000D01*
X161108571Y-92580714D01*
X161108571Y-92666428D01*
X161537142Y-92752142D01*
X160765714Y-93009285D02*
X160680000Y-93052142D01*
X160508571Y-93052142D01*
X160422857Y-93009285D01*
X160380000Y-92923571D01*
X160380000Y-92880714D01*
X160422857Y-92795000D01*
X160508571Y-92752142D01*
X160637142Y-92752142D01*
X160722857Y-92709285D01*
X160765714Y-92623571D01*
X160765714Y-92580714D01*
X160722857Y-92495000D01*
X160637142Y-92452142D01*
X160508571Y-92452142D01*
X160422857Y-92495000D01*
X160122857Y-92452142D02*
X159780000Y-92452142D01*
X159994285Y-92152142D02*
X159994285Y-92923571D01*
X159951428Y-93009285D01*
X159865714Y-93052142D01*
X159780000Y-93052142D01*
X159480000Y-93052142D02*
X159480000Y-92452142D01*
X159480000Y-92152142D02*
X159522857Y-92195000D01*
X159480000Y-92237857D01*
X159437142Y-92195000D01*
X159480000Y-92152142D01*
X159480000Y-92237857D01*
X158922857Y-93052142D02*
X159008571Y-93009285D01*
X159051428Y-92966428D01*
X159094285Y-92880714D01*
X159094285Y-92623571D01*
X159051428Y-92537857D01*
X159008571Y-92495000D01*
X158922857Y-92452142D01*
X158794285Y-92452142D01*
X158708571Y-92495000D01*
X158665714Y-92537857D01*
X158622857Y-92623571D01*
X158622857Y-92880714D01*
X158665714Y-92966428D01*
X158708571Y-93009285D01*
X158794285Y-93052142D01*
X158922857Y-93052142D01*
X158237142Y-92452142D02*
X158237142Y-93052142D01*
X158237142Y-92537857D02*
X158194285Y-92495000D01*
X158108571Y-92452142D01*
X157980000Y-92452142D01*
X157894285Y-92495000D01*
X157851428Y-92580714D01*
X157851428Y-93052142D01*
X157465714Y-93009285D02*
X157380000Y-93052142D01*
X157208571Y-93052142D01*
X157122857Y-93009285D01*
X157080000Y-92923571D01*
X157080000Y-92880714D01*
X157122857Y-92795000D01*
X157208571Y-92752142D01*
X157337142Y-92752142D01*
X157422857Y-92709285D01*
X157465714Y-92623571D01*
X157465714Y-92580714D01*
X157422857Y-92495000D01*
X157337142Y-92452142D01*
X157208571Y-92452142D01*
X157122857Y-92495000D01*
X156694285Y-92966428D02*
X156651428Y-93009285D01*
X156694285Y-93052142D01*
X156737142Y-93009285D01*
X156694285Y-92966428D01*
X156694285Y-93052142D01*
X156694285Y-92495000D02*
X156651428Y-92537857D01*
X156694285Y-92580714D01*
X156737142Y-92537857D01*
X156694285Y-92495000D01*
X156694285Y-92580714D01*
X182108571Y-94173571D02*
X182151428Y-94130714D01*
X182237142Y-94087857D01*
X182322857Y-94087857D01*
X182408571Y-94130714D01*
X182451428Y-94173571D01*
X182494285Y-94259285D01*
X182494285Y-94345000D01*
X182451428Y-94430714D01*
X182408571Y-94473571D01*
X182322857Y-94516428D01*
X182237142Y-94516428D01*
X182151428Y-94473571D01*
X182108571Y-94430714D01*
X182108571Y-94087857D02*
X182108571Y-94430714D01*
X182065714Y-94473571D01*
X182022857Y-94473571D01*
X181937142Y-94430714D01*
X181894285Y-94345000D01*
X181894285Y-94130714D01*
X181980000Y-94002142D01*
X182108571Y-93916428D01*
X182280000Y-93873571D01*
X182451428Y-93916428D01*
X182580000Y-94002142D01*
X182665714Y-94130714D01*
X182708571Y-94302142D01*
X182665714Y-94473571D01*
X182580000Y-94602142D01*
X182451428Y-94687857D01*
X182280000Y-94730714D01*
X182108571Y-94687857D01*
X181980000Y-94602142D01*
X181122857Y-94602142D02*
X181122857Y-93702142D01*
X181122857Y-94559285D02*
X181208571Y-94602142D01*
X181380000Y-94602142D01*
X181465714Y-94559285D01*
X181508571Y-94516428D01*
X181551428Y-94430714D01*
X181551428Y-94173571D01*
X181508571Y-94087857D01*
X181465714Y-94045000D01*
X181380000Y-94002142D01*
X181208571Y-94002142D01*
X181122857Y-94045000D01*
X180351428Y-94559285D02*
X180437142Y-94602142D01*
X180608571Y-94602142D01*
X180694285Y-94559285D01*
X180737142Y-94473571D01*
X180737142Y-94130714D01*
X180694285Y-94045000D01*
X180608571Y-94002142D01*
X180437142Y-94002142D01*
X180351428Y-94045000D01*
X180308571Y-94130714D01*
X180308571Y-94216428D01*
X180737142Y-94302142D01*
X179965714Y-94559285D02*
X179880000Y-94602142D01*
X179708571Y-94602142D01*
X179622857Y-94559285D01*
X179580000Y-94473571D01*
X179580000Y-94430714D01*
X179622857Y-94345000D01*
X179708571Y-94302142D01*
X179837142Y-94302142D01*
X179922857Y-94259285D01*
X179965714Y-94173571D01*
X179965714Y-94130714D01*
X179922857Y-94045000D01*
X179837142Y-94002142D01*
X179708571Y-94002142D01*
X179622857Y-94045000D01*
X179194285Y-93702142D02*
X179194285Y-94430714D01*
X179151428Y-94516428D01*
X179108571Y-94559285D01*
X179022857Y-94602142D01*
X178851428Y-94602142D01*
X178765714Y-94559285D01*
X178722857Y-94516428D01*
X178680000Y-94430714D01*
X178680000Y-93702142D01*
X177951428Y-94130714D02*
X177822857Y-94173571D01*
X177780000Y-94216428D01*
X177737142Y-94302142D01*
X177737142Y-94430714D01*
X177780000Y-94516428D01*
X177822857Y-94559285D01*
X177908571Y-94602142D01*
X178251428Y-94602142D01*
X178251428Y-93702142D01*
X177951428Y-93702142D01*
X177865714Y-93745000D01*
X177822857Y-93787857D01*
X177780000Y-93873571D01*
X177780000Y-93959285D01*
X177822857Y-94045000D01*
X177865714Y-94087857D01*
X177951428Y-94130714D01*
X178251428Y-94130714D01*
X177351428Y-94602142D02*
X177351428Y-93702142D01*
X176922857Y-94602142D02*
X176922857Y-93702142D01*
X176408571Y-94602142D02*
X176794285Y-94087857D01*
X176408571Y-93702142D02*
X176922857Y-94216428D01*
X175637142Y-94602142D02*
X175637142Y-94130714D01*
X175680000Y-94045000D01*
X175765714Y-94002142D01*
X175937142Y-94002142D01*
X176022857Y-94045000D01*
X175637142Y-94559285D02*
X175722857Y-94602142D01*
X175937142Y-94602142D01*
X176022857Y-94559285D01*
X176065714Y-94473571D01*
X176065714Y-94387857D01*
X176022857Y-94302142D01*
X175937142Y-94259285D01*
X175722857Y-94259285D01*
X175637142Y-94216428D01*
X174822857Y-94602142D02*
X174822857Y-93702142D01*
X174822857Y-94559285D02*
X174908571Y-94602142D01*
X175080000Y-94602142D01*
X175165714Y-94559285D01*
X175208571Y-94516428D01*
X175251428Y-94430714D01*
X175251428Y-94173571D01*
X175208571Y-94087857D01*
X175165714Y-94045000D01*
X175080000Y-94002142D01*
X174908571Y-94002142D01*
X174822857Y-94045000D01*
X174265714Y-94602142D02*
X174351428Y-94559285D01*
X174394285Y-94516428D01*
X174437142Y-94430714D01*
X174437142Y-94173571D01*
X174394285Y-94087857D01*
X174351428Y-94045000D01*
X174265714Y-94002142D01*
X174137142Y-94002142D01*
X174051428Y-94045000D01*
X174008571Y-94087857D01*
X173965714Y-94173571D01*
X173965714Y-94430714D01*
X174008571Y-94516428D01*
X174051428Y-94559285D01*
X174137142Y-94602142D01*
X174265714Y-94602142D01*
X173537142Y-94559285D02*
X173537142Y-94602142D01*
X173580000Y-94687857D01*
X173622857Y-94730714D01*
X171908571Y-94173571D02*
X171951428Y-94130714D01*
X172037142Y-94087857D01*
X172122857Y-94087857D01*
X172208571Y-94130714D01*
X172251428Y-94173571D01*
X172294285Y-94259285D01*
X172294285Y-94345000D01*
X172251428Y-94430714D01*
X172208571Y-94473571D01*
X172122857Y-94516428D01*
X172037142Y-94516428D01*
X171951428Y-94473571D01*
X171908571Y-94430714D01*
X171908571Y-94087857D02*
X171908571Y-94430714D01*
X171865714Y-94473571D01*
X171822857Y-94473571D01*
X171737142Y-94430714D01*
X171694285Y-94345000D01*
X171694285Y-94130714D01*
X171780000Y-94002142D01*
X171908571Y-93916428D01*
X172080000Y-93873571D01*
X172251428Y-93916428D01*
X172380000Y-94002142D01*
X172465714Y-94130714D01*
X172508571Y-94302142D01*
X172465714Y-94473571D01*
X172380000Y-94602142D01*
X172251428Y-94687857D01*
X172080000Y-94730714D01*
X171908571Y-94687857D01*
X171780000Y-94602142D01*
X171394285Y-94002142D02*
X171180000Y-94602142D01*
X170965714Y-94002142D02*
X171180000Y-94602142D01*
X171265714Y-94816428D01*
X171308571Y-94859285D01*
X171394285Y-94902142D01*
X170494285Y-94602142D02*
X170580000Y-94559285D01*
X170622857Y-94516428D01*
X170665714Y-94430714D01*
X170665714Y-94173571D01*
X170622857Y-94087857D01*
X170580000Y-94045000D01*
X170494285Y-94002142D01*
X170365714Y-94002142D01*
X170280000Y-94045000D01*
X170237142Y-94087857D01*
X170194285Y-94173571D01*
X170194285Y-94430714D01*
X170237142Y-94516428D01*
X170280000Y-94559285D01*
X170365714Y-94602142D01*
X170494285Y-94602142D01*
X169808571Y-94602142D02*
X169808571Y-94002142D01*
X169808571Y-94087857D02*
X169765714Y-94045000D01*
X169680000Y-94002142D01*
X169551428Y-94002142D01*
X169465714Y-94045000D01*
X169422857Y-94130714D01*
X169422857Y-94602142D01*
X169422857Y-94130714D02*
X169380000Y-94045000D01*
X169294285Y-94002142D01*
X169165714Y-94002142D01*
X169080000Y-94045000D01*
X169037142Y-94130714D01*
X169037142Y-94602142D01*
X168608571Y-94602142D02*
X168608571Y-93702142D01*
X168608571Y-94045000D02*
X168522857Y-94002142D01*
X168351428Y-94002142D01*
X168265714Y-94045000D01*
X168222857Y-94087857D01*
X168180000Y-94173571D01*
X168180000Y-94430714D01*
X168222857Y-94516428D01*
X168265714Y-94559285D01*
X168351428Y-94602142D01*
X168522857Y-94602142D01*
X168608571Y-94559285D01*
X167665714Y-94602142D02*
X167751428Y-94559285D01*
X167794285Y-94516428D01*
X167837142Y-94430714D01*
X167837142Y-94173571D01*
X167794285Y-94087857D01*
X167751428Y-94045000D01*
X167665714Y-94002142D01*
X167537142Y-94002142D01*
X167451428Y-94045000D01*
X167408571Y-94087857D01*
X167365714Y-94173571D01*
X167365714Y-94430714D01*
X167408571Y-94516428D01*
X167451428Y-94559285D01*
X167537142Y-94602142D01*
X167665714Y-94602142D01*
X166937142Y-94559285D02*
X166937142Y-94602142D01*
X166980000Y-94687857D01*
X167022857Y-94730714D01*
X165308571Y-94173571D02*
X165351428Y-94130714D01*
X165437142Y-94087857D01*
X165522857Y-94087857D01*
X165608571Y-94130714D01*
X165651428Y-94173571D01*
X165694285Y-94259285D01*
X165694285Y-94345000D01*
X165651428Y-94430714D01*
X165608571Y-94473571D01*
X165522857Y-94516428D01*
X165437142Y-94516428D01*
X165351428Y-94473571D01*
X165308571Y-94430714D01*
X165308571Y-94087857D02*
X165308571Y-94430714D01*
X165265714Y-94473571D01*
X165222857Y-94473571D01*
X165137142Y-94430714D01*
X165094285Y-94345000D01*
X165094285Y-94130714D01*
X165180000Y-94002142D01*
X165308571Y-93916428D01*
X165480000Y-93873571D01*
X165651428Y-93916428D01*
X165780000Y-94002142D01*
X165865714Y-94130714D01*
X165908571Y-94302142D01*
X165865714Y-94473571D01*
X165780000Y-94602142D01*
X165651428Y-94687857D01*
X165480000Y-94730714D01*
X165308571Y-94687857D01*
X165180000Y-94602142D01*
X164322857Y-94602142D02*
X164322857Y-94130714D01*
X164365714Y-94045000D01*
X164451428Y-94002142D01*
X164622857Y-94002142D01*
X164708571Y-94045000D01*
X164322857Y-94559285D02*
X164408571Y-94602142D01*
X164622857Y-94602142D01*
X164708571Y-94559285D01*
X164751428Y-94473571D01*
X164751428Y-94387857D01*
X164708571Y-94302142D01*
X164622857Y-94259285D01*
X164408571Y-94259285D01*
X164322857Y-94216428D01*
X163894285Y-94002142D02*
X163894285Y-94602142D01*
X163894285Y-94087857D02*
X163851428Y-94045000D01*
X163765714Y-94002142D01*
X163637142Y-94002142D01*
X163551428Y-94045000D01*
X163508571Y-94130714D01*
X163508571Y-94602142D01*
X163208571Y-94002142D02*
X162865714Y-94002142D01*
X163080000Y-93702142D02*
X163080000Y-94473571D01*
X163037142Y-94559285D01*
X162951428Y-94602142D01*
X162865714Y-94602142D01*
X162437142Y-94602142D02*
X162522857Y-94559285D01*
X162565714Y-94516428D01*
X162608571Y-94430714D01*
X162608571Y-94173571D01*
X162565714Y-94087857D01*
X162522857Y-94045000D01*
X162437142Y-94002142D01*
X162308571Y-94002142D01*
X162222857Y-94045000D01*
X162180000Y-94087857D01*
X162137142Y-94173571D01*
X162137142Y-94430714D01*
X162180000Y-94516428D01*
X162222857Y-94559285D01*
X162308571Y-94602142D01*
X162437142Y-94602142D01*
X161751428Y-94002142D02*
X161751428Y-94602142D01*
X161751428Y-94087857D02*
X161708571Y-94045000D01*
X161622857Y-94002142D01*
X161494285Y-94002142D01*
X161408571Y-94045000D01*
X161365714Y-94130714D01*
X161365714Y-94602142D01*
X160937142Y-94602142D02*
X160937142Y-94002142D01*
X160937142Y-93702142D02*
X160980000Y-93745000D01*
X160937142Y-93787857D01*
X160894285Y-93745000D01*
X160937142Y-93702142D01*
X160937142Y-93787857D01*
X160380000Y-94602142D02*
X160465714Y-94559285D01*
X160508571Y-94516428D01*
X160551428Y-94430714D01*
X160551428Y-94173571D01*
X160508571Y-94087857D01*
X160465714Y-94045000D01*
X160380000Y-94002142D01*
X160251428Y-94002142D01*
X160165714Y-94045000D01*
X160122857Y-94087857D01*
X160080000Y-94173571D01*
X160080000Y-94430714D01*
X160122857Y-94516428D01*
X160165714Y-94559285D01*
X160251428Y-94602142D01*
X160380000Y-94602142D01*
X159780000Y-94002142D02*
X159565714Y-94602142D01*
X159351428Y-94002142D01*
X159008571Y-94602142D02*
X159008571Y-94002142D01*
X159008571Y-93702142D02*
X159051428Y-93745000D01*
X159008571Y-93787857D01*
X158965714Y-93745000D01*
X159008571Y-93702142D01*
X159008571Y-93787857D01*
X158451428Y-94602142D02*
X158537142Y-94559285D01*
X158580000Y-94473571D01*
X158580000Y-93702142D01*
X118327142Y-117718571D02*
X118327142Y-117204285D01*
X118327142Y-117461428D02*
X117427142Y-117461428D01*
X117555714Y-117375714D01*
X117641428Y-117290000D01*
X117684285Y-117204285D01*
X117427142Y-118490000D02*
X117427142Y-118318571D01*
X117470000Y-118232857D01*
X117512857Y-118190000D01*
X117641428Y-118104285D01*
X117812857Y-118061428D01*
X118155714Y-118061428D01*
X118241428Y-118104285D01*
X118284285Y-118147142D01*
X118327142Y-118232857D01*
X118327142Y-118404285D01*
X118284285Y-118490000D01*
X118241428Y-118532857D01*
X118155714Y-118575714D01*
X117941428Y-118575714D01*
X117855714Y-118532857D01*
X117812857Y-118490000D01*
X117770000Y-118404285D01*
X117770000Y-118232857D01*
X117812857Y-118147142D01*
X117855714Y-118104285D01*
X117941428Y-118061428D01*
X123452857Y-117154285D02*
X123410000Y-117197142D01*
X123367142Y-117282857D01*
X123367142Y-117497142D01*
X123410000Y-117582857D01*
X123452857Y-117625714D01*
X123538571Y-117668571D01*
X123624285Y-117668571D01*
X123752857Y-117625714D01*
X124267142Y-117111428D01*
X124267142Y-117668571D01*
X123452857Y-118011428D02*
X123410000Y-118054285D01*
X123367142Y-118140000D01*
X123367142Y-118354285D01*
X123410000Y-118440000D01*
X123452857Y-118482857D01*
X123538571Y-118525714D01*
X123624285Y-118525714D01*
X123752857Y-118482857D01*
X124267142Y-117968571D01*
X124267142Y-118525714D01*
X125522857Y-117184285D02*
X125480000Y-117227142D01*
X125437142Y-117312857D01*
X125437142Y-117527142D01*
X125480000Y-117612857D01*
X125522857Y-117655714D01*
X125608571Y-117698571D01*
X125694285Y-117698571D01*
X125822857Y-117655714D01*
X126337142Y-117141428D01*
X126337142Y-117698571D01*
X125737142Y-118470000D02*
X126337142Y-118470000D01*
X125394285Y-118255714D02*
X126037142Y-118041428D01*
X126037142Y-118598571D01*
X129522857Y-117194285D02*
X129480000Y-117237142D01*
X129437142Y-117322857D01*
X129437142Y-117537142D01*
X129480000Y-117622857D01*
X129522857Y-117665714D01*
X129608571Y-117708571D01*
X129694285Y-117708571D01*
X129822857Y-117665714D01*
X130337142Y-117151428D01*
X130337142Y-117708571D01*
X129822857Y-118222857D02*
X129780000Y-118137142D01*
X129737142Y-118094285D01*
X129651428Y-118051428D01*
X129608571Y-118051428D01*
X129522857Y-118094285D01*
X129480000Y-118137142D01*
X129437142Y-118222857D01*
X129437142Y-118394285D01*
X129480000Y-118480000D01*
X129522857Y-118522857D01*
X129608571Y-118565714D01*
X129651428Y-118565714D01*
X129737142Y-118522857D01*
X129780000Y-118480000D01*
X129822857Y-118394285D01*
X129822857Y-118222857D01*
X129865714Y-118137142D01*
X129908571Y-118094285D01*
X129994285Y-118051428D01*
X130165714Y-118051428D01*
X130251428Y-118094285D01*
X130294285Y-118137142D01*
X130337142Y-118222857D01*
X130337142Y-118394285D01*
X130294285Y-118480000D01*
X130251428Y-118522857D01*
X130165714Y-118565714D01*
X129994285Y-118565714D01*
X129908571Y-118522857D01*
X129865714Y-118480000D01*
X129822857Y-118394285D01*
X116357142Y-111848571D02*
X116357142Y-111334285D01*
X116357142Y-111591428D02*
X115457142Y-111591428D01*
X115585714Y-111505714D01*
X115671428Y-111420000D01*
X115714285Y-111334285D01*
X115457142Y-112148571D02*
X115457142Y-112705714D01*
X115800000Y-112405714D01*
X115800000Y-112534285D01*
X115842857Y-112620000D01*
X115885714Y-112662857D01*
X115971428Y-112705714D01*
X116185714Y-112705714D01*
X116271428Y-112662857D01*
X116314285Y-112620000D01*
X116357142Y-112534285D01*
X116357142Y-112277142D01*
X116314285Y-112191428D01*
X116271428Y-112148571D01*
X120297142Y-111908571D02*
X120297142Y-111394285D01*
X120297142Y-111651428D02*
X119397142Y-111651428D01*
X119525714Y-111565714D01*
X119611428Y-111480000D01*
X119654285Y-111394285D01*
X119397142Y-112208571D02*
X119397142Y-112808571D01*
X120297142Y-112422857D01*
X104351904Y-112907142D02*
X104351904Y-112392857D01*
X104351904Y-112650000D02*
X103551904Y-112650000D01*
X103666190Y-112564285D01*
X103742380Y-112478571D01*
X103780476Y-112392857D01*
X103532857Y-117172857D02*
X103490000Y-117215714D01*
X103447142Y-117301428D01*
X103447142Y-117515714D01*
X103490000Y-117601428D01*
X103532857Y-117644285D01*
X103618571Y-117687142D01*
X103704285Y-117687142D01*
X103832857Y-117644285D01*
X104347142Y-117130000D01*
X104347142Y-117687142D01*
X123532857Y-111354285D02*
X123490000Y-111397142D01*
X123447142Y-111482857D01*
X123447142Y-111697142D01*
X123490000Y-111782857D01*
X123532857Y-111825714D01*
X123618571Y-111868571D01*
X123704285Y-111868571D01*
X123832857Y-111825714D01*
X124347142Y-111311428D01*
X124347142Y-111868571D01*
X124347142Y-112725714D02*
X124347142Y-112211428D01*
X124347142Y-112468571D02*
X123447142Y-112468571D01*
X123575714Y-112382857D01*
X123661428Y-112297142D01*
X123704285Y-112211428D01*
X118377142Y-111858571D02*
X118377142Y-111344285D01*
X118377142Y-111601428D02*
X117477142Y-111601428D01*
X117605714Y-111515714D01*
X117691428Y-111430000D01*
X117734285Y-111344285D01*
X117477142Y-112672857D02*
X117477142Y-112244285D01*
X117905714Y-112201428D01*
X117862857Y-112244285D01*
X117820000Y-112330000D01*
X117820000Y-112544285D01*
X117862857Y-112630000D01*
X117905714Y-112672857D01*
X117991428Y-112715714D01*
X118205714Y-112715714D01*
X118291428Y-112672857D01*
X118334285Y-112630000D01*
X118377142Y-112544285D01*
X118377142Y-112330000D01*
X118334285Y-112244285D01*
X118291428Y-112201428D01*
X109832857Y-117344285D02*
X109790000Y-117258571D01*
X109747142Y-117215714D01*
X109661428Y-117172857D01*
X109618571Y-117172857D01*
X109532857Y-117215714D01*
X109490000Y-117258571D01*
X109447142Y-117344285D01*
X109447142Y-117515714D01*
X109490000Y-117601428D01*
X109532857Y-117644285D01*
X109618571Y-117687142D01*
X109661428Y-117687142D01*
X109747142Y-117644285D01*
X109790000Y-117601428D01*
X109832857Y-117515714D01*
X109832857Y-117344285D01*
X109875714Y-117258571D01*
X109918571Y-117215714D01*
X110004285Y-117172857D01*
X110175714Y-117172857D01*
X110261428Y-117215714D01*
X110304285Y-117258571D01*
X110347142Y-117344285D01*
X110347142Y-117515714D01*
X110304285Y-117601428D01*
X110261428Y-117644285D01*
X110175714Y-117687142D01*
X110004285Y-117687142D01*
X109918571Y-117644285D01*
X109875714Y-117601428D01*
X109832857Y-117515714D01*
X109457142Y-112280000D02*
X109457142Y-112880000D01*
X110357142Y-112494285D01*
X107437142Y-117601428D02*
X107437142Y-117430000D01*
X107480000Y-117344285D01*
X107522857Y-117301428D01*
X107651428Y-117215714D01*
X107822857Y-117172857D01*
X108165714Y-117172857D01*
X108251428Y-117215714D01*
X108294285Y-117258571D01*
X108337142Y-117344285D01*
X108337142Y-117515714D01*
X108294285Y-117601428D01*
X108251428Y-117644285D01*
X108165714Y-117687142D01*
X107951428Y-117687142D01*
X107865714Y-117644285D01*
X107822857Y-117601428D01*
X107780000Y-117515714D01*
X107780000Y-117344285D01*
X107822857Y-117258571D01*
X107865714Y-117215714D01*
X107951428Y-117172857D01*
X105727142Y-117601428D02*
X106327142Y-117601428D01*
X105384285Y-117387142D02*
X106027142Y-117172857D01*
X106027142Y-117730000D01*
X125542857Y-111374285D02*
X125500000Y-111417142D01*
X125457142Y-111502857D01*
X125457142Y-111717142D01*
X125500000Y-111802857D01*
X125542857Y-111845714D01*
X125628571Y-111888571D01*
X125714285Y-111888571D01*
X125842857Y-111845714D01*
X126357142Y-111331428D01*
X126357142Y-111888571D01*
X125457142Y-112188571D02*
X125457142Y-112745714D01*
X125800000Y-112445714D01*
X125800000Y-112574285D01*
X125842857Y-112660000D01*
X125885714Y-112702857D01*
X125971428Y-112745714D01*
X126185714Y-112745714D01*
X126271428Y-112702857D01*
X126314285Y-112660000D01*
X126357142Y-112574285D01*
X126357142Y-112317142D01*
X126314285Y-112231428D01*
X126271428Y-112188571D01*
X127562857Y-111364285D02*
X127520000Y-111407142D01*
X127477142Y-111492857D01*
X127477142Y-111707142D01*
X127520000Y-111792857D01*
X127562857Y-111835714D01*
X127648571Y-111878571D01*
X127734285Y-111878571D01*
X127862857Y-111835714D01*
X128377142Y-111321428D01*
X128377142Y-111878571D01*
X127477142Y-112692857D02*
X127477142Y-112264285D01*
X127905714Y-112221428D01*
X127862857Y-112264285D01*
X127820000Y-112350000D01*
X127820000Y-112564285D01*
X127862857Y-112650000D01*
X127905714Y-112692857D01*
X127991428Y-112735714D01*
X128205714Y-112735714D01*
X128291428Y-112692857D01*
X128334285Y-112650000D01*
X128377142Y-112564285D01*
X128377142Y-112350000D01*
X128334285Y-112264285D01*
X128291428Y-112221428D01*
X129552857Y-111364285D02*
X129510000Y-111407142D01*
X129467142Y-111492857D01*
X129467142Y-111707142D01*
X129510000Y-111792857D01*
X129552857Y-111835714D01*
X129638571Y-111878571D01*
X129724285Y-111878571D01*
X129852857Y-111835714D01*
X130367142Y-111321428D01*
X130367142Y-111878571D01*
X129467142Y-112178571D02*
X129467142Y-112778571D01*
X130367142Y-112392857D01*
X112337142Y-117658571D02*
X112337142Y-117144285D01*
X112337142Y-117401428D02*
X111437142Y-117401428D01*
X111565714Y-117315714D01*
X111651428Y-117230000D01*
X111694285Y-117144285D01*
X111437142Y-118215714D02*
X111437142Y-118301428D01*
X111480000Y-118387142D01*
X111522857Y-118430000D01*
X111608571Y-118472857D01*
X111780000Y-118515714D01*
X111994285Y-118515714D01*
X112165714Y-118472857D01*
X112251428Y-118430000D01*
X112294285Y-118387142D01*
X112337142Y-118301428D01*
X112337142Y-118215714D01*
X112294285Y-118130000D01*
X112251428Y-118087142D01*
X112165714Y-118044285D01*
X111994285Y-118001428D01*
X111780000Y-118001428D01*
X111608571Y-118044285D01*
X111522857Y-118087142D01*
X111480000Y-118130000D01*
X111437142Y-118215714D01*
X107497142Y-112814285D02*
X107497142Y-112385714D01*
X107925714Y-112342857D01*
X107882857Y-112385714D01*
X107840000Y-112471428D01*
X107840000Y-112685714D01*
X107882857Y-112771428D01*
X107925714Y-112814285D01*
X108011428Y-112857142D01*
X108225714Y-112857142D01*
X108311428Y-112814285D01*
X108354285Y-112771428D01*
X108397142Y-112685714D01*
X108397142Y-112471428D01*
X108354285Y-112385714D01*
X108311428Y-112342857D01*
X112311904Y-112388571D02*
X112311904Y-112560000D01*
X112273809Y-112645714D01*
X112235714Y-112688571D01*
X112121428Y-112774285D01*
X111969047Y-112817142D01*
X111664285Y-112817142D01*
X111588095Y-112774285D01*
X111550000Y-112731428D01*
X111511904Y-112645714D01*
X111511904Y-112474285D01*
X111550000Y-112388571D01*
X111588095Y-112345714D01*
X111664285Y-112302857D01*
X111854761Y-112302857D01*
X111930952Y-112345714D01*
X111969047Y-112388571D01*
X112007142Y-112474285D01*
X112007142Y-112645714D01*
X111969047Y-112731428D01*
X111930952Y-112774285D01*
X111854761Y-112817142D01*
X105541904Y-112350000D02*
X105541904Y-112907142D01*
X105846666Y-112607142D01*
X105846666Y-112735714D01*
X105884761Y-112821428D01*
X105922857Y-112864285D01*
X105999047Y-112907142D01*
X106189523Y-112907142D01*
X106265714Y-112864285D01*
X106303809Y-112821428D01*
X106341904Y-112735714D01*
X106341904Y-112478571D01*
X106303809Y-112392857D01*
X106265714Y-112350000D01*
X120287142Y-117668571D02*
X120287142Y-117154285D01*
X120287142Y-117411428D02*
X119387142Y-117411428D01*
X119515714Y-117325714D01*
X119601428Y-117240000D01*
X119644285Y-117154285D01*
X119772857Y-118182857D02*
X119730000Y-118097142D01*
X119687142Y-118054285D01*
X119601428Y-118011428D01*
X119558571Y-118011428D01*
X119472857Y-118054285D01*
X119430000Y-118097142D01*
X119387142Y-118182857D01*
X119387142Y-118354285D01*
X119430000Y-118440000D01*
X119472857Y-118482857D01*
X119558571Y-118525714D01*
X119601428Y-118525714D01*
X119687142Y-118482857D01*
X119730000Y-118440000D01*
X119772857Y-118354285D01*
X119772857Y-118182857D01*
X119815714Y-118097142D01*
X119858571Y-118054285D01*
X119944285Y-118011428D01*
X120115714Y-118011428D01*
X120201428Y-118054285D01*
X120244285Y-118097142D01*
X120287142Y-118182857D01*
X120287142Y-118354285D01*
X120244285Y-118440000D01*
X120201428Y-118482857D01*
X120115714Y-118525714D01*
X119944285Y-118525714D01*
X119858571Y-118482857D01*
X119815714Y-118440000D01*
X119772857Y-118354285D01*
X127432857Y-117174285D02*
X127390000Y-117217142D01*
X127347142Y-117302857D01*
X127347142Y-117517142D01*
X127390000Y-117602857D01*
X127432857Y-117645714D01*
X127518571Y-117688571D01*
X127604285Y-117688571D01*
X127732857Y-117645714D01*
X128247142Y-117131428D01*
X128247142Y-117688571D01*
X127347142Y-118460000D02*
X127347142Y-118288571D01*
X127390000Y-118202857D01*
X127432857Y-118160000D01*
X127561428Y-118074285D01*
X127732857Y-118031428D01*
X128075714Y-118031428D01*
X128161428Y-118074285D01*
X128204285Y-118117142D01*
X128247142Y-118202857D01*
X128247142Y-118374285D01*
X128204285Y-118460000D01*
X128161428Y-118502857D01*
X128075714Y-118545714D01*
X127861428Y-118545714D01*
X127775714Y-118502857D01*
X127732857Y-118460000D01*
X127690000Y-118374285D01*
X127690000Y-118202857D01*
X127732857Y-118117142D01*
X127775714Y-118074285D01*
X127861428Y-118031428D01*
X121472857Y-117154285D02*
X121430000Y-117197142D01*
X121387142Y-117282857D01*
X121387142Y-117497142D01*
X121430000Y-117582857D01*
X121472857Y-117625714D01*
X121558571Y-117668571D01*
X121644285Y-117668571D01*
X121772857Y-117625714D01*
X122287142Y-117111428D01*
X122287142Y-117668571D01*
X121387142Y-118225714D02*
X121387142Y-118311428D01*
X121430000Y-118397142D01*
X121472857Y-118440000D01*
X121558571Y-118482857D01*
X121730000Y-118525714D01*
X121944285Y-118525714D01*
X122115714Y-118482857D01*
X122201428Y-118440000D01*
X122244285Y-118397142D01*
X122287142Y-118311428D01*
X122287142Y-118225714D01*
X122244285Y-118140000D01*
X122201428Y-118097142D01*
X122115714Y-118054285D01*
X121944285Y-118011428D01*
X121730000Y-118011428D01*
X121558571Y-118054285D01*
X121472857Y-118097142D01*
X121430000Y-118140000D01*
X121387142Y-118225714D01*
X114317142Y-111828571D02*
X114317142Y-111314285D01*
X114317142Y-111571428D02*
X113417142Y-111571428D01*
X113545714Y-111485714D01*
X113631428Y-111400000D01*
X113674285Y-111314285D01*
X114317142Y-112685714D02*
X114317142Y-112171428D01*
X114317142Y-112428571D02*
X113417142Y-112428571D01*
X113545714Y-112342857D01*
X113631428Y-112257142D01*
X113674285Y-112171428D01*
X122317142Y-111888571D02*
X122317142Y-111374285D01*
X122317142Y-111631428D02*
X121417142Y-111631428D01*
X121545714Y-111545714D01*
X121631428Y-111460000D01*
X121674285Y-111374285D01*
X122317142Y-112317142D02*
X122317142Y-112488571D01*
X122274285Y-112574285D01*
X122231428Y-112617142D01*
X122102857Y-112702857D01*
X121931428Y-112745714D01*
X121588571Y-112745714D01*
X121502857Y-112702857D01*
X121460000Y-112660000D01*
X121417142Y-112574285D01*
X121417142Y-112402857D01*
X121460000Y-112317142D01*
X121502857Y-112274285D01*
X121588571Y-112231428D01*
X121802857Y-112231428D01*
X121888571Y-112274285D01*
X121931428Y-112317142D01*
X121974285Y-112402857D01*
X121974285Y-112574285D01*
X121931428Y-112660000D01*
X121888571Y-112702857D01*
X121802857Y-112745714D01*
X131417142Y-117071428D02*
X131417142Y-117628571D01*
X131760000Y-117328571D01*
X131760000Y-117457142D01*
X131802857Y-117542857D01*
X131845714Y-117585714D01*
X131931428Y-117628571D01*
X132145714Y-117628571D01*
X132231428Y-117585714D01*
X132274285Y-117542857D01*
X132317142Y-117457142D01*
X132317142Y-117200000D01*
X132274285Y-117114285D01*
X132231428Y-117071428D01*
X131417142Y-118185714D02*
X131417142Y-118271428D01*
X131460000Y-118357142D01*
X131502857Y-118400000D01*
X131588571Y-118442857D01*
X131760000Y-118485714D01*
X131974285Y-118485714D01*
X132145714Y-118442857D01*
X132231428Y-118400000D01*
X132274285Y-118357142D01*
X132317142Y-118271428D01*
X132317142Y-118185714D01*
X132274285Y-118100000D01*
X132231428Y-118057142D01*
X132145714Y-118014285D01*
X131974285Y-117971428D01*
X131760000Y-117971428D01*
X131588571Y-118014285D01*
X131502857Y-118057142D01*
X131460000Y-118100000D01*
X131417142Y-118185714D01*
X116297142Y-117628571D02*
X116297142Y-117114285D01*
X116297142Y-117371428D02*
X115397142Y-117371428D01*
X115525714Y-117285714D01*
X115611428Y-117200000D01*
X115654285Y-117114285D01*
X115697142Y-118400000D02*
X116297142Y-118400000D01*
X115354285Y-118185714D02*
X115997142Y-117971428D01*
X115997142Y-118528571D01*
X114367142Y-117658571D02*
X114367142Y-117144285D01*
X114367142Y-117401428D02*
X113467142Y-117401428D01*
X113595714Y-117315714D01*
X113681428Y-117230000D01*
X113724285Y-117144285D01*
X113552857Y-118001428D02*
X113510000Y-118044285D01*
X113467142Y-118130000D01*
X113467142Y-118344285D01*
X113510000Y-118430000D01*
X113552857Y-118472857D01*
X113638571Y-118515714D01*
X113724285Y-118515714D01*
X113852857Y-118472857D01*
X114367142Y-117958571D01*
X114367142Y-118515714D01*
X149757142Y-111692857D02*
X150357142Y-111692857D01*
X149414285Y-111478571D02*
X150057142Y-111264285D01*
X150057142Y-111821428D01*
X149457142Y-112078571D02*
X149457142Y-112678571D01*
X150357142Y-112292857D01*
X137447142Y-111221428D02*
X137447142Y-111778571D01*
X137790000Y-111478571D01*
X137790000Y-111607142D01*
X137832857Y-111692857D01*
X137875714Y-111735714D01*
X137961428Y-111778571D01*
X138175714Y-111778571D01*
X138261428Y-111735714D01*
X138304285Y-111692857D01*
X138347142Y-111607142D01*
X138347142Y-111350000D01*
X138304285Y-111264285D01*
X138261428Y-111221428D01*
X137447142Y-112592857D02*
X137447142Y-112164285D01*
X137875714Y-112121428D01*
X137832857Y-112164285D01*
X137790000Y-112250000D01*
X137790000Y-112464285D01*
X137832857Y-112550000D01*
X137875714Y-112592857D01*
X137961428Y-112635714D01*
X138175714Y-112635714D01*
X138261428Y-112592857D01*
X138304285Y-112550000D01*
X138347142Y-112464285D01*
X138347142Y-112250000D01*
X138304285Y-112164285D01*
X138261428Y-112121428D01*
X151807142Y-111692857D02*
X152407142Y-111692857D01*
X151464285Y-111478571D02*
X152107142Y-111264285D01*
X152107142Y-111821428D01*
X152407142Y-112207142D02*
X152407142Y-112378571D01*
X152364285Y-112464285D01*
X152321428Y-112507142D01*
X152192857Y-112592857D01*
X152021428Y-112635714D01*
X151678571Y-112635714D01*
X151592857Y-112592857D01*
X151550000Y-112550000D01*
X151507142Y-112464285D01*
X151507142Y-112292857D01*
X151550000Y-112207142D01*
X151592857Y-112164285D01*
X151678571Y-112121428D01*
X151892857Y-112121428D01*
X151978571Y-112164285D01*
X152021428Y-112207142D01*
X152064285Y-112292857D01*
X152064285Y-112464285D01*
X152021428Y-112550000D01*
X151978571Y-112592857D01*
X151892857Y-112635714D01*
X147747142Y-111692857D02*
X148347142Y-111692857D01*
X147404285Y-111478571D02*
X148047142Y-111264285D01*
X148047142Y-111821428D01*
X147447142Y-112592857D02*
X147447142Y-112164285D01*
X147875714Y-112121428D01*
X147832857Y-112164285D01*
X147790000Y-112250000D01*
X147790000Y-112464285D01*
X147832857Y-112550000D01*
X147875714Y-112592857D01*
X147961428Y-112635714D01*
X148175714Y-112635714D01*
X148261428Y-112592857D01*
X148304285Y-112550000D01*
X148347142Y-112464285D01*
X148347142Y-112250000D01*
X148304285Y-112164285D01*
X148261428Y-112121428D01*
X159477142Y-111755714D02*
X159477142Y-111327142D01*
X159905714Y-111284285D01*
X159862857Y-111327142D01*
X159820000Y-111412857D01*
X159820000Y-111627142D01*
X159862857Y-111712857D01*
X159905714Y-111755714D01*
X159991428Y-111798571D01*
X160205714Y-111798571D01*
X160291428Y-111755714D01*
X160334285Y-111712857D01*
X160377142Y-111627142D01*
X160377142Y-111412857D01*
X160334285Y-111327142D01*
X160291428Y-111284285D01*
X159477142Y-112098571D02*
X159477142Y-112698571D01*
X160377142Y-112312857D01*
X139517142Y-117301428D02*
X139517142Y-117858571D01*
X139860000Y-117558571D01*
X139860000Y-117687142D01*
X139902857Y-117772857D01*
X139945714Y-117815714D01*
X140031428Y-117858571D01*
X140245714Y-117858571D01*
X140331428Y-117815714D01*
X140374285Y-117772857D01*
X140417142Y-117687142D01*
X140417142Y-117430000D01*
X140374285Y-117344285D01*
X140331428Y-117301428D01*
X139902857Y-118372857D02*
X139860000Y-118287142D01*
X139817142Y-118244285D01*
X139731428Y-118201428D01*
X139688571Y-118201428D01*
X139602857Y-118244285D01*
X139560000Y-118287142D01*
X139517142Y-118372857D01*
X139517142Y-118544285D01*
X139560000Y-118630000D01*
X139602857Y-118672857D01*
X139688571Y-118715714D01*
X139731428Y-118715714D01*
X139817142Y-118672857D01*
X139860000Y-118630000D01*
X139902857Y-118544285D01*
X139902857Y-118372857D01*
X139945714Y-118287142D01*
X139988571Y-118244285D01*
X140074285Y-118201428D01*
X140245714Y-118201428D01*
X140331428Y-118244285D01*
X140374285Y-118287142D01*
X140417142Y-118372857D01*
X140417142Y-118544285D01*
X140374285Y-118630000D01*
X140331428Y-118672857D01*
X140245714Y-118715714D01*
X140074285Y-118715714D01*
X139988571Y-118672857D01*
X139945714Y-118630000D01*
X139902857Y-118544285D01*
X163467142Y-117782857D02*
X163467142Y-117611428D01*
X163510000Y-117525714D01*
X163552857Y-117482857D01*
X163681428Y-117397142D01*
X163852857Y-117354285D01*
X164195714Y-117354285D01*
X164281428Y-117397142D01*
X164324285Y-117440000D01*
X164367142Y-117525714D01*
X164367142Y-117697142D01*
X164324285Y-117782857D01*
X164281428Y-117825714D01*
X164195714Y-117868571D01*
X163981428Y-117868571D01*
X163895714Y-117825714D01*
X163852857Y-117782857D01*
X163810000Y-117697142D01*
X163810000Y-117525714D01*
X163852857Y-117440000D01*
X163895714Y-117397142D01*
X163981428Y-117354285D01*
X163552857Y-118211428D02*
X163510000Y-118254285D01*
X163467142Y-118340000D01*
X163467142Y-118554285D01*
X163510000Y-118640000D01*
X163552857Y-118682857D01*
X163638571Y-118725714D01*
X163724285Y-118725714D01*
X163852857Y-118682857D01*
X164367142Y-118168571D01*
X164367142Y-118725714D01*
X167427142Y-117742857D02*
X167427142Y-117571428D01*
X167470000Y-117485714D01*
X167512857Y-117442857D01*
X167641428Y-117357142D01*
X167812857Y-117314285D01*
X168155714Y-117314285D01*
X168241428Y-117357142D01*
X168284285Y-117400000D01*
X168327142Y-117485714D01*
X168327142Y-117657142D01*
X168284285Y-117742857D01*
X168241428Y-117785714D01*
X168155714Y-117828571D01*
X167941428Y-117828571D01*
X167855714Y-117785714D01*
X167812857Y-117742857D01*
X167770000Y-117657142D01*
X167770000Y-117485714D01*
X167812857Y-117400000D01*
X167855714Y-117357142D01*
X167941428Y-117314285D01*
X167427142Y-118600000D02*
X167427142Y-118428571D01*
X167470000Y-118342857D01*
X167512857Y-118300000D01*
X167641428Y-118214285D01*
X167812857Y-118171428D01*
X168155714Y-118171428D01*
X168241428Y-118214285D01*
X168284285Y-118257142D01*
X168327142Y-118342857D01*
X168327142Y-118514285D01*
X168284285Y-118600000D01*
X168241428Y-118642857D01*
X168155714Y-118685714D01*
X167941428Y-118685714D01*
X167855714Y-118642857D01*
X167812857Y-118600000D01*
X167770000Y-118514285D01*
X167770000Y-118342857D01*
X167812857Y-118257142D01*
X167855714Y-118214285D01*
X167941428Y-118171428D01*
X177447142Y-111181428D02*
X177447142Y-111781428D01*
X178347142Y-111395714D01*
X177447142Y-112552857D02*
X177447142Y-112124285D01*
X177875714Y-112081428D01*
X177832857Y-112124285D01*
X177790000Y-112210000D01*
X177790000Y-112424285D01*
X177832857Y-112510000D01*
X177875714Y-112552857D01*
X177961428Y-112595714D01*
X178175714Y-112595714D01*
X178261428Y-112552857D01*
X178304285Y-112510000D01*
X178347142Y-112424285D01*
X178347142Y-112210000D01*
X178304285Y-112124285D01*
X178261428Y-112081428D01*
X145787142Y-117772857D02*
X146387142Y-117772857D01*
X145444285Y-117558571D02*
X146087142Y-117344285D01*
X146087142Y-117901428D01*
X145787142Y-118630000D02*
X146387142Y-118630000D01*
X145444285Y-118415714D02*
X146087142Y-118201428D01*
X146087142Y-118758571D01*
X153467142Y-111735714D02*
X153467142Y-111307142D01*
X153895714Y-111264285D01*
X153852857Y-111307142D01*
X153810000Y-111392857D01*
X153810000Y-111607142D01*
X153852857Y-111692857D01*
X153895714Y-111735714D01*
X153981428Y-111778571D01*
X154195714Y-111778571D01*
X154281428Y-111735714D01*
X154324285Y-111692857D01*
X154367142Y-111607142D01*
X154367142Y-111392857D01*
X154324285Y-111307142D01*
X154281428Y-111264285D01*
X154367142Y-112635714D02*
X154367142Y-112121428D01*
X154367142Y-112378571D02*
X153467142Y-112378571D01*
X153595714Y-112292857D01*
X153681428Y-112207142D01*
X153724285Y-112121428D01*
X157477142Y-117815714D02*
X157477142Y-117387142D01*
X157905714Y-117344285D01*
X157862857Y-117387142D01*
X157820000Y-117472857D01*
X157820000Y-117687142D01*
X157862857Y-117772857D01*
X157905714Y-117815714D01*
X157991428Y-117858571D01*
X158205714Y-117858571D01*
X158291428Y-117815714D01*
X158334285Y-117772857D01*
X158377142Y-117687142D01*
X158377142Y-117472857D01*
X158334285Y-117387142D01*
X158291428Y-117344285D01*
X157477142Y-118630000D02*
X157477142Y-118458571D01*
X157520000Y-118372857D01*
X157562857Y-118330000D01*
X157691428Y-118244285D01*
X157862857Y-118201428D01*
X158205714Y-118201428D01*
X158291428Y-118244285D01*
X158334285Y-118287142D01*
X158377142Y-118372857D01*
X158377142Y-118544285D01*
X158334285Y-118630000D01*
X158291428Y-118672857D01*
X158205714Y-118715714D01*
X157991428Y-118715714D01*
X157905714Y-118672857D01*
X157862857Y-118630000D01*
X157820000Y-118544285D01*
X157820000Y-118372857D01*
X157862857Y-118287142D01*
X157905714Y-118244285D01*
X157991428Y-118201428D01*
X157447142Y-111735714D02*
X157447142Y-111307142D01*
X157875714Y-111264285D01*
X157832857Y-111307142D01*
X157790000Y-111392857D01*
X157790000Y-111607142D01*
X157832857Y-111692857D01*
X157875714Y-111735714D01*
X157961428Y-111778571D01*
X158175714Y-111778571D01*
X158261428Y-111735714D01*
X158304285Y-111692857D01*
X158347142Y-111607142D01*
X158347142Y-111392857D01*
X158304285Y-111307142D01*
X158261428Y-111264285D01*
X157447142Y-112592857D02*
X157447142Y-112164285D01*
X157875714Y-112121428D01*
X157832857Y-112164285D01*
X157790000Y-112250000D01*
X157790000Y-112464285D01*
X157832857Y-112550000D01*
X157875714Y-112592857D01*
X157961428Y-112635714D01*
X158175714Y-112635714D01*
X158261428Y-112592857D01*
X158304285Y-112550000D01*
X158347142Y-112464285D01*
X158347142Y-112250000D01*
X158304285Y-112164285D01*
X158261428Y-112121428D01*
X161507142Y-117772857D02*
X161507142Y-117601428D01*
X161550000Y-117515714D01*
X161592857Y-117472857D01*
X161721428Y-117387142D01*
X161892857Y-117344285D01*
X162235714Y-117344285D01*
X162321428Y-117387142D01*
X162364285Y-117430000D01*
X162407142Y-117515714D01*
X162407142Y-117687142D01*
X162364285Y-117772857D01*
X162321428Y-117815714D01*
X162235714Y-117858571D01*
X162021428Y-117858571D01*
X161935714Y-117815714D01*
X161892857Y-117772857D01*
X161850000Y-117687142D01*
X161850000Y-117515714D01*
X161892857Y-117430000D01*
X161935714Y-117387142D01*
X162021428Y-117344285D01*
X161507142Y-118415714D02*
X161507142Y-118501428D01*
X161550000Y-118587142D01*
X161592857Y-118630000D01*
X161678571Y-118672857D01*
X161850000Y-118715714D01*
X162064285Y-118715714D01*
X162235714Y-118672857D01*
X162321428Y-118630000D01*
X162364285Y-118587142D01*
X162407142Y-118501428D01*
X162407142Y-118415714D01*
X162364285Y-118330000D01*
X162321428Y-118287142D01*
X162235714Y-118244285D01*
X162064285Y-118201428D01*
X161850000Y-118201428D01*
X161678571Y-118244285D01*
X161592857Y-118287142D01*
X161550000Y-118330000D01*
X161507142Y-118415714D01*
X147777142Y-117772857D02*
X148377142Y-117772857D01*
X147434285Y-117558571D02*
X148077142Y-117344285D01*
X148077142Y-117901428D01*
X147477142Y-118630000D02*
X147477142Y-118458571D01*
X147520000Y-118372857D01*
X147562857Y-118330000D01*
X147691428Y-118244285D01*
X147862857Y-118201428D01*
X148205714Y-118201428D01*
X148291428Y-118244285D01*
X148334285Y-118287142D01*
X148377142Y-118372857D01*
X148377142Y-118544285D01*
X148334285Y-118630000D01*
X148291428Y-118672857D01*
X148205714Y-118715714D01*
X147991428Y-118715714D01*
X147905714Y-118672857D01*
X147862857Y-118630000D01*
X147820000Y-118544285D01*
X147820000Y-118372857D01*
X147862857Y-118287142D01*
X147905714Y-118244285D01*
X147991428Y-118201428D01*
X171427142Y-117261428D02*
X171427142Y-117861428D01*
X172327142Y-117475714D01*
X171427142Y-118375714D02*
X171427142Y-118461428D01*
X171470000Y-118547142D01*
X171512857Y-118590000D01*
X171598571Y-118632857D01*
X171770000Y-118675714D01*
X171984285Y-118675714D01*
X172155714Y-118632857D01*
X172241428Y-118590000D01*
X172284285Y-118547142D01*
X172327142Y-118461428D01*
X172327142Y-118375714D01*
X172284285Y-118290000D01*
X172241428Y-118247142D01*
X172155714Y-118204285D01*
X171984285Y-118161428D01*
X171770000Y-118161428D01*
X171598571Y-118204285D01*
X171512857Y-118247142D01*
X171470000Y-118290000D01*
X171427142Y-118375714D01*
X179467142Y-111231428D02*
X179467142Y-111831428D01*
X180367142Y-111445714D01*
X179467142Y-112088571D02*
X179467142Y-112688571D01*
X180367142Y-112302857D01*
X141447142Y-111221428D02*
X141447142Y-111778571D01*
X141790000Y-111478571D01*
X141790000Y-111607142D01*
X141832857Y-111692857D01*
X141875714Y-111735714D01*
X141961428Y-111778571D01*
X142175714Y-111778571D01*
X142261428Y-111735714D01*
X142304285Y-111692857D01*
X142347142Y-111607142D01*
X142347142Y-111350000D01*
X142304285Y-111264285D01*
X142261428Y-111221428D01*
X142347142Y-112207142D02*
X142347142Y-112378571D01*
X142304285Y-112464285D01*
X142261428Y-112507142D01*
X142132857Y-112592857D01*
X141961428Y-112635714D01*
X141618571Y-112635714D01*
X141532857Y-112592857D01*
X141490000Y-112550000D01*
X141447142Y-112464285D01*
X141447142Y-112292857D01*
X141490000Y-112207142D01*
X141532857Y-112164285D01*
X141618571Y-112121428D01*
X141832857Y-112121428D01*
X141918571Y-112164285D01*
X141961428Y-112207142D01*
X142004285Y-112292857D01*
X142004285Y-112464285D01*
X141961428Y-112550000D01*
X141918571Y-112592857D01*
X141832857Y-112635714D01*
X135487142Y-117301428D02*
X135487142Y-117858571D01*
X135830000Y-117558571D01*
X135830000Y-117687142D01*
X135872857Y-117772857D01*
X135915714Y-117815714D01*
X136001428Y-117858571D01*
X136215714Y-117858571D01*
X136301428Y-117815714D01*
X136344285Y-117772857D01*
X136387142Y-117687142D01*
X136387142Y-117430000D01*
X136344285Y-117344285D01*
X136301428Y-117301428D01*
X135787142Y-118630000D02*
X136387142Y-118630000D01*
X135444285Y-118415714D02*
X136087142Y-118201428D01*
X136087142Y-118758571D01*
X165467142Y-117762857D02*
X165467142Y-117591428D01*
X165510000Y-117505714D01*
X165552857Y-117462857D01*
X165681428Y-117377142D01*
X165852857Y-117334285D01*
X166195714Y-117334285D01*
X166281428Y-117377142D01*
X166324285Y-117420000D01*
X166367142Y-117505714D01*
X166367142Y-117677142D01*
X166324285Y-117762857D01*
X166281428Y-117805714D01*
X166195714Y-117848571D01*
X165981428Y-117848571D01*
X165895714Y-117805714D01*
X165852857Y-117762857D01*
X165810000Y-117677142D01*
X165810000Y-117505714D01*
X165852857Y-117420000D01*
X165895714Y-117377142D01*
X165981428Y-117334285D01*
X165767142Y-118620000D02*
X166367142Y-118620000D01*
X165424285Y-118405714D02*
X166067142Y-118191428D01*
X166067142Y-118748571D01*
X181842857Y-117545714D02*
X181800000Y-117460000D01*
X181757142Y-117417142D01*
X181671428Y-117374285D01*
X181628571Y-117374285D01*
X181542857Y-117417142D01*
X181500000Y-117460000D01*
X181457142Y-117545714D01*
X181457142Y-117717142D01*
X181500000Y-117802857D01*
X181542857Y-117845714D01*
X181628571Y-117888571D01*
X181671428Y-117888571D01*
X181757142Y-117845714D01*
X181800000Y-117802857D01*
X181842857Y-117717142D01*
X181842857Y-117545714D01*
X181885714Y-117460000D01*
X181928571Y-117417142D01*
X182014285Y-117374285D01*
X182185714Y-117374285D01*
X182271428Y-117417142D01*
X182314285Y-117460000D01*
X182357142Y-117545714D01*
X182357142Y-117717142D01*
X182314285Y-117802857D01*
X182271428Y-117845714D01*
X182185714Y-117888571D01*
X182014285Y-117888571D01*
X181928571Y-117845714D01*
X181885714Y-117802857D01*
X181842857Y-117717142D01*
X181457142Y-118445714D02*
X181457142Y-118531428D01*
X181500000Y-118617142D01*
X181542857Y-118660000D01*
X181628571Y-118702857D01*
X181800000Y-118745714D01*
X182014285Y-118745714D01*
X182185714Y-118702857D01*
X182271428Y-118660000D01*
X182314285Y-118617142D01*
X182357142Y-118531428D01*
X182357142Y-118445714D01*
X182314285Y-118360000D01*
X182271428Y-118317142D01*
X182185714Y-118274285D01*
X182014285Y-118231428D01*
X181800000Y-118231428D01*
X181628571Y-118274285D01*
X181542857Y-118317142D01*
X181500000Y-118360000D01*
X181457142Y-118445714D01*
X135457142Y-111221428D02*
X135457142Y-111778571D01*
X135800000Y-111478571D01*
X135800000Y-111607142D01*
X135842857Y-111692857D01*
X135885714Y-111735714D01*
X135971428Y-111778571D01*
X136185714Y-111778571D01*
X136271428Y-111735714D01*
X136314285Y-111692857D01*
X136357142Y-111607142D01*
X136357142Y-111350000D01*
X136314285Y-111264285D01*
X136271428Y-111221428D01*
X135457142Y-112078571D02*
X135457142Y-112635714D01*
X135800000Y-112335714D01*
X135800000Y-112464285D01*
X135842857Y-112550000D01*
X135885714Y-112592857D01*
X135971428Y-112635714D01*
X136185714Y-112635714D01*
X136271428Y-112592857D01*
X136314285Y-112550000D01*
X136357142Y-112464285D01*
X136357142Y-112207142D01*
X136314285Y-112121428D01*
X136271428Y-112078571D01*
X145757142Y-111692857D02*
X146357142Y-111692857D01*
X145414285Y-111478571D02*
X146057142Y-111264285D01*
X146057142Y-111821428D01*
X145457142Y-112078571D02*
X145457142Y-112635714D01*
X145800000Y-112335714D01*
X145800000Y-112464285D01*
X145842857Y-112550000D01*
X145885714Y-112592857D01*
X145971428Y-112635714D01*
X146185714Y-112635714D01*
X146271428Y-112592857D01*
X146314285Y-112550000D01*
X146357142Y-112464285D01*
X146357142Y-112207142D01*
X146314285Y-112121428D01*
X146271428Y-112078571D01*
X143827142Y-117772857D02*
X144427142Y-117772857D01*
X143484285Y-117558571D02*
X144127142Y-117344285D01*
X144127142Y-117901428D01*
X143612857Y-118201428D02*
X143570000Y-118244285D01*
X143527142Y-118330000D01*
X143527142Y-118544285D01*
X143570000Y-118630000D01*
X143612857Y-118672857D01*
X143698571Y-118715714D01*
X143784285Y-118715714D01*
X143912857Y-118672857D01*
X144427142Y-118158571D01*
X144427142Y-118715714D01*
X163417142Y-111662857D02*
X163417142Y-111491428D01*
X163460000Y-111405714D01*
X163502857Y-111362857D01*
X163631428Y-111277142D01*
X163802857Y-111234285D01*
X164145714Y-111234285D01*
X164231428Y-111277142D01*
X164274285Y-111320000D01*
X164317142Y-111405714D01*
X164317142Y-111577142D01*
X164274285Y-111662857D01*
X164231428Y-111705714D01*
X164145714Y-111748571D01*
X163931428Y-111748571D01*
X163845714Y-111705714D01*
X163802857Y-111662857D01*
X163760000Y-111577142D01*
X163760000Y-111405714D01*
X163802857Y-111320000D01*
X163845714Y-111277142D01*
X163931428Y-111234285D01*
X164317142Y-112605714D02*
X164317142Y-112091428D01*
X164317142Y-112348571D02*
X163417142Y-112348571D01*
X163545714Y-112262857D01*
X163631428Y-112177142D01*
X163674285Y-112091428D01*
X151537142Y-117815714D02*
X151537142Y-117387142D01*
X151965714Y-117344285D01*
X151922857Y-117387142D01*
X151880000Y-117472857D01*
X151880000Y-117687142D01*
X151922857Y-117772857D01*
X151965714Y-117815714D01*
X152051428Y-117858571D01*
X152265714Y-117858571D01*
X152351428Y-117815714D01*
X152394285Y-117772857D01*
X152437142Y-117687142D01*
X152437142Y-117472857D01*
X152394285Y-117387142D01*
X152351428Y-117344285D01*
X151537142Y-118415714D02*
X151537142Y-118501428D01*
X151580000Y-118587142D01*
X151622857Y-118630000D01*
X151708571Y-118672857D01*
X151880000Y-118715714D01*
X152094285Y-118715714D01*
X152265714Y-118672857D01*
X152351428Y-118630000D01*
X152394285Y-118587142D01*
X152437142Y-118501428D01*
X152437142Y-118415714D01*
X152394285Y-118330000D01*
X152351428Y-118287142D01*
X152265714Y-118244285D01*
X152094285Y-118201428D01*
X151880000Y-118201428D01*
X151708571Y-118244285D01*
X151622857Y-118287142D01*
X151580000Y-118330000D01*
X151537142Y-118415714D01*
X165477142Y-111662857D02*
X165477142Y-111491428D01*
X165520000Y-111405714D01*
X165562857Y-111362857D01*
X165691428Y-111277142D01*
X165862857Y-111234285D01*
X166205714Y-111234285D01*
X166291428Y-111277142D01*
X166334285Y-111320000D01*
X166377142Y-111405714D01*
X166377142Y-111577142D01*
X166334285Y-111662857D01*
X166291428Y-111705714D01*
X166205714Y-111748571D01*
X165991428Y-111748571D01*
X165905714Y-111705714D01*
X165862857Y-111662857D01*
X165820000Y-111577142D01*
X165820000Y-111405714D01*
X165862857Y-111320000D01*
X165905714Y-111277142D01*
X165991428Y-111234285D01*
X165477142Y-112048571D02*
X165477142Y-112605714D01*
X165820000Y-112305714D01*
X165820000Y-112434285D01*
X165862857Y-112520000D01*
X165905714Y-112562857D01*
X165991428Y-112605714D01*
X166205714Y-112605714D01*
X166291428Y-112562857D01*
X166334285Y-112520000D01*
X166377142Y-112434285D01*
X166377142Y-112177142D01*
X166334285Y-112091428D01*
X166291428Y-112048571D01*
X169467142Y-111642857D02*
X169467142Y-111471428D01*
X169510000Y-111385714D01*
X169552857Y-111342857D01*
X169681428Y-111257142D01*
X169852857Y-111214285D01*
X170195714Y-111214285D01*
X170281428Y-111257142D01*
X170324285Y-111300000D01*
X170367142Y-111385714D01*
X170367142Y-111557142D01*
X170324285Y-111642857D01*
X170281428Y-111685714D01*
X170195714Y-111728571D01*
X169981428Y-111728571D01*
X169895714Y-111685714D01*
X169852857Y-111642857D01*
X169810000Y-111557142D01*
X169810000Y-111385714D01*
X169852857Y-111300000D01*
X169895714Y-111257142D01*
X169981428Y-111214285D01*
X169467142Y-112028571D02*
X169467142Y-112628571D01*
X170367142Y-112242857D01*
X141777142Y-117772857D02*
X142377142Y-117772857D01*
X141434285Y-117558571D02*
X142077142Y-117344285D01*
X142077142Y-117901428D01*
X141477142Y-118415714D02*
X141477142Y-118501428D01*
X141520000Y-118587142D01*
X141562857Y-118630000D01*
X141648571Y-118672857D01*
X141820000Y-118715714D01*
X142034285Y-118715714D01*
X142205714Y-118672857D01*
X142291428Y-118630000D01*
X142334285Y-118587142D01*
X142377142Y-118501428D01*
X142377142Y-118415714D01*
X142334285Y-118330000D01*
X142291428Y-118287142D01*
X142205714Y-118244285D01*
X142034285Y-118201428D01*
X141820000Y-118201428D01*
X141648571Y-118244285D01*
X141562857Y-118287142D01*
X141520000Y-118330000D01*
X141477142Y-118415714D01*
X137477142Y-117301428D02*
X137477142Y-117858571D01*
X137820000Y-117558571D01*
X137820000Y-117687142D01*
X137862857Y-117772857D01*
X137905714Y-117815714D01*
X137991428Y-117858571D01*
X138205714Y-117858571D01*
X138291428Y-117815714D01*
X138334285Y-117772857D01*
X138377142Y-117687142D01*
X138377142Y-117430000D01*
X138334285Y-117344285D01*
X138291428Y-117301428D01*
X137477142Y-118630000D02*
X137477142Y-118458571D01*
X137520000Y-118372857D01*
X137562857Y-118330000D01*
X137691428Y-118244285D01*
X137862857Y-118201428D01*
X138205714Y-118201428D01*
X138291428Y-118244285D01*
X138334285Y-118287142D01*
X138377142Y-118372857D01*
X138377142Y-118544285D01*
X138334285Y-118630000D01*
X138291428Y-118672857D01*
X138205714Y-118715714D01*
X137991428Y-118715714D01*
X137905714Y-118672857D01*
X137862857Y-118630000D01*
X137820000Y-118544285D01*
X137820000Y-118372857D01*
X137862857Y-118287142D01*
X137905714Y-118244285D01*
X137991428Y-118201428D01*
X173457142Y-117281428D02*
X173457142Y-117881428D01*
X174357142Y-117495714D01*
X173542857Y-118181428D02*
X173500000Y-118224285D01*
X173457142Y-118310000D01*
X173457142Y-118524285D01*
X173500000Y-118610000D01*
X173542857Y-118652857D01*
X173628571Y-118695714D01*
X173714285Y-118695714D01*
X173842857Y-118652857D01*
X174357142Y-118138571D01*
X174357142Y-118695714D01*
X175447142Y-117291428D02*
X175447142Y-117891428D01*
X176347142Y-117505714D01*
X175747142Y-118620000D02*
X176347142Y-118620000D01*
X175404285Y-118405714D02*
X176047142Y-118191428D01*
X176047142Y-118748571D01*
X175487142Y-111171428D02*
X175487142Y-111771428D01*
X176387142Y-111385714D01*
X175487142Y-112028571D02*
X175487142Y-112585714D01*
X175830000Y-112285714D01*
X175830000Y-112414285D01*
X175872857Y-112500000D01*
X175915714Y-112542857D01*
X176001428Y-112585714D01*
X176215714Y-112585714D01*
X176301428Y-112542857D01*
X176344285Y-112500000D01*
X176387142Y-112414285D01*
X176387142Y-112157142D01*
X176344285Y-112071428D01*
X176301428Y-112028571D01*
X179467142Y-117301428D02*
X179467142Y-117901428D01*
X180367142Y-117515714D01*
X179852857Y-118372857D02*
X179810000Y-118287142D01*
X179767142Y-118244285D01*
X179681428Y-118201428D01*
X179638571Y-118201428D01*
X179552857Y-118244285D01*
X179510000Y-118287142D01*
X179467142Y-118372857D01*
X179467142Y-118544285D01*
X179510000Y-118630000D01*
X179552857Y-118672857D01*
X179638571Y-118715714D01*
X179681428Y-118715714D01*
X179767142Y-118672857D01*
X179810000Y-118630000D01*
X179852857Y-118544285D01*
X179852857Y-118372857D01*
X179895714Y-118287142D01*
X179938571Y-118244285D01*
X180024285Y-118201428D01*
X180195714Y-118201428D01*
X180281428Y-118244285D01*
X180324285Y-118287142D01*
X180367142Y-118372857D01*
X180367142Y-118544285D01*
X180324285Y-118630000D01*
X180281428Y-118672857D01*
X180195714Y-118715714D01*
X180024285Y-118715714D01*
X179938571Y-118672857D01*
X179895714Y-118630000D01*
X179852857Y-118544285D01*
X131542857Y-111364285D02*
X131500000Y-111407142D01*
X131457142Y-111492857D01*
X131457142Y-111707142D01*
X131500000Y-111792857D01*
X131542857Y-111835714D01*
X131628571Y-111878571D01*
X131714285Y-111878571D01*
X131842857Y-111835714D01*
X132357142Y-111321428D01*
X132357142Y-111878571D01*
X132357142Y-112307142D02*
X132357142Y-112478571D01*
X132314285Y-112564285D01*
X132271428Y-112607142D01*
X132142857Y-112692857D01*
X131971428Y-112735714D01*
X131628571Y-112735714D01*
X131542857Y-112692857D01*
X131500000Y-112650000D01*
X131457142Y-112564285D01*
X131457142Y-112392857D01*
X131500000Y-112307142D01*
X131542857Y-112264285D01*
X131628571Y-112221428D01*
X131842857Y-112221428D01*
X131928571Y-112264285D01*
X131971428Y-112307142D01*
X132014285Y-112392857D01*
X132014285Y-112564285D01*
X131971428Y-112650000D01*
X131928571Y-112692857D01*
X131842857Y-112735714D01*
X133407142Y-111221428D02*
X133407142Y-111778571D01*
X133750000Y-111478571D01*
X133750000Y-111607142D01*
X133792857Y-111692857D01*
X133835714Y-111735714D01*
X133921428Y-111778571D01*
X134135714Y-111778571D01*
X134221428Y-111735714D01*
X134264285Y-111692857D01*
X134307142Y-111607142D01*
X134307142Y-111350000D01*
X134264285Y-111264285D01*
X134221428Y-111221428D01*
X134307142Y-112635714D02*
X134307142Y-112121428D01*
X134307142Y-112378571D02*
X133407142Y-112378571D01*
X133535714Y-112292857D01*
X133621428Y-112207142D01*
X133664285Y-112121428D01*
X133437142Y-117301428D02*
X133437142Y-117858571D01*
X133780000Y-117558571D01*
X133780000Y-117687142D01*
X133822857Y-117772857D01*
X133865714Y-117815714D01*
X133951428Y-117858571D01*
X134165714Y-117858571D01*
X134251428Y-117815714D01*
X134294285Y-117772857D01*
X134337142Y-117687142D01*
X134337142Y-117430000D01*
X134294285Y-117344285D01*
X134251428Y-117301428D01*
X133522857Y-118201428D02*
X133480000Y-118244285D01*
X133437142Y-118330000D01*
X133437142Y-118544285D01*
X133480000Y-118630000D01*
X133522857Y-118672857D01*
X133608571Y-118715714D01*
X133694285Y-118715714D01*
X133822857Y-118672857D01*
X134337142Y-118158571D01*
X134337142Y-118715714D01*
X171427142Y-111612857D02*
X171427142Y-111441428D01*
X171470000Y-111355714D01*
X171512857Y-111312857D01*
X171641428Y-111227142D01*
X171812857Y-111184285D01*
X172155714Y-111184285D01*
X172241428Y-111227142D01*
X172284285Y-111270000D01*
X172327142Y-111355714D01*
X172327142Y-111527142D01*
X172284285Y-111612857D01*
X172241428Y-111655714D01*
X172155714Y-111698571D01*
X171941428Y-111698571D01*
X171855714Y-111655714D01*
X171812857Y-111612857D01*
X171770000Y-111527142D01*
X171770000Y-111355714D01*
X171812857Y-111270000D01*
X171855714Y-111227142D01*
X171941428Y-111184285D01*
X172327142Y-112127142D02*
X172327142Y-112298571D01*
X172284285Y-112384285D01*
X172241428Y-112427142D01*
X172112857Y-112512857D01*
X171941428Y-112555714D01*
X171598571Y-112555714D01*
X171512857Y-112512857D01*
X171470000Y-112470000D01*
X171427142Y-112384285D01*
X171427142Y-112212857D01*
X171470000Y-112127142D01*
X171512857Y-112084285D01*
X171598571Y-112041428D01*
X171812857Y-112041428D01*
X171898571Y-112084285D01*
X171941428Y-112127142D01*
X171984285Y-112212857D01*
X171984285Y-112384285D01*
X171941428Y-112470000D01*
X171898571Y-112512857D01*
X171812857Y-112555714D01*
X139487142Y-111221428D02*
X139487142Y-111778571D01*
X139830000Y-111478571D01*
X139830000Y-111607142D01*
X139872857Y-111692857D01*
X139915714Y-111735714D01*
X140001428Y-111778571D01*
X140215714Y-111778571D01*
X140301428Y-111735714D01*
X140344285Y-111692857D01*
X140387142Y-111607142D01*
X140387142Y-111350000D01*
X140344285Y-111264285D01*
X140301428Y-111221428D01*
X139487142Y-112078571D02*
X139487142Y-112678571D01*
X140387142Y-112292857D01*
X177437142Y-117311428D02*
X177437142Y-117911428D01*
X178337142Y-117525714D01*
X177437142Y-118640000D02*
X177437142Y-118468571D01*
X177480000Y-118382857D01*
X177522857Y-118340000D01*
X177651428Y-118254285D01*
X177822857Y-118211428D01*
X178165714Y-118211428D01*
X178251428Y-118254285D01*
X178294285Y-118297142D01*
X178337142Y-118382857D01*
X178337142Y-118554285D01*
X178294285Y-118640000D01*
X178251428Y-118682857D01*
X178165714Y-118725714D01*
X177951428Y-118725714D01*
X177865714Y-118682857D01*
X177822857Y-118640000D01*
X177780000Y-118554285D01*
X177780000Y-118382857D01*
X177822857Y-118297142D01*
X177865714Y-118254285D01*
X177951428Y-118211428D01*
X143797142Y-111692857D02*
X144397142Y-111692857D01*
X143454285Y-111478571D02*
X144097142Y-111264285D01*
X144097142Y-111821428D01*
X144397142Y-112635714D02*
X144397142Y-112121428D01*
X144397142Y-112378571D02*
X143497142Y-112378571D01*
X143625714Y-112292857D01*
X143711428Y-112207142D01*
X143754285Y-112121428D01*
X161437142Y-111705714D02*
X161437142Y-111277142D01*
X161865714Y-111234285D01*
X161822857Y-111277142D01*
X161780000Y-111362857D01*
X161780000Y-111577142D01*
X161822857Y-111662857D01*
X161865714Y-111705714D01*
X161951428Y-111748571D01*
X162165714Y-111748571D01*
X162251428Y-111705714D01*
X162294285Y-111662857D01*
X162337142Y-111577142D01*
X162337142Y-111362857D01*
X162294285Y-111277142D01*
X162251428Y-111234285D01*
X162337142Y-112177142D02*
X162337142Y-112348571D01*
X162294285Y-112434285D01*
X162251428Y-112477142D01*
X162122857Y-112562857D01*
X161951428Y-112605714D01*
X161608571Y-112605714D01*
X161522857Y-112562857D01*
X161480000Y-112520000D01*
X161437142Y-112434285D01*
X161437142Y-112262857D01*
X161480000Y-112177142D01*
X161522857Y-112134285D01*
X161608571Y-112091428D01*
X161822857Y-112091428D01*
X161908571Y-112134285D01*
X161951428Y-112177142D01*
X161994285Y-112262857D01*
X161994285Y-112434285D01*
X161951428Y-112520000D01*
X161908571Y-112562857D01*
X161822857Y-112605714D01*
X159517142Y-117815714D02*
X159517142Y-117387142D01*
X159945714Y-117344285D01*
X159902857Y-117387142D01*
X159860000Y-117472857D01*
X159860000Y-117687142D01*
X159902857Y-117772857D01*
X159945714Y-117815714D01*
X160031428Y-117858571D01*
X160245714Y-117858571D01*
X160331428Y-117815714D01*
X160374285Y-117772857D01*
X160417142Y-117687142D01*
X160417142Y-117472857D01*
X160374285Y-117387142D01*
X160331428Y-117344285D01*
X159902857Y-118372857D02*
X159860000Y-118287142D01*
X159817142Y-118244285D01*
X159731428Y-118201428D01*
X159688571Y-118201428D01*
X159602857Y-118244285D01*
X159560000Y-118287142D01*
X159517142Y-118372857D01*
X159517142Y-118544285D01*
X159560000Y-118630000D01*
X159602857Y-118672857D01*
X159688571Y-118715714D01*
X159731428Y-118715714D01*
X159817142Y-118672857D01*
X159860000Y-118630000D01*
X159902857Y-118544285D01*
X159902857Y-118372857D01*
X159945714Y-118287142D01*
X159988571Y-118244285D01*
X160074285Y-118201428D01*
X160245714Y-118201428D01*
X160331428Y-118244285D01*
X160374285Y-118287142D01*
X160417142Y-118372857D01*
X160417142Y-118544285D01*
X160374285Y-118630000D01*
X160331428Y-118672857D01*
X160245714Y-118715714D01*
X160074285Y-118715714D01*
X159988571Y-118672857D01*
X159945714Y-118630000D01*
X159902857Y-118544285D01*
X155487142Y-117815714D02*
X155487142Y-117387142D01*
X155915714Y-117344285D01*
X155872857Y-117387142D01*
X155830000Y-117472857D01*
X155830000Y-117687142D01*
X155872857Y-117772857D01*
X155915714Y-117815714D01*
X156001428Y-117858571D01*
X156215714Y-117858571D01*
X156301428Y-117815714D01*
X156344285Y-117772857D01*
X156387142Y-117687142D01*
X156387142Y-117472857D01*
X156344285Y-117387142D01*
X156301428Y-117344285D01*
X155787142Y-118630000D02*
X156387142Y-118630000D01*
X155444285Y-118415714D02*
X156087142Y-118201428D01*
X156087142Y-118758571D01*
X173457142Y-111141428D02*
X173457142Y-111741428D01*
X174357142Y-111355714D01*
X174357142Y-112555714D02*
X174357142Y-112041428D01*
X174357142Y-112298571D02*
X173457142Y-112298571D01*
X173585714Y-112212857D01*
X173671428Y-112127142D01*
X173714285Y-112041428D01*
X155457142Y-111735714D02*
X155457142Y-111307142D01*
X155885714Y-111264285D01*
X155842857Y-111307142D01*
X155800000Y-111392857D01*
X155800000Y-111607142D01*
X155842857Y-111692857D01*
X155885714Y-111735714D01*
X155971428Y-111778571D01*
X156185714Y-111778571D01*
X156271428Y-111735714D01*
X156314285Y-111692857D01*
X156357142Y-111607142D01*
X156357142Y-111392857D01*
X156314285Y-111307142D01*
X156271428Y-111264285D01*
X155457142Y-112078571D02*
X155457142Y-112635714D01*
X155800000Y-112335714D01*
X155800000Y-112464285D01*
X155842857Y-112550000D01*
X155885714Y-112592857D01*
X155971428Y-112635714D01*
X156185714Y-112635714D01*
X156271428Y-112592857D01*
X156314285Y-112550000D01*
X156357142Y-112464285D01*
X156357142Y-112207142D01*
X156314285Y-112121428D01*
X156271428Y-112078571D01*
X169457142Y-117742857D02*
X169457142Y-117571428D01*
X169500000Y-117485714D01*
X169542857Y-117442857D01*
X169671428Y-117357142D01*
X169842857Y-117314285D01*
X170185714Y-117314285D01*
X170271428Y-117357142D01*
X170314285Y-117400000D01*
X170357142Y-117485714D01*
X170357142Y-117657142D01*
X170314285Y-117742857D01*
X170271428Y-117785714D01*
X170185714Y-117828571D01*
X169971428Y-117828571D01*
X169885714Y-117785714D01*
X169842857Y-117742857D01*
X169800000Y-117657142D01*
X169800000Y-117485714D01*
X169842857Y-117400000D01*
X169885714Y-117357142D01*
X169971428Y-117314285D01*
X169842857Y-118342857D02*
X169800000Y-118257142D01*
X169757142Y-118214285D01*
X169671428Y-118171428D01*
X169628571Y-118171428D01*
X169542857Y-118214285D01*
X169500000Y-118257142D01*
X169457142Y-118342857D01*
X169457142Y-118514285D01*
X169500000Y-118600000D01*
X169542857Y-118642857D01*
X169628571Y-118685714D01*
X169671428Y-118685714D01*
X169757142Y-118642857D01*
X169800000Y-118600000D01*
X169842857Y-118514285D01*
X169842857Y-118342857D01*
X169885714Y-118257142D01*
X169928571Y-118214285D01*
X170014285Y-118171428D01*
X170185714Y-118171428D01*
X170271428Y-118214285D01*
X170314285Y-118257142D01*
X170357142Y-118342857D01*
X170357142Y-118514285D01*
X170314285Y-118600000D01*
X170271428Y-118642857D01*
X170185714Y-118685714D01*
X170014285Y-118685714D01*
X169928571Y-118642857D01*
X169885714Y-118600000D01*
X169842857Y-118514285D01*
X167457142Y-111642857D02*
X167457142Y-111471428D01*
X167500000Y-111385714D01*
X167542857Y-111342857D01*
X167671428Y-111257142D01*
X167842857Y-111214285D01*
X168185714Y-111214285D01*
X168271428Y-111257142D01*
X168314285Y-111300000D01*
X168357142Y-111385714D01*
X168357142Y-111557142D01*
X168314285Y-111642857D01*
X168271428Y-111685714D01*
X168185714Y-111728571D01*
X167971428Y-111728571D01*
X167885714Y-111685714D01*
X167842857Y-111642857D01*
X167800000Y-111557142D01*
X167800000Y-111385714D01*
X167842857Y-111300000D01*
X167885714Y-111257142D01*
X167971428Y-111214285D01*
X167457142Y-112542857D02*
X167457142Y-112114285D01*
X167885714Y-112071428D01*
X167842857Y-112114285D01*
X167800000Y-112200000D01*
X167800000Y-112414285D01*
X167842857Y-112500000D01*
X167885714Y-112542857D01*
X167971428Y-112585714D01*
X168185714Y-112585714D01*
X168271428Y-112542857D01*
X168314285Y-112500000D01*
X168357142Y-112414285D01*
X168357142Y-112200000D01*
X168314285Y-112114285D01*
X168271428Y-112071428D01*
X181467142Y-111231428D02*
X181467142Y-111831428D01*
X182367142Y-111445714D01*
X182367142Y-112217142D02*
X182367142Y-112388571D01*
X182324285Y-112474285D01*
X182281428Y-112517142D01*
X182152857Y-112602857D01*
X181981428Y-112645714D01*
X181638571Y-112645714D01*
X181552857Y-112602857D01*
X181510000Y-112560000D01*
X181467142Y-112474285D01*
X181467142Y-112302857D01*
X181510000Y-112217142D01*
X181552857Y-112174285D01*
X181638571Y-112131428D01*
X181852857Y-112131428D01*
X181938571Y-112174285D01*
X181981428Y-112217142D01*
X182024285Y-112302857D01*
X182024285Y-112474285D01*
X181981428Y-112560000D01*
X181938571Y-112602857D01*
X181852857Y-112645714D01*
X153497142Y-117815714D02*
X153497142Y-117387142D01*
X153925714Y-117344285D01*
X153882857Y-117387142D01*
X153840000Y-117472857D01*
X153840000Y-117687142D01*
X153882857Y-117772857D01*
X153925714Y-117815714D01*
X154011428Y-117858571D01*
X154225714Y-117858571D01*
X154311428Y-117815714D01*
X154354285Y-117772857D01*
X154397142Y-117687142D01*
X154397142Y-117472857D01*
X154354285Y-117387142D01*
X154311428Y-117344285D01*
X153582857Y-118201428D02*
X153540000Y-118244285D01*
X153497142Y-118330000D01*
X153497142Y-118544285D01*
X153540000Y-118630000D01*
X153582857Y-118672857D01*
X153668571Y-118715714D01*
X153754285Y-118715714D01*
X153882857Y-118672857D01*
X154397142Y-118158571D01*
X154397142Y-118715714D01*
X149787142Y-117772857D02*
X150387142Y-117772857D01*
X149444285Y-117558571D02*
X150087142Y-117344285D01*
X150087142Y-117901428D01*
X149872857Y-118372857D02*
X149830000Y-118287142D01*
X149787142Y-118244285D01*
X149701428Y-118201428D01*
X149658571Y-118201428D01*
X149572857Y-118244285D01*
X149530000Y-118287142D01*
X149487142Y-118372857D01*
X149487142Y-118544285D01*
X149530000Y-118630000D01*
X149572857Y-118672857D01*
X149658571Y-118715714D01*
X149701428Y-118715714D01*
X149787142Y-118672857D01*
X149830000Y-118630000D01*
X149872857Y-118544285D01*
X149872857Y-118372857D01*
X149915714Y-118287142D01*
X149958571Y-118244285D01*
X150044285Y-118201428D01*
X150215714Y-118201428D01*
X150301428Y-118244285D01*
X150344285Y-118287142D01*
X150387142Y-118372857D01*
X150387142Y-118544285D01*
X150344285Y-118630000D01*
X150301428Y-118672857D01*
X150215714Y-118715714D01*
X150044285Y-118715714D01*
X149958571Y-118672857D01*
X149915714Y-118630000D01*
X149872857Y-118544285D01*
X117032857Y-69052142D02*
X117032857Y-68152142D01*
X116647142Y-69052142D02*
X116647142Y-68580714D01*
X116690000Y-68495000D01*
X116775714Y-68452142D01*
X116904285Y-68452142D01*
X116990000Y-68495000D01*
X117032857Y-68537857D01*
X115832857Y-69052142D02*
X115832857Y-68580714D01*
X115875714Y-68495000D01*
X115961428Y-68452142D01*
X116132857Y-68452142D01*
X116218571Y-68495000D01*
X115832857Y-69009285D02*
X115918571Y-69052142D01*
X116132857Y-69052142D01*
X116218571Y-69009285D01*
X116261428Y-68923571D01*
X116261428Y-68837857D01*
X116218571Y-68752142D01*
X116132857Y-68709285D01*
X115918571Y-68709285D01*
X115832857Y-68666428D01*
X115018571Y-69009285D02*
X115104285Y-69052142D01*
X115275714Y-69052142D01*
X115361428Y-69009285D01*
X115404285Y-68966428D01*
X115447142Y-68880714D01*
X115447142Y-68623571D01*
X115404285Y-68537857D01*
X115361428Y-68495000D01*
X115275714Y-68452142D01*
X115104285Y-68452142D01*
X115018571Y-68495000D01*
X114632857Y-69052142D02*
X114632857Y-68152142D01*
X114547142Y-68709285D02*
X114290000Y-69052142D01*
X114290000Y-68452142D02*
X114632857Y-68795000D01*
X113518571Y-69052142D02*
X113518571Y-68580714D01*
X113561428Y-68495000D01*
X113647142Y-68452142D01*
X113818571Y-68452142D01*
X113904285Y-68495000D01*
X113518571Y-69009285D02*
X113604285Y-69052142D01*
X113818571Y-69052142D01*
X113904285Y-69009285D01*
X113947142Y-68923571D01*
X113947142Y-68837857D01*
X113904285Y-68752142D01*
X113818571Y-68709285D01*
X113604285Y-68709285D01*
X113518571Y-68666428D01*
X112704285Y-69052142D02*
X112704285Y-68152142D01*
X112704285Y-69009285D02*
X112790000Y-69052142D01*
X112961428Y-69052142D01*
X113047142Y-69009285D01*
X113090000Y-68966428D01*
X113132857Y-68880714D01*
X113132857Y-68623571D01*
X113090000Y-68537857D01*
X113047142Y-68495000D01*
X112961428Y-68452142D01*
X112790000Y-68452142D01*
X112704285Y-68495000D01*
X111890000Y-69052142D02*
X111890000Y-68580714D01*
X111932857Y-68495000D01*
X112018571Y-68452142D01*
X112190000Y-68452142D01*
X112275714Y-68495000D01*
X111890000Y-69009285D02*
X111975714Y-69052142D01*
X112190000Y-69052142D01*
X112275714Y-69009285D01*
X112318571Y-68923571D01*
X112318571Y-68837857D01*
X112275714Y-68752142D01*
X112190000Y-68709285D01*
X111975714Y-68709285D01*
X111890000Y-68666428D01*
X111547142Y-68452142D02*
X111332857Y-69052142D01*
X111118571Y-68452142D02*
X111332857Y-69052142D01*
X111418571Y-69266428D01*
X111461428Y-69309285D01*
X111547142Y-69352142D01*
X110775714Y-68966428D02*
X110732857Y-69009285D01*
X110775714Y-69052142D01*
X110818571Y-69009285D01*
X110775714Y-68966428D01*
X110775714Y-69052142D01*
X110347142Y-69052142D02*
X110347142Y-68452142D01*
X110347142Y-68152142D02*
X110390000Y-68195000D01*
X110347142Y-68237857D01*
X110304285Y-68195000D01*
X110347142Y-68152142D01*
X110347142Y-68237857D01*
X109789999Y-69052142D02*
X109875714Y-69009285D01*
X109918571Y-68966428D01*
X109961428Y-68880714D01*
X109961428Y-68623571D01*
X109918571Y-68537857D01*
X109875714Y-68495000D01*
X109789999Y-68452142D01*
X109661428Y-68452142D01*
X109575714Y-68495000D01*
X109532857Y-68537857D01*
X109489999Y-68623571D01*
X109489999Y-68880714D01*
X109532857Y-68966428D01*
X109575714Y-69009285D01*
X109661428Y-69052142D01*
X109789999Y-69052142D01*
X108461428Y-68109285D02*
X109232857Y-69266428D01*
X108204285Y-69009285D02*
X108118571Y-69052142D01*
X107947142Y-69052142D01*
X107861428Y-69009285D01*
X107818571Y-68923571D01*
X107818571Y-68880714D01*
X107861428Y-68795000D01*
X107947142Y-68752142D01*
X108075714Y-68752142D01*
X108161428Y-68709285D01*
X108204285Y-68623571D01*
X108204285Y-68580714D01*
X108161428Y-68495000D01*
X108075714Y-68452142D01*
X107947142Y-68452142D01*
X107861428Y-68495000D01*
X107432857Y-68452142D02*
X107432857Y-69352142D01*
X107432857Y-68495000D02*
X107347142Y-68452142D01*
X107175714Y-68452142D01*
X107089999Y-68495000D01*
X107047142Y-68537857D01*
X107004285Y-68623571D01*
X107004285Y-68880714D01*
X107047142Y-68966428D01*
X107089999Y-69009285D01*
X107175714Y-69052142D01*
X107347142Y-69052142D01*
X107432857Y-69009285D01*
X106232857Y-69052142D02*
X106232857Y-68580714D01*
X106275714Y-68495000D01*
X106361428Y-68452142D01*
X106532857Y-68452142D01*
X106618571Y-68495000D01*
X106232857Y-69009285D02*
X106318571Y-69052142D01*
X106532857Y-69052142D01*
X106618571Y-69009285D01*
X106661428Y-68923571D01*
X106661428Y-68837857D01*
X106618571Y-68752142D01*
X106532857Y-68709285D01*
X106318571Y-68709285D01*
X106232857Y-68666428D01*
X105804285Y-69052142D02*
X105804285Y-68452142D01*
X105804285Y-68623571D02*
X105761428Y-68537857D01*
X105718571Y-68495000D01*
X105632857Y-68452142D01*
X105547142Y-68452142D01*
X105247142Y-69052142D02*
X105247142Y-68152142D01*
X105161428Y-68709285D02*
X104904285Y-69052142D01*
X104904285Y-68452142D02*
X105247142Y-68795000D01*
X104561428Y-68237857D02*
X104518571Y-68195000D01*
X104432857Y-68152142D01*
X104218571Y-68152142D01*
X104132857Y-68195000D01*
X104089999Y-68237857D01*
X104047142Y-68323571D01*
X104047142Y-68409285D01*
X104089999Y-68537857D01*
X104604285Y-69052142D01*
X104047142Y-69052142D01*
X103661428Y-69052142D02*
X103661428Y-68152142D01*
X103575714Y-68709285D02*
X103318571Y-69052142D01*
X103318571Y-68452142D02*
X103661428Y-68795000D01*
X102761428Y-68152142D02*
X102675714Y-68152142D01*
X102589999Y-68195000D01*
X102547142Y-68237857D01*
X102504285Y-68323571D01*
X102461428Y-68495000D01*
X102461428Y-68709285D01*
X102504285Y-68880714D01*
X102547142Y-68966428D01*
X102589999Y-69009285D01*
X102675714Y-69052142D01*
X102761428Y-69052142D01*
X102847142Y-69009285D01*
X102889999Y-68966428D01*
X102932857Y-68880714D01*
X102975714Y-68709285D01*
X102975714Y-68495000D01*
X102932857Y-68323571D01*
X102889999Y-68237857D01*
X102847142Y-68195000D01*
X102761428Y-68152142D01*
X101689999Y-68152142D02*
X101861428Y-68152142D01*
X101947142Y-68195000D01*
X101989999Y-68237857D01*
X102075714Y-68366428D01*
X102118571Y-68537857D01*
X102118571Y-68880714D01*
X102075714Y-68966428D01*
X102032857Y-69009285D01*
X101947142Y-69052142D01*
X101775714Y-69052142D01*
X101689999Y-69009285D01*
X101647142Y-68966428D01*
X101604285Y-68880714D01*
X101604285Y-68666428D01*
X101647142Y-68580714D01*
X101689999Y-68537857D01*
X101775714Y-68495000D01*
X101947142Y-68495000D01*
X102032857Y-68537857D01*
X102075714Y-68580714D01*
X102118571Y-68666428D01*
X112618571Y-70173571D02*
X112661428Y-70130714D01*
X112747142Y-70087857D01*
X112832857Y-70087857D01*
X112918571Y-70130714D01*
X112961428Y-70173571D01*
X113004285Y-70259285D01*
X113004285Y-70345000D01*
X112961428Y-70430714D01*
X112918571Y-70473571D01*
X112832857Y-70516428D01*
X112747142Y-70516428D01*
X112661428Y-70473571D01*
X112618571Y-70430714D01*
X112618571Y-70087857D02*
X112618571Y-70430714D01*
X112575714Y-70473571D01*
X112532857Y-70473571D01*
X112447142Y-70430714D01*
X112404285Y-70345000D01*
X112404285Y-70130714D01*
X112490000Y-70002142D01*
X112618571Y-69916428D01*
X112790000Y-69873571D01*
X112961428Y-69916428D01*
X113090000Y-70002142D01*
X113175714Y-70130714D01*
X113218571Y-70302142D01*
X113175714Y-70473571D01*
X113090000Y-70602142D01*
X112961428Y-70687857D01*
X112790000Y-70730714D01*
X112618571Y-70687857D01*
X112490000Y-70602142D01*
X112061428Y-70559285D02*
X111975714Y-70602142D01*
X111804285Y-70602142D01*
X111718571Y-70559285D01*
X111675714Y-70473571D01*
X111675714Y-70430714D01*
X111718571Y-70345000D01*
X111804285Y-70302142D01*
X111932857Y-70302142D01*
X112018571Y-70259285D01*
X112061428Y-70173571D01*
X112061428Y-70130714D01*
X112018571Y-70045000D01*
X111932857Y-70002142D01*
X111804285Y-70002142D01*
X111718571Y-70045000D01*
X111290000Y-70002142D02*
X111290000Y-70902142D01*
X111290000Y-70045000D02*
X111204285Y-70002142D01*
X111032857Y-70002142D01*
X110947142Y-70045000D01*
X110904285Y-70087857D01*
X110861428Y-70173571D01*
X110861428Y-70430714D01*
X110904285Y-70516428D01*
X110947142Y-70559285D01*
X111032857Y-70602142D01*
X111204285Y-70602142D01*
X111290000Y-70559285D01*
X110090000Y-70602142D02*
X110090000Y-70130714D01*
X110132857Y-70045000D01*
X110218571Y-70002142D01*
X110390000Y-70002142D01*
X110475714Y-70045000D01*
X110090000Y-70559285D02*
X110175714Y-70602142D01*
X110390000Y-70602142D01*
X110475714Y-70559285D01*
X110518571Y-70473571D01*
X110518571Y-70387857D01*
X110475714Y-70302142D01*
X110390000Y-70259285D01*
X110175714Y-70259285D01*
X110090000Y-70216428D01*
X109661428Y-70602142D02*
X109661428Y-70002142D01*
X109661428Y-70173571D02*
X109618571Y-70087857D01*
X109575714Y-70045000D01*
X109490000Y-70002142D01*
X109404285Y-70002142D01*
X109104285Y-70602142D02*
X109104285Y-69702142D01*
X109018571Y-70259285D02*
X108761428Y-70602142D01*
X108761428Y-70002142D02*
X109104285Y-70345000D01*
X108418571Y-69787857D02*
X108375714Y-69745000D01*
X108290000Y-69702142D01*
X108075714Y-69702142D01*
X107990000Y-69745000D01*
X107947142Y-69787857D01*
X107904285Y-69873571D01*
X107904285Y-69959285D01*
X107947142Y-70087857D01*
X108461428Y-70602142D01*
X107904285Y-70602142D01*
X107518571Y-70602142D02*
X107518571Y-69702142D01*
X107432857Y-70259285D02*
X107175714Y-70602142D01*
X107175714Y-70002142D02*
X107518571Y-70345000D01*
X106618571Y-69702142D02*
X106532857Y-69702142D01*
X106447142Y-69745000D01*
X106404285Y-69787857D01*
X106361428Y-69873571D01*
X106318571Y-70045000D01*
X106318571Y-70259285D01*
X106361428Y-70430714D01*
X106404285Y-70516428D01*
X106447142Y-70559285D01*
X106532857Y-70602142D01*
X106618571Y-70602142D01*
X106704285Y-70559285D01*
X106747142Y-70516428D01*
X106790000Y-70430714D01*
X106832857Y-70259285D01*
X106832857Y-70045000D01*
X106790000Y-69873571D01*
X106747142Y-69787857D01*
X106704285Y-69745000D01*
X106618571Y-69702142D01*
X105547142Y-69702142D02*
X105718571Y-69702142D01*
X105804285Y-69745000D01*
X105847142Y-69787857D01*
X105932857Y-69916428D01*
X105975714Y-70087857D01*
X105975714Y-70430714D01*
X105932857Y-70516428D01*
X105890000Y-70559285D01*
X105804285Y-70602142D01*
X105632857Y-70602142D01*
X105547142Y-70559285D01*
X105504285Y-70516428D01*
X105461428Y-70430714D01*
X105461428Y-70216428D01*
X105504285Y-70130714D01*
X105547142Y-70087857D01*
X105632857Y-70045000D01*
X105804285Y-70045000D01*
X105890000Y-70087857D01*
X105932857Y-70130714D01*
X105975714Y-70216428D01*
X113130000Y-66012142D02*
X113130000Y-65112142D01*
X112915714Y-65112142D01*
X112787142Y-65155000D01*
X112701428Y-65240714D01*
X112658571Y-65326428D01*
X112615714Y-65497857D01*
X112615714Y-65626428D01*
X112658571Y-65797857D01*
X112701428Y-65883571D01*
X112787142Y-65969285D01*
X112915714Y-66012142D01*
X113130000Y-66012142D01*
X111887142Y-65969285D02*
X111972857Y-66012142D01*
X112144285Y-66012142D01*
X112230000Y-65969285D01*
X112272857Y-65883571D01*
X112272857Y-65540714D01*
X112230000Y-65455000D01*
X112144285Y-65412142D01*
X111972857Y-65412142D01*
X111887142Y-65455000D01*
X111844285Y-65540714D01*
X111844285Y-65626428D01*
X112272857Y-65712142D01*
X111501428Y-65969285D02*
X111415714Y-66012142D01*
X111244285Y-66012142D01*
X111158571Y-65969285D01*
X111115714Y-65883571D01*
X111115714Y-65840714D01*
X111158571Y-65755000D01*
X111244285Y-65712142D01*
X111372857Y-65712142D01*
X111458571Y-65669285D01*
X111501428Y-65583571D01*
X111501428Y-65540714D01*
X111458571Y-65455000D01*
X111372857Y-65412142D01*
X111244285Y-65412142D01*
X111158571Y-65455000D01*
X110730000Y-66012142D02*
X110730000Y-65412142D01*
X110730000Y-65112142D02*
X110772857Y-65155000D01*
X110730000Y-65197857D01*
X110687142Y-65155000D01*
X110730000Y-65112142D01*
X110730000Y-65197857D01*
X109915714Y-65412142D02*
X109915714Y-66140714D01*
X109958571Y-66226428D01*
X110001428Y-66269285D01*
X110087142Y-66312142D01*
X110215714Y-66312142D01*
X110301428Y-66269285D01*
X109915714Y-65969285D02*
X110001428Y-66012142D01*
X110172857Y-66012142D01*
X110258571Y-65969285D01*
X110301428Y-65926428D01*
X110344285Y-65840714D01*
X110344285Y-65583571D01*
X110301428Y-65497857D01*
X110258571Y-65455000D01*
X110172857Y-65412142D01*
X110001428Y-65412142D01*
X109915714Y-65455000D01*
X109487142Y-65412142D02*
X109487142Y-66012142D01*
X109487142Y-65497857D02*
X109444285Y-65455000D01*
X109358571Y-65412142D01*
X109230000Y-65412142D01*
X109144285Y-65455000D01*
X109101428Y-65540714D01*
X109101428Y-66012142D01*
X108330000Y-65969285D02*
X108415714Y-66012142D01*
X108587142Y-66012142D01*
X108672857Y-65969285D01*
X108715714Y-65883571D01*
X108715714Y-65540714D01*
X108672857Y-65455000D01*
X108587142Y-65412142D01*
X108415714Y-65412142D01*
X108330000Y-65455000D01*
X108287142Y-65540714D01*
X108287142Y-65626428D01*
X108715714Y-65712142D01*
X107515714Y-66012142D02*
X107515714Y-65112142D01*
X107515714Y-65969285D02*
X107601428Y-66012142D01*
X107772857Y-66012142D01*
X107858571Y-65969285D01*
X107901428Y-65926428D01*
X107944285Y-65840714D01*
X107944285Y-65583571D01*
X107901428Y-65497857D01*
X107858571Y-65455000D01*
X107772857Y-65412142D01*
X107601428Y-65412142D01*
X107515714Y-65455000D01*
X106401428Y-66012142D02*
X106401428Y-65112142D01*
X106401428Y-65455000D02*
X106315714Y-65412142D01*
X106144285Y-65412142D01*
X106058571Y-65455000D01*
X106015714Y-65497857D01*
X105972857Y-65583571D01*
X105972857Y-65840714D01*
X106015714Y-65926428D01*
X106058571Y-65969285D01*
X106144285Y-66012142D01*
X106315714Y-66012142D01*
X106401428Y-65969285D01*
X105672857Y-65412142D02*
X105458571Y-66012142D01*
X105244285Y-65412142D02*
X105458571Y-66012142D01*
X105544285Y-66226428D01*
X105587142Y-66269285D01*
X105672857Y-66312142D01*
X115637142Y-67305000D02*
X115208571Y-67305000D01*
X115722857Y-67562142D02*
X115422857Y-66662142D01*
X115122857Y-67562142D01*
X114822857Y-67562142D02*
X114822857Y-66962142D01*
X114822857Y-66662142D02*
X114865714Y-66705000D01*
X114822857Y-66747857D01*
X114780000Y-66705000D01*
X114822857Y-66662142D01*
X114822857Y-66747857D01*
X114522857Y-66962142D02*
X114180000Y-66962142D01*
X114394285Y-66662142D02*
X114394285Y-67433571D01*
X114351428Y-67519285D01*
X114265714Y-67562142D01*
X114180000Y-67562142D01*
X113751428Y-67562142D02*
X113837142Y-67519285D01*
X113880000Y-67476428D01*
X113922857Y-67390714D01*
X113922857Y-67133571D01*
X113880000Y-67047857D01*
X113837142Y-67005000D01*
X113751428Y-66962142D01*
X113622857Y-66962142D01*
X113537142Y-67005000D01*
X113494285Y-67047857D01*
X113451428Y-67133571D01*
X113451428Y-67390714D01*
X113494285Y-67476428D01*
X113537142Y-67519285D01*
X113622857Y-67562142D01*
X113751428Y-67562142D01*
X113065714Y-67562142D02*
X113065714Y-66962142D01*
X113065714Y-67133571D02*
X113022857Y-67047857D01*
X112980000Y-67005000D01*
X112894285Y-66962142D01*
X112808571Y-66962142D01*
X111351428Y-66705000D02*
X111437142Y-66662142D01*
X111565714Y-66662142D01*
X111694285Y-66705000D01*
X111780000Y-66790714D01*
X111822857Y-66876428D01*
X111865714Y-67047857D01*
X111865714Y-67176428D01*
X111822857Y-67347857D01*
X111780000Y-67433571D01*
X111694285Y-67519285D01*
X111565714Y-67562142D01*
X111480000Y-67562142D01*
X111351428Y-67519285D01*
X111308571Y-67476428D01*
X111308571Y-67176428D01*
X111480000Y-67176428D01*
X110794285Y-67562142D02*
X110880000Y-67519285D01*
X110922857Y-67476428D01*
X110965714Y-67390714D01*
X110965714Y-67133571D01*
X110922857Y-67047857D01*
X110880000Y-67005000D01*
X110794285Y-66962142D01*
X110665714Y-66962142D01*
X110580000Y-67005000D01*
X110537142Y-67047857D01*
X110494285Y-67133571D01*
X110494285Y-67390714D01*
X110537142Y-67476428D01*
X110580000Y-67519285D01*
X110665714Y-67562142D01*
X110794285Y-67562142D01*
X110622857Y-66619285D02*
X110751428Y-66747857D01*
X110108571Y-67562142D02*
X110108571Y-66962142D01*
X110108571Y-67047857D02*
X110065714Y-67005000D01*
X109980000Y-66962142D01*
X109851428Y-66962142D01*
X109765714Y-67005000D01*
X109722857Y-67090714D01*
X109722857Y-67562142D01*
X109722857Y-67090714D02*
X109680000Y-67005000D01*
X109594285Y-66962142D01*
X109465714Y-66962142D01*
X109380000Y-67005000D01*
X109337142Y-67090714D01*
X109337142Y-67562142D01*
X108565714Y-67519285D02*
X108651428Y-67562142D01*
X108822857Y-67562142D01*
X108908571Y-67519285D01*
X108951428Y-67433571D01*
X108951428Y-67090714D01*
X108908571Y-67005000D01*
X108822857Y-66962142D01*
X108651428Y-66962142D01*
X108565714Y-67005000D01*
X108522857Y-67090714D01*
X108522857Y-67176428D01*
X108951428Y-67262142D01*
X108222857Y-66962142D02*
X107751428Y-66962142D01*
X108222857Y-67562142D01*
X107751428Y-67562142D01*
X106251428Y-66705000D02*
X106337142Y-66662142D01*
X106465714Y-66662142D01*
X106594285Y-66705000D01*
X106680000Y-66790714D01*
X106722857Y-66876428D01*
X106765714Y-67047857D01*
X106765714Y-67176428D01*
X106722857Y-67347857D01*
X106680000Y-67433571D01*
X106594285Y-67519285D01*
X106465714Y-67562142D01*
X106380000Y-67562142D01*
X106251428Y-67519285D01*
X106208571Y-67476428D01*
X106208571Y-67176428D01*
X106380000Y-67176428D01*
X105437142Y-67562142D02*
X105437142Y-67090714D01*
X105480000Y-67005000D01*
X105565714Y-66962142D01*
X105737142Y-66962142D01*
X105822857Y-67005000D01*
X105437142Y-67519285D02*
X105522857Y-67562142D01*
X105737142Y-67562142D01*
X105822857Y-67519285D01*
X105865714Y-67433571D01*
X105865714Y-67347857D01*
X105822857Y-67262142D01*
X105737142Y-67219285D01*
X105522857Y-67219285D01*
X105437142Y-67176428D01*
X105008571Y-67562142D02*
X105008571Y-66962142D01*
X105008571Y-67133571D02*
X104965714Y-67047857D01*
X104922857Y-67005000D01*
X104837142Y-66962142D01*
X104751428Y-66962142D01*
X104065714Y-67519285D02*
X104151428Y-67562142D01*
X104322857Y-67562142D01*
X104408571Y-67519285D01*
X104451428Y-67476428D01*
X104494285Y-67390714D01*
X104494285Y-67133571D01*
X104451428Y-67047857D01*
X104408571Y-67005000D01*
X104322857Y-66962142D01*
X104151428Y-66962142D01*
X104065714Y-67005000D01*
X103680000Y-67562142D02*
X103680000Y-66962142D01*
X103594285Y-66619285D02*
X103722857Y-66747857D01*
X102865714Y-67562142D02*
X102865714Y-67090714D01*
X102908571Y-67005000D01*
X102994285Y-66962142D01*
X103165714Y-66962142D01*
X103251428Y-67005000D01*
X102865714Y-67519285D02*
X102951428Y-67562142D01*
X103165714Y-67562142D01*
X103251428Y-67519285D01*
X103294285Y-67433571D01*
X103294285Y-67347857D01*
X103251428Y-67262142D01*
X103165714Y-67219285D01*
X102951428Y-67219285D01*
X102865714Y-67176428D01*
X183024285Y-98727142D02*
X182510000Y-98727142D01*
X182767142Y-99627142D02*
X182767142Y-98727142D01*
X182210000Y-99627142D02*
X182210000Y-98727142D01*
X181824285Y-99627142D02*
X181824285Y-99155714D01*
X181867142Y-99070000D01*
X181952857Y-99027142D01*
X182081428Y-99027142D01*
X182167142Y-99070000D01*
X182210000Y-99112857D01*
X181395714Y-99627142D02*
X181395714Y-99027142D01*
X181395714Y-98727142D02*
X181438571Y-98770000D01*
X181395714Y-98812857D01*
X181352857Y-98770000D01*
X181395714Y-98727142D01*
X181395714Y-98812857D01*
X181010000Y-99584285D02*
X180924285Y-99627142D01*
X180752857Y-99627142D01*
X180667142Y-99584285D01*
X180624285Y-99498571D01*
X180624285Y-99455714D01*
X180667142Y-99370000D01*
X180752857Y-99327142D01*
X180881428Y-99327142D01*
X180967142Y-99284285D01*
X181010000Y-99198571D01*
X181010000Y-99155714D01*
X180967142Y-99070000D01*
X180881428Y-99027142D01*
X180752857Y-99027142D01*
X180667142Y-99070000D01*
X179552857Y-99027142D02*
X179552857Y-99927142D01*
X179552857Y-99070000D02*
X179467142Y-99027142D01*
X179295714Y-99027142D01*
X179210000Y-99070000D01*
X179167142Y-99112857D01*
X179124285Y-99198571D01*
X179124285Y-99455714D01*
X179167142Y-99541428D01*
X179210000Y-99584285D01*
X179295714Y-99627142D01*
X179467142Y-99627142D01*
X179552857Y-99584285D01*
X178738571Y-99627142D02*
X178738571Y-99027142D01*
X178738571Y-99198571D02*
X178695714Y-99112857D01*
X178652857Y-99070000D01*
X178567142Y-99027142D01*
X178481428Y-99027142D01*
X178052857Y-99627142D02*
X178138571Y-99584285D01*
X178181428Y-99541428D01*
X178224285Y-99455714D01*
X178224285Y-99198571D01*
X178181428Y-99112857D01*
X178138571Y-99070000D01*
X178052857Y-99027142D01*
X177924285Y-99027142D01*
X177838571Y-99070000D01*
X177795714Y-99112857D01*
X177752857Y-99198571D01*
X177752857Y-99455714D01*
X177795714Y-99541428D01*
X177838571Y-99584285D01*
X177924285Y-99627142D01*
X178052857Y-99627142D01*
X176981428Y-99627142D02*
X176981428Y-98727142D01*
X176981428Y-99584285D02*
X177067142Y-99627142D01*
X177238571Y-99627142D01*
X177324285Y-99584285D01*
X177367142Y-99541428D01*
X177410000Y-99455714D01*
X177410000Y-99198571D01*
X177367142Y-99112857D01*
X177324285Y-99070000D01*
X177238571Y-99027142D01*
X177067142Y-99027142D01*
X176981428Y-99070000D01*
X176167142Y-99027142D02*
X176167142Y-99627142D01*
X176552857Y-99027142D02*
X176552857Y-99498571D01*
X176510000Y-99584285D01*
X176424285Y-99627142D01*
X176295714Y-99627142D01*
X176210000Y-99584285D01*
X176167142Y-99541428D01*
X175352857Y-99584285D02*
X175438571Y-99627142D01*
X175610000Y-99627142D01*
X175695714Y-99584285D01*
X175738571Y-99541428D01*
X175781428Y-99455714D01*
X175781428Y-99198571D01*
X175738571Y-99112857D01*
X175695714Y-99070000D01*
X175610000Y-99027142D01*
X175438571Y-99027142D01*
X175352857Y-99070000D01*
X175095714Y-99027142D02*
X174752857Y-99027142D01*
X174967142Y-98727142D02*
X174967142Y-99498571D01*
X174924285Y-99584285D01*
X174838571Y-99627142D01*
X174752857Y-99627142D01*
X173767142Y-99627142D02*
X173767142Y-99027142D01*
X173767142Y-98727142D02*
X173810000Y-98770000D01*
X173767142Y-98812857D01*
X173724285Y-98770000D01*
X173767142Y-98727142D01*
X173767142Y-98812857D01*
X173381428Y-99584285D02*
X173295714Y-99627142D01*
X173124285Y-99627142D01*
X173038571Y-99584285D01*
X172995714Y-99498571D01*
X172995714Y-99455714D01*
X173038571Y-99370000D01*
X173124285Y-99327142D01*
X173252857Y-99327142D01*
X173338571Y-99284285D01*
X173381428Y-99198571D01*
X173381428Y-99155714D01*
X173338571Y-99070000D01*
X173252857Y-99027142D01*
X173124285Y-99027142D01*
X173038571Y-99070000D01*
X171538571Y-99027142D02*
X171538571Y-99627142D01*
X171924285Y-99027142D02*
X171924285Y-99498571D01*
X171881428Y-99584285D01*
X171795714Y-99627142D01*
X171667142Y-99627142D01*
X171581428Y-99584285D01*
X171538571Y-99541428D01*
X171110000Y-99027142D02*
X171110000Y-99627142D01*
X171110000Y-99112857D02*
X171067142Y-99070000D01*
X170981428Y-99027142D01*
X170852857Y-99027142D01*
X170767142Y-99070000D01*
X170724285Y-99155714D01*
X170724285Y-99627142D01*
X169910000Y-99627142D02*
X169910000Y-98727142D01*
X169910000Y-99584285D02*
X169995714Y-99627142D01*
X170167142Y-99627142D01*
X170252857Y-99584285D01*
X170295714Y-99541428D01*
X170338571Y-99455714D01*
X170338571Y-99198571D01*
X170295714Y-99112857D01*
X170252857Y-99070000D01*
X170167142Y-99027142D01*
X169995714Y-99027142D01*
X169910000Y-99070000D01*
X169138571Y-99584285D02*
X169224285Y-99627142D01*
X169395714Y-99627142D01*
X169481428Y-99584285D01*
X169524285Y-99498571D01*
X169524285Y-99155714D01*
X169481428Y-99070000D01*
X169395714Y-99027142D01*
X169224285Y-99027142D01*
X169138571Y-99070000D01*
X169095714Y-99155714D01*
X169095714Y-99241428D01*
X169524285Y-99327142D01*
X168710000Y-99627142D02*
X168710000Y-99027142D01*
X168710000Y-99198571D02*
X168667142Y-99112857D01*
X168624285Y-99070000D01*
X168538571Y-99027142D01*
X168452857Y-99027142D01*
X166952857Y-99541428D02*
X166995714Y-99584285D01*
X167124285Y-99627142D01*
X167210000Y-99627142D01*
X167338571Y-99584285D01*
X167424285Y-99498571D01*
X167467142Y-99412857D01*
X167510000Y-99241428D01*
X167510000Y-99112857D01*
X167467142Y-98941428D01*
X167424285Y-98855714D01*
X167338571Y-98770000D01*
X167210000Y-98727142D01*
X167124285Y-98727142D01*
X166995714Y-98770000D01*
X166952857Y-98812857D01*
X166052857Y-99541428D02*
X166095714Y-99584285D01*
X166224285Y-99627142D01*
X166310000Y-99627142D01*
X166438571Y-99584285D01*
X166524285Y-99498571D01*
X166567142Y-99412857D01*
X166610000Y-99241428D01*
X166610000Y-99112857D01*
X166567142Y-98941428D01*
X166524285Y-98855714D01*
X166438571Y-98770000D01*
X166310000Y-98727142D01*
X166224285Y-98727142D01*
X166095714Y-98770000D01*
X166052857Y-98812857D01*
X165667142Y-99284285D02*
X164981428Y-99284285D01*
X164252857Y-99155714D02*
X164124285Y-99198571D01*
X164081428Y-99241428D01*
X164038571Y-99327142D01*
X164038571Y-99455714D01*
X164081428Y-99541428D01*
X164124285Y-99584285D01*
X164210000Y-99627142D01*
X164552857Y-99627142D01*
X164552857Y-98727142D01*
X164252857Y-98727142D01*
X164167142Y-98770000D01*
X164124285Y-98812857D01*
X164081428Y-98898571D01*
X164081428Y-98984285D01*
X164124285Y-99070000D01*
X164167142Y-99112857D01*
X164252857Y-99155714D01*
X164552857Y-99155714D01*
X163481428Y-99198571D02*
X163481428Y-99627142D01*
X163781428Y-98727142D02*
X163481428Y-99198571D01*
X163181428Y-98727142D01*
X162881428Y-99284285D02*
X162195714Y-99284285D01*
X161810000Y-99584285D02*
X161681428Y-99627142D01*
X161467142Y-99627142D01*
X161381428Y-99584285D01*
X161338571Y-99541428D01*
X161295714Y-99455714D01*
X161295714Y-99370000D01*
X161338571Y-99284285D01*
X161381428Y-99241428D01*
X161467142Y-99198571D01*
X161638571Y-99155714D01*
X161724285Y-99112857D01*
X161767142Y-99070000D01*
X161810000Y-98984285D01*
X161810000Y-98898571D01*
X161767142Y-98812857D01*
X161724285Y-98770000D01*
X161638571Y-98727142D01*
X161424285Y-98727142D01*
X161295714Y-98770000D01*
X160952857Y-99370000D02*
X160524285Y-99370000D01*
X161038571Y-99627142D02*
X160738571Y-98727142D01*
X160438571Y-99627142D01*
X159024285Y-99627142D02*
X159452857Y-99627142D01*
X159452857Y-98727142D01*
X158724285Y-99627142D02*
X158724285Y-99027142D01*
X158724285Y-98727142D02*
X158767142Y-98770000D01*
X158724285Y-98812857D01*
X158681428Y-98770000D01*
X158724285Y-98727142D01*
X158724285Y-98812857D01*
X157910000Y-99584285D02*
X157995714Y-99627142D01*
X158167142Y-99627142D01*
X158252857Y-99584285D01*
X158295714Y-99541428D01*
X158338571Y-99455714D01*
X158338571Y-99198571D01*
X158295714Y-99112857D01*
X158252857Y-99070000D01*
X158167142Y-99027142D01*
X157995714Y-99027142D01*
X157910000Y-99070000D01*
X157181428Y-99584285D02*
X157267142Y-99627142D01*
X157438571Y-99627142D01*
X157524285Y-99584285D01*
X157567142Y-99498571D01*
X157567142Y-99155714D01*
X157524285Y-99070000D01*
X157438571Y-99027142D01*
X157267142Y-99027142D01*
X157181428Y-99070000D01*
X157138571Y-99155714D01*
X157138571Y-99241428D01*
X157567142Y-99327142D01*
X156752857Y-99027142D02*
X156752857Y-99627142D01*
X156752857Y-99112857D02*
X156710000Y-99070000D01*
X156624285Y-99027142D01*
X156495714Y-99027142D01*
X156410000Y-99070000D01*
X156367142Y-99155714D01*
X156367142Y-99627142D01*
X155552857Y-99584285D02*
X155638571Y-99627142D01*
X155810000Y-99627142D01*
X155895714Y-99584285D01*
X155938571Y-99541428D01*
X155981428Y-99455714D01*
X155981428Y-99198571D01*
X155938571Y-99112857D01*
X155895714Y-99070000D01*
X155810000Y-99027142D01*
X155638571Y-99027142D01*
X155552857Y-99070000D01*
X154824285Y-99584285D02*
X154910000Y-99627142D01*
X155081428Y-99627142D01*
X155167142Y-99584285D01*
X155210000Y-99498571D01*
X155210000Y-99155714D01*
X155167142Y-99070000D01*
X155081428Y-99027142D01*
X154910000Y-99027142D01*
X154824285Y-99070000D01*
X154781428Y-99155714D01*
X154781428Y-99241428D01*
X155210000Y-99327142D01*
X154395714Y-99541428D02*
X154352857Y-99584285D01*
X154395714Y-99627142D01*
X154438571Y-99584285D01*
X154395714Y-99541428D01*
X154395714Y-99627142D01*
X183024285Y-101827142D02*
X182510000Y-101827142D01*
X182767142Y-102727142D02*
X182767142Y-101827142D01*
X182210000Y-102727142D02*
X182210000Y-101827142D01*
X181824285Y-102727142D02*
X181824285Y-102255714D01*
X181867142Y-102170000D01*
X181952857Y-102127142D01*
X182081428Y-102127142D01*
X182167142Y-102170000D01*
X182210000Y-102212857D01*
X181052857Y-102684285D02*
X181138571Y-102727142D01*
X181310000Y-102727142D01*
X181395714Y-102684285D01*
X181438571Y-102598571D01*
X181438571Y-102255714D01*
X181395714Y-102170000D01*
X181310000Y-102127142D01*
X181138571Y-102127142D01*
X181052857Y-102170000D01*
X181010000Y-102255714D01*
X181010000Y-102341428D01*
X181438571Y-102427142D01*
X180024285Y-101827142D02*
X179424285Y-101827142D01*
X180024285Y-102727142D01*
X179424285Y-102727142D01*
X179167142Y-101827142D02*
X178567142Y-102727142D01*
X178567142Y-101827142D02*
X179167142Y-102727142D01*
X178224285Y-101827142D02*
X178224285Y-102555714D01*
X178181428Y-102641428D01*
X178138571Y-102684285D01*
X178052857Y-102727142D01*
X177881428Y-102727142D01*
X177795714Y-102684285D01*
X177752857Y-102641428D01*
X177710000Y-102555714D01*
X177710000Y-101827142D01*
X177281428Y-102127142D02*
X177281428Y-102727142D01*
X177281428Y-102212857D02*
X177238571Y-102170000D01*
X177152857Y-102127142D01*
X177024285Y-102127142D01*
X176938571Y-102170000D01*
X176895714Y-102255714D01*
X176895714Y-102727142D01*
X175952857Y-102641428D02*
X175995714Y-102684285D01*
X176124285Y-102727142D01*
X176210000Y-102727142D01*
X176338571Y-102684285D01*
X176424285Y-102598571D01*
X176467142Y-102512857D01*
X176510000Y-102341428D01*
X176510000Y-102212857D01*
X176467142Y-102041428D01*
X176424285Y-101955714D01*
X176338571Y-101870000D01*
X176210000Y-101827142D01*
X176124285Y-101827142D01*
X175995714Y-101870000D01*
X175952857Y-101912857D01*
X175438571Y-102727142D02*
X175524285Y-102684285D01*
X175567142Y-102641428D01*
X175610000Y-102555714D01*
X175610000Y-102298571D01*
X175567142Y-102212857D01*
X175524285Y-102170000D01*
X175438571Y-102127142D01*
X175310000Y-102127142D01*
X175224285Y-102170000D01*
X175181428Y-102212857D01*
X175138571Y-102298571D01*
X175138571Y-102555714D01*
X175181428Y-102641428D01*
X175224285Y-102684285D01*
X175310000Y-102727142D01*
X175438571Y-102727142D01*
X174752857Y-102727142D02*
X174752857Y-102127142D01*
X174752857Y-102298571D02*
X174710000Y-102212857D01*
X174667142Y-102170000D01*
X174581428Y-102127142D01*
X174495714Y-102127142D01*
X173852857Y-102684285D02*
X173938571Y-102727142D01*
X174110000Y-102727142D01*
X174195714Y-102684285D01*
X174238571Y-102598571D01*
X174238571Y-102255714D01*
X174195714Y-102170000D01*
X174110000Y-102127142D01*
X173938571Y-102127142D01*
X173852857Y-102170000D01*
X173810000Y-102255714D01*
X173810000Y-102341428D01*
X174238571Y-102427142D01*
X172738571Y-102727142D02*
X172738571Y-101827142D01*
X172352857Y-102727142D02*
X172352857Y-102255714D01*
X172395714Y-102170000D01*
X172481428Y-102127142D01*
X172610000Y-102127142D01*
X172695714Y-102170000D01*
X172738571Y-102212857D01*
X171538571Y-102727142D02*
X171538571Y-102255714D01*
X171581428Y-102170000D01*
X171667142Y-102127142D01*
X171838571Y-102127142D01*
X171924285Y-102170000D01*
X171538571Y-102684285D02*
X171624285Y-102727142D01*
X171838571Y-102727142D01*
X171924285Y-102684285D01*
X171967142Y-102598571D01*
X171967142Y-102512857D01*
X171924285Y-102427142D01*
X171838571Y-102384285D01*
X171624285Y-102384285D01*
X171538571Y-102341428D01*
X171110000Y-102727142D02*
X171110000Y-102127142D01*
X171110000Y-102298571D02*
X171067142Y-102212857D01*
X171024285Y-102170000D01*
X170938571Y-102127142D01*
X170852857Y-102127142D01*
X170167142Y-102727142D02*
X170167142Y-101827142D01*
X170167142Y-102684285D02*
X170252857Y-102727142D01*
X170424285Y-102727142D01*
X170510000Y-102684285D01*
X170552857Y-102641428D01*
X170595714Y-102555714D01*
X170595714Y-102298571D01*
X170552857Y-102212857D01*
X170510000Y-102170000D01*
X170424285Y-102127142D01*
X170252857Y-102127142D01*
X170167142Y-102170000D01*
X169824285Y-102127142D02*
X169652857Y-102727142D01*
X169481428Y-102298571D01*
X169310000Y-102727142D01*
X169138571Y-102127142D01*
X168410000Y-102727142D02*
X168410000Y-102255714D01*
X168452857Y-102170000D01*
X168538571Y-102127142D01*
X168710000Y-102127142D01*
X168795714Y-102170000D01*
X168410000Y-102684285D02*
X168495714Y-102727142D01*
X168710000Y-102727142D01*
X168795714Y-102684285D01*
X168838571Y-102598571D01*
X168838571Y-102512857D01*
X168795714Y-102427142D01*
X168710000Y-102384285D01*
X168495714Y-102384285D01*
X168410000Y-102341428D01*
X167981428Y-102727142D02*
X167981428Y-102127142D01*
X167981428Y-102298571D02*
X167938571Y-102212857D01*
X167895714Y-102170000D01*
X167810000Y-102127142D01*
X167724285Y-102127142D01*
X167081428Y-102684285D02*
X167167142Y-102727142D01*
X167338571Y-102727142D01*
X167424285Y-102684285D01*
X167467142Y-102598571D01*
X167467142Y-102255714D01*
X167424285Y-102170000D01*
X167338571Y-102127142D01*
X167167142Y-102127142D01*
X167081428Y-102170000D01*
X167038571Y-102255714D01*
X167038571Y-102341428D01*
X167467142Y-102427142D01*
X166610000Y-102684285D02*
X166610000Y-102727142D01*
X166652857Y-102812857D01*
X166695714Y-102855714D01*
X165581428Y-102684285D02*
X165495714Y-102727142D01*
X165324285Y-102727142D01*
X165238571Y-102684285D01*
X165195714Y-102598571D01*
X165195714Y-102555714D01*
X165238571Y-102470000D01*
X165324285Y-102427142D01*
X165452857Y-102427142D01*
X165538571Y-102384285D01*
X165581428Y-102298571D01*
X165581428Y-102255714D01*
X165538571Y-102170000D01*
X165452857Y-102127142D01*
X165324285Y-102127142D01*
X165238571Y-102170000D01*
X164681428Y-102727142D02*
X164767142Y-102684285D01*
X164810000Y-102641428D01*
X164852857Y-102555714D01*
X164852857Y-102298571D01*
X164810000Y-102212857D01*
X164767142Y-102170000D01*
X164681428Y-102127142D01*
X164552857Y-102127142D01*
X164467142Y-102170000D01*
X164424285Y-102212857D01*
X164381428Y-102298571D01*
X164381428Y-102555714D01*
X164424285Y-102641428D01*
X164467142Y-102684285D01*
X164552857Y-102727142D01*
X164681428Y-102727142D01*
X164124285Y-102127142D02*
X163781428Y-102127142D01*
X163995714Y-102727142D02*
X163995714Y-101955714D01*
X163952857Y-101870000D01*
X163867142Y-101827142D01*
X163781428Y-101827142D01*
X163610000Y-102127142D02*
X163267142Y-102127142D01*
X163481428Y-101827142D02*
X163481428Y-102598571D01*
X163438571Y-102684285D01*
X163352857Y-102727142D01*
X163267142Y-102727142D01*
X163052857Y-102127142D02*
X162881428Y-102727142D01*
X162710000Y-102298571D01*
X162538571Y-102727142D01*
X162367142Y-102127142D01*
X161638571Y-102727142D02*
X161638571Y-102255714D01*
X161681428Y-102170000D01*
X161767142Y-102127142D01*
X161938571Y-102127142D01*
X162024285Y-102170000D01*
X161638571Y-102684285D02*
X161724285Y-102727142D01*
X161938571Y-102727142D01*
X162024285Y-102684285D01*
X162067142Y-102598571D01*
X162067142Y-102512857D01*
X162024285Y-102427142D01*
X161938571Y-102384285D01*
X161724285Y-102384285D01*
X161638571Y-102341428D01*
X161210000Y-102727142D02*
X161210000Y-102127142D01*
X161210000Y-102298571D02*
X161167142Y-102212857D01*
X161124285Y-102170000D01*
X161038571Y-102127142D01*
X160952857Y-102127142D01*
X160310000Y-102684285D02*
X160395714Y-102727142D01*
X160567142Y-102727142D01*
X160652857Y-102684285D01*
X160695714Y-102598571D01*
X160695714Y-102255714D01*
X160652857Y-102170000D01*
X160567142Y-102127142D01*
X160395714Y-102127142D01*
X160310000Y-102170000D01*
X160267142Y-102255714D01*
X160267142Y-102341428D01*
X160695714Y-102427142D01*
X159838571Y-102684285D02*
X159838571Y-102727142D01*
X159881428Y-102812857D01*
X159924285Y-102855714D01*
X158638571Y-102727142D02*
X158724285Y-102684285D01*
X158767142Y-102598571D01*
X158767142Y-101827142D01*
X158167142Y-102727142D02*
X158252857Y-102684285D01*
X158295714Y-102641428D01*
X158338571Y-102555714D01*
X158338571Y-102298571D01*
X158295714Y-102212857D01*
X158252857Y-102170000D01*
X158167142Y-102127142D01*
X158038571Y-102127142D01*
X157952857Y-102170000D01*
X157910000Y-102212857D01*
X157867142Y-102298571D01*
X157867142Y-102555714D01*
X157910000Y-102641428D01*
X157952857Y-102684285D01*
X158038571Y-102727142D01*
X158167142Y-102727142D01*
X157095714Y-102127142D02*
X157095714Y-102855714D01*
X157138571Y-102941428D01*
X157181428Y-102984285D01*
X157267142Y-103027142D01*
X157395714Y-103027142D01*
X157481428Y-102984285D01*
X157095714Y-102684285D02*
X157181428Y-102727142D01*
X157352857Y-102727142D01*
X157438571Y-102684285D01*
X157481428Y-102641428D01*
X157524285Y-102555714D01*
X157524285Y-102298571D01*
X157481428Y-102212857D01*
X157438571Y-102170000D01*
X157352857Y-102127142D01*
X157181428Y-102127142D01*
X157095714Y-102170000D01*
X156538571Y-102727142D02*
X156624285Y-102684285D01*
X156667142Y-102641428D01*
X156710000Y-102555714D01*
X156710000Y-102298571D01*
X156667142Y-102212857D01*
X156624285Y-102170000D01*
X156538571Y-102127142D01*
X156410000Y-102127142D01*
X156324285Y-102170000D01*
X156281428Y-102212857D01*
X156238571Y-102298571D01*
X156238571Y-102555714D01*
X156281428Y-102641428D01*
X156324285Y-102684285D01*
X156410000Y-102727142D01*
X156538571Y-102727142D01*
X182510000Y-104277142D02*
X182510000Y-103805714D01*
X182552857Y-103720000D01*
X182638571Y-103677142D01*
X182810000Y-103677142D01*
X182895714Y-103720000D01*
X182510000Y-104234285D02*
X182595714Y-104277142D01*
X182810000Y-104277142D01*
X182895714Y-104234285D01*
X182938571Y-104148571D01*
X182938571Y-104062857D01*
X182895714Y-103977142D01*
X182810000Y-103934285D01*
X182595714Y-103934285D01*
X182510000Y-103891428D01*
X182081428Y-103677142D02*
X182081428Y-104277142D01*
X182081428Y-103762857D02*
X182038571Y-103720000D01*
X181952857Y-103677142D01*
X181824285Y-103677142D01*
X181738571Y-103720000D01*
X181695714Y-103805714D01*
X181695714Y-104277142D01*
X180881428Y-104277142D02*
X180881428Y-103377142D01*
X180881428Y-104234285D02*
X180967142Y-104277142D01*
X181138571Y-104277142D01*
X181224285Y-104234285D01*
X181267142Y-104191428D01*
X181309999Y-104105714D01*
X181309999Y-103848571D01*
X181267142Y-103762857D01*
X181224285Y-103720000D01*
X181138571Y-103677142D01*
X180967142Y-103677142D01*
X180881428Y-103720000D01*
X179381428Y-104234285D02*
X179467142Y-104277142D01*
X179638571Y-104277142D01*
X179724285Y-104234285D01*
X179767142Y-104191428D01*
X179809999Y-104105714D01*
X179809999Y-103848571D01*
X179767142Y-103762857D01*
X179724285Y-103720000D01*
X179638571Y-103677142D01*
X179467142Y-103677142D01*
X179381428Y-103720000D01*
X178867142Y-104277142D02*
X178952857Y-104234285D01*
X178995714Y-104191428D01*
X179038571Y-104105714D01*
X179038571Y-103848571D01*
X178995714Y-103762857D01*
X178952857Y-103720000D01*
X178867142Y-103677142D01*
X178738571Y-103677142D01*
X178652857Y-103720000D01*
X178609999Y-103762857D01*
X178567142Y-103848571D01*
X178567142Y-104105714D01*
X178609999Y-104191428D01*
X178652857Y-104234285D01*
X178738571Y-104277142D01*
X178867142Y-104277142D01*
X178181428Y-103677142D02*
X178181428Y-104277142D01*
X178181428Y-103762857D02*
X178138571Y-103720000D01*
X178052857Y-103677142D01*
X177924285Y-103677142D01*
X177838571Y-103720000D01*
X177795714Y-103805714D01*
X177795714Y-104277142D01*
X176981428Y-104234285D02*
X177067142Y-104277142D01*
X177238571Y-104277142D01*
X177324285Y-104234285D01*
X177367142Y-104191428D01*
X177409999Y-104105714D01*
X177409999Y-103848571D01*
X177367142Y-103762857D01*
X177324285Y-103720000D01*
X177238571Y-103677142D01*
X177067142Y-103677142D01*
X176981428Y-103720000D01*
X176252857Y-104234285D02*
X176338571Y-104277142D01*
X176509999Y-104277142D01*
X176595714Y-104234285D01*
X176638571Y-104148571D01*
X176638571Y-103805714D01*
X176595714Y-103720000D01*
X176509999Y-103677142D01*
X176338571Y-103677142D01*
X176252857Y-103720000D01*
X176209999Y-103805714D01*
X176209999Y-103891428D01*
X176638571Y-103977142D01*
X175824285Y-103677142D02*
X175824285Y-104577142D01*
X175824285Y-103720000D02*
X175738571Y-103677142D01*
X175567142Y-103677142D01*
X175481428Y-103720000D01*
X175438571Y-103762857D01*
X175395714Y-103848571D01*
X175395714Y-104105714D01*
X175438571Y-104191428D01*
X175481428Y-104234285D01*
X175567142Y-104277142D01*
X175738571Y-104277142D01*
X175824285Y-104234285D01*
X175138571Y-103677142D02*
X174795714Y-103677142D01*
X175009999Y-103377142D02*
X175009999Y-104148571D01*
X174967142Y-104234285D01*
X174881428Y-104277142D01*
X174795714Y-104277142D01*
X173809999Y-104277142D02*
X173809999Y-103377142D01*
X173424285Y-104277142D02*
X173424285Y-103805714D01*
X173467142Y-103720000D01*
X173552857Y-103677142D01*
X173681428Y-103677142D01*
X173767142Y-103720000D01*
X173809999Y-103762857D01*
X172609999Y-104277142D02*
X172609999Y-103805714D01*
X172652857Y-103720000D01*
X172738571Y-103677142D01*
X172909999Y-103677142D01*
X172995714Y-103720000D01*
X172609999Y-104234285D02*
X172695714Y-104277142D01*
X172909999Y-104277142D01*
X172995714Y-104234285D01*
X173038571Y-104148571D01*
X173038571Y-104062857D01*
X172995714Y-103977142D01*
X172909999Y-103934285D01*
X172695714Y-103934285D01*
X172609999Y-103891428D01*
X172267142Y-103677142D02*
X172052857Y-104277142D01*
X171838571Y-103677142D01*
X171152857Y-104234285D02*
X171238571Y-104277142D01*
X171409999Y-104277142D01*
X171495714Y-104234285D01*
X171538571Y-104148571D01*
X171538571Y-103805714D01*
X171495714Y-103720000D01*
X171409999Y-103677142D01*
X171238571Y-103677142D01*
X171152857Y-103720000D01*
X171109999Y-103805714D01*
X171109999Y-103891428D01*
X171538571Y-103977142D01*
X170038571Y-104277142D02*
X170038571Y-103377142D01*
X170038571Y-103720000D02*
X169952857Y-103677142D01*
X169781428Y-103677142D01*
X169695714Y-103720000D01*
X169652857Y-103762857D01*
X169609999Y-103848571D01*
X169609999Y-104105714D01*
X169652857Y-104191428D01*
X169695714Y-104234285D01*
X169781428Y-104277142D01*
X169952857Y-104277142D01*
X170038571Y-104234285D01*
X168881428Y-104234285D02*
X168967142Y-104277142D01*
X169138571Y-104277142D01*
X169224285Y-104234285D01*
X169267142Y-104148571D01*
X169267142Y-103805714D01*
X169224285Y-103720000D01*
X169138571Y-103677142D01*
X168967142Y-103677142D01*
X168881428Y-103720000D01*
X168838571Y-103805714D01*
X168838571Y-103891428D01*
X169267142Y-103977142D01*
X168109999Y-104234285D02*
X168195714Y-104277142D01*
X168367142Y-104277142D01*
X168452857Y-104234285D01*
X168495714Y-104148571D01*
X168495714Y-103805714D01*
X168452857Y-103720000D01*
X168367142Y-103677142D01*
X168195714Y-103677142D01*
X168109999Y-103720000D01*
X168067142Y-103805714D01*
X168067142Y-103891428D01*
X168495714Y-103977142D01*
X167681428Y-103677142D02*
X167681428Y-104277142D01*
X167681428Y-103762857D02*
X167638571Y-103720000D01*
X167552857Y-103677142D01*
X167424285Y-103677142D01*
X167338571Y-103720000D01*
X167295714Y-103805714D01*
X167295714Y-104277142D01*
X165795714Y-104234285D02*
X165881428Y-104277142D01*
X166052857Y-104277142D01*
X166138571Y-104234285D01*
X166181428Y-104191428D01*
X166224285Y-104105714D01*
X166224285Y-103848571D01*
X166181428Y-103762857D01*
X166138571Y-103720000D01*
X166052857Y-103677142D01*
X165881428Y-103677142D01*
X165795714Y-103720000D01*
X165410000Y-104277142D02*
X165410000Y-103677142D01*
X165410000Y-103848571D02*
X165367142Y-103762857D01*
X165324285Y-103720000D01*
X165238571Y-103677142D01*
X165152857Y-103677142D01*
X164509999Y-104234285D02*
X164595714Y-104277142D01*
X164767142Y-104277142D01*
X164852857Y-104234285D01*
X164895714Y-104148571D01*
X164895714Y-103805714D01*
X164852857Y-103720000D01*
X164767142Y-103677142D01*
X164595714Y-103677142D01*
X164509999Y-103720000D01*
X164467142Y-103805714D01*
X164467142Y-103891428D01*
X164895714Y-103977142D01*
X163695714Y-104277142D02*
X163695714Y-103805714D01*
X163738571Y-103720000D01*
X163824285Y-103677142D01*
X163995714Y-103677142D01*
X164081428Y-103720000D01*
X163695714Y-104234285D02*
X163781428Y-104277142D01*
X163995714Y-104277142D01*
X164081428Y-104234285D01*
X164124285Y-104148571D01*
X164124285Y-104062857D01*
X164081428Y-103977142D01*
X163995714Y-103934285D01*
X163781428Y-103934285D01*
X163695714Y-103891428D01*
X163395714Y-103677142D02*
X163052857Y-103677142D01*
X163267142Y-103377142D02*
X163267142Y-104148571D01*
X163224285Y-104234285D01*
X163138571Y-104277142D01*
X163052857Y-104277142D01*
X162410000Y-104234285D02*
X162495714Y-104277142D01*
X162667142Y-104277142D01*
X162752857Y-104234285D01*
X162795714Y-104148571D01*
X162795714Y-103805714D01*
X162752857Y-103720000D01*
X162667142Y-103677142D01*
X162495714Y-103677142D01*
X162410000Y-103720000D01*
X162367142Y-103805714D01*
X162367142Y-103891428D01*
X162795714Y-103977142D01*
X161595714Y-104277142D02*
X161595714Y-103377142D01*
X161595714Y-104234285D02*
X161681428Y-104277142D01*
X161852857Y-104277142D01*
X161938571Y-104234285D01*
X161981428Y-104191428D01*
X162024285Y-104105714D01*
X162024285Y-103848571D01*
X161981428Y-103762857D01*
X161938571Y-103720000D01*
X161852857Y-103677142D01*
X161681428Y-103677142D01*
X161595714Y-103720000D01*
X160481428Y-104277142D02*
X160481428Y-103377142D01*
X160481428Y-103720000D02*
X160395714Y-103677142D01*
X160224285Y-103677142D01*
X160138571Y-103720000D01*
X160095714Y-103762857D01*
X160052857Y-103848571D01*
X160052857Y-104105714D01*
X160095714Y-104191428D01*
X160138571Y-104234285D01*
X160224285Y-104277142D01*
X160395714Y-104277142D01*
X160481428Y-104234285D01*
X159752857Y-103677142D02*
X159538571Y-104277142D01*
X159324285Y-103677142D02*
X159538571Y-104277142D01*
X159624285Y-104491428D01*
X159667142Y-104534285D01*
X159752857Y-104577142D01*
X158424285Y-103677142D02*
X158081428Y-103677142D01*
X158295714Y-103377142D02*
X158295714Y-104148571D01*
X158252857Y-104234285D01*
X158167142Y-104277142D01*
X158081428Y-104277142D01*
X157781428Y-104277142D02*
X157781428Y-103377142D01*
X157395714Y-104277142D02*
X157395714Y-103805714D01*
X157438571Y-103720000D01*
X157524285Y-103677142D01*
X157652857Y-103677142D01*
X157738571Y-103720000D01*
X157781428Y-103762857D01*
X156624285Y-104234285D02*
X156710000Y-104277142D01*
X156881428Y-104277142D01*
X156967142Y-104234285D01*
X157010000Y-104148571D01*
X157010000Y-103805714D01*
X156967142Y-103720000D01*
X156881428Y-103677142D01*
X156710000Y-103677142D01*
X156624285Y-103720000D01*
X156581428Y-103805714D01*
X156581428Y-103891428D01*
X157010000Y-103977142D01*
X155595714Y-103377142D02*
X154995714Y-103377142D01*
X155595714Y-104277142D01*
X154995714Y-104277142D01*
X154738571Y-103377142D02*
X154138571Y-104277142D01*
X154138571Y-103377142D02*
X154738571Y-104277142D01*
X153795714Y-103377142D02*
X153795714Y-104105714D01*
X153752857Y-104191428D01*
X153710000Y-104234285D01*
X153624285Y-104277142D01*
X153452857Y-104277142D01*
X153367142Y-104234285D01*
X153324285Y-104191428D01*
X153281428Y-104105714D01*
X153281428Y-103377142D01*
X152852857Y-103677142D02*
X152852857Y-104277142D01*
X152852857Y-103762857D02*
X152810000Y-103720000D01*
X152724285Y-103677142D01*
X152595714Y-103677142D01*
X152510000Y-103720000D01*
X152467142Y-103805714D01*
X152467142Y-104277142D01*
X151524285Y-104191428D02*
X151567142Y-104234285D01*
X151695714Y-104277142D01*
X151781428Y-104277142D01*
X151910000Y-104234285D01*
X151995714Y-104148571D01*
X152038571Y-104062857D01*
X152081428Y-103891428D01*
X152081428Y-103762857D01*
X152038571Y-103591428D01*
X151995714Y-103505714D01*
X151910000Y-103420000D01*
X151781428Y-103377142D01*
X151695714Y-103377142D01*
X151567142Y-103420000D01*
X151524285Y-103462857D01*
X151010000Y-104277142D02*
X151095714Y-104234285D01*
X151138571Y-104191428D01*
X151181428Y-104105714D01*
X151181428Y-103848571D01*
X151138571Y-103762857D01*
X151095714Y-103720000D01*
X151010000Y-103677142D01*
X150881428Y-103677142D01*
X150795714Y-103720000D01*
X150752857Y-103762857D01*
X150710000Y-103848571D01*
X150710000Y-104105714D01*
X150752857Y-104191428D01*
X150795714Y-104234285D01*
X150881428Y-104277142D01*
X151010000Y-104277142D01*
X150324285Y-104277142D02*
X150324285Y-103677142D01*
X150324285Y-103848571D02*
X150281428Y-103762857D01*
X150238571Y-103720000D01*
X150152857Y-103677142D01*
X150067142Y-103677142D01*
X149424285Y-104234285D02*
X149510000Y-104277142D01*
X149681428Y-104277142D01*
X149767142Y-104234285D01*
X149810000Y-104148571D01*
X149810000Y-103805714D01*
X149767142Y-103720000D01*
X149681428Y-103677142D01*
X149510000Y-103677142D01*
X149424285Y-103720000D01*
X149381428Y-103805714D01*
X149381428Y-103891428D01*
X149810000Y-103977142D01*
X148438571Y-103377142D02*
X147924285Y-103377142D01*
X148181428Y-104277142D02*
X148181428Y-103377142D01*
X147624285Y-103805714D02*
X147324285Y-103805714D01*
X147195714Y-104277142D02*
X147624285Y-104277142D01*
X147624285Y-103377142D01*
X147195714Y-103377142D01*
X146852857Y-104020000D02*
X146424285Y-104020000D01*
X146938571Y-104277142D02*
X146638571Y-103377142D01*
X146338571Y-104277142D01*
X146038571Y-104277142D02*
X146038571Y-103377142D01*
X145738571Y-104020000D01*
X145438571Y-103377142D01*
X145438571Y-104277142D01*
X145010000Y-104191428D02*
X144967142Y-104234285D01*
X145010000Y-104277142D01*
X145052857Y-104234285D01*
X145010000Y-104191428D01*
X145010000Y-104277142D01*
X145010000Y-103720000D02*
X144967142Y-103762857D01*
X145010000Y-103805714D01*
X145052857Y-103762857D01*
X145010000Y-103720000D01*
X145010000Y-103805714D01*
X182938571Y-105784285D02*
X182810000Y-105827142D01*
X182595714Y-105827142D01*
X182510000Y-105784285D01*
X182467142Y-105741428D01*
X182424285Y-105655714D01*
X182424285Y-105570000D01*
X182467142Y-105484285D01*
X182510000Y-105441428D01*
X182595714Y-105398571D01*
X182767142Y-105355714D01*
X182852857Y-105312857D01*
X182895714Y-105270000D01*
X182938571Y-105184285D01*
X182938571Y-105098571D01*
X182895714Y-105012857D01*
X182852857Y-104970000D01*
X182767142Y-104927142D01*
X182552857Y-104927142D01*
X182424285Y-104970000D01*
X181652857Y-105227142D02*
X181652857Y-105827142D01*
X182038571Y-105227142D02*
X182038571Y-105698571D01*
X181995714Y-105784285D01*
X181910000Y-105827142D01*
X181781428Y-105827142D01*
X181695714Y-105784285D01*
X181652857Y-105741428D01*
X181224285Y-105227142D02*
X181224285Y-106127142D01*
X181224285Y-105270000D02*
X181138571Y-105227142D01*
X180967142Y-105227142D01*
X180881428Y-105270000D01*
X180838571Y-105312857D01*
X180795714Y-105398571D01*
X180795714Y-105655714D01*
X180838571Y-105741428D01*
X180881428Y-105784285D01*
X180967142Y-105827142D01*
X181138571Y-105827142D01*
X181224285Y-105784285D01*
X180067142Y-105784285D02*
X180152857Y-105827142D01*
X180324285Y-105827142D01*
X180410000Y-105784285D01*
X180452857Y-105698571D01*
X180452857Y-105355714D01*
X180410000Y-105270000D01*
X180324285Y-105227142D01*
X180152857Y-105227142D01*
X180067142Y-105270000D01*
X180024285Y-105355714D01*
X180024285Y-105441428D01*
X180452857Y-105527142D01*
X179638571Y-105827142D02*
X179638571Y-105227142D01*
X179638571Y-105398571D02*
X179595714Y-105312857D01*
X179552857Y-105270000D01*
X179467142Y-105227142D01*
X179381428Y-105227142D01*
X179210000Y-105227142D02*
X178867142Y-105227142D01*
X179081428Y-105827142D02*
X179081428Y-105055714D01*
X179038571Y-104970000D01*
X178952857Y-104927142D01*
X178867142Y-104927142D01*
X178438571Y-105827142D02*
X178524285Y-105784285D01*
X178567142Y-105741428D01*
X178610000Y-105655714D01*
X178610000Y-105398571D01*
X178567142Y-105312857D01*
X178524285Y-105270000D01*
X178438571Y-105227142D01*
X178310000Y-105227142D01*
X178224285Y-105270000D01*
X178181428Y-105312857D01*
X178138571Y-105398571D01*
X178138571Y-105655714D01*
X178181428Y-105741428D01*
X178224285Y-105784285D01*
X178310000Y-105827142D01*
X178438571Y-105827142D01*
X177710000Y-105784285D02*
X177710000Y-105827142D01*
X177752857Y-105912857D01*
X177795714Y-105955714D01*
X176681428Y-105570000D02*
X176252857Y-105570000D01*
X176767142Y-105827142D02*
X176467142Y-104927142D01*
X176167142Y-105827142D01*
X175995714Y-104927142D02*
X175695714Y-105827142D01*
X175395714Y-104927142D01*
X175095714Y-105827142D02*
X175095714Y-105227142D01*
X175095714Y-104927142D02*
X175138571Y-104970000D01*
X175095714Y-105012857D01*
X175052857Y-104970000D01*
X175095714Y-104927142D01*
X175095714Y-105012857D01*
X174538571Y-105827142D02*
X174624285Y-105784285D01*
X174667142Y-105698571D01*
X174667142Y-104927142D01*
X174067142Y-105827142D02*
X174152857Y-105784285D01*
X174195714Y-105698571D01*
X174195714Y-104927142D01*
X173381428Y-105784285D02*
X173467142Y-105827142D01*
X173638571Y-105827142D01*
X173724285Y-105784285D01*
X173767142Y-105698571D01*
X173767142Y-105355714D01*
X173724285Y-105270000D01*
X173638571Y-105227142D01*
X173467142Y-105227142D01*
X173381428Y-105270000D01*
X173338571Y-105355714D01*
X173338571Y-105441428D01*
X173767142Y-105527142D01*
X172952857Y-105227142D02*
X172952857Y-105827142D01*
X172952857Y-105312857D02*
X172910000Y-105270000D01*
X172824285Y-105227142D01*
X172695714Y-105227142D01*
X172610000Y-105270000D01*
X172567142Y-105355714D01*
X172567142Y-105827142D01*
X171752857Y-105827142D02*
X171752857Y-105355714D01*
X171795714Y-105270000D01*
X171881428Y-105227142D01*
X172052857Y-105227142D01*
X172138571Y-105270000D01*
X171752857Y-105784285D02*
X171838571Y-105827142D01*
X172052857Y-105827142D01*
X172138571Y-105784285D01*
X172181428Y-105698571D01*
X172181428Y-105612857D01*
X172138571Y-105527142D01*
X172052857Y-105484285D01*
X171838571Y-105484285D01*
X171752857Y-105441428D01*
X171281428Y-105784285D02*
X171281428Y-105827142D01*
X171324285Y-105912857D01*
X171367142Y-105955714D01*
X170210000Y-105827142D02*
X170210000Y-104927142D01*
X169910000Y-105570000D01*
X169610000Y-104927142D01*
X169610000Y-105827142D01*
X168795714Y-105784285D02*
X168881428Y-105827142D01*
X169052857Y-105827142D01*
X169138571Y-105784285D01*
X169181428Y-105741428D01*
X169224285Y-105655714D01*
X169224285Y-105398571D01*
X169181428Y-105312857D01*
X169138571Y-105270000D01*
X169052857Y-105227142D01*
X168881428Y-105227142D01*
X168795714Y-105270000D01*
X167981428Y-105827142D02*
X168410000Y-105827142D01*
X168410000Y-104927142D01*
X167338571Y-105784285D02*
X167424285Y-105827142D01*
X167595714Y-105827142D01*
X167681428Y-105784285D01*
X167724285Y-105698571D01*
X167724285Y-105355714D01*
X167681428Y-105270000D01*
X167595714Y-105227142D01*
X167424285Y-105227142D01*
X167338571Y-105270000D01*
X167295714Y-105355714D01*
X167295714Y-105441428D01*
X167724285Y-105527142D01*
X166781428Y-105827142D02*
X166867142Y-105784285D01*
X166910000Y-105741428D01*
X166952857Y-105655714D01*
X166952857Y-105398571D01*
X166910000Y-105312857D01*
X166867142Y-105270000D01*
X166781428Y-105227142D01*
X166652857Y-105227142D01*
X166567142Y-105270000D01*
X166524285Y-105312857D01*
X166481428Y-105398571D01*
X166481428Y-105655714D01*
X166524285Y-105741428D01*
X166567142Y-105784285D01*
X166652857Y-105827142D01*
X166781428Y-105827142D01*
X165710000Y-105827142D02*
X165710000Y-104927142D01*
X165710000Y-105784285D02*
X165795714Y-105827142D01*
X165967142Y-105827142D01*
X166052857Y-105784285D01*
X166095714Y-105741428D01*
X166138571Y-105655714D01*
X166138571Y-105398571D01*
X166095714Y-105312857D01*
X166052857Y-105270000D01*
X165967142Y-105227142D01*
X165795714Y-105227142D01*
X165710000Y-105270000D01*
X165238571Y-105784285D02*
X165238571Y-105827142D01*
X165281428Y-105912857D01*
X165324285Y-105955714D01*
X163567142Y-105912857D02*
X163652857Y-105870000D01*
X163738571Y-105784285D01*
X163867142Y-105655714D01*
X163952857Y-105612857D01*
X164038571Y-105612857D01*
X163995714Y-105827142D02*
X164081428Y-105784285D01*
X164167142Y-105698571D01*
X164210000Y-105527142D01*
X164210000Y-105227142D01*
X164167142Y-105055714D01*
X164081428Y-104970000D01*
X163995714Y-104927142D01*
X163824285Y-104927142D01*
X163738571Y-104970000D01*
X163652857Y-105055714D01*
X163610000Y-105227142D01*
X163610000Y-105527142D01*
X163652857Y-105698571D01*
X163738571Y-105784285D01*
X163824285Y-105827142D01*
X163995714Y-105827142D01*
X162838571Y-105227142D02*
X162838571Y-105827142D01*
X163224285Y-105227142D02*
X163224285Y-105698571D01*
X163181428Y-105784285D01*
X163095714Y-105827142D01*
X162967142Y-105827142D01*
X162881428Y-105784285D01*
X162838571Y-105741428D01*
X162067142Y-105784285D02*
X162152857Y-105827142D01*
X162324285Y-105827142D01*
X162410000Y-105784285D01*
X162452857Y-105698571D01*
X162452857Y-105355714D01*
X162410000Y-105270000D01*
X162324285Y-105227142D01*
X162152857Y-105227142D01*
X162067142Y-105270000D01*
X162024285Y-105355714D01*
X162024285Y-105441428D01*
X162452857Y-105527142D01*
X161681428Y-105784285D02*
X161595714Y-105827142D01*
X161424285Y-105827142D01*
X161338571Y-105784285D01*
X161295714Y-105698571D01*
X161295714Y-105655714D01*
X161338571Y-105570000D01*
X161424285Y-105527142D01*
X161552857Y-105527142D01*
X161638571Y-105484285D01*
X161681428Y-105398571D01*
X161681428Y-105355714D01*
X161638571Y-105270000D01*
X161552857Y-105227142D01*
X161424285Y-105227142D01*
X161338571Y-105270000D01*
X161038571Y-105227142D02*
X160695714Y-105227142D01*
X160910000Y-104927142D02*
X160910000Y-105698571D01*
X160867142Y-105784285D01*
X160781428Y-105827142D01*
X160695714Y-105827142D01*
X160352857Y-105784285D02*
X160352857Y-105827142D01*
X160395714Y-105912857D01*
X160438571Y-105955714D01*
X159281428Y-105827142D02*
X159281428Y-104927142D01*
X159281428Y-105355714D02*
X158767142Y-105355714D01*
X158767142Y-105827142D02*
X158767142Y-104927142D01*
X157952857Y-105827142D02*
X157952857Y-105355714D01*
X157995714Y-105270000D01*
X158081428Y-105227142D01*
X158252857Y-105227142D01*
X158338571Y-105270000D01*
X157952857Y-105784285D02*
X158038571Y-105827142D01*
X158252857Y-105827142D01*
X158338571Y-105784285D01*
X158381428Y-105698571D01*
X158381428Y-105612857D01*
X158338571Y-105527142D01*
X158252857Y-105484285D01*
X158038571Y-105484285D01*
X157952857Y-105441428D01*
X157524285Y-105827142D02*
X157524285Y-105227142D01*
X157524285Y-105398571D02*
X157481428Y-105312857D01*
X157438571Y-105270000D01*
X157352857Y-105227142D01*
X157267142Y-105227142D01*
X156967142Y-105827142D02*
X156967142Y-104927142D01*
X156881428Y-105484285D02*
X156624285Y-105827142D01*
X156624285Y-105227142D02*
X156967142Y-105570000D01*
X156067142Y-104927142D02*
X155981428Y-104927142D01*
X155895714Y-104970000D01*
X155852857Y-105012857D01*
X155810000Y-105098571D01*
X155767142Y-105270000D01*
X155767142Y-105484285D01*
X155810000Y-105655714D01*
X155852857Y-105741428D01*
X155895714Y-105784285D01*
X155981428Y-105827142D01*
X156067142Y-105827142D01*
X156152857Y-105784285D01*
X156195714Y-105741428D01*
X156238571Y-105655714D01*
X156281428Y-105484285D01*
X156281428Y-105270000D01*
X156238571Y-105098571D01*
X156195714Y-105012857D01*
X156152857Y-104970000D01*
X156067142Y-104927142D01*
X155381428Y-105741428D02*
X155338571Y-105784285D01*
X155381428Y-105827142D01*
X155424285Y-105784285D01*
X155381428Y-105741428D01*
X155381428Y-105827142D01*
M02*
