G04 #@! TF.GenerationSoftware,KiCad,Pcbnew,(5.1.9)-1*
G04 #@! TF.CreationDate,2021-06-19T06:27:31+02:00*
G04 #@! TF.ProjectId,ZXUnCore,5a58556e-436f-4726-952e-6b696361645f,rev?*
G04 #@! TF.SameCoordinates,Original*
G04 #@! TF.FileFunction,Paste,Top*
G04 #@! TF.FilePolarity,Positive*
%FSLAX46Y46*%
G04 Gerber Fmt 4.6, Leading zero omitted, Abs format (unit mm)*
G04 Created by KiCad (PCBNEW (5.1.9)-1) date 2021-06-19 06:27:31*
%MOMM*%
%LPD*%
G01*
G04 APERTURE LIST*
%ADD10R,2.700000X2.100000*%
%ADD11R,1.400000X1.150000*%
%ADD12R,2.209800X0.609600*%
%ADD13R,0.300000X1.600000*%
%ADD14R,1.600000X0.300000*%
%ADD15R,1.500000X2.000000*%
%ADD16R,3.800000X2.000000*%
%ADD17R,1.300000X0.320000*%
G04 APERTURE END LIST*
D10*
X168270000Y-81730000D03*
X162970000Y-81730000D03*
X162970000Y-85130000D03*
X168270000Y-85130000D03*
G36*
G01*
X169300002Y-67760000D02*
X168399998Y-67760000D01*
G75*
G02*
X168150000Y-67510002I0J249998D01*
G01*
X168150000Y-66984998D01*
G75*
G02*
X168399998Y-66735000I249998J0D01*
G01*
X169300002Y-66735000D01*
G75*
G02*
X169550000Y-66984998I0J-249998D01*
G01*
X169550000Y-67510002D01*
G75*
G02*
X169300002Y-67760000I-249998J0D01*
G01*
G37*
G36*
G01*
X169300002Y-69585000D02*
X168399998Y-69585000D01*
G75*
G02*
X168150000Y-69335002I0J249998D01*
G01*
X168150000Y-68809998D01*
G75*
G02*
X168399998Y-68560000I249998J0D01*
G01*
X169300002Y-68560000D01*
G75*
G02*
X169550000Y-68809998I0J-249998D01*
G01*
X169550000Y-69335002D01*
G75*
G02*
X169300002Y-69585000I-249998J0D01*
G01*
G37*
G36*
G01*
X179919998Y-68160000D02*
X180820002Y-68160000D01*
G75*
G02*
X181070000Y-68409998I0J-249998D01*
G01*
X181070000Y-68935002D01*
G75*
G02*
X180820002Y-69185000I-249998J0D01*
G01*
X179919998Y-69185000D01*
G75*
G02*
X179670000Y-68935002I0J249998D01*
G01*
X179670000Y-68409998D01*
G75*
G02*
X179919998Y-68160000I249998J0D01*
G01*
G37*
G36*
G01*
X179919998Y-66335000D02*
X180820002Y-66335000D01*
G75*
G02*
X181070000Y-66584998I0J-249998D01*
G01*
X181070000Y-67110002D01*
G75*
G02*
X180820002Y-67360000I-249998J0D01*
G01*
X179919998Y-67360000D01*
G75*
G02*
X179670000Y-67110002I0J249998D01*
G01*
X179670000Y-66584998D01*
G75*
G02*
X179919998Y-66335000I249998J0D01*
G01*
G37*
D11*
X166670000Y-84440000D03*
X164470000Y-84440000D03*
X164470000Y-82840000D03*
X166670000Y-82840000D03*
D12*
X178132800Y-71545000D03*
X178132800Y-72815000D03*
X178132800Y-74085000D03*
X178132800Y-75355000D03*
X171401800Y-75355000D03*
X171401800Y-74085000D03*
X171401800Y-72815000D03*
X171401800Y-71545000D03*
D13*
X127710930Y-104682691D03*
X128210930Y-104682691D03*
X128710930Y-104682691D03*
X129210930Y-104682691D03*
X129710930Y-104682691D03*
X130210930Y-104682691D03*
X130710930Y-104682691D03*
X131210930Y-104682691D03*
X131710930Y-104682691D03*
X132210930Y-104682691D03*
X132710930Y-104682691D03*
X133210930Y-104682691D03*
X133710930Y-104682691D03*
X134210930Y-104682691D03*
X134710930Y-104682691D03*
X135210930Y-104682691D03*
X135710930Y-104682691D03*
X136210930Y-104682691D03*
X136710930Y-104682691D03*
X137210930Y-104682691D03*
X137710930Y-104682691D03*
X138210930Y-104682691D03*
X138710930Y-104682691D03*
X139210930Y-104682691D03*
X139710930Y-104682691D03*
X140210930Y-104682691D03*
X140710930Y-104682691D03*
X141210930Y-104682691D03*
X141710930Y-104682691D03*
X142210930Y-104682691D03*
X142710930Y-104682691D03*
X143210930Y-104682691D03*
X143710930Y-104682691D03*
X144210930Y-104682691D03*
X144710930Y-104682691D03*
X145210930Y-104682691D03*
D14*
X147560930Y-102332691D03*
X147560930Y-101832691D03*
X147560930Y-101332691D03*
X147560930Y-100832691D03*
X147560930Y-100332691D03*
X147560930Y-99832691D03*
X147560930Y-99332691D03*
X147560930Y-98832691D03*
X147560930Y-98332691D03*
X147560930Y-97832691D03*
X147560930Y-97332691D03*
X147560930Y-96832691D03*
X147560930Y-96332691D03*
X147560930Y-95832691D03*
X147560930Y-95332691D03*
X147560930Y-94832691D03*
X147560930Y-94332691D03*
X147560930Y-93832691D03*
X147560930Y-93332691D03*
X147560930Y-92832691D03*
X147560930Y-92332691D03*
X147560930Y-91832691D03*
X147560930Y-91332691D03*
X147560930Y-90832691D03*
X147560930Y-90332691D03*
X147560930Y-89832691D03*
X147560930Y-89332691D03*
X147560930Y-88832691D03*
X147560930Y-88332691D03*
X147560930Y-87832691D03*
X147560930Y-87332691D03*
X147560930Y-86832691D03*
X147560930Y-86332691D03*
X147560930Y-85832691D03*
X147560930Y-85332691D03*
X147560930Y-84832691D03*
D13*
X145210930Y-82482691D03*
X144710930Y-82482691D03*
X144210930Y-82482691D03*
X143710930Y-82482691D03*
X143210930Y-82482691D03*
X142710930Y-82482691D03*
X142210930Y-82482691D03*
X141710930Y-82482691D03*
X141210930Y-82482691D03*
X140710930Y-82482691D03*
X140210930Y-82482691D03*
X139710930Y-82482691D03*
X139210930Y-82482691D03*
X138710930Y-82482691D03*
X138210930Y-82482691D03*
X137710930Y-82482691D03*
X137210930Y-82482691D03*
X136710930Y-82482691D03*
X136210930Y-82482691D03*
X135710930Y-82482691D03*
X135210930Y-82482691D03*
X134710930Y-82482691D03*
X134210930Y-82482691D03*
X133710930Y-82482691D03*
X133210930Y-82482691D03*
X132710930Y-82482691D03*
X132210930Y-82482691D03*
X131710930Y-82482691D03*
X131210930Y-82482691D03*
X130710930Y-82482691D03*
X130210930Y-82482691D03*
X129710930Y-82482691D03*
X129210930Y-82482691D03*
X128710930Y-82482691D03*
X128210930Y-82482691D03*
X127710930Y-82482691D03*
D14*
X125360930Y-84832691D03*
X125360930Y-85332691D03*
X125360930Y-85832691D03*
X125360930Y-86332691D03*
X125360930Y-86832691D03*
X125360930Y-87332691D03*
X125360930Y-87832691D03*
X125360930Y-88332691D03*
X125360930Y-88832691D03*
X125360930Y-89332691D03*
X125360930Y-89832691D03*
X125360930Y-90332691D03*
X125360930Y-90832691D03*
X125360930Y-91332691D03*
X125360930Y-91832691D03*
X125360930Y-92332691D03*
X125360930Y-92832691D03*
X125360930Y-93332691D03*
X125360930Y-93832691D03*
X125360930Y-94332691D03*
X125360930Y-94832691D03*
X125360930Y-95332691D03*
X125360930Y-95832691D03*
X125360930Y-96332691D03*
X125360930Y-96832691D03*
X125360930Y-97332691D03*
X125360930Y-97832691D03*
X125360930Y-98332691D03*
X125360930Y-98832691D03*
X125360930Y-99332691D03*
X125360930Y-99832691D03*
X125360930Y-100332691D03*
X125360930Y-100832691D03*
X125360930Y-101332691D03*
X125360930Y-101832691D03*
X125360930Y-102332691D03*
G36*
G01*
X174955000Y-104930000D02*
X174005000Y-104930000D01*
G75*
G02*
X173755000Y-104680000I0J250000D01*
G01*
X173755000Y-104180000D01*
G75*
G02*
X174005000Y-103930000I250000J0D01*
G01*
X174955000Y-103930000D01*
G75*
G02*
X175205000Y-104180000I0J-250000D01*
G01*
X175205000Y-104680000D01*
G75*
G02*
X174955000Y-104930000I-250000J0D01*
G01*
G37*
G36*
G01*
X174955000Y-106830000D02*
X174005000Y-106830000D01*
G75*
G02*
X173755000Y-106580000I0J250000D01*
G01*
X173755000Y-106080000D01*
G75*
G02*
X174005000Y-105830000I250000J0D01*
G01*
X174955000Y-105830000D01*
G75*
G02*
X175205000Y-106080000I0J-250000D01*
G01*
X175205000Y-106580000D01*
G75*
G02*
X174955000Y-106830000I-250000J0D01*
G01*
G37*
G36*
G01*
X176135000Y-105830000D02*
X177085000Y-105830000D01*
G75*
G02*
X177335000Y-106080000I0J-250000D01*
G01*
X177335000Y-106580000D01*
G75*
G02*
X177085000Y-106830000I-250000J0D01*
G01*
X176135000Y-106830000D01*
G75*
G02*
X175885000Y-106580000I0J250000D01*
G01*
X175885000Y-106080000D01*
G75*
G02*
X176135000Y-105830000I250000J0D01*
G01*
G37*
G36*
G01*
X176135000Y-103930000D02*
X177085000Y-103930000D01*
G75*
G02*
X177335000Y-104180000I0J-250000D01*
G01*
X177335000Y-104680000D01*
G75*
G02*
X177085000Y-104930000I-250000J0D01*
G01*
X176135000Y-104930000D01*
G75*
G02*
X175885000Y-104680000I0J250000D01*
G01*
X175885000Y-104180000D01*
G75*
G02*
X176135000Y-103930000I250000J0D01*
G01*
G37*
G36*
G01*
X174955000Y-85060000D02*
X174005000Y-85060000D01*
G75*
G02*
X173755000Y-84810000I0J250000D01*
G01*
X173755000Y-84310000D01*
G75*
G02*
X174005000Y-84060000I250000J0D01*
G01*
X174955000Y-84060000D01*
G75*
G02*
X175205000Y-84310000I0J-250000D01*
G01*
X175205000Y-84810000D01*
G75*
G02*
X174955000Y-85060000I-250000J0D01*
G01*
G37*
G36*
G01*
X174955000Y-86960000D02*
X174005000Y-86960000D01*
G75*
G02*
X173755000Y-86710000I0J250000D01*
G01*
X173755000Y-86210000D01*
G75*
G02*
X174005000Y-85960000I250000J0D01*
G01*
X174955000Y-85960000D01*
G75*
G02*
X175205000Y-86210000I0J-250000D01*
G01*
X175205000Y-86710000D01*
G75*
G02*
X174955000Y-86960000I-250000J0D01*
G01*
G37*
G36*
G01*
X177085000Y-85060000D02*
X176135000Y-85060000D01*
G75*
G02*
X175885000Y-84810000I0J250000D01*
G01*
X175885000Y-84310000D01*
G75*
G02*
X176135000Y-84060000I250000J0D01*
G01*
X177085000Y-84060000D01*
G75*
G02*
X177335000Y-84310000I0J-250000D01*
G01*
X177335000Y-84810000D01*
G75*
G02*
X177085000Y-85060000I-250000J0D01*
G01*
G37*
G36*
G01*
X177085000Y-86960000D02*
X176135000Y-86960000D01*
G75*
G02*
X175885000Y-86710000I0J250000D01*
G01*
X175885000Y-86210000D01*
G75*
G02*
X176135000Y-85960000I250000J0D01*
G01*
X177085000Y-85960000D01*
G75*
G02*
X177335000Y-86210000I0J-250000D01*
G01*
X177335000Y-86710000D01*
G75*
G02*
X177085000Y-86960000I-250000J0D01*
G01*
G37*
G36*
G01*
X147360000Y-82005000D02*
X147360000Y-82955000D01*
G75*
G02*
X147110000Y-83205000I-250000J0D01*
G01*
X146610000Y-83205000D01*
G75*
G02*
X146360000Y-82955000I0J250000D01*
G01*
X146360000Y-82005000D01*
G75*
G02*
X146610000Y-81755000I250000J0D01*
G01*
X147110000Y-81755000D01*
G75*
G02*
X147360000Y-82005000I0J-250000D01*
G01*
G37*
G36*
G01*
X149260000Y-82005000D02*
X149260000Y-82955000D01*
G75*
G02*
X149010000Y-83205000I-250000J0D01*
G01*
X148510000Y-83205000D01*
G75*
G02*
X148260000Y-82955000I0J250000D01*
G01*
X148260000Y-82005000D01*
G75*
G02*
X148510000Y-81755000I250000J0D01*
G01*
X149010000Y-81755000D01*
G75*
G02*
X149260000Y-82005000I0J-250000D01*
G01*
G37*
G36*
G01*
X148160000Y-105155000D02*
X148160000Y-104205000D01*
G75*
G02*
X148410000Y-103955000I250000J0D01*
G01*
X148910000Y-103955000D01*
G75*
G02*
X149160000Y-104205000I0J-250000D01*
G01*
X149160000Y-105155000D01*
G75*
G02*
X148910000Y-105405000I-250000J0D01*
G01*
X148410000Y-105405000D01*
G75*
G02*
X148160000Y-105155000I0J250000D01*
G01*
G37*
G36*
G01*
X146260000Y-105155000D02*
X146260000Y-104205000D01*
G75*
G02*
X146510000Y-103955000I250000J0D01*
G01*
X147010000Y-103955000D01*
G75*
G02*
X147260000Y-104205000I0J-250000D01*
G01*
X147260000Y-105155000D01*
G75*
G02*
X147010000Y-105405000I-250000J0D01*
G01*
X146510000Y-105405000D01*
G75*
G02*
X146260000Y-105155000I0J250000D01*
G01*
G37*
G36*
G01*
X125580000Y-82955000D02*
X125580000Y-82005000D01*
G75*
G02*
X125830000Y-81755000I250000J0D01*
G01*
X126330000Y-81755000D01*
G75*
G02*
X126580000Y-82005000I0J-250000D01*
G01*
X126580000Y-82955000D01*
G75*
G02*
X126330000Y-83205000I-250000J0D01*
G01*
X125830000Y-83205000D01*
G75*
G02*
X125580000Y-82955000I0J250000D01*
G01*
G37*
G36*
G01*
X123680000Y-82955000D02*
X123680000Y-82005000D01*
G75*
G02*
X123930000Y-81755000I250000J0D01*
G01*
X124430000Y-81755000D01*
G75*
G02*
X124680000Y-82005000I0J-250000D01*
G01*
X124680000Y-82955000D01*
G75*
G02*
X124430000Y-83205000I-250000J0D01*
G01*
X123930000Y-83205000D01*
G75*
G02*
X123680000Y-82955000I0J250000D01*
G01*
G37*
G36*
G01*
X124730000Y-104285000D02*
X124730000Y-105235000D01*
G75*
G02*
X124480000Y-105485000I-250000J0D01*
G01*
X123980000Y-105485000D01*
G75*
G02*
X123730000Y-105235000I0J250000D01*
G01*
X123730000Y-104285000D01*
G75*
G02*
X123980000Y-104035000I250000J0D01*
G01*
X124480000Y-104035000D01*
G75*
G02*
X124730000Y-104285000I0J-250000D01*
G01*
G37*
G36*
G01*
X126630000Y-104285000D02*
X126630000Y-105235000D01*
G75*
G02*
X126380000Y-105485000I-250000J0D01*
G01*
X125880000Y-105485000D01*
G75*
G02*
X125630000Y-105235000I0J250000D01*
G01*
X125630000Y-104285000D01*
G75*
G02*
X125880000Y-104035000I250000J0D01*
G01*
X126380000Y-104035000D01*
G75*
G02*
X126630000Y-104285000I0J-250000D01*
G01*
G37*
G36*
G01*
X106617180Y-93794566D02*
X107567180Y-93794566D01*
G75*
G02*
X107817180Y-94044566I0J-250000D01*
G01*
X107817180Y-94544566D01*
G75*
G02*
X107567180Y-94794566I-250000J0D01*
G01*
X106617180Y-94794566D01*
G75*
G02*
X106367180Y-94544566I0J250000D01*
G01*
X106367180Y-94044566D01*
G75*
G02*
X106617180Y-93794566I250000J0D01*
G01*
G37*
G36*
G01*
X106617180Y-91894566D02*
X107567180Y-91894566D01*
G75*
G02*
X107817180Y-92144566I0J-250000D01*
G01*
X107817180Y-92644566D01*
G75*
G02*
X107567180Y-92894566I-250000J0D01*
G01*
X106617180Y-92894566D01*
G75*
G02*
X106367180Y-92644566I0J250000D01*
G01*
X106367180Y-92144566D01*
G75*
G02*
X106617180Y-91894566I250000J0D01*
G01*
G37*
D15*
X179160000Y-104520000D03*
X183760000Y-104520000D03*
X181460000Y-104520000D03*
D16*
X181460000Y-98220000D03*
D15*
X179180000Y-91710000D03*
X183780000Y-91710000D03*
X181480000Y-91710000D03*
D16*
X181480000Y-85410000D03*
G36*
G01*
X175059998Y-97890000D02*
X175960002Y-97890000D01*
G75*
G02*
X176210000Y-98139998I0J-249998D01*
G01*
X176210000Y-98665002D01*
G75*
G02*
X175960002Y-98915000I-249998J0D01*
G01*
X175059998Y-98915000D01*
G75*
G02*
X174810000Y-98665002I0J249998D01*
G01*
X174810000Y-98139998D01*
G75*
G02*
X175059998Y-97890000I249998J0D01*
G01*
G37*
G36*
G01*
X175059998Y-96065000D02*
X175960002Y-96065000D01*
G75*
G02*
X176210000Y-96314998I0J-249998D01*
G01*
X176210000Y-96840002D01*
G75*
G02*
X175960002Y-97090000I-249998J0D01*
G01*
X175059998Y-97090000D01*
G75*
G02*
X174810000Y-96840002I0J249998D01*
G01*
X174810000Y-96314998D01*
G75*
G02*
X175059998Y-96065000I249998J0D01*
G01*
G37*
G36*
G01*
X175960002Y-93130000D02*
X175059998Y-93130000D01*
G75*
G02*
X174810000Y-92880002I0J249998D01*
G01*
X174810000Y-92354998D01*
G75*
G02*
X175059998Y-92105000I249998J0D01*
G01*
X175960002Y-92105000D01*
G75*
G02*
X176210000Y-92354998I0J-249998D01*
G01*
X176210000Y-92880002D01*
G75*
G02*
X175960002Y-93130000I-249998J0D01*
G01*
G37*
G36*
G01*
X175960002Y-94955000D02*
X175059998Y-94955000D01*
G75*
G02*
X174810000Y-94705002I0J249998D01*
G01*
X174810000Y-94179998D01*
G75*
G02*
X175059998Y-93930000I249998J0D01*
G01*
X175960002Y-93930000D01*
G75*
G02*
X176210000Y-94179998I0J-249998D01*
G01*
X176210000Y-94705002D01*
G75*
G02*
X175960002Y-94955000I-249998J0D01*
G01*
G37*
G36*
G01*
X167005000Y-67710000D02*
X166055000Y-67710000D01*
G75*
G02*
X165805000Y-67460000I0J250000D01*
G01*
X165805000Y-66960000D01*
G75*
G02*
X166055000Y-66710000I250000J0D01*
G01*
X167005000Y-66710000D01*
G75*
G02*
X167255000Y-66960000I0J-250000D01*
G01*
X167255000Y-67460000D01*
G75*
G02*
X167005000Y-67710000I-250000J0D01*
G01*
G37*
G36*
G01*
X167005000Y-69610000D02*
X166055000Y-69610000D01*
G75*
G02*
X165805000Y-69360000I0J250000D01*
G01*
X165805000Y-68860000D01*
G75*
G02*
X166055000Y-68610000I250000J0D01*
G01*
X167005000Y-68610000D01*
G75*
G02*
X167255000Y-68860000I0J-250000D01*
G01*
X167255000Y-69360000D01*
G75*
G02*
X167005000Y-69610000I-250000J0D01*
G01*
G37*
D17*
X109070930Y-102220816D03*
X109070930Y-101420816D03*
X109070930Y-100620816D03*
X109070930Y-99820816D03*
X109070930Y-99020816D03*
X109070930Y-98220816D03*
X109070930Y-97420816D03*
X109070930Y-96620816D03*
X109070930Y-95820816D03*
X109070930Y-95020816D03*
X109070930Y-94220816D03*
X109070930Y-93420816D03*
X109070930Y-92620816D03*
X109070930Y-91820816D03*
X109070930Y-91020816D03*
X109070930Y-90220816D03*
X109070930Y-89420816D03*
X109070930Y-88620816D03*
X109070930Y-87820816D03*
X109070930Y-87020816D03*
X109070930Y-86220816D03*
X109070930Y-85420816D03*
X120670930Y-85420816D03*
X120670930Y-86220816D03*
X120670930Y-87020816D03*
X120670930Y-87820816D03*
X120670930Y-88620816D03*
X120670930Y-89420816D03*
X120670930Y-90220816D03*
X120670930Y-91020816D03*
X120670930Y-91820816D03*
X120670930Y-92620816D03*
X120670930Y-93420816D03*
X120670930Y-94220816D03*
X120670930Y-95020816D03*
X120670930Y-95820816D03*
X120670930Y-96620816D03*
X120670930Y-97420816D03*
X120670930Y-98220816D03*
X120670930Y-99020816D03*
X120670930Y-99820816D03*
X120670930Y-100620816D03*
X120670930Y-101420816D03*
X120670930Y-102220816D03*
M02*
