M48
; DRILL file {KiCad (5.1.9)-1} date 06/19/21 06:28:06
; FORMAT={-:-/ absolute / inch / decimal}
; #@! TF.CreationDate,2021-06-19T06:28:06+02:00
; #@! TF.GenerationSoftware,Kicad,Pcbnew,(5.1.9)-1
; #@! TF.FileFunction,Plated,1,2,PTH
FMAT,2
INCH
T1C0.0079
T2C0.0120
T3C0.0138
T4C0.0315
T5C0.0394
%
G90
G05
T1
X4.7599Y-3.3399
X4.822Y-3.3598
X5.0354Y-3.1957
X5.0669Y-3.1957
X5.2242Y-3.8374
X5.7508Y-3.1606
X5.8906Y-4.0094
X5.9169Y-3.5217
X5.9566Y-3.4777
X6.15Y-3.5213
X6.1803Y-3.4976
X6.2697Y-3.1969
X6.2756Y-3.0051
X6.3039Y-3.3528
X6.3271Y-3.6745
X6.4087Y-3.8024
X6.4689Y-2.7878
X6.5098Y-3.3535
X6.6559Y-3.1559
X6.6827Y-3.4673
X6.8449Y-3.7575
X6.8465Y-3.5531
X6.8575Y-3.122
X6.9106Y-3.4583
X6.9161Y-2.9685
X6.9531Y-4.2268
X7.0034Y-3.8298
X7.0821Y-3.7462
X7.1547Y-2.7622
T2
X4.3895Y-3.6989
X4.5781Y-3.7824
X4.6725Y-3.6862
X4.8701Y-3.7335
X5.0022Y-3.4186
X5.0022Y-3.7674
X5.0022Y-3.879
X5.0303Y-3.3661
X5.0311Y-3.6431
X5.0311Y-3.7406
X5.0311Y-3.851
X5.0334Y-3.9638
X5.0394Y-3.3085
X5.0968Y-4.0271
X5.1019Y-3.7151
X5.1265Y-3.3364
X5.136Y-4.026
X5.2633Y-3.3085
X5.264Y-4.0614
X5.3541Y-3.3085
X5.3738Y-3.987
X5.3771Y-3.3364
X5.4017Y-3.4155
X5.4021Y-4.0343
X5.4992Y-4.0614
X5.5063Y-3.3364
X5.5675Y-4.0343
X5.5794Y-3.3772
X5.588Y-3.332
X5.6236Y-3.3668
X5.6269Y-3.7326
X5.6606Y-3.4585
X5.6732Y-3.9992
X5.6733Y-3.6837
X5.6733Y-3.7929
X5.7112Y-3.447
X5.7139Y-3.5118
X5.7142Y-3.7092
X5.7142Y-3.9009
T3
X4.6986Y-3.8026
T4
X4.09Y-4.49
X4.09Y-4.5687
X4.1687Y-4.49
X4.1687Y-4.5687
X4.2475Y-4.49
X4.2475Y-4.5687
X4.3262Y-4.49
X4.3262Y-4.5687
X4.405Y-4.49
X4.405Y-4.5687
X4.4837Y-4.49
X4.4837Y-4.5687
X4.5624Y-4.49
X4.5624Y-4.5687
X4.6412Y-4.49
X4.6412Y-4.5687
X4.7199Y-4.49
X4.7199Y-4.5687
X4.7987Y-4.49
X4.7987Y-4.5687
X4.8774Y-4.49
X4.8774Y-4.5687
X4.9561Y-4.49
X4.9561Y-4.5687
X5.0349Y-4.49
X5.0349Y-4.5687
X5.1136Y-4.49
X5.1136Y-4.5687
X5.1924Y-4.49
X5.1924Y-4.5687
X5.2711Y-4.49
X5.2711Y-4.5687
X5.3498Y-4.49
X5.3498Y-4.5687
X5.4286Y-4.49
X5.4286Y-4.5687
X5.5073Y-4.49
X5.5073Y-4.5687
X5.5861Y-4.49
X5.5861Y-4.5687
X5.6648Y-4.49
X5.6648Y-4.5687
X5.7435Y-4.49
X5.7435Y-4.5687
X5.8223Y-4.49
X5.8223Y-4.5687
X5.901Y-4.49
X5.901Y-4.5687
X5.9798Y-4.49
X5.9798Y-4.5687
X6.0585Y-4.49
X6.0585Y-4.5687
X6.0638Y-2.6476
X6.0638Y-2.7476
X6.0638Y-2.8476
X6.0638Y-2.9476
X6.1372Y-4.49
X6.1372Y-4.5687
X6.216Y-4.49
X6.216Y-4.5687
X6.2947Y-4.49
X6.2947Y-4.5687
X6.3638Y-2.6476
X6.3638Y-2.7476
X6.3638Y-2.8476
X6.3638Y-2.9476
X6.3735Y-4.49
X6.3735Y-4.5687
X6.4522Y-4.49
X6.4522Y-4.5687
X6.5309Y-4.49
X6.5309Y-4.5687
X6.6097Y-4.49
X6.6097Y-4.5687
X6.6884Y-4.49
X6.6884Y-4.5687
X6.7672Y-4.49
X6.7672Y-4.5687
X6.8459Y-4.49
X6.8459Y-4.5687
X6.9246Y-4.49
X6.9246Y-4.5687
X7.0034Y-4.49
X7.0034Y-4.5687
X7.0821Y-4.49
X7.0821Y-4.5687
X7.1609Y-4.49
X7.1609Y-4.5687
T5
X5.2843Y-2.6496
X5.2843Y-2.7496
X5.3843Y-2.6496
X5.3843Y-2.7496
X5.4843Y-2.6496
X5.4843Y-2.7496
X5.5843Y-2.6496
X5.5843Y-2.7496
X5.6843Y-2.6496
X5.6843Y-2.7496
X6.7756Y-2.6327
X6.8756Y-2.6327
X6.9756Y-2.6327
T0
M30
